<svg width="28" height="34" viewBox="0 0 28 34" fill="none" xmlns="http://www.w3.org/2000/svg">
<path d="M23.2044 32.6359C21.4195 34.4301 19.4706 34.1468 17.5946 33.2969C15.6093 32.4281 13.7879 32.3904 11.6933 33.2969C9.07051 34.4679 7.68626 34.1279 6.11987 32.6359C-2.76846 23.136 -1.45706 8.66891 8.63338 8.14008C11.0922 8.27229 12.8043 9.53768 14.2432 9.651C16.3925 9.19773 18.4506 7.89456 20.7455 8.06454C23.4958 8.29118 25.5722 9.42437 26.9382 11.4641C21.2555 14.9959 22.6034 22.7582 27.8125 24.9302C26.7743 27.7632 25.4265 30.5773 23.1862 32.6548L23.2044 32.6359ZM14.0611 8.02676C13.7879 3.81507 17.0846 0.339957 20.873 0C21.4012 4.87272 16.611 8.49893 14.0611 8.02676Z" fill="black"/>
</svg>
