<svg width="16" height="18" viewBox="0 0 16 18" fill="none" xmlns="http://www.w3.org/2000/svg">
<path d="M0.716797 16.8125H11.31M12.6342 2.51165V6.48411C12.6342 7.21541 13.227 7.80826 13.9583 7.80826M13.9583 7.80826C14.6896 7.80826 15.2825 7.21541 15.2825 6.48411V2.51165M13.9583 7.80826V12.84C13.9583 13.5713 13.3655 14.1642 12.6342 14.1642M15.2825 5.15996H12.6342M2.04095 6.21928C2.04095 6.94756 2.63682 7.54343 3.3651 7.54343H8.66171C9.39 7.54343 9.98586 6.94756 9.98586 6.21928V2.51165C9.98586 1.78337 9.39 1.1875 8.66171 1.1875H3.3651C2.63682 1.1875 2.04095 1.78337 2.04095 2.51165V6.21928ZM2.04095 6.21928V16.8125M9.98586 16.8125V10.1917M6.01341 10.1917L4.68925 12.178H7.33756L6.01341 14.1642" stroke="#0EAD0E" stroke-miterlimit="10" stroke-linecap="round" stroke-linejoin="round"/>
</svg>
