<svg width="17" height="18" viewBox="0 0 17 18" fill="none" xmlns="http://www.w3.org/2000/svg">
<path d="M6.32359 2.68429C3.71966 4.14452 0.733324 6.54452 4.2339 8.68785C8.33395 11.1982 4.03307 14.3579 0.899665 16.2787C0.666863 16.4214 0.759009 16.8125 1.02532 16.8125H9.06345M10.2087 1.45473C8.02897 2.46077 3.77011 5.12678 6.18459 7.74248C9.20269 11.0121 13.2268 11.0121 8.19666 16.7968" stroke="#0EAD0E" stroke-miterlimit="10" stroke-linecap="round" stroke-linejoin="round"/>
<path d="M11.0488 1.18759H9.42661C9.16815 1.18759 8.91275 1.24739 8.67646 1.36289C8.03829 1.67482 7.24063 2.09666 6.46338 2.59399" stroke="#0EAD0E" stroke-miterlimit="10" stroke-linecap="round" stroke-linejoin="round"/>
<path d="M12.5146 16.8125H13.7234C14.026 16.8125 14.3039 16.629 14.4469 16.3346C15.8173 13.5131 17.0962 8.56612 11.5226 6.84356C5.08989 4.85548 8.80143 2.59155 11.1831 1.42543C11.2944 1.37091 11.259 1.18753 11.1372 1.18753H11.0487" stroke="#0EAD0E" stroke-miterlimit="10" stroke-linecap="round" stroke-linejoin="round"/>
<path d="M9.12988 16.8126H12.5144" stroke="#0EAD0E" stroke-miterlimit="10" stroke-linecap="round" stroke-linejoin="round"/>
</svg>
