<svg width="16" height="16" viewBox="0 0 16 16" fill="none" xmlns="http://www.w3.org/2000/svg">
<path d="M12.2677 3.48126L11.7656 4.48542H12.7698L12.2677 5.48961" stroke="black" stroke-miterlimit="10" stroke-linecap="round" stroke-linejoin="round"/>
<path d="M12.5187 7.24689C13.1086 7.39451 13.5228 7.9247 13.5228 8.53298V10.5105H15.5312V5.58226C15.5312 3.75745 14.2885 2.16657 12.5187 1.72401L9.50615 0.970887V6.49376L12.5187 7.24689ZM9.50615 1.72398L6.49365 0.970856V4.98751L9.50615 5.74064V1.72398Z" stroke="black" stroke-miterlimit="10" stroke-linecap="round" stroke-linejoin="round"/>
<path d="M0.46875 12.0167C0.46875 10.0768 2.04278 8.50206 3.98334 8.50206C5.92391 8.50206 7.49794 10.0768 7.49794 12.0167C7.49794 13.9565 9.07194 15.5312 11.0125 15.5312C12.9531 15.5312 14.5271 13.9565 14.5271 12.0167V10.5104M9.50625 0.46875V6.99584" stroke="black" stroke-miterlimit="10" stroke-linecap="round" stroke-linejoin="round"/>
</svg>
