<svg width="23" height="31" viewBox="0 0 23 31" fill="none" xmlns="http://www.w3.org/2000/svg">
<path d="M11.9105 30.7443C14.7505 30.7443 17.0505 29.5143 17.0505 27.9943C17.0505 26.4743 14.7505 25.2443 11.9105 25.2443C9.07051 25.2443 6.77051 26.4743 6.77051 27.9943C6.77051 29.5143 9.07051 30.7443 11.9105 30.7443Z" fill="#D342D0"/>
<path d="M22.9708 11.8043C22.9708 5.69432 18.0208 0.744324 11.9108 0.744324C5.80076 0.744324 0.910766 5.61432 0.850766 11.6943C0.800766 16.2843 3.56077 20.2443 7.51077 21.9543C8.94077 22.4243 10.2608 27.7943 11.1208 28.9043C11.5008 29.4643 12.3208 29.4643 12.7008 28.9043C13.5608 27.7843 14.8708 22.4343 16.3008 21.9543C20.2208 20.2543 22.9708 16.3443 22.9708 11.8043Z" fill="url(#paint0_linear_1766_3017)"/>
<path d="M11.9108 21.8543C17.4608 21.8543 21.9608 17.3543 21.9608 11.8043C21.9608 6.25433 17.4608 1.75433 11.9108 1.75433C6.36084 1.75433 1.86084 6.25433 1.86084 11.8043C1.86084 17.3543 6.36084 21.8543 11.9108 21.8543Z" fill="url(#paint1_linear_1766_3017)"/>
<path d="M11.911 20.4643C16.691 20.4643 20.571 16.5843 20.571 11.8043C20.571 7.02432 16.691 3.14432 11.911 3.14432C7.13097 3.14432 3.25098 7.02432 3.25098 11.8043C3.25098 16.5843 7.13097 20.4643 11.911 20.4643Z" fill="#D9F1FD"/>
<path d="M11.1806 23.8943C11.4789 23.8943 11.7206 23.6526 11.7206 23.3543C11.7206 23.0561 11.4789 22.8143 11.1806 22.8143C10.8824 22.8143 10.6406 23.0561 10.6406 23.3543C10.6406 23.6526 10.8824 23.8943 11.1806 23.8943Z" fill="white"/>
<path d="M12.6406 23.8943C12.9388 23.8943 13.1806 23.6526 13.1806 23.3543C13.1806 23.0561 12.9388 22.8143 12.6406 22.8143C12.3424 22.8143 12.1006 23.0561 12.1006 23.3543C12.1006 23.6526 12.3424 23.8943 12.6406 23.8943Z" fill="white"/>
<path d="M11.9106 25.1243C12.2088 25.1243 12.4506 24.8826 12.4506 24.5843C12.4506 24.2861 12.2088 24.0443 11.9106 24.0443C11.6124 24.0443 11.3706 24.2861 11.3706 24.5843C11.3706 24.8826 11.6124 25.1243 11.9106 25.1243Z" fill="white"/>
<path d="M9.8309 18.9843C11.0009 17.2043 12.2909 15.5243 13.6109 13.8843L14.0509 14.8843C12.5209 14.9543 10.9909 14.9543 9.4709 14.9843L8.1709 15.0143L9.4809 13.4843C10.6409 12.1143 12.2809 10.1943 13.5709 8.96432L14.1109 10.2343C12.2709 10.1843 10.3509 10.1043 8.5109 9.98432C10.3009 8.21432 12.1609 6.47432 14.1109 4.88432C12.9109 6.61432 11.6109 8.26432 10.2709 9.88432L9.8509 8.91432C11.8209 8.79432 13.9309 8.75432 15.9109 8.68432L14.6609 10.0143C13.0509 11.7343 11.2509 13.4343 9.5009 14.9943V13.4943C11.4609 13.5643 13.4809 13.6343 15.4409 13.7843C13.6409 15.5843 11.8209 17.3743 9.8509 18.9943L9.8309 18.9843Z" fill="#FF9900"/>
<defs>
<linearGradient id="paint0_linear_1766_3017" x1="4.75077" y1="5.78432" x2="28.4208" y2="29.4543" gradientUnits="userSpaceOnUse">
<stop stop-color="#A8169D"/>
<stop offset="1" stop-color="#5C0B56"/>
</linearGradient>
<linearGradient id="paint1_linear_1766_3017" x1="17.9708" y1="17.8643" x2="-2.06916" y2="-2.17566" gradientUnits="userSpaceOnUse">
<stop stop-color="#A8169D"/>
<stop offset="1" stop-color="#5C0B56"/>
</linearGradient>
</defs>
</svg>
