<svg width="15" height="19" viewBox="0 0 15 19" fill="none" xmlns="http://www.w3.org/2000/svg">
<path d="M0.25 18C0.25 18.4142 0.585786 18.75 1 18.75C1.41421 18.75 1.75 18.4142 1.75 18H0.25ZM14.5303 6.53033C14.8232 6.23744 14.8232 5.76256 14.5303 5.46967L9.75736 0.696699C9.46447 0.403806 8.98959 0.403806 8.6967 0.696699C8.40381 0.989593 8.40381 1.46447 8.6967 1.75736L12.9393 6L8.6967 10.2426C8.40381 10.5355 8.40381 11.0104 8.6967 11.3033C8.98959 11.5962 9.46447 11.5962 9.75736 11.3033L14.5303 6.53033ZM1.75 18C1.75 17.9993 1.75 17.9985 1.75 17.9978C1.75 17.997 1.75 17.9962 1.75 17.9954C1.75 17.9946 1.75 17.9938 1.75 17.993C1.75 17.9922 1.75 17.9913 1.75 17.9905C1.75 17.9896 1.75 17.9887 1.75 17.9878C1.75 17.9869 1.75 17.986 1.75 17.9851C1.75 17.9842 1.75 17.9832 1.75 17.9823C1.75 17.9813 1.75 17.9803 1.75 17.9793C1.75 17.9783 1.75 17.9773 1.75 17.9763C1.75 17.9753 1.75 17.9742 1.75 17.9732C1.75 17.9721 1.75 17.971 1.75 17.9699C1.75 17.9689 1.75 17.9678 1.75 17.9666C1.75 17.9655 1.75 17.9644 1.75 17.9632C1.75 17.9621 1.75 17.9609 1.75 17.9597C1.75 17.9585 1.75 17.9573 1.75 17.9561C1.75 17.9549 1.75 17.9536 1.75 17.9524C1.75 17.9511 1.75 17.9498 1.75 17.9486C1.75 17.9473 1.75 17.946 1.75 17.9447C1.75 17.9433 1.75 17.942 1.75 17.9407C1.75 17.9393 1.75 17.938 1.75 17.9366C1.75 17.9352 1.75 17.9338 1.75 17.9324C1.75 17.931 1.75 17.9295 1.75 17.9281C1.75 17.9267 1.75 17.9252 1.75 17.9237C1.75 17.9222 1.75 17.9208 1.75 17.9192C1.75 17.9177 1.75 17.9162 1.75 17.9147C1.75 17.9131 1.75 17.9116 1.75 17.91C1.75 17.9084 1.75 17.9069 1.75 17.9053C1.75 17.9037 1.75 17.902 1.75 17.9004C1.75 17.8988 1.75 17.8971 1.75 17.8955C1.75 17.8938 1.75 17.8921 1.75 17.8904C1.75 17.8887 1.75 17.887 1.75 17.8853C1.75 17.8836 1.75 17.8818 1.75 17.8801C1.75 17.8783 1.75 17.8765 1.75 17.8748C1.75 17.873 1.75 17.8712 1.75 17.8693C1.75 17.8675 1.75 17.8657 1.75 17.8638C1.75 17.862 1.75 17.8601 1.75 17.8583C1.75 17.8564 1.75 17.8545 1.75 17.8526C1.75 17.8507 1.75 17.8487 1.75 17.8468C1.75 17.8449 1.75 17.8429 1.75 17.8409C1.75 17.839 1.75 17.837 1.75 17.835C1.75 17.833 1.75 17.831 1.75 17.8289C1.75 17.8269 1.75 17.8248 1.75 17.8228C1.75 17.8207 1.75 17.8186 1.75 17.8166C1.75 17.8145 1.75 17.8124 1.75 17.8102C1.75 17.8081 1.75 17.806 1.75 17.8038C1.75 17.8017 1.75 17.7995 1.75 17.7973C1.75 17.7951 1.75 17.793 1.75 17.7907C1.75 17.7885 1.75 17.7863 1.75 17.7841C1.75 17.7818 1.75 17.7796 1.75 17.7773C1.75 17.775 1.75 17.7727 1.75 17.7704C1.75 17.7681 1.75 17.7658 1.75 17.7635C1.75 17.7612 1.75 17.7588 1.75 17.7565C1.75 17.7541 1.75 17.7517 1.75 17.7494C1.75 17.747 1.75 17.7446 1.75 17.7421C1.75 17.7397 1.75 17.7373 1.75 17.7349C1.75 17.7324 1.75 17.7299 1.75 17.7275C1.75 17.725 1.75 17.7225 1.75 17.72C1.75 17.7175 1.75 17.715 1.75 17.7124C1.75 17.7099 1.75 17.7074 1.75 17.7048C1.75 17.7022 1.75 17.6997 1.75 17.6971C1.75 17.6945 1.75 17.6919 1.75 17.6893C1.75 17.6866 1.75 17.684 1.75 17.6814C1.75 17.6787 1.75 17.6761 1.75 17.6734C1.75 17.6707 1.75 17.668 1.75 17.6653C1.75 17.6626 1.75 17.6599 1.75 17.6572C1.75 17.6544 1.75 17.6517 1.75 17.6489C1.75 17.6462 1.75 17.6434 1.75 17.6406C1.75 17.6378 1.75 17.635 1.75 17.6322C1.75 17.6294 1.75 17.6265 1.75 17.6237C1.75 17.6208 1.75 17.618 1.75 17.6151C1.75 17.6122 1.75 17.6093 1.75 17.6064C1.75 17.6035 1.75 17.6006 1.75 17.5977C1.75 17.5948 1.75 17.5918 1.75 17.5889C1.75 17.5859 1.75 17.5829 1.75 17.58C1.75 17.577 1.75 17.574 1.75 17.571C1.75 17.568 1.75 17.5649 1.75 17.5619C1.75 17.5589 1.75 17.5558 1.75 17.5527C1.75 17.5497 1.75 17.5466 1.75 17.5435C1.75 17.5404 1.75 17.5373 1.75 17.5342C1.75 17.531 1.75 17.5279 1.75 17.5248C1.75 17.5216 1.75 17.5185 1.75 17.5153C1.75 17.5121 1.75 17.5089 1.75 17.5057C1.75 17.5025 1.75 17.4993 1.75 17.4961C1.75 17.4928 1.75 17.4896 1.75 17.4863C1.75 17.4831 1.75 17.4798 1.75 17.4765C1.75 17.4732 1.75 17.4699 1.75 17.4666C1.75 17.4633 1.75 17.46 1.75 17.4567C1.75 17.4533 1.75 17.45 1.75 17.4466C1.75 17.4433 1.75 17.4399 1.75 17.4365C1.75 17.4331 1.75 17.4297 1.75 17.4263C1.75 17.4229 1.75 17.4194 1.75 17.416C1.75 17.4126 1.75 17.4091 1.75 17.4056C1.75 17.4022 1.75 17.3987 1.75 17.3952C1.75 17.3917 1.75 17.3882 1.75 17.3847C1.75 17.3811 1.75 17.3776 1.75 17.3741C1.75 17.3705 1.75 17.367 1.75 17.3634C1.75 17.3598 1.75 17.3562 1.75 17.3526C1.75 17.349 1.75 17.3454 1.75 17.3418C1.75 17.3382 1.75 17.3345 1.75 17.3309C1.75 17.3272 1.75 17.3236 1.75 17.3199C1.75 17.3162 1.75 17.3125 1.75 17.3088C1.75 17.3051 1.75 17.3014 1.75 17.2977C1.75 17.294 1.75 17.2902 1.75 17.2865C1.75 17.2827 1.75 17.279 1.75 17.2752C1.75 17.2714 1.75 17.2676 1.75 17.2638C1.75 17.26 1.75 17.2562 1.75 17.2524C1.75 17.2486 1.75 17.2447 1.75 17.2409C1.75 17.237 1.75 17.2331 1.75 17.2293C1.75 17.2254 1.75 17.2215 1.75 17.2176C1.75 17.2137 1.75 17.2098 1.75 17.2059C1.75 17.2019 1.75 17.198 1.75 17.194C1.75 17.1901 1.75 17.1861 1.75 17.1821C1.75 17.1782 1.75 17.1742 1.75 17.1702C1.75 17.1662 1.75 17.1622 1.75 17.1581C1.75 17.1541 1.75 17.1501 1.75 17.146C1.75 17.142 1.75 17.1379 1.75 17.1338C1.75 17.1298 1.75 17.1257 1.75 17.1216C1.75 17.1175 1.75 17.1134 1.75 17.1092C1.75 17.1051 1.75 17.101 1.75 17.0968C1.75 17.0927 1.75 17.0885 1.75 17.0844C1.75 17.0802 1.75 17.076 1.75 17.0718C1.75 17.0676 1.75 17.0634 1.75 17.0592C1.75 17.055 1.75 17.0508 1.75 17.0465C1.75 17.0423 1.75 17.038 1.75 17.0337C1.75 17.0295 1.75 17.0252 1.75 17.0209C1.75 17.0166 1.75 17.0123 1.75 17.008C1.75 17.0037 1.75 16.9994 1.75 16.995C1.75 16.9907 1.75 16.9863 1.75 16.982C1.75 16.9776 1.75 16.9733 1.75 16.9689C1.75 16.9645 1.75 16.9601 1.75 16.9557C1.75 16.9513 1.75 16.9469 1.75 16.9424C1.75 16.938 1.75 16.9336 1.75 16.9291C1.75 16.9247 1.75 16.9202 1.75 16.9157C1.75 16.9112 1.75 16.9067 1.75 16.9022C1.75 16.8977 1.75 16.8932 1.75 16.8887C1.75 16.8842 1.75 16.8797 1.75 16.8751C1.75 16.8706 1.75 16.866 1.75 16.8614C1.75 16.8569 1.75 16.8523 1.75 16.8477C1.75 16.8431 1.75 16.8385 1.75 16.8339C1.75 16.8293 1.75 16.8247 1.75 16.82C1.75 16.8154 1.75 16.8108 1.75 16.8061C1.75 16.8014 1.75 16.7968 1.75 16.7921C1.75 16.7874 1.75 16.7827 1.75 16.778C1.75 16.7733 1.75 16.7686 1.75 16.7639C1.75 16.7592 1.75 16.7544 1.75 16.7497C1.75 16.7449 1.75 16.7402 1.75 16.7354C1.75 16.7306 1.75 16.7259 1.75 16.7211C1.75 16.7163 1.75 16.7115 1.75 16.7067C1.75 16.7018 1.75 16.697 1.75 16.6922C1.75 16.6874 1.75 16.6825 1.75 16.6777C1.75 16.6728 1.75 16.6679 1.75 16.6631C1.75 16.6582 1.75 16.6533 1.75 16.6484C1.75 16.6435 1.75 16.6386 1.75 16.6337C1.75 16.6287 1.75 16.6238 1.75 16.6189C1.75 16.6139 1.75 16.609 1.75 16.604C1.75 16.599 1.75 16.5941 1.75 16.5891C1.75 16.5841 1.75 16.5791 1.75 16.5741C1.75 16.5691 1.75 16.5641 1.75 16.5591C1.75 16.554 1.75 16.549 1.75 16.544C1.75 16.5389 1.75 16.5338 1.75 16.5288C1.75 16.5237 1.75 16.5186 1.75 16.5135C1.75 16.5085 1.75 16.5034 1.75 16.4982C1.75 16.4931 1.75 16.488 1.75 16.4829C1.75 16.4778 1.75 16.4726 1.75 16.4675C1.75 16.4623 1.75 16.4571 1.75 16.452C1.75 16.4468 1.75 16.4416 1.75 16.4364C1.75 16.4312 1.75 16.426 1.75 16.4208C1.75 16.4156 1.75 16.4104 1.75 16.4052C1.75 16.3999 1.75 16.3947 1.75 16.3894C1.75 16.3842 1.75 16.3789 1.75 16.3736C1.75 16.3684 1.75 16.3631 1.75 16.3578C1.75 16.3525 1.75 16.3472 1.75 16.3419C1.75 16.3366 1.75 16.3312 1.75 16.3259C1.75 16.3206 1.75 16.3152 1.75 16.3099C1.75 16.3045 1.75 16.2992 1.75 16.2938C1.75 16.2884 1.75 16.283 1.75 16.2776C1.75 16.2723 1.75 16.2668 1.75 16.2614C1.75 16.256 1.75 16.2506 1.75 16.2452C1.75 16.2397 1.75 16.2343 1.75 16.2288C1.75 16.2234 1.75 16.2179 1.75 16.2125C1.75 16.207 1.75 16.2015 1.75 16.196C1.75 16.1905 1.75 16.185 1.75 16.1795C1.75 16.174 1.75 16.1685 1.75 16.163C1.75 16.1574 1.75 16.1519 1.75 16.1464C1.75 16.1408 1.75 16.1353 1.75 16.1297C1.75 16.1241 1.75 16.1186 1.75 16.113C1.75 16.1074 1.75 16.1018 1.75 16.0962C1.75 16.0906 1.75 16.085 1.75 16.0793C1.75 16.0737 1.75 16.0681 1.75 16.0625C1.75 16.0568 1.75 16.0512 1.75 16.0455C1.75 16.0398 1.75 16.0342 1.75 16.0285C1.75 16.0228 1.75 16.0171 1.75 16.0114C1.75 16.0057 1.75 16 1.75 15.9943C1.75 15.9886 1.75 15.9829 1.75 15.9771C1.75 15.9714 1.75 15.9657 1.75 15.9599C1.75 15.9542 1.75 15.9484 1.75 15.9426C1.75 15.9369 1.75 15.9311 1.75 15.9253C1.75 15.9195 1.75 15.9137 1.75 15.9079C1.75 15.9021 1.75 15.8963 1.75 15.8905C1.75 15.8847 1.75 15.8788 1.75 15.873C1.75 15.8671 1.75 15.8613 1.75 15.8554C1.75 15.8496 1.75 15.8437 1.75 15.8378C1.75 15.832 1.75 15.8261 1.75 15.8202C1.75 15.8143 1.75 15.8084 1.75 15.8025C1.75 15.7966 1.75 15.7906 1.75 15.7847C1.75 15.7788 1.75 15.7728 1.75 15.7669C1.75 15.7609 1.75 15.755 1.75 15.749C1.75 15.7431 1.75 15.7371 1.75 15.7311C1.75 15.7251 1.75 15.7191 1.75 15.7131C1.75 15.7072 1.75 15.7011 1.75 15.6951C1.75 15.6891 1.75 15.6831 1.75 15.6771C1.75 15.671 1.75 15.665 1.75 15.6589C1.75 15.6529 1.75 15.6468 1.75 15.6408C1.75 15.6347 1.75 15.6286 1.75 15.6226C1.75 15.6165 1.75 15.6104 1.75 15.6043C1.75 15.5982 1.75 15.5921 1.75 15.586C1.75 15.5798 1.75 15.5737 1.75 15.5676C1.75 15.5615 1.75 15.5553 1.75 15.5492C1.75 15.543 1.75 15.5369 1.75 15.5307C1.75 15.5245 1.75 15.5184 1.75 15.5122C1.75 15.506 1.75 15.4998 1.75 15.4936C1.75 15.4874 1.75 15.4812 1.75 15.475C1.75 15.4688 1.75 15.4626 1.75 15.4564C1.75 15.4501 1.75 15.4439 1.75 15.4376C1.75 15.4314 1.75 15.4251 1.75 15.4189C1.75 15.4126 1.75 15.4064 1.75 15.4001C1.75 15.3938 1.75 15.3875 1.75 15.3812C1.75 15.3749 1.75 15.3686 1.75 15.3623C1.75 15.356 1.75 15.3497 1.75 15.3434C1.75 15.3371 1.75 15.3307 1.75 15.3244C1.75 15.3181 1.75 15.3117 1.75 15.3054C1.75 15.299 1.75 15.2926 1.75 15.2863C1.75 15.2799 1.75 15.2735 1.75 15.2671C1.75 15.2608 1.75 15.2544 1.75 15.248C1.75 15.2416 1.75 15.2352 1.75 15.2287C1.75 15.2223 1.75 15.2159 1.75 15.2095C1.75 15.2031 1.75 15.1966 1.75 15.1902C1.75 15.1837 1.75 15.1773 1.75 15.1708C1.75 15.1644 1.75 15.1579 1.75 15.1514C1.75 15.1449 1.75 15.1385 1.75 15.132C1.75 15.1255 1.75 15.119 1.75 15.1125C1.75 15.106 1.75 15.0995 1.75 15.093C1.75 15.0864 1.75 15.0799 1.75 15.0734C1.75 15.0668 1.75 15.0603 1.75 15.0538C1.75 15.0472 1.75 15.0407 1.75 15.0341C1.75 15.0275 1.75 15.021 1.75 15.0144C1.75 15.0078 1.75 15.0012 1.75 14.9947C1.75 14.9881 1.75 14.9815 1.75 14.9749C1.75 14.9683 1.75 14.9617 1.75 14.955C1.75 14.9484 1.75 14.9418 1.75 14.9352C1.75 14.9285 1.75 14.9219 1.75 14.9152C1.75 14.9086 1.75 14.902 1.75 14.8953C1.75 14.8886 1.75 14.882 1.75 14.8753C1.75 14.8686 1.75 14.8619 1.75 14.8553C1.75 14.8486 1.75 14.8419 1.75 14.8352C1.75 14.8285 1.75 14.8218 1.75 14.8151C1.75 14.8084 1.75 14.8016 1.75 14.7949C1.75 14.7882 1.75 14.7815 1.75 14.7747C1.75 14.768 1.75 14.7612 1.75 14.7545C1.75 14.7477 1.75 14.741 1.75 14.7342C1.75 14.7274 1.75 14.7207 1.75 14.7139C1.75 14.7071 1.75 14.7003 1.75 14.6935C1.75 14.6867 1.75 14.6799 1.75 14.6731C1.75 14.6663 1.75 14.6595 1.75 14.6527C1.75 14.6459 1.75 14.6391 1.75 14.6322C1.75 14.6254 1.75 14.6186 1.75 14.6117C1.75 14.6049 1.75 14.598 1.75 14.5912C1.75 14.5843 1.75 14.5775 1.75 14.5706C1.75 14.5637 1.75 14.5569 1.75 14.55C1.75 14.5431 1.75 14.5362 1.75 14.5293C1.75 14.5224 1.75 14.5155 1.75 14.5086C1.75 14.5017 1.75 14.4948 1.75 14.4879C1.75 14.481 1.75 14.474 1.75 14.4671C1.75 14.4602 1.75 14.4533 1.75 14.4463C1.75 14.4394 1.75 14.4324 1.75 14.4255C1.75 14.4185 1.75 14.4116 1.75 14.4046C1.75 14.3976 1.75 14.3907 1.75 14.3837C1.75 14.3767 1.75 14.3697 1.75 14.3627C1.75 14.3558 1.75 14.3488 1.75 14.3418C1.75 14.3348 1.75 14.3278 1.75 14.3207C1.75 14.3137 1.75 14.3067 1.75 14.2997C1.75 14.2927 1.75 14.2856 1.75 14.2786C1.75 14.2716 1.75 14.2645 1.75 14.2575C1.75 14.2504 1.75 14.2434 1.75 14.2363C1.75 14.2293 1.75 14.2222 1.75 14.2151C1.75 14.2081 1.75 14.201 1.75 14.1939C1.75 14.1869 1.75 14.1798 1.75 14.1727C1.75 14.1656 1.75 14.1585 1.75 14.1514C1.75 14.1443 1.75 14.1372 1.75 14.1301C1.75 14.123 1.75 14.1158 1.75 14.1087C1.75 14.1016 1.75 14.0945 1.75 14.0873C1.75 14.0802 1.75 14.0731 1.75 14.0659C1.75 14.0588 1.75 14.0516 1.75 14.0445C1.75 14.0373 1.75 14.0302 1.75 14.023C1.75 14.0158 1.75 14.0087 1.75 14.0015C1.75 13.9943 1.75 13.9871 1.75 13.9799C1.75 13.9728 1.75 13.9656 1.75 13.9584C1.75 13.9512 1.75 13.944 1.75 13.9368C1.75 13.9296 1.75 13.9224 1.75 13.9151C1.75 13.9079 1.75 13.9007 1.75 13.8935C1.75 13.8863 1.75 13.879 1.75 13.8718C1.75 13.8646 1.75 13.8573 1.75 13.8501C1.75 13.8428 1.75 13.8356 1.75 13.8283C1.75 13.8211 1.75 13.8138 1.75 13.8065C1.75 13.7993 1.75 13.792 1.75 13.7847C1.75 13.7775 1.75 13.7702 1.75 13.7629C1.75 13.7556 1.75 13.7483 1.75 13.741C1.75 13.7337 1.75 13.7264 1.75 13.7191C1.75 13.7118 1.75 13.7045 1.75 13.6972C1.75 13.6899 1.75 13.6826 1.75 13.6753C1.75 13.6679 1.75 13.6606 1.75 13.6533C1.75 13.646 1.75 13.6386 1.75 13.6313C1.75 13.6239 1.75 13.6166 1.75 13.6092C1.75 13.6019 1.75 13.5945 1.75 13.5872C1.75 13.5798 1.75 13.5725 1.75 13.5651C1.75 13.5577 1.75 13.5504 1.75 13.543C1.75 13.5356 1.75 13.5282 1.75 13.5209C1.75 13.5135 1.75 13.5061 1.75 13.4987C1.75 13.4913 1.75 13.4839 1.75 13.4765C1.75 13.4691 1.75 13.4617 1.75 13.4543C1.75 13.4469 1.75 13.4395 1.75 13.432C1.75 13.4246 1.75 13.4172 1.75 13.4098C1.75 13.4024 1.75 13.3949 1.75 13.3875C1.75 13.3801 1.75 13.3726 1.75 13.3652C1.75 13.3577 1.75 13.3503 1.75 13.3428C1.75 13.3354 1.75 13.3279 1.75 13.3205C1.75 13.313 1.75 13.3056 1.75 13.2981C1.75 13.2906 1.75 13.2832 1.75 13.2757C1.75 13.2682 1.75 13.2607 1.75 13.2533C1.75 13.2458 1.75 13.2383 1.75 13.2308C1.75 13.2233 1.75 13.2158 1.75 13.2083C1.75 13.2008 1.75 13.1933 1.75 13.1858C1.75 13.1783 1.75 13.1708 1.75 13.1633C1.75 13.1558 1.75 13.1483 1.75 13.1408C1.75 13.1332 1.75 13.1257 1.75 13.1182C1.75 13.1107 1.75 13.1031 1.75 13.0956C1.75 13.0881 1.75 13.0805 1.75 13.073C1.75 13.0655 1.75 13.0579 1.75 13.0504C1.75 13.0428 1.75 13.0353 1.75 13.0277C1.75 13.0202 1.75 13.0126 1.75 13.005C1.75 12.9975 1.75 12.9899 1.75 12.9823C1.75 12.9748 1.75 12.9672 1.75 12.9596C1.75 12.9521 1.75 12.9445 1.75 12.9369C1.75 12.9293 1.75 12.9217 1.75 12.9141C1.75 12.9066 1.75 12.899 1.75 12.8914C1.75 12.8838 1.75 12.8762 1.75 12.8686C1.75 12.861 1.75 12.8534 1.75 12.8458C1.75 12.8382 1.75 12.8305 1.75 12.8229C1.75 12.8153 1.75 12.8077 1.75 12.8001C1.75 12.7925 1.75 12.7848 1.75 12.7772C1.75 12.7696 1.75 12.762 1.75 12.7543C1.75 12.7467 1.75 12.7391 1.75 12.7314C1.75 12.7238 1.75 12.7162 1.75 12.7085C1.75 12.7009 1.75 12.6932 1.75 12.6856C1.75 12.6779 1.75 12.6703 1.75 12.6626C1.75 12.655 1.75 12.6473 1.75 12.6396C1.75 12.632 1.75 12.6243 1.75 12.6167C1.75 12.609 1.75 12.6013 1.75 12.5937C1.75 12.586 1.75 12.5783 1.75 12.5706C1.75 12.563 1.75 12.5553 1.75 12.5476C1.75 12.5399 1.75 12.5322 1.75 12.5245C1.75 12.5169 1.75 12.5092 1.75 12.5015C1.75 12.4938 1.75 12.4861 1.75 12.4784C1.75 12.4707 1.75 12.463 1.75 12.4553C1.75 12.4476 1.75 12.4399 1.75 12.4322C1.75 12.4245 1.75 12.4168 1.75 12.409C1.75 12.4013 1.75 12.3936 1.75 12.3859C1.75 12.3782 1.75 12.3705 1.75 12.3627C1.75 12.355 1.75 12.3473 1.75 12.3396C1.75 12.3319 1.75 12.3241 1.75 12.3164C1.75 12.3087 1.75 12.3009 1.75 12.2932C1.75 12.2855 1.75 12.2777 1.75 12.27C1.75 12.2622 1.75 12.2545 1.75 12.2468C1.75 12.239 1.75 12.2313 1.75 12.2235C1.75 12.2158 1.75 12.208 1.75 12.2003C1.75 12.1925 1.75 12.1848 1.75 12.177C1.75 12.1693 1.75 12.1615 1.75 12.1537C1.75 12.146 1.75 12.1382 1.75 12.1305C1.75 12.1227 1.75 12.1149 1.75 12.1072C1.75 12.0994 1.75 12.0916 1.75 12.0838C1.75 12.0761 1.75 12.0683 1.75 12.0605C1.75 12.0528 1.75 12.045 1.75 12.0372C1.75 12.0294 1.75 12.0216 1.75 12.0139C1.75 12.0061 1.75 11.9983 1.75 11.9905C1.75 11.9827 1.75 11.9749 1.75 11.9671C1.75 11.9594 1.75 11.9516 1.75 11.9438C1.75 11.936 1.75 11.9282 1.75 11.9204C1.75 11.9126 1.75 11.9048 1.75 11.897C1.75 11.8892 1.75 11.8814 1.75 11.8736C1.75 11.8658 1.75 11.858 1.75 11.8502C1.75 11.8424 1.75 11.8346 1.75 11.8268C1.75 11.819 1.75 11.8112 1.75 11.8033C1.75 11.7955 1.75 11.7877 1.75 11.7799C1.75 11.7721 1.75 11.7643 1.75 11.7565C1.75 11.7487 1.75 11.7408 1.75 11.733C1.75 11.7252 1.75 11.7174 1.75 11.7096C1.75 11.7017 1.75 11.6939 1.75 11.6861C1.75 11.6783 1.75 11.6705 1.75 11.6626C1.75 11.6548 1.75 11.647 1.75 11.6391C1.75 11.6313 1.75 11.6235 1.75 11.6157C1.75 11.6078 1.75 11.6 1.75 11.5922C1.75 11.5843 1.75 11.5765 1.75 11.5687C1.75 11.5608 1.75 11.553 1.75 11.5452C1.75 11.5373 1.75 11.5295 1.75 11.5217C1.75 11.5138 1.75 11.506 1.75 11.4981C1.75 11.4903 1.75 11.4825 1.75 11.4746C1.75 11.4668 1.75 11.4589 1.75 11.4511C1.75 11.4433 1.75 11.4354 1.75 11.4276C1.75 11.4197 1.75 11.4119 1.75 11.404C1.75 11.3962 1.75 11.3883 1.75 11.3805C1.75 11.3726 1.75 11.3648 1.75 11.3569C1.75 11.3491 1.75 11.3412 1.75 11.3334C1.75 11.3256 1.75 11.3177 1.75 11.3098C1.75 11.302 1.75 11.2941 1.75 11.2863C1.75 11.2784 1.75 11.2706 1.75 11.2627C1.75 11.2549 1.75 11.247 1.75 11.2392C1.75 11.2313 1.75 11.2235 1.75 11.2156C1.75 11.2078 1.75 11.1999 1.75 11.192C1.75 11.1842 1.75 11.1763 1.75 11.1685C1.75 11.1606 1.75 11.1528 1.75 11.1449C1.75 11.1371 1.75 11.1292 1.75 11.1213C1.75 11.1135 1.75 11.1056 1.75 11.0978C1.75 11.0899 1.75 11.0821 1.75 11.0742C1.75 11.0663 1.75 11.0585 1.75 11.0506C1.75 11.0428 1.75 11.0349 1.75 11.027C1.75 11.0192 1.75 11.0113 1.75 11.0035C1.75 10.9956 1.75 10.9878 1.75 10.9799C1.75 10.972 1.75 10.9642 1.75 10.9563C1.75 10.9485 1.75 10.9406 1.75 10.9327C1.75 10.9249 1.75 10.917 1.75 10.9092C1.75 10.9013 1.75 10.8934 1.75 10.8856C1.75 10.8777 1.75 10.8699 1.75 10.862C1.75 10.8542 1.75 10.8463 1.75 10.8384C1.75 10.8306 1.75 10.8227 1.75 10.8149C1.75 10.807 1.75 10.7992 1.75 10.7913C1.75 10.7834 1.75 10.7756 1.75 10.7677C1.75 10.7599 1.75 10.752 1.75 10.7442C1.75 10.7363 1.75 10.7285 1.75 10.7206C1.75 10.7127 1.75 10.7049 1.75 10.697C1.75 10.6892 1.75 10.6813 1.75 10.6735C1.75 10.6656 1.75 10.6578 1.75 10.6499C1.75 10.6421 1.75 10.6342 1.75 10.6264C1.75 10.6185 1.75 10.6107 1.75 10.6028C1.75 10.595 1.75 10.5871 1.75 10.5793C1.75 10.5714 1.75 10.5636 1.75 10.5557C1.75 10.5479 1.75 10.54 1.75 10.5322C1.75 10.5243 1.75 10.5165 1.75 10.5087C1.75 10.5008 1.75 10.493 1.75 10.4851C1.75 10.4773 1.75 10.4694 1.75 10.4616C1.75 10.4538 1.75 10.4459 1.75 10.4381C1.75 10.4302 1.75 10.4224 1.75 10.4146C1.75 10.4067 1.75 10.3989 1.75 10.3911C1.75 10.3832 1.75 10.3754 1.75 10.3676C1.75 10.3597 1.75 10.3519 1.75 10.3441C1.75 10.3362 1.75 10.3284 1.75 10.3206C1.75 10.3127 1.75 10.3049 1.75 10.2971C1.75 10.2893 1.75 10.2814 1.75 10.2736C1.75 10.2658 1.75 10.258 1.75 10.2501C1.75 10.2423 1.75 10.2345 1.75 10.2267C1.75 10.2189 1.75 10.211 1.75 10.2032C1.75 10.1954 1.75 10.1876 1.75 10.1798C1.75 10.172 1.75 10.1641 1.75 10.1563C1.75 10.1485 1.75 10.1407 1.75 10.1329C1.75 10.1251 1.75 10.1173 1.75 10.1095C1.75 10.1017 1.75 10.0939 1.75 10.0861C1.75 10.0783 1.75 10.0705 1.75 10.0627C1.75 10.0549 1.75 10.0471 1.75 10.0393C1.75 10.0315 1.75 10.0237 1.75 10.0159C1.75 10.0081 1.75 10.0003 1.75 9.99249C1.75 9.9847 1.75 9.97691 1.75 9.96913C1.75 9.96134 1.75 9.95355 1.75 9.94577C1.75 9.93798 1.75 9.9302 1.75 9.92242C1.75 9.91464 1.75 9.90686 1.75 9.89908C1.75 9.8913 1.75 9.88353 1.75 9.87575C1.75 9.86798 1.75 9.86021 1.75 9.85244C1.75 9.84467 1.75 9.8369 1.75 9.82913C1.75 9.82137 1.75 9.8136 1.75 9.80584C1.75 9.79808 1.75 9.79032 1.75 9.78256C1.75 9.7748 1.75 9.76704 1.75 9.75929C1.75 9.75153 1.75 9.74378 1.75 9.73603C1.75 9.72828 1.75 9.72053 1.75 9.71278C1.75 9.70504 1.75 9.69729 1.75 9.68955C1.75 9.68181 1.75 9.67407 1.75 9.66633C1.75 9.65859 1.75 9.65086 1.75 9.64312C1.75 9.63539 1.75 9.62766 1.75 9.61993C1.75 9.6122 1.75 9.60447 1.75 9.59675C1.75 9.58902 1.75 9.5813 1.75 9.57358C1.75 9.56586 1.75 9.55814 1.75 9.55043C1.75 9.54271 1.75 9.535 1.75 9.52729C1.75 9.51958 1.75 9.51187 1.75 9.50416C1.75 9.49646 1.75 9.48876 1.75 9.48106C1.75 9.47335 1.75 9.46566 1.75 9.45796C1.75 9.45026 1.75 9.44257 1.75 9.43488C1.75 9.42719 1.75 9.4195 1.75 9.41182C1.75 9.40413 1.75 9.39645 1.75 9.38877C1.75 9.38109 1.75 9.37341 1.75 9.36574C1.75 9.35806 1.75 9.35039 1.75 9.34272C1.75 9.33505 1.75 9.32738 1.75 9.31972C1.75 9.31206 1.75 9.30439 1.75 9.29674C1.75 9.28908 1.75 9.28142 1.75 9.27377C1.75 9.26612 1.75 9.25847 1.75 9.25082C1.75 9.24317 1.75 9.23553 1.75 9.22789C1.75 9.22024 1.75 9.21261 1.75 9.20497C1.75 9.19734 1.75 9.1897 1.75 9.18207C1.75 9.17444 1.75 9.16682 1.75 9.15919C1.75 9.15157 1.75 9.14395 1.75 9.13633C1.75 9.12872 1.75 9.1211 1.75 9.11349C1.75 9.10588 1.75 9.09827 1.75 9.09067C1.75 9.08306 1.75 9.07546 1.75 9.06786C1.75 9.06026 1.75 9.05267 1.75 9.04507C1.75 9.03748 1.75 9.02989 1.75 9.02231C1.75 9.01472 1.75 9.00714 1.75 8.99956H0.25C0.25 9.00714 0.25 9.01472 0.25 9.02231C0.25 9.02989 0.25 9.03748 0.25 9.04507C0.25 9.05267 0.25 9.06026 0.25 9.06786C0.25 9.07546 0.25 9.08306 0.25 9.09067C0.25 9.09827 0.25 9.10588 0.25 9.11349C0.25 9.1211 0.25 9.12872 0.25 9.13633C0.25 9.14395 0.25 9.15157 0.25 9.15919C0.25 9.16682 0.25 9.17444 0.25 9.18207C0.25 9.1897 0.25 9.19734 0.25 9.20497C0.25 9.21261 0.25 9.22024 0.25 9.22789C0.25 9.23553 0.25 9.24317 0.25 9.25082C0.25 9.25847 0.25 9.26612 0.25 9.27377C0.25 9.28142 0.25 9.28908 0.25 9.29674C0.25 9.30439 0.25 9.31206 0.25 9.31972C0.25 9.32738 0.25 9.33505 0.25 9.34272C0.25 9.35039 0.25 9.35806 0.25 9.36574C0.25 9.37341 0.25 9.38109 0.25 9.38877C0.25 9.39645 0.25 9.40413 0.25 9.41182C0.25 9.4195 0.25 9.42719 0.25 9.43488C0.25 9.44257 0.25 9.45026 0.25 9.45796C0.25 9.46566 0.25 9.47335 0.25 9.48106C0.25 9.48876 0.25 9.49646 0.25 9.50416C0.25 9.51187 0.25 9.51958 0.25 9.52729C0.25 9.535 0.25 9.54271 0.25 9.55043C0.25 9.55814 0.25 9.56586 0.25 9.57358C0.25 9.5813 0.25 9.58902 0.25 9.59675C0.25 9.60447 0.25 9.6122 0.25 9.61993C0.25 9.62766 0.25 9.63539 0.25 9.64312C0.25 9.65086 0.25 9.65859 0.25 9.66633C0.25 9.67407 0.25 9.68181 0.25 9.68955C0.25 9.69729 0.25 9.70504 0.25 9.71278C0.25 9.72053 0.25 9.72828 0.25 9.73603C0.25 9.74378 0.25 9.75153 0.25 9.75929C0.25 9.76704 0.25 9.7748 0.25 9.78256C0.25 9.79032 0.25 9.79808 0.25 9.80584C0.25 9.8136 0.25 9.82137 0.25 9.82913C0.25 9.8369 0.25 9.84467 0.25 9.85244C0.25 9.86021 0.25 9.86798 0.25 9.87575C0.25 9.88353 0.25 9.8913 0.25 9.89908C0.25 9.90686 0.25 9.91464 0.25 9.92242C0.25 9.9302 0.25 9.93798 0.25 9.94577C0.25 9.95355 0.25 9.96134 0.25 9.96913C0.25 9.97691 0.25 9.9847 0.25 9.99249C0.25 10.0003 0.25 10.0081 0.25 10.0159C0.25 10.0237 0.25 10.0315 0.25 10.0393C0.25 10.0471 0.25 10.0549 0.25 10.0627C0.25 10.0705 0.25 10.0783 0.25 10.0861C0.25 10.0939 0.25 10.1017 0.25 10.1095C0.25 10.1173 0.25 10.1251 0.25 10.1329C0.25 10.1407 0.25 10.1485 0.25 10.1563C0.25 10.1641 0.25 10.172 0.25 10.1798C0.25 10.1876 0.25 10.1954 0.25 10.2032C0.25 10.211 0.25 10.2189 0.25 10.2267C0.25 10.2345 0.25 10.2423 0.25 10.2501C0.25 10.258 0.25 10.2658 0.25 10.2736C0.25 10.2814 0.25 10.2893 0.25 10.2971C0.25 10.3049 0.25 10.3127 0.25 10.3206C0.25 10.3284 0.25 10.3362 0.25 10.3441C0.25 10.3519 0.25 10.3597 0.25 10.3676C0.25 10.3754 0.25 10.3832 0.25 10.3911C0.25 10.3989 0.25 10.4067 0.25 10.4146C0.25 10.4224 0.25 10.4302 0.25 10.4381C0.25 10.4459 0.25 10.4538 0.25 10.4616C0.25 10.4694 0.25 10.4773 0.25 10.4851C0.25 10.493 0.25 10.5008 0.25 10.5087C0.25 10.5165 0.25 10.5243 0.25 10.5322C0.25 10.54 0.25 10.5479 0.25 10.5557C0.25 10.5636 0.25 10.5714 0.25 10.5793C0.25 10.5871 0.25 10.595 0.25 10.6028C0.25 10.6107 0.25 10.6185 0.25 10.6264C0.25 10.6342 0.25 10.6421 0.25 10.6499C0.25 10.6578 0.25 10.6656 0.25 10.6735C0.25 10.6813 0.25 10.6892 0.25 10.697C0.25 10.7049 0.25 10.7127 0.25 10.7206C0.25 10.7285 0.25 10.7363 0.25 10.7442C0.25 10.752 0.25 10.7599 0.25 10.7677C0.25 10.7756 0.25 10.7834 0.25 10.7913C0.25 10.7992 0.25 10.807 0.25 10.8149C0.25 10.8227 0.25 10.8306 0.25 10.8384C0.25 10.8463 0.25 10.8542 0.25 10.862C0.25 10.8699 0.25 10.8777 0.25 10.8856C0.25 10.8934 0.25 10.9013 0.25 10.9092C0.25 10.917 0.25 10.9249 0.25 10.9327C0.25 10.9406 0.25 10.9485 0.25 10.9563C0.25 10.9642 0.25 10.972 0.25 10.9799C0.25 10.9878 0.25 10.9956 0.25 11.0035C0.25 11.0113 0.25 11.0192 0.25 11.027C0.25 11.0349 0.25 11.0428 0.25 11.0506C0.25 11.0585 0.25 11.0663 0.25 11.0742C0.25 11.0821 0.25 11.0899 0.25 11.0978C0.25 11.1056 0.25 11.1135 0.25 11.1213C0.25 11.1292 0.25 11.1371 0.25 11.1449C0.25 11.1528 0.25 11.1606 0.25 11.1685C0.25 11.1763 0.25 11.1842 0.25 11.192C0.25 11.1999 0.25 11.2078 0.25 11.2156C0.25 11.2235 0.25 11.2313 0.25 11.2392C0.25 11.247 0.25 11.2549 0.25 11.2627C0.25 11.2706 0.25 11.2784 0.25 11.2863C0.25 11.2941 0.25 11.302 0.25 11.3098C0.25 11.3177 0.25 11.3256 0.25 11.3334C0.25 11.3412 0.25 11.3491 0.25 11.3569C0.25 11.3648 0.25 11.3726 0.25 11.3805C0.25 11.3883 0.25 11.3962 0.25 11.404C0.25 11.4119 0.25 11.4197 0.25 11.4276C0.25 11.4354 0.25 11.4433 0.25 11.4511C0.25 11.4589 0.25 11.4668 0.25 11.4746C0.25 11.4825 0.25 11.4903 0.25 11.4981C0.25 11.506 0.25 11.5138 0.25 11.5217C0.25 11.5295 0.25 11.5373 0.25 11.5452C0.25 11.553 0.25 11.5608 0.25 11.5687C0.25 11.5765 0.25 11.5843 0.25 11.5922C0.25 11.6 0.25 11.6078 0.25 11.6157C0.25 11.6235 0.25 11.6313 0.25 11.6391C0.25 11.647 0.25 11.6548 0.25 11.6626C0.25 11.6705 0.25 11.6783 0.25 11.6861C0.25 11.6939 0.25 11.7017 0.25 11.7096C0.25 11.7174 0.25 11.7252 0.25 11.733C0.25 11.7408 0.25 11.7487 0.25 11.7565C0.25 11.7643 0.25 11.7721 0.25 11.7799C0.25 11.7877 0.25 11.7955 0.25 11.8033C0.25 11.8112 0.25 11.819 0.25 11.8268C0.25 11.8346 0.25 11.8424 0.25 11.8502C0.25 11.858 0.25 11.8658 0.25 11.8736C0.25 11.8814 0.25 11.8892 0.25 11.897C0.25 11.9048 0.25 11.9126 0.25 11.9204C0.25 11.9282 0.25 11.936 0.25 11.9438C0.25 11.9516 0.25 11.9594 0.25 11.9671C0.25 11.9749 0.25 11.9827 0.25 11.9905C0.25 11.9983 0.25 12.0061 0.25 12.0139C0.25 12.0216 0.25 12.0294 0.25 12.0372C0.25 12.045 0.25 12.0528 0.25 12.0605C0.25 12.0683 0.25 12.0761 0.25 12.0838C0.25 12.0916 0.25 12.0994 0.25 12.1072C0.25 12.1149 0.25 12.1227 0.25 12.1305C0.25 12.1382 0.25 12.146 0.25 12.1537C0.25 12.1615 0.25 12.1693 0.25 12.177C0.25 12.1848 0.25 12.1925 0.25 12.2003C0.25 12.208 0.25 12.2158 0.25 12.2235C0.25 12.2313 0.25 12.239 0.25 12.2468C0.25 12.2545 0.25 12.2622 0.25 12.27C0.25 12.2777 0.25 12.2855 0.25 12.2932C0.25 12.3009 0.25 12.3087 0.25 12.3164C0.25 12.3241 0.25 12.3319 0.25 12.3396C0.25 12.3473 0.25 12.355 0.25 12.3627C0.25 12.3705 0.25 12.3782 0.25 12.3859C0.25 12.3936 0.25 12.4013 0.25 12.409C0.25 12.4168 0.25 12.4245 0.25 12.4322C0.25 12.4399 0.25 12.4476 0.25 12.4553C0.25 12.463 0.25 12.4707 0.25 12.4784C0.25 12.4861 0.25 12.4938 0.25 12.5015C0.25 12.5092 0.25 12.5169 0.25 12.5245C0.25 12.5322 0.25 12.5399 0.25 12.5476C0.25 12.5553 0.25 12.563 0.25 12.5706C0.25 12.5783 0.25 12.586 0.25 12.5937C0.25 12.6013 0.25 12.609 0.25 12.6167C0.25 12.6243 0.25 12.632 0.25 12.6396C0.25 12.6473 0.25 12.655 0.25 12.6626C0.25 12.6703 0.25 12.6779 0.25 12.6856C0.25 12.6932 0.25 12.7009 0.25 12.7085C0.25 12.7162 0.25 12.7238 0.25 12.7314C0.25 12.7391 0.25 12.7467 0.25 12.7543C0.25 12.762 0.25 12.7696 0.25 12.7772C0.25 12.7848 0.25 12.7925 0.25 12.8001C0.25 12.8077 0.25 12.8153 0.25 12.8229C0.25 12.8305 0.25 12.8382 0.25 12.8458C0.25 12.8534 0.25 12.861 0.25 12.8686C0.25 12.8762 0.25 12.8838 0.25 12.8914C0.25 12.899 0.25 12.9066 0.25 12.9141C0.25 12.9217 0.25 12.9293 0.25 12.9369C0.25 12.9445 0.25 12.9521 0.25 12.9596C0.25 12.9672 0.25 12.9748 0.25 12.9823C0.25 12.9899 0.25 12.9975 0.25 13.005C0.25 13.0126 0.25 13.0202 0.25 13.0277C0.25 13.0353 0.25 13.0428 0.25 13.0504C0.25 13.0579 0.25 13.0655 0.25 13.073C0.25 13.0805 0.25 13.0881 0.25 13.0956C0.25 13.1031 0.25 13.1107 0.25 13.1182C0.25 13.1257 0.25 13.1332 0.25 13.1408C0.25 13.1483 0.25 13.1558 0.25 13.1633C0.25 13.1708 0.25 13.1783 0.25 13.1858C0.25 13.1933 0.25 13.2008 0.25 13.2083C0.25 13.2158 0.25 13.2233 0.25 13.2308C0.25 13.2383 0.25 13.2458 0.25 13.2533C0.25 13.2607 0.25 13.2682 0.25 13.2757C0.25 13.2832 0.25 13.2906 0.25 13.2981C0.25 13.3056 0.25 13.313 0.25 13.3205C0.25 13.3279 0.25 13.3354 0.25 13.3428C0.25 13.3503 0.25 13.3577 0.25 13.3652C0.25 13.3726 0.25 13.3801 0.25 13.3875C0.25 13.3949 0.25 13.4024 0.25 13.4098C0.25 13.4172 0.25 13.4246 0.25 13.432C0.25 13.4395 0.25 13.4469 0.25 13.4543C0.25 13.4617 0.25 13.4691 0.25 13.4765C0.25 13.4839 0.25 13.4913 0.25 13.4987C0.25 13.5061 0.25 13.5135 0.25 13.5209C0.25 13.5282 0.25 13.5356 0.25 13.543C0.25 13.5504 0.25 13.5577 0.25 13.5651C0.25 13.5725 0.25 13.5798 0.25 13.5872C0.25 13.5945 0.25 13.6019 0.25 13.6092C0.25 13.6166 0.25 13.6239 0.25 13.6313C0.25 13.6386 0.25 13.646 0.25 13.6533C0.25 13.6606 0.25 13.6679 0.25 13.6753C0.25 13.6826 0.25 13.6899 0.25 13.6972C0.25 13.7045 0.25 13.7118 0.25 13.7191C0.25 13.7264 0.25 13.7337 0.25 13.741C0.25 13.7483 0.25 13.7556 0.25 13.7629C0.25 13.7702 0.25 13.7775 0.25 13.7847C0.25 13.792 0.25 13.7993 0.25 13.8065C0.25 13.8138 0.25 13.8211 0.25 13.8283C0.25 13.8356 0.25 13.8428 0.25 13.8501C0.25 13.8573 0.25 13.8646 0.25 13.8718C0.25 13.879 0.25 13.8863 0.25 13.8935C0.25 13.9007 0.25 13.9079 0.25 13.9151C0.25 13.9224 0.25 13.9296 0.25 13.9368C0.25 13.944 0.25 13.9512 0.25 13.9584C0.25 13.9656 0.25 13.9728 0.25 13.9799C0.25 13.9871 0.25 13.9943 0.25 14.0015C0.25 14.0087 0.25 14.0158 0.25 14.023C0.25 14.0302 0.25 14.0373 0.25 14.0445C0.25 14.0516 0.25 14.0588 0.25 14.0659C0.25 14.0731 0.25 14.0802 0.25 14.0873C0.25 14.0945 0.25 14.1016 0.25 14.1087C0.25 14.1158 0.25 14.123 0.25 14.1301C0.25 14.1372 0.25 14.1443 0.25 14.1514C0.25 14.1585 0.25 14.1656 0.25 14.1727C0.25 14.1798 0.25 14.1869 0.25 14.1939C0.25 14.201 0.25 14.2081 0.25 14.2151C0.25 14.2222 0.25 14.2293 0.25 14.2363C0.25 14.2434 0.25 14.2504 0.25 14.2575C0.25 14.2645 0.25 14.2716 0.25 14.2786C0.25 14.2856 0.25 14.2927 0.25 14.2997C0.25 14.3067 0.25 14.3137 0.25 14.3207C0.25 14.3278 0.25 14.3348 0.25 14.3418C0.25 14.3488 0.25 14.3558 0.25 14.3627C0.25 14.3697 0.25 14.3767 0.25 14.3837C0.25 14.3907 0.25 14.3976 0.25 14.4046C0.25 14.4116 0.25 14.4185 0.25 14.4255C0.25 14.4324 0.25 14.4394 0.25 14.4463C0.25 14.4533 0.25 14.4602 0.25 14.4671C0.25 14.474 0.25 14.481 0.25 14.4879C0.25 14.4948 0.25 14.5017 0.25 14.5086C0.25 14.5155 0.25 14.5224 0.25 14.5293C0.25 14.5362 0.25 14.5431 0.25 14.55C0.25 14.5569 0.25 14.5637 0.25 14.5706C0.25 14.5775 0.25 14.5843 0.25 14.5912C0.25 14.598 0.25 14.6049 0.25 14.6117C0.25 14.6186 0.25 14.6254 0.25 14.6322C0.25 14.6391 0.25 14.6459 0.25 14.6527C0.25 14.6595 0.25 14.6663 0.25 14.6731C0.25 14.6799 0.25 14.6867 0.25 14.6935C0.25 14.7003 0.25 14.7071 0.25 14.7139C0.25 14.7207 0.25 14.7274 0.25 14.7342C0.25 14.741 0.25 14.7477 0.25 14.7545C0.25 14.7612 0.25 14.768 0.25 14.7747C0.25 14.7815 0.25 14.7882 0.25 14.7949C0.25 14.8016 0.25 14.8084 0.25 14.8151C0.25 14.8218 0.25 14.8285 0.25 14.8352C0.25 14.8419 0.25 14.8486 0.25 14.8553C0.25 14.8619 0.25 14.8686 0.25 14.8753C0.25 14.882 0.25 14.8886 0.25 14.8953C0.25 14.902 0.25 14.9086 0.25 14.9152C0.25 14.9219 0.25 14.9285 0.25 14.9352C0.25 14.9418 0.25 14.9484 0.25 14.955C0.25 14.9617 0.25 14.9683 0.25 14.9749C0.25 14.9815 0.25 14.9881 0.25 14.9947C0.25 15.0012 0.25 15.0078 0.25 15.0144C0.25 15.021 0.25 15.0275 0.25 15.0341C0.25 15.0407 0.25 15.0472 0.25 15.0538C0.25 15.0603 0.25 15.0668 0.25 15.0734C0.25 15.0799 0.25 15.0864 0.25 15.093C0.25 15.0995 0.25 15.106 0.25 15.1125C0.25 15.119 0.25 15.1255 0.25 15.132C0.25 15.1385 0.25 15.1449 0.25 15.1514C0.25 15.1579 0.25 15.1644 0.25 15.1708C0.25 15.1773 0.25 15.1837 0.25 15.1902C0.25 15.1966 0.25 15.2031 0.25 15.2095C0.25 15.2159 0.25 15.2223 0.25 15.2287C0.25 15.2352 0.25 15.2416 0.25 15.248C0.25 15.2544 0.25 15.2608 0.25 15.2671C0.25 15.2735 0.25 15.2799 0.25 15.2863C0.25 15.2926 0.25 15.299 0.25 15.3054C0.25 15.3117 0.25 15.3181 0.25 15.3244C0.25 15.3307 0.25 15.3371 0.25 15.3434C0.25 15.3497 0.25 15.356 0.25 15.3623C0.25 15.3686 0.25 15.3749 0.25 15.3812C0.25 15.3875 0.25 15.3938 0.25 15.4001C0.25 15.4064 0.25 15.4126 0.25 15.4189C0.25 15.4251 0.25 15.4314 0.25 15.4376C0.25 15.4439 0.25 15.4501 0.25 15.4564C0.25 15.4626 0.25 15.4688 0.25 15.475C0.25 15.4812 0.25 15.4874 0.25 15.4936C0.25 15.4998 0.25 15.506 0.25 15.5122C0.25 15.5184 0.25 15.5245 0.25 15.5307C0.25 15.5369 0.25 15.543 0.25 15.5492C0.25 15.5553 0.25 15.5615 0.25 15.5676C0.25 15.5737 0.25 15.5798 0.25 15.586C0.25 15.5921 0.25 15.5982 0.25 15.6043C0.25 15.6104 0.25 15.6165 0.25 15.6226C0.25 15.6286 0.25 15.6347 0.25 15.6408C0.25 15.6468 0.25 15.6529 0.25 15.6589C0.25 15.665 0.25 15.671 0.25 15.6771C0.25 15.6831 0.25 15.6891 0.25 15.6951C0.25 15.7011 0.25 15.7072 0.25 15.7131C0.25 15.7191 0.25 15.7251 0.25 15.7311C0.25 15.7371 0.25 15.7431 0.25 15.749C0.25 15.755 0.25 15.7609 0.25 15.7669C0.25 15.7728 0.25 15.7788 0.25 15.7847C0.25 15.7906 0.25 15.7966 0.25 15.8025C0.25 15.8084 0.25 15.8143 0.25 15.8202C0.25 15.8261 0.25 15.832 0.25 15.8378C0.25 15.8437 0.25 15.8496 0.25 15.8554C0.25 15.8613 0.25 15.8671 0.25 15.873C0.25 15.8788 0.25 15.8847 0.25 15.8905C0.25 15.8963 0.25 15.9021 0.25 15.9079C0.25 15.9137 0.25 15.9195 0.25 15.9253C0.25 15.9311 0.25 15.9369 0.25 15.9426C0.25 15.9484 0.25 15.9542 0.25 15.9599C0.25 15.9657 0.25 15.9714 0.25 15.9771C0.25 15.9829 0.25 15.9886 0.25 15.9943C0.25 16 0.25 16.0057 0.25 16.0114C0.25 16.0171 0.25 16.0228 0.25 16.0285C0.25 16.0342 0.25 16.0398 0.25 16.0455C0.25 16.0512 0.25 16.0568 0.25 16.0625C0.25 16.0681 0.25 16.0737 0.25 16.0793C0.25 16.085 0.25 16.0906 0.25 16.0962C0.25 16.1018 0.25 16.1074 0.25 16.113C0.25 16.1186 0.25 16.1241 0.25 16.1297C0.25 16.1353 0.25 16.1408 0.25 16.1464C0.25 16.1519 0.25 16.1574 0.25 16.163C0.25 16.1685 0.25 16.174 0.25 16.1795C0.25 16.185 0.25 16.1905 0.25 16.196C0.25 16.2015 0.25 16.207 0.25 16.2125C0.25 16.2179 0.25 16.2234 0.25 16.2288C0.25 16.2343 0.25 16.2397 0.25 16.2452C0.25 16.2506 0.25 16.256 0.25 16.2614C0.25 16.2668 0.25 16.2723 0.25 16.2776C0.25 16.283 0.25 16.2884 0.25 16.2938C0.25 16.2992 0.25 16.3045 0.25 16.3099C0.25 16.3152 0.25 16.3206 0.25 16.3259C0.25 16.3312 0.25 16.3366 0.25 16.3419C0.25 16.3472 0.25 16.3525 0.25 16.3578C0.25 16.3631 0.25 16.3684 0.25 16.3736C0.25 16.3789 0.25 16.3842 0.25 16.3894C0.25 16.3947 0.25 16.3999 0.25 16.4052C0.25 16.4104 0.25 16.4156 0.25 16.4208C0.25 16.426 0.25 16.4312 0.25 16.4364C0.25 16.4416 0.25 16.4468 0.25 16.452C0.25 16.4571 0.25 16.4623 0.25 16.4675C0.25 16.4726 0.25 16.4778 0.25 16.4829C0.25 16.488 0.25 16.4931 0.25 16.4982C0.25 16.5034 0.25 16.5085 0.25 16.5135C0.25 16.5186 0.25 16.5237 0.25 16.5288C0.25 16.5338 0.25 16.5389 0.25 16.544C0.25 16.549 0.25 16.554 0.25 16.5591C0.25 16.5641 0.25 16.5691 0.25 16.5741C0.25 16.5791 0.25 16.5841 0.25 16.5891C0.25 16.5941 0.25 16.599 0.25 16.604C0.25 16.609 0.25 16.6139 0.25 16.6189C0.25 16.6238 0.25 16.6287 0.25 16.6337C0.25 16.6386 0.25 16.6435 0.25 16.6484C0.25 16.6533 0.25 16.6582 0.25 16.6631C0.25 16.6679 0.25 16.6728 0.25 16.6777C0.25 16.6825 0.25 16.6874 0.25 16.6922C0.25 16.697 0.25 16.7018 0.25 16.7067C0.25 16.7115 0.25 16.7163 0.25 16.7211C0.25 16.7259 0.25 16.7306 0.25 16.7354C0.25 16.7402 0.25 16.7449 0.25 16.7497C0.25 16.7544 0.25 16.7592 0.25 16.7639C0.25 16.7686 0.25 16.7733 0.25 16.778C0.25 16.7827 0.25 16.7874 0.25 16.7921C0.25 16.7968 0.25 16.8014 0.25 16.8061C0.25 16.8108 0.25 16.8154 0.25 16.82C0.25 16.8247 0.25 16.8293 0.25 16.8339C0.25 16.8385 0.25 16.8431 0.25 16.8477C0.25 16.8523 0.25 16.8569 0.25 16.8614C0.25 16.866 0.25 16.8706 0.25 16.8751C0.25 16.8797 0.25 16.8842 0.25 16.8887C0.25 16.8932 0.25 16.8977 0.25 16.9022C0.25 16.9067 0.25 16.9112 0.25 16.9157C0.25 16.9202 0.25 16.9247 0.25 16.9291C0.25 16.9336 0.25 16.938 0.25 16.9424C0.25 16.9469 0.25 16.9513 0.25 16.9557C0.25 16.9601 0.25 16.9645 0.25 16.9689C0.25 16.9733 0.25 16.9776 0.25 16.982C0.25 16.9863 0.25 16.9907 0.25 16.995C0.25 16.9994 0.25 17.0037 0.25 17.008C0.25 17.0123 0.25 17.0166 0.25 17.0209C0.25 17.0252 0.25 17.0295 0.25 17.0337C0.25 17.038 0.25 17.0423 0.25 17.0465C0.25 17.0508 0.25 17.055 0.25 17.0592C0.25 17.0634 0.25 17.0676 0.25 17.0718C0.25 17.076 0.25 17.0802 0.25 17.0844C0.25 17.0885 0.25 17.0927 0.25 17.0968C0.25 17.101 0.25 17.1051 0.25 17.1092C0.25 17.1134 0.25 17.1175 0.25 17.1216C0.25 17.1257 0.25 17.1298 0.25 17.1338C0.25 17.1379 0.25 17.142 0.25 17.146C0.25 17.1501 0.25 17.1541 0.25 17.1581C0.25 17.1622 0.25 17.1662 0.25 17.1702C0.25 17.1742 0.25 17.1782 0.25 17.1821C0.25 17.1861 0.25 17.1901 0.25 17.194C0.25 17.198 0.25 17.2019 0.25 17.2059C0.25 17.2098 0.25 17.2137 0.25 17.2176C0.25 17.2215 0.25 17.2254 0.25 17.2293C0.25 17.2331 0.25 17.237 0.25 17.2409C0.25 17.2447 0.25 17.2486 0.25 17.2524C0.25 17.2562 0.25 17.26 0.25 17.2638C0.25 17.2676 0.25 17.2714 0.25 17.2752C0.25 17.279 0.25 17.2827 0.25 17.2865C0.25 17.2902 0.25 17.294 0.25 17.2977C0.25 17.3014 0.25 17.3051 0.25 17.3088C0.25 17.3125 0.25 17.3162 0.25 17.3199C0.25 17.3236 0.25 17.3272 0.25 17.3309C0.25 17.3345 0.25 17.3382 0.25 17.3418C0.25 17.3454 0.25 17.349 0.25 17.3526C0.25 17.3562 0.25 17.3598 0.25 17.3634C0.25 17.367 0.25 17.3705 0.25 17.3741C0.25 17.3776 0.25 17.3811 0.25 17.3847C0.25 17.3882 0.25 17.3917 0.25 17.3952C0.25 17.3987 0.25 17.4022 0.25 17.4056C0.25 17.4091 0.25 17.4126 0.25 17.416C0.25 17.4194 0.25 17.4229 0.25 17.4263C0.25 17.4297 0.25 17.4331 0.25 17.4365C0.25 17.4399 0.25 17.4433 0.25 17.4466C0.25 17.45 0.25 17.4533 0.25 17.4567C0.25 17.46 0.25 17.4633 0.25 17.4666C0.25 17.4699 0.25 17.4732 0.25 17.4765C0.25 17.4798 0.25 17.4831 0.25 17.4863C0.25 17.4896 0.25 17.4928 0.25 17.4961C0.25 17.4993 0.25 17.5025 0.25 17.5057C0.25 17.5089 0.25 17.5121 0.25 17.5153C0.25 17.5185 0.25 17.5216 0.25 17.5248C0.25 17.5279 0.25 17.531 0.25 17.5342C0.25 17.5373 0.25 17.5404 0.25 17.5435C0.25 17.5466 0.25 17.5497 0.25 17.5527C0.25 17.5558 0.25 17.5589 0.25 17.5619C0.25 17.5649 0.25 17.568 0.25 17.571C0.25 17.574 0.25 17.577 0.25 17.58C0.25 17.5829 0.25 17.5859 0.25 17.5889C0.25 17.5918 0.25 17.5948 0.25 17.5977C0.25 17.6006 0.25 17.6035 0.25 17.6064C0.25 17.6093 0.25 17.6122 0.25 17.6151C0.25 17.618 0.25 17.6208 0.25 17.6237C0.25 17.6265 0.25 17.6294 0.25 17.6322C0.25 17.635 0.25 17.6378 0.25 17.6406C0.25 17.6434 0.25 17.6462 0.25 17.6489C0.25 17.6517 0.25 17.6544 0.25 17.6572C0.25 17.6599 0.25 17.6626 0.25 17.6653C0.25 17.668 0.25 17.6707 0.25 17.6734C0.25 17.6761 0.25 17.6787 0.25 17.6814C0.25 17.684 0.25 17.6866 0.25 17.6893C0.25 17.6919 0.25 17.6945 0.25 17.6971C0.25 17.6997 0.25 17.7022 0.25 17.7048C0.25 17.7074 0.25 17.7099 0.25 17.7124C0.25 17.715 0.25 17.7175 0.25 17.72C0.25 17.7225 0.25 17.725 0.25 17.7275C0.25 17.7299 0.25 17.7324 0.25 17.7349C0.25 17.7373 0.25 17.7397 0.25 17.7421C0.25 17.7446 0.25 17.747 0.25 17.7494C0.25 17.7517 0.25 17.7541 0.25 17.7565C0.25 17.7588 0.25 17.7612 0.25 17.7635C0.25 17.7658 0.25 17.7681 0.25 17.7704C0.25 17.7727 0.25 17.775 0.25 17.7773C0.25 17.7796 0.25 17.7818 0.25 17.7841C0.25 17.7863 0.25 17.7885 0.25 17.7907C0.25 17.793 0.25 17.7951 0.25 17.7973C0.25 17.7995 0.25 17.8017 0.25 17.8038C0.25 17.806 0.25 17.8081 0.25 17.8102C0.25 17.8124 0.25 17.8145 0.25 17.8166C0.25 17.8186 0.25 17.8207 0.25 17.8228C0.25 17.8248 0.25 17.8269 0.25 17.8289C0.25 17.831 0.25 17.833 0.25 17.835C0.25 17.837 0.25 17.839 0.25 17.8409C0.25 17.8429 0.25 17.8449 0.25 17.8468C0.25 17.8487 0.25 17.8507 0.25 17.8526C0.25 17.8545 0.25 17.8564 0.25 17.8583C0.25 17.8601 0.25 17.862 0.25 17.8638C0.25 17.8657 0.25 17.8675 0.25 17.8693C0.25 17.8712 0.25 17.873 0.25 17.8748C0.25 17.8765 0.25 17.8783 0.25 17.8801C0.25 17.8818 0.25 17.8836 0.25 17.8853C0.25 17.887 0.25 17.8887 0.25 17.8904C0.25 17.8921 0.25 17.8938 0.25 17.8955C0.25 17.8971 0.25 17.8988 0.25 17.9004C0.25 17.902 0.25 17.9037 0.25 17.9053C0.25 17.9069 0.25 17.9084 0.25 17.91C0.25 17.9116 0.25 17.9131 0.25 17.9147C0.25 17.9162 0.25 17.9177 0.25 17.9192C0.25 17.9208 0.25 17.9222 0.25 17.9237C0.25 17.9252 0.25 17.9267 0.25 17.9281C0.25 17.9295 0.25 17.931 0.25 17.9324C0.25 17.9338 0.25 17.9352 0.25 17.9366C0.25 17.938 0.25 17.9393 0.25 17.9407C0.25 17.942 0.25 17.9433 0.25 17.9447C0.25 17.946 0.25 17.9473 0.25 17.9486C0.25 17.9498 0.25 17.9511 0.25 17.9524C0.25 17.9536 0.25 17.9549 0.25 17.9561C0.25 17.9573 0.25 17.9585 0.25 17.9597C0.25 17.9609 0.25 17.9621 0.25 17.9632C0.25 17.9644 0.25 17.9655 0.25 17.9666C0.25 17.9678 0.25 17.9689 0.25 17.9699C0.25 17.971 0.25 17.9721 0.25 17.9732C0.25 17.9742 0.25 17.9753 0.25 17.9763C0.25 17.9773 0.25 17.9783 0.25 17.9793C0.25 17.9803 0.25 17.9813 0.25 17.9823C0.25 17.9832 0.25 17.9842 0.25 17.9851C0.25 17.986 0.25 17.9869 0.25 17.9878C0.25 17.9887 0.25 17.9896 0.25 17.9905C0.25 17.9913 0.25 17.9922 0.25 17.993C0.25 17.9938 0.25 17.9946 0.25 17.9954C0.25 17.9962 0.25 17.997 0.25 17.9978C0.25 17.9985 0.25 17.9993 0.25 18H1.75ZM4 6.75H14V5.25H4V6.75ZM1.75 8.99956C1.75 7.75706 2.75722 6.75 4 6.75V5.25C1.92908 5.25 0.25 6.92835 0.25 8.99956H1.75Z" fill="#0EAD0E"/>
</svg>
