<svg width="15" height="17" viewBox="0 0 15 17" fill="none" xmlns="http://www.w3.org/2000/svg">
<path d="M0.5 16C0.5 16.2761 0.723858 16.5 1 16.5C1.27614 16.5 1.5 16.2761 1.5 16H0.5ZM14.3536 4.35355C14.5488 4.15829 14.5488 3.84171 14.3536 3.64645L11.1716 0.464466C10.9763 0.269204 10.6597 0.269204 10.4645 0.464466C10.2692 0.659728 10.2692 0.976311 10.4645 1.17157L13.2929 4L10.4645 6.82843C10.2692 7.02369 10.2692 7.34027 10.4645 7.53553C10.6597 7.7308 10.9763 7.7308 11.1716 7.53553L14.3536 4.35355ZM1.5 16C1.5 15.9993 1.5 15.9985 1.5 15.9978C1.5 15.997 1.5 15.9962 1.5 15.9954C1.5 15.9946 1.5 15.9938 1.5 15.993C1.5 15.9922 1.5 15.9913 1.5 15.9905C1.5 15.9896 1.5 15.9887 1.5 15.9878C1.5 15.9869 1.5 15.986 1.5 15.9851C1.5 15.9842 1.5 15.9832 1.5 15.9823C1.5 15.9813 1.5 15.9803 1.5 15.9793C1.5 15.9783 1.5 15.9773 1.5 15.9763C1.5 15.9753 1.5 15.9742 1.5 15.9732C1.5 15.9721 1.5 15.971 1.5 15.9699C1.5 15.9689 1.5 15.9678 1.5 15.9666C1.5 15.9655 1.5 15.9644 1.5 15.9632C1.5 15.9621 1.5 15.9609 1.5 15.9597C1.5 15.9585 1.5 15.9573 1.5 15.9561C1.5 15.9549 1.5 15.9536 1.5 15.9524C1.5 15.9511 1.5 15.9498 1.5 15.9486C1.5 15.9473 1.5 15.946 1.5 15.9447C1.5 15.9433 1.5 15.942 1.5 15.9407C1.5 15.9393 1.5 15.938 1.5 15.9366C1.5 15.9352 1.5 15.9338 1.5 15.9324C1.5 15.931 1.5 15.9295 1.5 15.9281C1.5 15.9267 1.5 15.9252 1.5 15.9237C1.5 15.9222 1.5 15.9208 1.5 15.9192C1.5 15.9177 1.5 15.9162 1.5 15.9147C1.5 15.9131 1.5 15.9116 1.5 15.91C1.5 15.9084 1.5 15.9069 1.5 15.9053C1.5 15.9037 1.5 15.902 1.5 15.9004C1.5 15.8988 1.5 15.8971 1.5 15.8955C1.5 15.8938 1.5 15.8921 1.5 15.8904C1.5 15.8887 1.5 15.887 1.5 15.8853C1.5 15.8836 1.5 15.8818 1.5 15.8801C1.5 15.8783 1.5 15.8765 1.5 15.8748C1.5 15.873 1.5 15.8712 1.5 15.8693C1.5 15.8675 1.5 15.8657 1.5 15.8638C1.5 15.862 1.5 15.8601 1.5 15.8583C1.5 15.8564 1.5 15.8545 1.5 15.8526C1.5 15.8507 1.5 15.8487 1.5 15.8468C1.5 15.8449 1.5 15.8429 1.5 15.8409C1.5 15.839 1.5 15.837 1.5 15.835C1.5 15.833 1.5 15.831 1.5 15.8289C1.5 15.8269 1.5 15.8248 1.5 15.8228C1.5 15.8207 1.5 15.8186 1.5 15.8166C1.5 15.8145 1.5 15.8124 1.5 15.8102C1.5 15.8081 1.5 15.806 1.5 15.8038C1.5 15.8017 1.5 15.7995 1.5 15.7973C1.5 15.7951 1.5 15.793 1.5 15.7907C1.5 15.7885 1.5 15.7863 1.5 15.7841C1.5 15.7818 1.5 15.7796 1.5 15.7773C1.5 15.775 1.5 15.7727 1.5 15.7704C1.5 15.7681 1.5 15.7658 1.5 15.7635C1.5 15.7612 1.5 15.7588 1.5 15.7565C1.5 15.7541 1.5 15.7517 1.5 15.7494C1.5 15.747 1.5 15.7446 1.5 15.7421C1.5 15.7397 1.5 15.7373 1.5 15.7349C1.5 15.7324 1.5 15.7299 1.5 15.7275C1.5 15.725 1.5 15.7225 1.5 15.72C1.5 15.7175 1.5 15.715 1.5 15.7124C1.5 15.7099 1.5 15.7074 1.5 15.7048C1.5 15.7022 1.5 15.6997 1.5 15.6971C1.5 15.6945 1.5 15.6919 1.5 15.6893C1.5 15.6866 1.5 15.684 1.5 15.6814C1.5 15.6787 1.5 15.6761 1.5 15.6734C1.5 15.6707 1.5 15.668 1.5 15.6653C1.5 15.6626 1.5 15.6599 1.5 15.6572C1.5 15.6544 1.5 15.6517 1.5 15.6489C1.5 15.6462 1.5 15.6434 1.5 15.6406C1.5 15.6378 1.5 15.635 1.5 15.6322C1.5 15.6294 1.5 15.6265 1.5 15.6237C1.5 15.6208 1.5 15.618 1.5 15.6151C1.5 15.6122 1.5 15.6093 1.5 15.6064C1.5 15.6035 1.5 15.6006 1.5 15.5977C1.5 15.5948 1.5 15.5918 1.5 15.5889C1.5 15.5859 1.5 15.5829 1.5 15.58C1.5 15.577 1.5 15.574 1.5 15.571C1.5 15.568 1.5 15.5649 1.5 15.5619C1.5 15.5589 1.5 15.5558 1.5 15.5527C1.5 15.5497 1.5 15.5466 1.5 15.5435C1.5 15.5404 1.5 15.5373 1.5 15.5342C1.5 15.531 1.5 15.5279 1.5 15.5248C1.5 15.5216 1.5 15.5185 1.5 15.5153C1.5 15.5121 1.5 15.5089 1.5 15.5057C1.5 15.5025 1.5 15.4993 1.5 15.4961C1.5 15.4928 1.5 15.4896 1.5 15.4863C1.5 15.4831 1.5 15.4798 1.5 15.4765C1.5 15.4732 1.5 15.4699 1.5 15.4666C1.5 15.4633 1.5 15.46 1.5 15.4567C1.5 15.4533 1.5 15.45 1.5 15.4466C1.5 15.4433 1.5 15.4399 1.5 15.4365C1.5 15.4331 1.5 15.4297 1.5 15.4263C1.5 15.4229 1.5 15.4194 1.5 15.416C1.5 15.4126 1.5 15.4091 1.5 15.4056C1.5 15.4022 1.5 15.3987 1.5 15.3952C1.5 15.3917 1.5 15.3882 1.5 15.3847C1.5 15.3811 1.5 15.3776 1.5 15.3741C1.5 15.3705 1.5 15.367 1.5 15.3634C1.5 15.3598 1.5 15.3562 1.5 15.3526C1.5 15.349 1.5 15.3454 1.5 15.3418C1.5 15.3382 1.5 15.3345 1.5 15.3309C1.5 15.3272 1.5 15.3236 1.5 15.3199C1.5 15.3162 1.5 15.3125 1.5 15.3088C1.5 15.3051 1.5 15.3014 1.5 15.2977C1.5 15.294 1.5 15.2902 1.5 15.2865C1.5 15.2827 1.5 15.279 1.5 15.2752C1.5 15.2714 1.5 15.2676 1.5 15.2638C1.5 15.26 1.5 15.2562 1.5 15.2524C1.5 15.2486 1.5 15.2447 1.5 15.2409C1.5 15.237 1.5 15.2331 1.5 15.2293C1.5 15.2254 1.5 15.2215 1.5 15.2176C1.5 15.2137 1.5 15.2098 1.5 15.2059C1.5 15.2019 1.5 15.198 1.5 15.194C1.5 15.1901 1.5 15.1861 1.5 15.1821C1.5 15.1782 1.5 15.1742 1.5 15.1702C1.5 15.1662 1.5 15.1622 1.5 15.1581C1.5 15.1541 1.5 15.1501 1.5 15.146C1.5 15.142 1.5 15.1379 1.5 15.1338C1.5 15.1298 1.5 15.1257 1.5 15.1216C1.5 15.1175 1.5 15.1134 1.5 15.1092C1.5 15.1051 1.5 15.101 1.5 15.0968C1.5 15.0927 1.5 15.0885 1.5 15.0844C1.5 15.0802 1.5 15.076 1.5 15.0718C1.5 15.0676 1.5 15.0634 1.5 15.0592C1.5 15.055 1.5 15.0508 1.5 15.0465C1.5 15.0423 1.5 15.038 1.5 15.0337C1.5 15.0295 1.5 15.0252 1.5 15.0209C1.5 15.0166 1.5 15.0123 1.5 15.008C1.5 15.0037 1.5 14.9994 1.5 14.995C1.5 14.9907 1.5 14.9863 1.5 14.982C1.5 14.9776 1.5 14.9733 1.5 14.9689C1.5 14.9645 1.5 14.9601 1.5 14.9557C1.5 14.9513 1.5 14.9469 1.5 14.9424C1.5 14.938 1.5 14.9336 1.5 14.9291C1.5 14.9247 1.5 14.9202 1.5 14.9157C1.5 14.9112 1.5 14.9067 1.5 14.9022C1.5 14.8977 1.5 14.8932 1.5 14.8887C1.5 14.8842 1.5 14.8797 1.5 14.8751C1.5 14.8706 1.5 14.866 1.5 14.8614C1.5 14.8569 1.5 14.8523 1.5 14.8477C1.5 14.8431 1.5 14.8385 1.5 14.8339C1.5 14.8293 1.5 14.8247 1.5 14.82C1.5 14.8154 1.5 14.8108 1.5 14.8061C1.5 14.8014 1.5 14.7968 1.5 14.7921C1.5 14.7874 1.5 14.7827 1.5 14.778C1.5 14.7733 1.5 14.7686 1.5 14.7639C1.5 14.7592 1.5 14.7544 1.5 14.7497C1.5 14.7449 1.5 14.7402 1.5 14.7354C1.5 14.7306 1.5 14.7259 1.5 14.7211C1.5 14.7163 1.5 14.7115 1.5 14.7067C1.5 14.7018 1.5 14.697 1.5 14.6922C1.5 14.6874 1.5 14.6825 1.5 14.6777C1.5 14.6728 1.5 14.6679 1.5 14.6631C1.5 14.6582 1.5 14.6533 1.5 14.6484C1.5 14.6435 1.5 14.6386 1.5 14.6337C1.5 14.6287 1.5 14.6238 1.5 14.6189C1.5 14.6139 1.5 14.609 1.5 14.604C1.5 14.599 1.5 14.5941 1.5 14.5891C1.5 14.5841 1.5 14.5791 1.5 14.5741C1.5 14.5691 1.5 14.5641 1.5 14.5591C1.5 14.554 1.5 14.549 1.5 14.544C1.5 14.5389 1.5 14.5338 1.5 14.5288C1.5 14.5237 1.5 14.5186 1.5 14.5135C1.5 14.5085 1.5 14.5034 1.5 14.4982C1.5 14.4931 1.5 14.488 1.5 14.4829C1.5 14.4778 1.5 14.4726 1.5 14.4675C1.5 14.4623 1.5 14.4571 1.5 14.452C1.5 14.4468 1.5 14.4416 1.5 14.4364C1.5 14.4312 1.5 14.426 1.5 14.4208C1.5 14.4156 1.5 14.4104 1.5 14.4052C1.5 14.3999 1.5 14.3947 1.5 14.3894C1.5 14.3842 1.5 14.3789 1.5 14.3736C1.5 14.3684 1.5 14.3631 1.5 14.3578C1.5 14.3525 1.5 14.3472 1.5 14.3419C1.5 14.3366 1.5 14.3312 1.5 14.3259C1.5 14.3206 1.5 14.3152 1.5 14.3099C1.5 14.3045 1.5 14.2992 1.5 14.2938C1.5 14.2884 1.5 14.283 1.5 14.2776C1.5 14.2723 1.5 14.2668 1.5 14.2614C1.5 14.256 1.5 14.2506 1.5 14.2452C1.5 14.2397 1.5 14.2343 1.5 14.2288C1.5 14.2234 1.5 14.2179 1.5 14.2125C1.5 14.207 1.5 14.2015 1.5 14.196C1.5 14.1905 1.5 14.185 1.5 14.1795C1.5 14.174 1.5 14.1685 1.5 14.163C1.5 14.1574 1.5 14.1519 1.5 14.1464C1.5 14.1408 1.5 14.1353 1.5 14.1297C1.5 14.1241 1.5 14.1186 1.5 14.113C1.5 14.1074 1.5 14.1018 1.5 14.0962C1.5 14.0906 1.5 14.085 1.5 14.0793C1.5 14.0737 1.5 14.0681 1.5 14.0625C1.5 14.0568 1.5 14.0512 1.5 14.0455C1.5 14.0398 1.5 14.0342 1.5 14.0285C1.5 14.0228 1.5 14.0171 1.5 14.0114C1.5 14.0057 1.5 14 1.5 13.9943C1.5 13.9886 1.5 13.9829 1.5 13.9771C1.5 13.9714 1.5 13.9657 1.5 13.9599C1.5 13.9542 1.5 13.9484 1.5 13.9426C1.5 13.9369 1.5 13.9311 1.5 13.9253C1.5 13.9195 1.5 13.9137 1.5 13.9079C1.5 13.9021 1.5 13.8963 1.5 13.8905C1.5 13.8847 1.5 13.8788 1.5 13.873C1.5 13.8671 1.5 13.8613 1.5 13.8554C1.5 13.8496 1.5 13.8437 1.5 13.8378C1.5 13.832 1.5 13.8261 1.5 13.8202C1.5 13.8143 1.5 13.8084 1.5 13.8025C1.5 13.7966 1.5 13.7906 1.5 13.7847C1.5 13.7788 1.5 13.7728 1.5 13.7669C1.5 13.7609 1.5 13.755 1.5 13.749C1.5 13.7431 1.5 13.7371 1.5 13.7311C1.5 13.7251 1.5 13.7191 1.5 13.7131C1.5 13.7072 1.5 13.7011 1.5 13.6951C1.5 13.6891 1.5 13.6831 1.5 13.6771C1.5 13.671 1.5 13.665 1.5 13.6589C1.5 13.6529 1.5 13.6468 1.5 13.6408C1.5 13.6347 1.5 13.6286 1.5 13.6226C1.5 13.6165 1.5 13.6104 1.5 13.6043C1.5 13.5982 1.5 13.5921 1.5 13.586C1.5 13.5798 1.5 13.5737 1.5 13.5676C1.5 13.5615 1.5 13.5553 1.5 13.5492C1.5 13.543 1.5 13.5369 1.5 13.5307C1.5 13.5245 1.5 13.5184 1.5 13.5122C1.5 13.506 1.5 13.4998 1.5 13.4936C1.5 13.4874 1.5 13.4812 1.5 13.475C1.5 13.4688 1.5 13.4626 1.5 13.4564C1.5 13.4501 1.5 13.4439 1.5 13.4376C1.5 13.4314 1.5 13.4251 1.5 13.4189C1.5 13.4126 1.5 13.4064 1.5 13.4001C1.5 13.3938 1.5 13.3875 1.5 13.3812C1.5 13.3749 1.5 13.3686 1.5 13.3623C1.5 13.356 1.5 13.3497 1.5 13.3434C1.5 13.3371 1.5 13.3307 1.5 13.3244C1.5 13.3181 1.5 13.3117 1.5 13.3054C1.5 13.299 1.5 13.2926 1.5 13.2863C1.5 13.2799 1.5 13.2735 1.5 13.2671C1.5 13.2608 1.5 13.2544 1.5 13.248C1.5 13.2416 1.5 13.2352 1.5 13.2287C1.5 13.2223 1.5 13.2159 1.5 13.2095C1.5 13.2031 1.5 13.1966 1.5 13.1902C1.5 13.1837 1.5 13.1773 1.5 13.1708C1.5 13.1644 1.5 13.1579 1.5 13.1514C1.5 13.1449 1.5 13.1385 1.5 13.132C1.5 13.1255 1.5 13.119 1.5 13.1125C1.5 13.106 1.5 13.0995 1.5 13.093C1.5 13.0864 1.5 13.0799 1.5 13.0734C1.5 13.0668 1.5 13.0603 1.5 13.0538C1.5 13.0472 1.5 13.0407 1.5 13.0341C1.5 13.0275 1.5 13.021 1.5 13.0144C1.5 13.0078 1.5 13.0012 1.5 12.9947C1.5 12.9881 1.5 12.9815 1.5 12.9749C1.5 12.9683 1.5 12.9617 1.5 12.955C1.5 12.9484 1.5 12.9418 1.5 12.9352C1.5 12.9285 1.5 12.9219 1.5 12.9152C1.5 12.9086 1.5 12.902 1.5 12.8953C1.5 12.8886 1.5 12.882 1.5 12.8753C1.5 12.8686 1.5 12.8619 1.5 12.8553C1.5 12.8486 1.5 12.8419 1.5 12.8352C1.5 12.8285 1.5 12.8218 1.5 12.8151C1.5 12.8084 1.5 12.8016 1.5 12.7949C1.5 12.7882 1.5 12.7815 1.5 12.7747C1.5 12.768 1.5 12.7612 1.5 12.7545C1.5 12.7477 1.5 12.741 1.5 12.7342C1.5 12.7274 1.5 12.7207 1.5 12.7139C1.5 12.7071 1.5 12.7003 1.5 12.6935C1.5 12.6867 1.5 12.6799 1.5 12.6731C1.5 12.6663 1.5 12.6595 1.5 12.6527C1.5 12.6459 1.5 12.6391 1.5 12.6322C1.5 12.6254 1.5 12.6186 1.5 12.6117C1.5 12.6049 1.5 12.598 1.5 12.5912C1.5 12.5843 1.5 12.5775 1.5 12.5706C1.5 12.5637 1.5 12.5569 1.5 12.55C1.5 12.5431 1.5 12.5362 1.5 12.5293C1.5 12.5224 1.5 12.5155 1.5 12.5086C1.5 12.5017 1.5 12.4948 1.5 12.4879C1.5 12.481 1.5 12.474 1.5 12.4671C1.5 12.4602 1.5 12.4533 1.5 12.4463C1.5 12.4394 1.5 12.4324 1.5 12.4255C1.5 12.4185 1.5 12.4116 1.5 12.4046C1.5 12.3976 1.5 12.3907 1.5 12.3837C1.5 12.3767 1.5 12.3697 1.5 12.3627C1.5 12.3558 1.5 12.3488 1.5 12.3418C1.5 12.3348 1.5 12.3278 1.5 12.3207C1.5 12.3137 1.5 12.3067 1.5 12.2997C1.5 12.2927 1.5 12.2856 1.5 12.2786C1.5 12.2716 1.5 12.2645 1.5 12.2575C1.5 12.2504 1.5 12.2434 1.5 12.2363C1.5 12.2293 1.5 12.2222 1.5 12.2151C1.5 12.2081 1.5 12.201 1.5 12.1939C1.5 12.1869 1.5 12.1798 1.5 12.1727C1.5 12.1656 1.5 12.1585 1.5 12.1514C1.5 12.1443 1.5 12.1372 1.5 12.1301C1.5 12.123 1.5 12.1158 1.5 12.1087C1.5 12.1016 1.5 12.0945 1.5 12.0873C1.5 12.0802 1.5 12.0731 1.5 12.0659C1.5 12.0588 1.5 12.0516 1.5 12.0445C1.5 12.0373 1.5 12.0302 1.5 12.023C1.5 12.0158 1.5 12.0087 1.5 12.0015C1.5 11.9943 1.5 11.9871 1.5 11.9799C1.5 11.9728 1.5 11.9656 1.5 11.9584C1.5 11.9512 1.5 11.944 1.5 11.9368C1.5 11.9296 1.5 11.9224 1.5 11.9151C1.5 11.9079 1.5 11.9007 1.5 11.8935C1.5 11.8863 1.5 11.879 1.5 11.8718C1.5 11.8646 1.5 11.8573 1.5 11.8501C1.5 11.8428 1.5 11.8356 1.5 11.8283C1.5 11.8211 1.5 11.8138 1.5 11.8065C1.5 11.7993 1.5 11.792 1.5 11.7847C1.5 11.7775 1.5 11.7702 1.5 11.7629C1.5 11.7556 1.5 11.7483 1.5 11.741C1.5 11.7337 1.5 11.7264 1.5 11.7191C1.5 11.7118 1.5 11.7045 1.5 11.6972C1.5 11.6899 1.5 11.6826 1.5 11.6753C1.5 11.6679 1.5 11.6606 1.5 11.6533C1.5 11.646 1.5 11.6386 1.5 11.6313C1.5 11.6239 1.5 11.6166 1.5 11.6092C1.5 11.6019 1.5 11.5945 1.5 11.5872C1.5 11.5798 1.5 11.5725 1.5 11.5651C1.5 11.5577 1.5 11.5504 1.5 11.543C1.5 11.5356 1.5 11.5282 1.5 11.5209C1.5 11.5135 1.5 11.5061 1.5 11.4987C1.5 11.4913 1.5 11.4839 1.5 11.4765C1.5 11.4691 1.5 11.4617 1.5 11.4543C1.5 11.4469 1.5 11.4395 1.5 11.432C1.5 11.4246 1.5 11.4172 1.5 11.4098C1.5 11.4024 1.5 11.3949 1.5 11.3875C1.5 11.3801 1.5 11.3726 1.5 11.3652C1.5 11.3577 1.5 11.3503 1.5 11.3428C1.5 11.3354 1.5 11.3279 1.5 11.3205C1.5 11.313 1.5 11.3056 1.5 11.2981C1.5 11.2906 1.5 11.2832 1.5 11.2757C1.5 11.2682 1.5 11.2607 1.5 11.2533C1.5 11.2458 1.5 11.2383 1.5 11.2308C1.5 11.2233 1.5 11.2158 1.5 11.2083C1.5 11.2008 1.5 11.1933 1.5 11.1858C1.5 11.1783 1.5 11.1708 1.5 11.1633C1.5 11.1558 1.5 11.1483 1.5 11.1408C1.5 11.1332 1.5 11.1257 1.5 11.1182C1.5 11.1107 1.5 11.1031 1.5 11.0956C1.5 11.0881 1.5 11.0805 1.5 11.073C1.5 11.0655 1.5 11.0579 1.5 11.0504C1.5 11.0428 1.5 11.0353 1.5 11.0277C1.5 11.0202 1.5 11.0126 1.5 11.005C1.5 10.9975 1.5 10.9899 1.5 10.9823C1.5 10.9748 1.5 10.9672 1.5 10.9596C1.5 10.9521 1.5 10.9445 1.5 10.9369C1.5 10.9293 1.5 10.9217 1.5 10.9141C1.5 10.9066 1.5 10.899 1.5 10.8914C1.5 10.8838 1.5 10.8762 1.5 10.8686C1.5 10.861 1.5 10.8534 1.5 10.8458C1.5 10.8382 1.5 10.8305 1.5 10.8229C1.5 10.8153 1.5 10.8077 1.5 10.8001C1.5 10.7925 1.5 10.7848 1.5 10.7772C1.5 10.7696 1.5 10.762 1.5 10.7543C1.5 10.7467 1.5 10.7391 1.5 10.7314C1.5 10.7238 1.5 10.7162 1.5 10.7085C1.5 10.7009 1.5 10.6932 1.5 10.6856C1.5 10.6779 1.5 10.6703 1.5 10.6626C1.5 10.655 1.5 10.6473 1.5 10.6396C1.5 10.632 1.5 10.6243 1.5 10.6167C1.5 10.609 1.5 10.6013 1.5 10.5937C1.5 10.586 1.5 10.5783 1.5 10.5706C1.5 10.563 1.5 10.5553 1.5 10.5476C1.5 10.5399 1.5 10.5322 1.5 10.5245C1.5 10.5169 1.5 10.5092 1.5 10.5015C1.5 10.4938 1.5 10.4861 1.5 10.4784C1.5 10.4707 1.5 10.463 1.5 10.4553C1.5 10.4476 1.5 10.4399 1.5 10.4322C1.5 10.4245 1.5 10.4168 1.5 10.409C1.5 10.4013 1.5 10.3936 1.5 10.3859C1.5 10.3782 1.5 10.3705 1.5 10.3627C1.5 10.355 1.5 10.3473 1.5 10.3396C1.5 10.3319 1.5 10.3241 1.5 10.3164C1.5 10.3087 1.5 10.3009 1.5 10.2932C1.5 10.2855 1.5 10.2777 1.5 10.27C1.5 10.2622 1.5 10.2545 1.5 10.2468C1.5 10.239 1.5 10.2313 1.5 10.2235C1.5 10.2158 1.5 10.208 1.5 10.2003C1.5 10.1925 1.5 10.1848 1.5 10.177C1.5 10.1693 1.5 10.1615 1.5 10.1537C1.5 10.146 1.5 10.1382 1.5 10.1305C1.5 10.1227 1.5 10.1149 1.5 10.1072C1.5 10.0994 1.5 10.0916 1.5 10.0838C1.5 10.0761 1.5 10.0683 1.5 10.0605C1.5 10.0528 1.5 10.045 1.5 10.0372C1.5 10.0294 1.5 10.0216 1.5 10.0139C1.5 10.0061 1.5 9.99829 1.5 9.99051C1.5 9.98272 1.5 9.97493 1.5 9.96714C1.5 9.95935 1.5 9.95156 1.5 9.94377C1.5 9.93598 1.5 9.92819 1.5 9.92039C1.5 9.9126 1.5 9.9048 1.5 9.897C1.5 9.8892 1.5 9.8814 1.5 9.8736C1.5 9.8658 1.5 9.858 1.5 9.85019C1.5 9.84239 1.5 9.83458 1.5 9.82677C1.5 9.81897 1.5 9.81116 1.5 9.80335C1.5 9.79554 1.5 9.78773 1.5 9.77991C1.5 9.7721 1.5 9.76429 1.5 9.75647C1.5 9.74866 1.5 9.74084 1.5 9.73302C1.5 9.7252 1.5 9.71738 1.5 9.70956C1.5 9.70174 1.5 9.69392 1.5 9.6861C1.5 9.67828 1.5 9.67045 1.5 9.66263C1.5 9.6548 1.5 9.64697 1.5 9.63915C1.5 9.63132 1.5 9.62349 1.5 9.61566C1.5 9.60783 1.5 9.6 1.5 9.59217C1.5 9.58434 1.5 9.5765 1.5 9.56867C1.5 9.56084 1.5 9.553 1.5 9.54517C1.5 9.53733 1.5 9.52949 1.5 9.52166C1.5 9.51382 1.5 9.50598 1.5 9.49814C1.5 9.4903 1.5 9.48246 1.5 9.47462C1.5 9.46678 1.5 9.45894 1.5 9.45109C1.5 9.44325 1.5 9.43541 1.5 9.42756C1.5 9.41972 1.5 9.41188 1.5 9.40403C1.5 9.39618 1.5 9.38834 1.5 9.38049C1.5 9.37264 1.5 9.3648 1.5 9.35695C1.5 9.3491 1.5 9.34125 1.5 9.3334C1.5 9.32555 1.5 9.3177 1.5 9.30985C1.5 9.302 1.5 9.29415 1.5 9.28629C1.5 9.27844 1.5 9.27059 1.5 9.26274C1.5 9.25488 1.5 9.24703 1.5 9.23918C1.5 9.23132 1.5 9.22347 1.5 9.21561C1.5 9.20776 1.5 9.1999 1.5 9.19205C1.5 9.18419 1.5 9.17634 1.5 9.16848C1.5 9.16063 1.5 9.15277 1.5 9.14491C1.5 9.13706 1.5 9.1292 1.5 9.12134C1.5 9.11348 1.5 9.10563 1.5 9.09777C1.5 9.08991 1.5 9.08205 1.5 9.07419C1.5 9.06634 1.5 9.05848 1.5 9.05062C1.5 9.04276 1.5 9.0349 1.5 9.02704C1.5 9.01919 1.5 9.01133 1.5 9.00347C1.5 8.99561 1.5 8.98775 1.5 8.97989C1.5 8.97203 1.5 8.96417 1.5 8.95632C1.5 8.94846 1.5 8.9406 1.5 8.93274C1.5 8.92488 1.5 8.91702 1.5 8.90916C1.5 8.9013 1.5 8.89345 1.5 8.88559C1.5 8.87773 1.5 8.86987 1.5 8.86201C1.5 8.85415 1.5 8.8463 1.5 8.83844C1.5 8.83058 1.5 8.82272 1.5 8.81487C1.5 8.80701 1.5 8.79915 1.5 8.7913C1.5 8.78344 1.5 8.77558 1.5 8.76773C1.5 8.75987 1.5 8.75202 1.5 8.74416C1.5 8.73631 1.5 8.72845 1.5 8.7206C1.5 8.71274 1.5 8.70489 1.5 8.69703C1.5 8.68918 1.5 8.68133 1.5 8.67347C1.5 8.66562 1.5 8.65777 1.5 8.64992C1.5 8.64207 1.5 8.63422 1.5 8.62637C1.5 8.61851 1.5 8.61066 1.5 8.60282C1.5 8.59497 1.5 8.58712 1.5 8.57927C1.5 8.57142 1.5 8.56357 1.5 8.55573C1.5 8.54788 1.5 8.54003 1.5 8.53219C1.5 8.52434 1.5 8.5165 1.5 8.50866C1.5 8.50081 1.5 8.49297 1.5 8.48513C1.5 8.47728 1.5 8.46944 1.5 8.4616C1.5 8.45376 1.5 8.44592 1.5 8.43808C1.5 8.43024 1.5 8.42241 1.5 8.41457C1.5 8.40673 1.5 8.3989 1.5 8.39106C1.5 8.38323 1.5 8.37539 1.5 8.36756C1.5 8.35973 1.5 8.35189 1.5 8.34406C1.5 8.33623 1.5 8.3284 1.5 8.32057C1.5 8.31274 1.5 8.30491 1.5 8.29709C1.5 8.28926 1.5 8.28144 1.5 8.27361C1.5 8.26579 1.5 8.25796 1.5 8.25014C1.5 8.24232 1.5 8.2345 1.5 8.22668C1.5 8.21886 1.5 8.21104 1.5 8.20322C1.5 8.19541 1.5 8.18759 1.5 8.17977C1.5 8.17196 1.5 8.16415 1.5 8.15633C1.5 8.14852 1.5 8.14071 1.5 8.1329C1.5 8.12509 1.5 8.11729 1.5 8.10948C1.5 8.10167 1.5 8.09387 1.5 8.08606C1.5 8.07826 1.5 8.07046 1.5 8.06266C1.5 8.05486 1.5 8.04706 1.5 8.03926C1.5 8.03146 1.5 8.02367 1.5 8.01587C1.5 8.00808 1.5 8.00029 1.5 7.99249C1.5 7.9847 1.5 7.97691 1.5 7.96913C1.5 7.96134 1.5 7.95355 1.5 7.94577C1.5 7.93798 1.5 7.9302 1.5 7.92242C1.5 7.91464 1.5 7.90686 1.5 7.89908C1.5 7.8913 1.5 7.88353 1.5 7.87575C1.5 7.86798 1.5 7.86021 1.5 7.85244C1.5 7.84467 1.5 7.8369 1.5 7.82913C1.5 7.82137 1.5 7.8136 1.5 7.80584C1.5 7.79808 1.5 7.79032 1.5 7.78256C1.5 7.7748 1.5 7.76704 1.5 7.75929C1.5 7.75153 1.5 7.74378 1.5 7.73603C1.5 7.72828 1.5 7.72053 1.5 7.71278C1.5 7.70504 1.5 7.69729 1.5 7.68955C1.5 7.68181 1.5 7.67407 1.5 7.66633C1.5 7.65859 1.5 7.65086 1.5 7.64312C1.5 7.63539 1.5 7.62766 1.5 7.61993C1.5 7.6122 1.5 7.60447 1.5 7.59675C1.5 7.58902 1.5 7.5813 1.5 7.57358C1.5 7.56586 1.5 7.55814 1.5 7.55043C1.5 7.54271 1.5 7.535 1.5 7.52729C1.5 7.51958 1.5 7.51187 1.5 7.50416C1.5 7.49646 1.5 7.48876 1.5 7.48106C1.5 7.47335 1.5 7.46566 1.5 7.45796C1.5 7.45026 1.5 7.44257 1.5 7.43488C1.5 7.42719 1.5 7.4195 1.5 7.41182C1.5 7.40413 1.5 7.39645 1.5 7.38877C1.5 7.38109 1.5 7.37341 1.5 7.36574C1.5 7.35806 1.5 7.35039 1.5 7.34272C1.5 7.33505 1.5 7.32738 1.5 7.31972C1.5 7.31206 1.5 7.30439 1.5 7.29674C1.5 7.28908 1.5 7.28142 1.5 7.27377C1.5 7.26612 1.5 7.25847 1.5 7.25082C1.5 7.24317 1.5 7.23553 1.5 7.22789C1.5 7.22024 1.5 7.21261 1.5 7.20497C1.5 7.19734 1.5 7.1897 1.5 7.18207C1.5 7.17444 1.5 7.16682 1.5 7.15919C1.5 7.15157 1.5 7.14395 1.5 7.13633C1.5 7.12872 1.5 7.1211 1.5 7.11349C1.5 7.10588 1.5 7.09827 1.5 7.09067C1.5 7.08306 1.5 7.07546 1.5 7.06786C1.5 7.06026 1.5 7.05267 1.5 7.04507C1.5 7.03748 1.5 7.02989 1.5 7.02231C1.5 7.01472 1.5 7.00714 1.5 6.99956H0.5C0.5 7.00714 0.5 7.01472 0.5 7.02231C0.5 7.02989 0.5 7.03748 0.5 7.04507C0.5 7.05267 0.5 7.06026 0.5 7.06786C0.5 7.07546 0.5 7.08306 0.5 7.09067C0.5 7.09827 0.5 7.10588 0.5 7.11349C0.5 7.1211 0.5 7.12872 0.5 7.13633C0.5 7.14395 0.5 7.15157 0.5 7.15919C0.5 7.16682 0.5 7.17444 0.5 7.18207C0.5 7.1897 0.5 7.19734 0.5 7.20497C0.5 7.21261 0.5 7.22024 0.5 7.22789C0.5 7.23553 0.5 7.24317 0.5 7.25082C0.5 7.25847 0.5 7.26612 0.5 7.27377C0.5 7.28142 0.5 7.28908 0.5 7.29674C0.5 7.30439 0.5 7.31206 0.5 7.31972C0.5 7.32738 0.5 7.33505 0.5 7.34272C0.5 7.35039 0.5 7.35806 0.5 7.36574C0.5 7.37341 0.5 7.38109 0.5 7.38877C0.5 7.39645 0.5 7.40413 0.5 7.41182C0.5 7.4195 0.5 7.42719 0.5 7.43488C0.5 7.44257 0.5 7.45026 0.5 7.45796C0.5 7.46566 0.5 7.47335 0.5 7.48106C0.5 7.48876 0.5 7.49646 0.5 7.50416C0.5 7.51187 0.5 7.51958 0.5 7.52729C0.5 7.535 0.5 7.54271 0.5 7.55043C0.5 7.55814 0.5 7.56586 0.5 7.57358C0.5 7.5813 0.5 7.58902 0.5 7.59675C0.5 7.60447 0.5 7.6122 0.5 7.61993C0.5 7.62766 0.5 7.63539 0.5 7.64312C0.5 7.65086 0.5 7.65859 0.5 7.66633C0.5 7.67407 0.5 7.68181 0.5 7.68955C0.5 7.69729 0.5 7.70504 0.5 7.71278C0.5 7.72053 0.5 7.72828 0.5 7.73603C0.5 7.74378 0.5 7.75153 0.5 7.75929C0.5 7.76704 0.5 7.7748 0.5 7.78256C0.5 7.79032 0.5 7.79808 0.5 7.80584C0.5 7.8136 0.5 7.82137 0.5 7.82913C0.5 7.8369 0.5 7.84467 0.5 7.85244C0.5 7.86021 0.5 7.86798 0.5 7.87575C0.5 7.88353 0.5 7.8913 0.5 7.89908C0.5 7.90686 0.5 7.91464 0.5 7.92242C0.5 7.9302 0.5 7.93798 0.5 7.94577C0.5 7.95355 0.5 7.96134 0.5 7.96913C0.5 7.97691 0.5 7.9847 0.5 7.99249C0.5 8.00029 0.5 8.00808 0.5 8.01587C0.5 8.02367 0.5 8.03146 0.5 8.03926C0.5 8.04706 0.5 8.05486 0.5 8.06266C0.5 8.07046 0.5 8.07826 0.5 8.08606C0.5 8.09387 0.5 8.10167 0.5 8.10948C0.5 8.11729 0.5 8.12509 0.5 8.1329C0.5 8.14071 0.5 8.14852 0.5 8.15633C0.5 8.16415 0.5 8.17196 0.5 8.17977C0.5 8.18759 0.5 8.19541 0.5 8.20322C0.5 8.21104 0.5 8.21886 0.5 8.22668C0.5 8.2345 0.5 8.24232 0.5 8.25014C0.5 8.25796 0.5 8.26579 0.5 8.27361C0.5 8.28144 0.5 8.28926 0.5 8.29709C0.5 8.30491 0.5 8.31274 0.5 8.32057C0.5 8.3284 0.5 8.33623 0.5 8.34406C0.5 8.35189 0.5 8.35973 0.5 8.36756C0.5 8.37539 0.5 8.38323 0.5 8.39106C0.5 8.3989 0.5 8.40673 0.5 8.41457C0.5 8.42241 0.5 8.43024 0.5 8.43808C0.5 8.44592 0.5 8.45376 0.5 8.4616C0.5 8.46944 0.5 8.47728 0.5 8.48513C0.5 8.49297 0.5 8.50081 0.5 8.50866C0.5 8.5165 0.5 8.52434 0.5 8.53219C0.5 8.54003 0.5 8.54788 0.5 8.55573C0.5 8.56357 0.5 8.57142 0.5 8.57927C0.5 8.58712 0.5 8.59497 0.5 8.60282C0.5 8.61066 0.5 8.61851 0.5 8.62637C0.5 8.63422 0.5 8.64207 0.5 8.64992C0.5 8.65777 0.5 8.66562 0.5 8.67347C0.5 8.68133 0.5 8.68918 0.5 8.69703C0.5 8.70489 0.5 8.71274 0.5 8.7206C0.5 8.72845 0.5 8.73631 0.5 8.74416C0.5 8.75202 0.5 8.75987 0.5 8.76773C0.5 8.77558 0.5 8.78344 0.5 8.7913C0.5 8.79915 0.5 8.80701 0.5 8.81487C0.5 8.82272 0.5 8.83058 0.5 8.83844C0.5 8.8463 0.5 8.85415 0.5 8.86201C0.5 8.86987 0.5 8.87773 0.5 8.88559C0.5 8.89345 0.5 8.9013 0.5 8.90916C0.5 8.91702 0.5 8.92488 0.5 8.93274C0.5 8.9406 0.5 8.94846 0.5 8.95632C0.5 8.96417 0.5 8.97203 0.5 8.97989C0.5 8.98775 0.5 8.99561 0.5 9.00347C0.5 9.01133 0.5 9.01919 0.5 9.02704C0.5 9.0349 0.5 9.04276 0.5 9.05062C0.5 9.05848 0.5 9.06634 0.5 9.07419C0.5 9.08205 0.5 9.08991 0.5 9.09777C0.5 9.10563 0.5 9.11348 0.5 9.12134C0.5 9.1292 0.5 9.13706 0.5 9.14491C0.5 9.15277 0.5 9.16063 0.5 9.16848C0.5 9.17634 0.5 9.18419 0.5 9.19205C0.5 9.1999 0.5 9.20776 0.5 9.21561C0.5 9.22347 0.5 9.23132 0.5 9.23918C0.5 9.24703 0.5 9.25488 0.5 9.26274C0.5 9.27059 0.5 9.27844 0.5 9.28629C0.5 9.29415 0.5 9.302 0.5 9.30985C0.5 9.3177 0.5 9.32555 0.5 9.3334C0.5 9.34125 0.5 9.3491 0.5 9.35695C0.5 9.3648 0.5 9.37264 0.5 9.38049C0.5 9.38834 0.5 9.39618 0.5 9.40403C0.5 9.41188 0.5 9.41972 0.5 9.42756C0.5 9.43541 0.5 9.44325 0.5 9.45109C0.5 9.45894 0.5 9.46678 0.5 9.47462C0.5 9.48246 0.5 9.4903 0.5 9.49814C0.5 9.50598 0.5 9.51382 0.5 9.52166C0.5 9.52949 0.5 9.53733 0.5 9.54517C0.5 9.553 0.5 9.56084 0.5 9.56867C0.5 9.5765 0.5 9.58434 0.5 9.59217C0.5 9.6 0.5 9.60783 0.5 9.61566C0.5 9.62349 0.5 9.63132 0.5 9.63915C0.5 9.64697 0.5 9.6548 0.5 9.66263C0.5 9.67045 0.5 9.67828 0.5 9.6861C0.5 9.69392 0.5 9.70174 0.5 9.70956C0.5 9.71738 0.5 9.7252 0.5 9.73302C0.5 9.74084 0.5 9.74866 0.5 9.75647C0.5 9.76429 0.5 9.7721 0.5 9.77991C0.5 9.78773 0.5 9.79554 0.5 9.80335C0.5 9.81116 0.5 9.81897 0.5 9.82677C0.5 9.83458 0.5 9.84239 0.5 9.85019C0.5 9.858 0.5 9.8658 0.5 9.8736C0.5 9.8814 0.5 9.8892 0.5 9.897C0.5 9.9048 0.5 9.9126 0.5 9.92039C0.5 9.92819 0.5 9.93598 0.5 9.94377C0.5 9.95156 0.5 9.95935 0.5 9.96714C0.5 9.97493 0.5 9.98272 0.5 9.99051C0.5 9.99829 0.5 10.0061 0.5 10.0139C0.5 10.0216 0.5 10.0294 0.5 10.0372C0.5 10.045 0.5 10.0528 0.5 10.0605C0.5 10.0683 0.5 10.0761 0.5 10.0838C0.5 10.0916 0.5 10.0994 0.5 10.1072C0.5 10.1149 0.5 10.1227 0.5 10.1305C0.5 10.1382 0.5 10.146 0.5 10.1537C0.5 10.1615 0.5 10.1693 0.5 10.177C0.5 10.1848 0.5 10.1925 0.5 10.2003C0.5 10.208 0.5 10.2158 0.5 10.2235C0.5 10.2313 0.5 10.239 0.5 10.2468C0.5 10.2545 0.5 10.2622 0.5 10.27C0.5 10.2777 0.5 10.2855 0.5 10.2932C0.5 10.3009 0.5 10.3087 0.5 10.3164C0.5 10.3241 0.5 10.3319 0.5 10.3396C0.5 10.3473 0.5 10.355 0.5 10.3627C0.5 10.3705 0.5 10.3782 0.5 10.3859C0.5 10.3936 0.5 10.4013 0.5 10.409C0.5 10.4168 0.5 10.4245 0.5 10.4322C0.5 10.4399 0.5 10.4476 0.5 10.4553C0.5 10.463 0.5 10.4707 0.5 10.4784C0.5 10.4861 0.5 10.4938 0.5 10.5015C0.5 10.5092 0.5 10.5169 0.5 10.5245C0.5 10.5322 0.5 10.5399 0.5 10.5476C0.5 10.5553 0.5 10.563 0.5 10.5706C0.5 10.5783 0.5 10.586 0.5 10.5937C0.5 10.6013 0.5 10.609 0.5 10.6167C0.5 10.6243 0.5 10.632 0.5 10.6396C0.5 10.6473 0.5 10.655 0.5 10.6626C0.5 10.6703 0.5 10.6779 0.5 10.6856C0.5 10.6932 0.5 10.7009 0.5 10.7085C0.5 10.7162 0.5 10.7238 0.5 10.7314C0.5 10.7391 0.5 10.7467 0.5 10.7543C0.5 10.762 0.5 10.7696 0.5 10.7772C0.5 10.7848 0.5 10.7925 0.5 10.8001C0.5 10.8077 0.5 10.8153 0.5 10.8229C0.5 10.8305 0.5 10.8382 0.5 10.8458C0.5 10.8534 0.5 10.861 0.5 10.8686C0.5 10.8762 0.5 10.8838 0.5 10.8914C0.5 10.899 0.5 10.9066 0.5 10.9141C0.5 10.9217 0.5 10.9293 0.5 10.9369C0.5 10.9445 0.5 10.9521 0.5 10.9596C0.5 10.9672 0.5 10.9748 0.5 10.9823C0.5 10.9899 0.5 10.9975 0.5 11.005C0.5 11.0126 0.5 11.0202 0.5 11.0277C0.5 11.0353 0.5 11.0428 0.5 11.0504C0.5 11.0579 0.5 11.0655 0.5 11.073C0.5 11.0805 0.5 11.0881 0.5 11.0956C0.5 11.1031 0.5 11.1107 0.5 11.1182C0.5 11.1257 0.5 11.1332 0.5 11.1408C0.5 11.1483 0.5 11.1558 0.5 11.1633C0.5 11.1708 0.5 11.1783 0.5 11.1858C0.5 11.1933 0.5 11.2008 0.5 11.2083C0.5 11.2158 0.5 11.2233 0.5 11.2308C0.5 11.2383 0.5 11.2458 0.5 11.2533C0.5 11.2607 0.5 11.2682 0.5 11.2757C0.5 11.2832 0.5 11.2906 0.5 11.2981C0.5 11.3056 0.5 11.313 0.5 11.3205C0.5 11.3279 0.5 11.3354 0.5 11.3428C0.5 11.3503 0.5 11.3577 0.5 11.3652C0.5 11.3726 0.5 11.3801 0.5 11.3875C0.5 11.3949 0.5 11.4024 0.5 11.4098C0.5 11.4172 0.5 11.4246 0.5 11.432C0.5 11.4395 0.5 11.4469 0.5 11.4543C0.5 11.4617 0.5 11.4691 0.5 11.4765C0.5 11.4839 0.5 11.4913 0.5 11.4987C0.5 11.5061 0.5 11.5135 0.5 11.5209C0.5 11.5282 0.5 11.5356 0.5 11.543C0.5 11.5504 0.5 11.5577 0.5 11.5651C0.5 11.5725 0.5 11.5798 0.5 11.5872C0.5 11.5945 0.5 11.6019 0.5 11.6092C0.5 11.6166 0.5 11.6239 0.5 11.6313C0.5 11.6386 0.5 11.646 0.5 11.6533C0.5 11.6606 0.5 11.6679 0.5 11.6753C0.5 11.6826 0.5 11.6899 0.5 11.6972C0.5 11.7045 0.5 11.7118 0.5 11.7191C0.5 11.7264 0.5 11.7337 0.5 11.741C0.5 11.7483 0.5 11.7556 0.5 11.7629C0.5 11.7702 0.5 11.7775 0.5 11.7847C0.5 11.792 0.5 11.7993 0.5 11.8065C0.5 11.8138 0.5 11.8211 0.5 11.8283C0.5 11.8356 0.5 11.8428 0.5 11.8501C0.5 11.8573 0.5 11.8646 0.5 11.8718C0.5 11.879 0.5 11.8863 0.5 11.8935C0.5 11.9007 0.5 11.9079 0.5 11.9151C0.5 11.9224 0.5 11.9296 0.5 11.9368C0.5 11.944 0.5 11.9512 0.5 11.9584C0.5 11.9656 0.5 11.9728 0.5 11.9799C0.5 11.9871 0.5 11.9943 0.5 12.0015C0.5 12.0087 0.5 12.0158 0.5 12.023C0.5 12.0302 0.5 12.0373 0.5 12.0445C0.5 12.0516 0.5 12.0588 0.5 12.0659C0.5 12.0731 0.5 12.0802 0.5 12.0873C0.5 12.0945 0.5 12.1016 0.5 12.1087C0.5 12.1158 0.5 12.123 0.5 12.1301C0.5 12.1372 0.5 12.1443 0.5 12.1514C0.5 12.1585 0.5 12.1656 0.5 12.1727C0.5 12.1798 0.5 12.1869 0.5 12.1939C0.5 12.201 0.5 12.2081 0.5 12.2151C0.5 12.2222 0.5 12.2293 0.5 12.2363C0.5 12.2434 0.5 12.2504 0.5 12.2575C0.5 12.2645 0.5 12.2716 0.5 12.2786C0.5 12.2856 0.5 12.2927 0.5 12.2997C0.5 12.3067 0.5 12.3137 0.5 12.3207C0.5 12.3278 0.5 12.3348 0.5 12.3418C0.5 12.3488 0.5 12.3558 0.5 12.3627C0.5 12.3697 0.5 12.3767 0.5 12.3837C0.5 12.3907 0.5 12.3976 0.5 12.4046C0.5 12.4116 0.5 12.4185 0.5 12.4255C0.5 12.4324 0.5 12.4394 0.5 12.4463C0.5 12.4533 0.5 12.4602 0.5 12.4671C0.5 12.474 0.5 12.481 0.5 12.4879C0.5 12.4948 0.5 12.5017 0.5 12.5086C0.5 12.5155 0.5 12.5224 0.5 12.5293C0.5 12.5362 0.5 12.5431 0.5 12.55C0.5 12.5569 0.5 12.5637 0.5 12.5706C0.5 12.5775 0.5 12.5843 0.5 12.5912C0.5 12.598 0.5 12.6049 0.5 12.6117C0.5 12.6186 0.5 12.6254 0.5 12.6322C0.5 12.6391 0.5 12.6459 0.5 12.6527C0.5 12.6595 0.5 12.6663 0.5 12.6731C0.5 12.6799 0.5 12.6867 0.5 12.6935C0.5 12.7003 0.5 12.7071 0.5 12.7139C0.5 12.7207 0.5 12.7274 0.5 12.7342C0.5 12.741 0.5 12.7477 0.5 12.7545C0.5 12.7612 0.5 12.768 0.5 12.7747C0.5 12.7815 0.5 12.7882 0.5 12.7949C0.5 12.8016 0.5 12.8084 0.5 12.8151C0.5 12.8218 0.5 12.8285 0.5 12.8352C0.5 12.8419 0.5 12.8486 0.5 12.8553C0.5 12.8619 0.5 12.8686 0.5 12.8753C0.5 12.882 0.5 12.8886 0.5 12.8953C0.5 12.902 0.5 12.9086 0.5 12.9152C0.5 12.9219 0.5 12.9285 0.5 12.9352C0.5 12.9418 0.5 12.9484 0.5 12.955C0.5 12.9617 0.5 12.9683 0.5 12.9749C0.5 12.9815 0.5 12.9881 0.5 12.9947C0.5 13.0012 0.5 13.0078 0.5 13.0144C0.5 13.021 0.5 13.0275 0.5 13.0341C0.5 13.0407 0.5 13.0472 0.5 13.0538C0.5 13.0603 0.5 13.0668 0.5 13.0734C0.5 13.0799 0.5 13.0864 0.5 13.093C0.5 13.0995 0.5 13.106 0.5 13.1125C0.5 13.119 0.5 13.1255 0.5 13.132C0.5 13.1385 0.5 13.1449 0.5 13.1514C0.5 13.1579 0.5 13.1644 0.5 13.1708C0.5 13.1773 0.5 13.1837 0.5 13.1902C0.5 13.1966 0.5 13.2031 0.5 13.2095C0.5 13.2159 0.5 13.2223 0.5 13.2287C0.5 13.2352 0.5 13.2416 0.5 13.248C0.5 13.2544 0.5 13.2608 0.5 13.2671C0.5 13.2735 0.5 13.2799 0.5 13.2863C0.5 13.2926 0.5 13.299 0.5 13.3054C0.5 13.3117 0.5 13.3181 0.5 13.3244C0.5 13.3307 0.5 13.3371 0.5 13.3434C0.5 13.3497 0.5 13.356 0.5 13.3623C0.5 13.3686 0.5 13.3749 0.5 13.3812C0.5 13.3875 0.5 13.3938 0.5 13.4001C0.5 13.4064 0.5 13.4126 0.5 13.4189C0.5 13.4251 0.5 13.4314 0.5 13.4376C0.5 13.4439 0.5 13.4501 0.5 13.4564C0.5 13.4626 0.5 13.4688 0.5 13.475C0.5 13.4812 0.5 13.4874 0.5 13.4936C0.5 13.4998 0.5 13.506 0.5 13.5122C0.5 13.5184 0.5 13.5245 0.5 13.5307C0.5 13.5369 0.5 13.543 0.5 13.5492C0.5 13.5553 0.5 13.5615 0.5 13.5676C0.5 13.5737 0.5 13.5798 0.5 13.586C0.5 13.5921 0.5 13.5982 0.5 13.6043C0.5 13.6104 0.5 13.6165 0.5 13.6226C0.5 13.6286 0.5 13.6347 0.5 13.6408C0.5 13.6468 0.5 13.6529 0.5 13.6589C0.5 13.665 0.5 13.671 0.5 13.6771C0.5 13.6831 0.5 13.6891 0.5 13.6951C0.5 13.7011 0.5 13.7072 0.5 13.7131C0.5 13.7191 0.5 13.7251 0.5 13.7311C0.5 13.7371 0.5 13.7431 0.5 13.749C0.5 13.755 0.5 13.7609 0.5 13.7669C0.5 13.7728 0.5 13.7788 0.5 13.7847C0.5 13.7906 0.5 13.7966 0.5 13.8025C0.5 13.8084 0.5 13.8143 0.5 13.8202C0.5 13.8261 0.5 13.832 0.5 13.8378C0.5 13.8437 0.5 13.8496 0.5 13.8554C0.5 13.8613 0.5 13.8671 0.5 13.873C0.5 13.8788 0.5 13.8847 0.5 13.8905C0.5 13.8963 0.5 13.9021 0.5 13.9079C0.5 13.9137 0.5 13.9195 0.5 13.9253C0.5 13.9311 0.5 13.9369 0.5 13.9426C0.5 13.9484 0.5 13.9542 0.5 13.9599C0.5 13.9657 0.5 13.9714 0.5 13.9771C0.5 13.9829 0.5 13.9886 0.5 13.9943C0.5 14 0.5 14.0057 0.5 14.0114C0.5 14.0171 0.5 14.0228 0.5 14.0285C0.5 14.0342 0.5 14.0398 0.5 14.0455C0.5 14.0512 0.5 14.0568 0.5 14.0625C0.5 14.0681 0.5 14.0737 0.5 14.0793C0.5 14.085 0.5 14.0906 0.5 14.0962C0.5 14.1018 0.5 14.1074 0.5 14.113C0.5 14.1186 0.5 14.1241 0.5 14.1297C0.5 14.1353 0.5 14.1408 0.5 14.1464C0.5 14.1519 0.5 14.1574 0.5 14.163C0.5 14.1685 0.5 14.174 0.5 14.1795C0.5 14.185 0.5 14.1905 0.5 14.196C0.5 14.2015 0.5 14.207 0.5 14.2125C0.5 14.2179 0.5 14.2234 0.5 14.2288C0.5 14.2343 0.5 14.2397 0.5 14.2452C0.5 14.2506 0.5 14.256 0.5 14.2614C0.5 14.2668 0.5 14.2723 0.5 14.2776C0.5 14.283 0.5 14.2884 0.5 14.2938C0.5 14.2992 0.5 14.3045 0.5 14.3099C0.5 14.3152 0.5 14.3206 0.5 14.3259C0.5 14.3312 0.5 14.3366 0.5 14.3419C0.5 14.3472 0.5 14.3525 0.5 14.3578C0.5 14.3631 0.5 14.3684 0.5 14.3736C0.5 14.3789 0.5 14.3842 0.5 14.3894C0.5 14.3947 0.5 14.3999 0.5 14.4052C0.5 14.4104 0.5 14.4156 0.5 14.4208C0.5 14.426 0.5 14.4312 0.5 14.4364C0.5 14.4416 0.5 14.4468 0.5 14.452C0.5 14.4571 0.5 14.4623 0.5 14.4675C0.5 14.4726 0.5 14.4778 0.5 14.4829C0.5 14.488 0.5 14.4931 0.5 14.4982C0.5 14.5034 0.5 14.5085 0.5 14.5135C0.5 14.5186 0.5 14.5237 0.5 14.5288C0.5 14.5338 0.5 14.5389 0.5 14.544C0.5 14.549 0.5 14.554 0.5 14.5591C0.5 14.5641 0.5 14.5691 0.5 14.5741C0.5 14.5791 0.5 14.5841 0.5 14.5891C0.5 14.5941 0.5 14.599 0.5 14.604C0.5 14.609 0.5 14.6139 0.5 14.6189C0.5 14.6238 0.5 14.6287 0.5 14.6337C0.5 14.6386 0.5 14.6435 0.5 14.6484C0.5 14.6533 0.5 14.6582 0.5 14.6631C0.5 14.6679 0.5 14.6728 0.5 14.6777C0.5 14.6825 0.5 14.6874 0.5 14.6922C0.5 14.697 0.5 14.7018 0.5 14.7067C0.5 14.7115 0.5 14.7163 0.5 14.7211C0.5 14.7259 0.5 14.7306 0.5 14.7354C0.5 14.7402 0.5 14.7449 0.5 14.7497C0.5 14.7544 0.5 14.7592 0.5 14.7639C0.5 14.7686 0.5 14.7733 0.5 14.778C0.5 14.7827 0.5 14.7874 0.5 14.7921C0.5 14.7968 0.5 14.8014 0.5 14.8061C0.5 14.8108 0.5 14.8154 0.5 14.82C0.5 14.8247 0.5 14.8293 0.5 14.8339C0.5 14.8385 0.5 14.8431 0.5 14.8477C0.5 14.8523 0.5 14.8569 0.5 14.8614C0.5 14.866 0.5 14.8706 0.5 14.8751C0.5 14.8797 0.5 14.8842 0.5 14.8887C0.5 14.8932 0.5 14.8977 0.5 14.9022C0.5 14.9067 0.5 14.9112 0.5 14.9157C0.5 14.9202 0.5 14.9247 0.5 14.9291C0.5 14.9336 0.5 14.938 0.5 14.9424C0.5 14.9469 0.5 14.9513 0.5 14.9557C0.5 14.9601 0.5 14.9645 0.5 14.9689C0.5 14.9733 0.5 14.9776 0.5 14.982C0.5 14.9863 0.5 14.9907 0.5 14.995C0.5 14.9994 0.5 15.0037 0.5 15.008C0.5 15.0123 0.5 15.0166 0.5 15.0209C0.5 15.0252 0.5 15.0295 0.5 15.0337C0.5 15.038 0.5 15.0423 0.5 15.0465C0.5 15.0508 0.5 15.055 0.5 15.0592C0.5 15.0634 0.5 15.0676 0.5 15.0718C0.5 15.076 0.5 15.0802 0.5 15.0844C0.5 15.0885 0.5 15.0927 0.5 15.0968C0.5 15.101 0.5 15.1051 0.5 15.1092C0.5 15.1134 0.5 15.1175 0.5 15.1216C0.5 15.1257 0.5 15.1298 0.5 15.1338C0.5 15.1379 0.5 15.142 0.5 15.146C0.5 15.1501 0.5 15.1541 0.5 15.1581C0.5 15.1622 0.5 15.1662 0.5 15.1702C0.5 15.1742 0.5 15.1782 0.5 15.1821C0.5 15.1861 0.5 15.1901 0.5 15.194C0.5 15.198 0.5 15.2019 0.5 15.2059C0.5 15.2098 0.5 15.2137 0.5 15.2176C0.5 15.2215 0.5 15.2254 0.5 15.2293C0.5 15.2331 0.5 15.237 0.5 15.2409C0.5 15.2447 0.5 15.2486 0.5 15.2524C0.5 15.2562 0.5 15.26 0.5 15.2638C0.5 15.2676 0.5 15.2714 0.5 15.2752C0.5 15.279 0.5 15.2827 0.5 15.2865C0.5 15.2902 0.5 15.294 0.5 15.2977C0.5 15.3014 0.5 15.3051 0.5 15.3088C0.5 15.3125 0.5 15.3162 0.5 15.3199C0.5 15.3236 0.5 15.3272 0.5 15.3309C0.5 15.3345 0.5 15.3382 0.5 15.3418C0.5 15.3454 0.5 15.349 0.5 15.3526C0.5 15.3562 0.5 15.3598 0.5 15.3634C0.5 15.367 0.5 15.3705 0.5 15.3741C0.5 15.3776 0.5 15.3811 0.5 15.3847C0.5 15.3882 0.5 15.3917 0.5 15.3952C0.5 15.3987 0.5 15.4022 0.5 15.4056C0.5 15.4091 0.5 15.4126 0.5 15.416C0.5 15.4194 0.5 15.4229 0.5 15.4263C0.5 15.4297 0.5 15.4331 0.5 15.4365C0.5 15.4399 0.5 15.4433 0.5 15.4466C0.5 15.45 0.5 15.4533 0.5 15.4567C0.5 15.46 0.5 15.4633 0.5 15.4666C0.5 15.4699 0.5 15.4732 0.5 15.4765C0.5 15.4798 0.5 15.4831 0.5 15.4863C0.5 15.4896 0.5 15.4928 0.5 15.4961C0.5 15.4993 0.5 15.5025 0.5 15.5057C0.5 15.5089 0.5 15.5121 0.5 15.5153C0.5 15.5185 0.5 15.5216 0.5 15.5248C0.5 15.5279 0.5 15.531 0.5 15.5342C0.5 15.5373 0.5 15.5404 0.5 15.5435C0.5 15.5466 0.5 15.5497 0.5 15.5527C0.5 15.5558 0.5 15.5589 0.5 15.5619C0.5 15.5649 0.5 15.568 0.5 15.571C0.5 15.574 0.5 15.577 0.5 15.58C0.5 15.5829 0.5 15.5859 0.5 15.5889C0.5 15.5918 0.5 15.5948 0.5 15.5977C0.5 15.6006 0.5 15.6035 0.5 15.6064C0.5 15.6093 0.5 15.6122 0.5 15.6151C0.5 15.618 0.5 15.6208 0.5 15.6237C0.5 15.6265 0.5 15.6294 0.5 15.6322C0.5 15.635 0.5 15.6378 0.5 15.6406C0.5 15.6434 0.5 15.6462 0.5 15.6489C0.5 15.6517 0.5 15.6544 0.5 15.6572C0.5 15.6599 0.5 15.6626 0.5 15.6653C0.5 15.668 0.5 15.6707 0.5 15.6734C0.5 15.6761 0.5 15.6787 0.5 15.6814C0.5 15.684 0.5 15.6866 0.5 15.6893C0.5 15.6919 0.5 15.6945 0.5 15.6971C0.5 15.6997 0.5 15.7022 0.5 15.7048C0.5 15.7074 0.5 15.7099 0.5 15.7124C0.5 15.715 0.5 15.7175 0.5 15.72C0.5 15.7225 0.5 15.725 0.5 15.7275C0.5 15.7299 0.5 15.7324 0.5 15.7349C0.5 15.7373 0.5 15.7397 0.5 15.7421C0.5 15.7446 0.5 15.747 0.5 15.7494C0.5 15.7517 0.5 15.7541 0.5 15.7565C0.5 15.7588 0.5 15.7612 0.5 15.7635C0.5 15.7658 0.5 15.7681 0.5 15.7704C0.5 15.7727 0.5 15.775 0.5 15.7773C0.5 15.7796 0.5 15.7818 0.5 15.7841C0.5 15.7863 0.5 15.7885 0.5 15.7907C0.5 15.793 0.5 15.7951 0.5 15.7973C0.5 15.7995 0.5 15.8017 0.5 15.8038C0.5 15.806 0.5 15.8081 0.5 15.8102C0.5 15.8124 0.5 15.8145 0.5 15.8166C0.5 15.8186 0.5 15.8207 0.5 15.8228C0.5 15.8248 0.5 15.8269 0.5 15.8289C0.5 15.831 0.5 15.833 0.5 15.835C0.5 15.837 0.5 15.839 0.5 15.8409C0.5 15.8429 0.5 15.8449 0.5 15.8468C0.5 15.8487 0.5 15.8507 0.5 15.8526C0.5 15.8545 0.5 15.8564 0.5 15.8583C0.5 15.8601 0.5 15.862 0.5 15.8638C0.5 15.8657 0.5 15.8675 0.5 15.8693C0.5 15.8712 0.5 15.873 0.5 15.8748C0.5 15.8765 0.5 15.8783 0.5 15.8801C0.5 15.8818 0.5 15.8836 0.5 15.8853C0.5 15.887 0.5 15.8887 0.5 15.8904C0.5 15.8921 0.5 15.8938 0.5 15.8955C0.5 15.8971 0.5 15.8988 0.5 15.9004C0.5 15.902 0.5 15.9037 0.5 15.9053C0.5 15.9069 0.5 15.9084 0.5 15.91C0.5 15.9116 0.5 15.9131 0.5 15.9147C0.5 15.9162 0.5 15.9177 0.5 15.9192C0.5 15.9208 0.5 15.9222 0.5 15.9237C0.5 15.9252 0.5 15.9267 0.5 15.9281C0.5 15.9295 0.5 15.931 0.5 15.9324C0.5 15.9338 0.5 15.9352 0.5 15.9366C0.5 15.938 0.5 15.9393 0.5 15.9407C0.5 15.942 0.5 15.9433 0.5 15.9447C0.5 15.946 0.5 15.9473 0.5 15.9486C0.5 15.9498 0.5 15.9511 0.5 15.9524C0.5 15.9536 0.5 15.9549 0.5 15.9561C0.5 15.9573 0.5 15.9585 0.5 15.9597C0.5 15.9609 0.5 15.9621 0.5 15.9632C0.5 15.9644 0.5 15.9655 0.5 15.9666C0.5 15.9678 0.5 15.9689 0.5 15.9699C0.5 15.971 0.5 15.9721 0.5 15.9732C0.5 15.9742 0.5 15.9753 0.5 15.9763C0.5 15.9773 0.5 15.9783 0.5 15.9793C0.5 15.9803 0.5 15.9813 0.5 15.9823C0.5 15.9832 0.5 15.9842 0.5 15.9851C0.5 15.986 0.5 15.9869 0.5 15.9878C0.5 15.9887 0.5 15.9896 0.5 15.9905C0.5 15.9913 0.5 15.9922 0.5 15.993C0.5 15.9938 0.5 15.9946 0.5 15.9954C0.5 15.9962 0.5 15.997 0.5 15.9978C0.5 15.9985 0.5 15.9993 0.5 16H1.5ZM4 4.5H14V3.5H4V4.5ZM1.5 6.99956C1.5 5.61894 2.61919 4.5 4 4.5V3.5C2.0671 3.5 0.5 5.06647 0.5 6.99956H1.5Z" fill="black"/>
</svg>
