<svg width="35" height="35" viewBox="0 0 35 35" fill="none" xmlns="http://www.w3.org/2000/svg">
<g clip-path="url(#clip0_1766_2612)">
<path d="M34.5 17.5C34.5 8.11122 26.8888 0.5 17.5 0.5C8.11122 0.5 0.5 8.11109 0.5 17.5C0.5 25.9851 6.71669 33.0182 14.8438 34.2935V22.4141H10.5273V17.5H14.8438V13.7547C14.8438 9.49406 17.3818 7.14062 21.2648 7.14062C23.1249 7.14062 25.0703 7.47266 25.0703 7.47266V11.6562H22.9267C20.8147 11.6562 20.1562 12.9667 20.1562 14.3112V17.5H24.8711L24.1174 22.4141H20.1562V34.2935C28.2833 33.0182 34.5 25.9853 34.5 17.5Z" fill="#1877F2"/>
<path d="M24.1174 22.4141L24.8711 17.5H20.1562V14.3112C20.1562 12.9666 20.8149 11.6562 22.9267 11.6562H25.0703V7.47266C25.0703 7.47266 23.1249 7.14062 21.2648 7.14062C17.3818 7.14062 14.8438 9.49406 14.8438 13.7547V17.5H10.5273V22.4141H14.8438V34.2935C15.7225 34.4312 16.6106 34.5002 17.5 34.5C18.3894 34.5003 19.2775 34.4312 20.1562 34.2935V22.4141H24.1174Z" fill="white"/>
</g>
<defs>
<clipPath id="clip0_1766_2612">
<rect width="34" height="34" fill="white" transform="translate(0.5 0.5)"/>
</clipPath>
</defs>
</svg>
