<svg width="35" height="35" viewBox="0 0 35 35" fill="none" xmlns="http://www.w3.org/2000/svg">
<g clip-path="url(#clip0_1766_2604)">
<path d="M34.1693 14.1706H32.8V14.1H17.5V20.9H27.1076C25.7059 24.8584 21.9396 27.7 17.5 27.7C11.8671 27.7 7.3 23.1329 7.3 17.5C7.3 11.8671 11.8671 7.3 17.5 7.3C20.1002 7.3 22.4657 8.2809 24.2669 9.88315L29.0753 5.0747C26.0391 2.24505 21.9778 0.5 17.5 0.5C8.11175 0.5 0.5 8.11175 0.5 17.5C0.5 26.8883 8.11175 34.5 17.5 34.5C26.8883 34.5 34.5 26.8883 34.5 17.5C34.5 16.3602 34.3827 15.2475 34.1693 14.1706Z" fill="#FFC107"/>
<path d="M2.625 9.28854L8.19929 13.25C9.7076 9.63133 13.3605 7.0764 17.6351 7.0764C20.2301 7.0764 22.591 8.02505 24.3886 9.57461L29.1875 4.92427C26.1573 2.18767 22.1041 0.5 17.6351 0.5C11.1183 0.5 5.46686 4.06523 2.625 9.28854Z" fill="#FF3D00"/>
<path d="M17.7767 34.5C22.1729 34.5 26.1674 32.7875 29.1875 30.0027L23.9199 25.4655C22.1538 26.8327 19.9956 27.5722 17.7767 27.5704C13.3499 27.5704 9.59112 24.6972 8.17509 20.6875L2.625 25.0402C5.44174 30.6506 11.162 34.5 17.7767 34.5Z" fill="#4CAF50"/>
<path d="M34.1693 14.3828H32.8V14.3125H17.5V21.0842H27.1076C26.4371 22.9604 25.2294 24.5998 23.6336 25.7999L23.6361 25.7982L28.8977 30.232C28.5254 30.5689 34.5 26.1631 34.5 17.6984C34.5 16.5633 34.3827 15.4552 34.1693 14.3828Z" fill="#1976D2"/>
</g>
<defs>
<clipPath id="clip0_1766_2604">
<rect width="34" height="34" fill="white" transform="translate(0.5 0.5)"/>
</clipPath>
</defs>
</svg>
