<svg width="48" height="45" viewBox="0 0 48 45" fill="none" xmlns="http://www.w3.org/2000/svg">
<path d="M8.22412 33.7934L13.3526 30.8325L8.50284 28.4173L8.22412 33.7934ZM27.0547 44.7582L32.1831 41.7973L27.3333 39.3821L27.0547 44.7582Z" fill="black"/>
<path d="M45.123 24.1719L38.4727 18.2305L36.0276 10.6258C35.5082 8.47931 34.1843 6.49162 32.7051 5.63756L26.8002 2.22844L26.8004 2.22712L26.7481 2.21456L23.6578 0.430404C22.5581 -0.204471 21.2131 -0.0892526 20.2448 0.649779L20.2437 0.649591L6.01221 9.03065L31.5361 43.1427L46.4717 34.519C46.9306 34.3444 47.2306 33.8017 47.2306 32.9907V28.9427C47.2306 27.25 46.3583 25.2755 45.123 24.1719Z" fill="url(#paint0_linear_1766_2703)"/>
<path d="M38.4728 18.2305L36.0277 10.6258C35.5084 8.47931 34.1844 6.49153 32.7052 5.63756L26.7956 2.22563C26.2754 1.92525 25.8011 1.90838 25.4368 2.11959L25.4354 2.11725L10.3799 10.8103L23.4253 26.9189L38.4728 18.2305Z" fill="url(#paint1_linear_1766_2703)"/>
<path d="M32.183 37.6313L31.0383 42.3232L47.2306 32.9746V28.9435L32.183 37.6313Z" fill="url(#paint2_linear_1766_2703)"/>
<path d="M30.0755 32.8603L23.4251 26.9189L20.98 19.3142C20.4607 17.1678 19.1367 15.18 17.6575 14.326L11.7479 10.9141L8.61028 9.10256C7.26825 8.32772 5.91909 8.87634 4.61775 9.89944C4.61775 9.89944 3.64997 10.5622 2.59997 11.2762C1.79892 11.8211 1.14324 12.5535 0.690081 13.4098C0.236917 14.2661 1.00436e-05 15.2202 2.86447e-10 16.1889L2.86449e-10 22.1052C-1.01449e-05 23.1297 0.269465 24.1361 0.781375 25.0235C1.29329 25.911 2.02962 26.6481 2.91647 27.161L30.3666 43.0363C31.3698 43.6155 32.1831 43.0007 32.1831 41.6632V37.6313C32.1831 35.9386 31.3108 33.964 30.0755 32.8603Z" fill="url(#paint3_linear_1766_2703)"/>
<path d="M35.4724 12.4559C35.2462 11.5208 34.8671 10.6161 34.3891 9.82181L21.7122 17.1506C21.907 17.6127 22.0693 18.0937 22.1879 18.584L24.6386 26.2184L37.5952 18.7282L35.4724 12.4559Z" fill="url(#paint4_linear_1766_2703)"/>
<path d="M9.78529 30.3393C9.78529 33.4317 7.90514 34.8532 5.58576 33.514C3.26648 32.175 1.38623 28.5826 1.38623 25.4902C1.38623 22.3977 3.26639 20.9764 5.58576 22.3154C7.90514 23.6544 9.78529 27.2468 9.78529 30.3393Z" fill="url(#paint5_linear_1766_2703)"/>
<path d="M7.65074 29.1068C7.65074 30.6272 6.72637 31.3261 5.58599 30.6677C4.44562 30.0093 3.52124 28.243 3.52124 26.7226C3.52124 25.2022 4.44562 24.5033 5.58599 25.1617C6.72627 25.8201 7.65074 27.5863 7.65074 29.1068Z" fill="url(#paint6_linear_1766_2703)"/>
<path d="M7.35601 28.9366C7.35601 30.2401 6.56354 30.8391 5.58601 30.2748C4.60848 29.7104 3.81592 28.1961 3.81592 26.8927C3.81592 25.5893 4.60839 24.9903 5.58601 25.5546C6.56354 26.119 7.35601 27.6332 7.35601 28.9366Z" fill="url(#paint7_linear_1766_2703)"/>
<path d="M5.58585 25.5547C5.54235 25.5296 5.49979 25.5096 5.45704 25.489C5.42985 25.6455 5.41645 25.8041 5.41701 25.9629C5.41701 27.2663 6.20948 28.7805 7.1871 29.345C7.2306 29.3701 7.27317 29.3901 7.31582 29.4106C7.3416 29.2651 7.35595 29.1073 7.35595 28.9367C7.35585 27.6332 6.56338 26.1191 5.58585 25.5547Z" fill="black"/>
<path d="M28.6158 41.304C28.6158 44.3964 26.7356 45.8179 24.4163 44.4788C22.097 43.1397 20.2168 39.5473 20.2168 36.4549C20.2168 33.3624 22.097 31.9411 24.4163 33.2801C26.7356 34.6192 28.6158 38.2116 28.6158 41.304Z" fill="url(#paint8_linear_1766_2703)"/>
<path d="M26.4811 40.0716C26.4811 41.592 25.5567 42.2909 24.4163 41.6325C23.2759 40.9741 22.3516 39.2078 22.3516 37.6874C22.3516 36.167 23.2759 35.4682 24.4163 36.1265C25.5567 36.7849 26.4811 38.5511 26.4811 40.0716Z" fill="url(#paint9_linear_1766_2703)"/>
<path d="M26.1863 39.9013C26.1863 41.2048 25.3939 41.8039 24.4163 41.2395C23.4388 40.6751 22.6462 39.1609 22.6462 37.8575C22.6462 36.5541 23.4387 35.955 24.4163 36.5194C25.3939 37.0838 26.1863 38.5979 26.1863 39.9013Z" fill="url(#paint10_linear_1766_2703)"/>
<path d="M24.4164 36.5195C24.3729 36.4943 24.3304 36.4743 24.2876 36.4538C24.2604 36.6102 24.247 36.7688 24.2476 36.9277C24.2476 38.2311 25.04 39.7452 26.0176 40.3097C26.0611 40.3348 26.1036 40.3548 26.1463 40.3753C26.1721 40.2298 26.1864 40.072 26.1864 39.9014C26.1864 38.5979 25.3939 37.0838 24.4164 36.5195Z" fill="black"/>
<path d="M32.183 41.6632L30.5551 40.7232C30.1544 40.4919 29.6536 40.7811 29.6536 41.2436V41.9793C29.6535 42.4569 29.7793 42.9261 30.0181 43.3397C30.2569 43.7533 30.6003 44.0968 31.014 44.3356L31.0884 44.3785C31.4212 44.5707 31.7987 44.6718 32.183 44.6718C32.5673 44.6718 32.9448 44.5707 33.2776 44.3785L47.1232 36.3847C47.3898 36.2309 47.6111 36.0095 47.765 35.743C47.9189 35.4764 47.9999 35.1741 47.9999 34.8663V33.4195C47.9999 33.1494 47.9288 32.8841 47.7937 32.6502C47.6587 32.4163 47.4645 32.222 47.2306 32.087V32.9745L32.183 41.6632Z" fill="url(#paint11_linear_1766_2703)"/>
<path d="M11.2483 21.9743C11.2483 22.4226 11.4874 22.8367 11.8756 23.0608L13.0986 23.7669C13.5219 24.0113 14.051 23.7058 14.051 23.2171C14.051 23.0629 14.0103 22.9114 13.933 22.7779C13.8557 22.6444 13.7445 22.5338 13.6107 22.4571L12.0048 21.5361C11.668 21.3429 11.2483 21.5861 11.2483 21.9743Z" fill="url(#paint12_linear_1766_2703)"/>
<path d="M10.9769 19.7319L21.4677 25.7888L19.3891 19.6992C18.9779 17.9995 17.9293 16.373 16.8391 15.7436L10.9769 12.3591L10.9769 19.7319ZM9.40195 11.4496L7.79198 10.5201C7.5724 10.3932 7.32334 10.3262 7.06973 10.3258C6.61401 10.3258 6.01232 10.6067 5.57526 10.9679L2.80832 13.0817C2.12217 13.6058 2.19051 14.659 2.93826 15.0908L9.40195 18.8226V11.4496Z" fill="#71EAFF"/>
<path d="M33.0317 37.9563L35.1512 36.7326C35.2808 36.6576 35.443 36.7513 35.443 36.901V38.4247C35.443 38.5241 35.4168 38.6218 35.3671 38.7079C35.3174 38.794 35.246 38.8654 35.1599 38.9151L33.0404 40.1389C32.9107 40.2138 32.7485 40.1201 32.7485 39.9704V38.4467C32.7485 38.3473 32.7747 38.2496 32.8244 38.1635C32.8741 38.0775 32.9456 38.006 33.0317 37.9563Z" fill="url(#paint13_linear_1766_2703)"/>
<path d="M44.3753 31.3446L46.4948 30.1208C46.6245 30.0459 46.7867 30.1396 46.7867 30.2893V31.813C46.7867 31.9124 46.7605 32.0101 46.7108 32.0962C46.6611 32.1823 46.5896 32.2537 46.5035 32.3034L44.384 33.5272C44.2544 33.6021 44.0923 33.5084 44.0923 33.3587V31.835C44.0922 31.7356 44.1184 31.6379 44.1681 31.5518C44.2178 31.4657 44.2892 31.3943 44.3753 31.3446Z" fill="url(#paint14_linear_1766_2703)"/>
<defs>
<linearGradient id="paint0_linear_1766_2703" x1="36.0082" y1="34.4107" x2="33.8281" y2="30.6347" gradientUnits="userSpaceOnUse">
<stop stop-color="#065526"/>
<stop offset="1" stop-color="#068D06"/>
</linearGradient>
<linearGradient id="paint1_linear_1766_2703" x1="25.5775" y1="14.449" x2="22.9435" y2="9.88669" gradientUnits="userSpaceOnUse">
<stop stop-color="#00E20D"/>
<stop offset="0.522" stop-color="#00E20D"/>
<stop offset="1" stop-color="#0E8B01"/>
</linearGradient>
<linearGradient id="paint2_linear_1766_2703" x1="31.0383" y1="28.9435" x2="47.2306" y2="28.9435" gradientUnits="userSpaceOnUse">
<stop stop-color="#14121C"/>
<stop offset="1"/>
</linearGradient>
<linearGradient id="paint3_linear_1766_2703" x1="16.0915" y1="40.2682" x2="16.0915" y2="0.130874" gradientUnits="userSpaceOnUse">
<stop offset="0.0019305" stop-color="#00E25B"/>
<stop offset="1" stop-color="#0EAD0E"/>
</linearGradient>
<linearGradient id="paint4_linear_1766_2703" x1="29.6537" y1="23.7886" x2="29.6537" y2="15.4251" gradientUnits="userSpaceOnUse">
<stop stop-color="#82F4FF"/>
<stop offset="1" stop-color="#62A4BD"/>
</linearGradient>
<linearGradient id="paint5_linear_1766_2703" x1="1.38623" y1="21.8115" x2="9.78529" y2="21.8115" gradientUnits="userSpaceOnUse">
<stop stop-color="#14121C"/>
<stop offset="1"/>
</linearGradient>
<linearGradient id="paint6_linear_1766_2703" x1="3.52124" y1="24.9139" x2="7.65074" y2="24.9139" gradientUnits="userSpaceOnUse">
<stop stop-color="#A996EB"/>
<stop offset="1" stop-color="#D7D1EB"/>
</linearGradient>
<linearGradient id="paint7_linear_1766_2703" x1="3.81592" y1="25.3422" x2="7.35601" y2="25.3422" gradientUnits="userSpaceOnUse">
<stop stop-color="#5D5D5D"/>
<stop offset="1" stop-color="#232226"/>
</linearGradient>
<linearGradient id="paint8_linear_1766_2703" x1="20.2168" y1="32.7762" x2="28.6158" y2="32.7762" gradientUnits="userSpaceOnUse">
<stop stop-color="#14121C"/>
<stop offset="1"/>
</linearGradient>
<linearGradient id="paint9_linear_1766_2703" x1="22.3516" y1="35.8787" x2="26.4811" y2="35.8787" gradientUnits="userSpaceOnUse">
<stop stop-color="#A996EB"/>
<stop offset="1" stop-color="#D7D1EB"/>
</linearGradient>
<linearGradient id="paint10_linear_1766_2703" x1="22.6462" y1="36.307" x2="26.1863" y2="36.307" gradientUnits="userSpaceOnUse">
<stop stop-color="#5D5D5D"/>
<stop offset="1" stop-color="#232226"/>
</linearGradient>
<linearGradient id="paint11_linear_1766_2703" x1="29.6536" y1="32.087" x2="47.9999" y2="32.087" gradientUnits="userSpaceOnUse">
<stop stop-color="#C5BAEB"/>
<stop offset="1" stop-color="white"/>
</linearGradient>
<linearGradient id="paint12_linear_1766_2703" x1="11.2483" y1="21.4684" x2="14.051" y2="21.4684" gradientUnits="userSpaceOnUse">
<stop stop-color="#C5BAEB"/>
<stop offset="1" stop-color="white"/>
</linearGradient>
<linearGradient id="paint13_linear_1766_2703" x1="32.7485" y1="36.7062" x2="35.443" y2="36.7062" gradientUnits="userSpaceOnUse">
<stop stop-color="#C5BAEB"/>
<stop offset="1" stop-color="white"/>
</linearGradient>
<linearGradient id="paint14_linear_1766_2703" x1="44.0923" y1="30.0945" x2="46.7867" y2="30.0945" gradientUnits="userSpaceOnUse">
<stop stop-color="#C5BAEB"/>
<stop offset="1" stop-color="white"/>
</linearGradient>
</defs>
</svg>
