<svg width="23" height="30" viewBox="0 0 23 30" fill="none" xmlns="http://www.w3.org/2000/svg">
<path d="M11.0609 30C13.9009 30 16.2009 28.77 16.2009 27.25C16.2009 25.73 13.9009 24.5 11.0609 24.5C8.2209 24.5 5.9209 25.73 5.9209 27.25C5.9209 28.77 8.2209 30 11.0609 30Z" fill="#00E25B"/>
<path d="M22.1207 11.06C22.1207 4.95 17.1707 0 11.0607 0C4.95067 0 0.0606684 4.87 0.000668405 10.95C-0.0493316 15.54 2.71067 19.5 6.66067 21.21C8.09067 21.68 9.41067 27.05 10.2707 28.16C10.6507 28.72 11.4707 28.72 11.8507 28.16C12.7107 27.04 14.0207 21.69 15.4507 21.21C19.3707 19.51 22.1207 15.6 22.1207 11.06Z" fill="url(#paint0_linear_1766_2957)"/>
<path d="M11.0607 21.11C16.6107 21.11 21.1107 16.61 21.1107 11.06C21.1107 5.50999 16.6107 1.00999 11.0607 1.00999C5.51074 1.00999 1.01074 5.50999 1.01074 11.06C1.01074 16.61 5.51074 21.11 11.0607 21.11Z" fill="url(#paint1_linear_1766_2957)"/>
<path d="M11.0604 19.72C15.8404 19.72 19.7204 15.84 19.7204 11.06C19.7204 6.27999 15.8404 2.39999 11.0604 2.39999C6.28039 2.39999 2.40039 6.27999 2.40039 11.06C2.40039 15.84 6.28039 19.72 11.0604 19.72Z" fill="#EDFFE6"/>
<path d="M10.331 23.15C10.6292 23.15 10.871 22.9082 10.871 22.61C10.871 22.3118 10.6292 22.07 10.331 22.07C10.0328 22.07 9.79102 22.3118 9.79102 22.61C9.79102 22.9082 10.0328 23.15 10.331 23.15Z" fill="black"/>
<path d="M11.791 23.15C12.0892 23.15 12.331 22.9082 12.331 22.61C12.331 22.3118 12.0892 22.07 11.791 22.07C11.4927 22.07 11.251 22.3118 11.251 22.61C11.251 22.9082 11.4927 23.15 11.791 23.15Z" fill="black"/>
<path d="M11.061 24.38C11.3592 24.38 11.601 24.1382 11.601 23.84C11.601 23.5418 11.3592 23.3 11.061 23.3C10.7628 23.3 10.521 23.5418 10.521 23.84C10.521 24.1382 10.7628 24.38 11.061 24.38Z" fill="black"/>
<path d="M13.6007 4.14C12.3107 6.69 10.7507 9.06 9.13072 11.4L8.53072 10.2C10.7007 10.14 12.9407 10.17 15.1207 10.23C13.0607 12.92 10.9707 15.6 8.53072 17.97C9.81072 15.35 11.3707 12.91 12.9907 10.51L13.6007 11.71C11.4207 11.76 9.17072 11.73 6.99072 11.67C9.07072 9.06 11.1707 6.45 13.6007 4.14Z" fill="#FF9900"/>
<defs>
<linearGradient id="paint0_linear_1766_2957" x1="3.90067" y1="5.04" x2="27.5707" y2="28.71" gradientUnits="userSpaceOnUse">
<stop stop-color="#02B44E"/>
<stop offset="1" stop-color="#349019"/>
</linearGradient>
<linearGradient id="paint1_linear_1766_2957" x1="17.1207" y1="17.12" x2="-2.91926" y2="-2.92001" gradientUnits="userSpaceOnUse">
<stop stop-color="#02B44E"/>
<stop offset="1" stop-color="#349019"/>
</linearGradient>
</defs>
</svg>
