<svg width="23" height="31" viewBox="0 0 23 31" fill="none" xmlns="http://www.w3.org/2000/svg">
<path d="M11.8636 30.4774C14.7036 30.4774 17.0036 29.2474 17.0036 27.7274C17.0036 26.2074 14.7036 24.9774 11.8636 24.9774C9.02362 24.9774 6.72363 26.2074 6.72363 27.7274C6.72363 29.2474 9.02362 30.4774 11.8636 30.4774Z" fill="#EFEFEF"/>
<path d="M22.9239 11.5374C22.9239 5.42736 17.9739 0.477356 11.8639 0.477356C5.75389 0.477356 0.863891 5.34736 0.803891 11.4274C0.753891 16.0174 3.51389 19.9774 7.46389 21.6874C8.8939 22.1574 10.2139 27.5274 11.0739 28.6374C11.4539 29.1974 12.2739 29.1974 12.6539 28.6374C13.5139 27.5174 14.8239 22.1674 16.2539 21.6874C20.1739 19.9874 22.9239 16.0774 22.9239 11.5374Z" fill="url(#paint0_linear_1766_3526)"/>
<path d="M11.864 21.5874C17.414 21.5874 21.9139 17.0874 21.9139 11.5374C21.9139 5.98736 17.414 1.48736 11.864 1.48736C6.31395 1.48736 1.81396 5.98736 1.81396 11.5374C1.81396 17.0874 6.31395 21.5874 11.864 21.5874Z" fill="url(#paint1_linear_1766_3526)"/>
<path d="M11.8641 20.1974C16.6441 20.1974 20.5241 16.3174 20.5241 11.5374C20.5241 6.75736 16.6441 2.87736 11.8641 2.87736C7.08411 2.87736 3.2041 6.75736 3.2041 11.5374C3.2041 16.3174 7.08411 20.1974 11.8641 20.1974Z" fill="#EFEFEF"/>
<path d="M11.1337 23.6274C11.432 23.6274 11.6737 23.3856 11.6737 23.0874C11.6737 22.7891 11.432 22.5474 11.1337 22.5474C10.8355 22.5474 10.5938 22.7891 10.5938 23.0874C10.5938 23.3856 10.8355 23.6274 11.1337 23.6274Z" fill="white"/>
<path d="M12.5937 23.6274C12.892 23.6274 13.1337 23.3856 13.1337 23.0874C13.1337 22.7891 12.892 22.5474 12.5937 22.5474C12.2955 22.5474 12.0537 22.7891 12.0537 23.0874C12.0537 23.3856 12.2955 23.6274 12.5937 23.6274Z" fill="white"/>
<path d="M11.8637 24.8574C12.162 24.8574 12.4037 24.6156 12.4037 24.3174C12.4037 24.0191 12.162 23.7774 11.8637 23.7774C11.5655 23.7774 11.3237 24.0191 11.3237 24.3174C11.3237 24.6156 11.5655 24.8574 11.8637 24.8574Z" fill="white"/>
<path d="M14.404 4.61736C13.114 7.16736 11.554 9.53736 9.93396 11.8774L9.33395 10.6774C11.504 10.6174 13.7439 10.6474 15.924 10.7074C13.864 13.3974 11.774 16.0774 9.33395 18.4474C10.614 15.8274 12.1739 13.3874 13.7939 10.9874L14.404 12.1874C12.224 12.2374 9.97395 12.2074 7.79395 12.1474C9.87395 9.53736 11.974 6.92736 14.404 4.61736Z" fill="#FF9900"/>
<defs>
<linearGradient id="paint0_linear_1766_3526" x1="11.8639" y1="-0.222644" x2="11.8639" y2="29.6174" gradientUnits="userSpaceOnUse">
<stop stop-color="#F16992"/>
<stop offset="1" stop-color="#FFB000"/>
</linearGradient>
<linearGradient id="paint1_linear_1766_3526" x1="11.864" y1="26.1574" x2="11.864" y2="-1.05264" gradientUnits="userSpaceOnUse">
<stop stop-color="#F16992"/>
<stop offset="1" stop-color="#FFB000"/>
</linearGradient>
</defs>
</svg>
