<svg width="14" height="14" viewBox="0 0 14 14" fill="none" xmlns="http://www.w3.org/2000/svg">
<path d="M1.17383 13.25H9.6484M10.7077 1.80932V4.98729C10.7077 5.57233 11.182 6.04661 11.767 6.04661M11.767 6.04661C12.3521 6.04661 12.8264 5.57233 12.8264 4.98729V1.80932M11.767 6.04661V10.072C11.767 10.6571 11.2928 11.1314 10.7077 11.1314M12.8264 3.92797H10.7077M2.23315 4.77542C2.23315 5.35805 2.70985 5.83475 3.29247 5.83475H7.52976C8.11239 5.83475 8.58908 5.35805 8.58908 4.77542V1.80932C8.58908 1.22669 8.11239 0.75 7.52976 0.75H3.29247C2.70985 0.75 2.23315 1.22669 2.23315 1.80932V4.77542ZM2.23315 4.77542V13.25M8.58908 13.25V7.95339M5.41112 7.95339L4.35179 9.54237H6.47044L5.41112 11.1314" stroke="black" stroke-miterlimit="10" stroke-linecap="round" stroke-linejoin="round"/>
</svg>
