<svg width="30" height="35" viewBox="0 0 30 35" fill="none" xmlns="http://www.w3.org/2000/svg">
<path fill-rule="evenodd" clip-rule="evenodd" d="M7.71139 4.89889C9.64468 2.96559 12.2659 1.8781 15 1.875C17.7341 1.8781 20.3553 2.96559 22.2886 4.89889C24.2219 6.83219 25.3094 9.45341 25.3125 12.1875C25.3125 21.0117 15.5379 34 15.1383 34.2789C14.9806 34.3893 14.7929 34.4486 14.6004 34.4486C14.4079 34.4486 14.2201 34.3893 14.0625 34.2789C13.6629 34 4.6875 21.0117 4.6875 12.1875C4.6906 9.45341 5.77809 6.83219 7.71139 4.89889ZM15 3.21429C16.6953 3.21429 18.3525 3.71699 19.762 4.65883C21.1716 5.60067 22.2702 6.93935 22.919 8.50557C23.5677 10.0718 23.7375 11.7952 23.4067 13.4579C23.076 15.1206 22.2596 16.6479 21.0609 17.8466C19.8622 19.0454 18.3349 19.8617 16.6722 20.1924C15.0095 20.5232 13.2861 20.3534 11.7199 19.7047C10.1536 19.0559 8.81496 17.9573 7.87312 16.5477C6.93128 15.1382 6.42857 13.481 6.42857 11.7857C6.42857 9.51243 7.33163 7.33225 8.93908 5.7248C10.5465 4.11734 12.7267 3.21429 15 3.21429Z" fill="#FF0000"/>
<path opacity="0.9" d="M19.7622 4.65883C18.3526 3.71699 16.6954 3.21429 15.0001 3.21429C12.7269 3.21429 10.5467 4.11734 8.93922 5.7248C7.33177 7.33225 6.42871 9.51243 6.42871 11.7857C6.42871 13.481 6.93142 15.1382 7.87326 16.5477C8.8151 17.9573 10.1538 19.0559 11.72 19.7047C13.2862 20.3534 15.0096 20.5232 16.6723 20.1924C18.335 19.8617 19.8623 19.0454 21.061 17.8466C22.2598 16.6479 23.0761 15.1206 23.4069 13.4579C23.7376 11.7952 23.5679 10.0718 22.9191 8.50557C22.2704 6.93935 21.1717 5.60067 19.7622 4.65883Z" fill="white"/>
</svg>
