<svg width="23" height="31" viewBox="0 0 23 31" fill="none" xmlns="http://www.w3.org/2000/svg">
<path d="M11.641 30.8802C14.481 30.8802 16.781 29.6502 16.781 28.1302C16.781 26.6102 14.481 25.3802 11.641 25.3802C8.80096 25.3802 6.50098 26.6102 6.50098 28.1302C6.50098 29.6502 8.80096 30.8802 11.641 30.8802Z" fill="#EFEFEF"/>
<path d="M22.7007 11.9402C22.7007 5.83019 17.7507 0.880188 11.6407 0.880188C5.53074 0.880188 0.640747 5.75019 0.580747 11.8302C0.530747 16.4202 3.29075 20.3802 7.24075 22.0902C8.67075 22.5602 9.99074 27.9302 10.8507 29.0402C11.2307 29.6002 12.0508 29.6002 12.4308 29.0402C13.2908 27.9202 14.6008 22.5702 16.0308 22.0902C19.9508 20.3902 22.7007 16.4802 22.7007 11.9402Z" fill="url(#paint0_linear_1766_3200)"/>
<path d="M11.6408 21.9902C17.1908 21.9902 21.6908 17.4902 21.6908 11.9402C21.6908 6.39018 17.1908 1.89018 11.6408 1.89018C6.09081 1.89018 1.59082 6.39018 1.59082 11.9402C1.59082 17.4902 6.09081 21.9902 11.6408 21.9902Z" fill="url(#paint1_linear_1766_3200)"/>
<path d="M11.6407 20.6002C16.4207 20.6002 20.3007 16.7202 20.3007 11.9402C20.3007 7.16018 16.4207 3.28018 11.6407 3.28018C6.86072 3.28018 2.98071 7.16018 2.98071 11.9402C2.98071 16.7202 6.86072 20.6002 11.6407 20.6002Z" fill="#EFEFEF"/>
<path d="M10.9111 24.0302C11.2093 24.0302 11.4511 23.7884 11.4511 23.4902C11.4511 23.192 11.2093 22.9502 10.9111 22.9502C10.6128 22.9502 10.3711 23.192 10.3711 23.4902C10.3711 23.7884 10.6128 24.0302 10.9111 24.0302Z" fill="white"/>
<path d="M12.3711 24.0302C12.6693 24.0302 12.911 23.7884 12.911 23.4902C12.911 23.192 12.6693 22.9502 12.3711 22.9502C12.0728 22.9502 11.8311 23.192 11.8311 23.4902C11.8311 23.7884 12.0728 24.0302 12.3711 24.0302Z" fill="white"/>
<path d="M11.6411 25.2602C11.9393 25.2602 12.1811 25.0184 12.1811 24.7202C12.1811 24.422 11.9393 24.1802 11.6411 24.1802C11.3428 24.1802 11.1011 24.422 11.1011 24.7202C11.1011 25.0184 11.3428 25.2602 11.6411 25.2602Z" fill="white"/>
<path d="M13.2906 5.02019C12.0006 7.57019 10.4406 9.94019 8.82065 12.2802L8.22067 11.0802C10.3907 11.0202 12.6307 11.0502 14.8107 11.1102C12.7507 13.8002 10.6607 16.4802 8.22067 18.8502C9.50067 16.2302 11.0607 13.7902 12.6807 11.3902L13.2906 12.5902C11.1106 12.6402 8.86066 12.6102 6.68066 12.5502C8.76066 9.94019 10.8606 7.33019 13.2906 5.02019Z" fill="#FF9900"/>
<path d="M15.5105 11.7102H15.4706V10.4302C15.4706 9.76018 14.9305 9.22018 14.2605 9.22018H12.8305C12.1605 9.22018 11.6205 9.76018 11.6205 10.4302V11.7102H11.5805C11.0205 11.7102 10.5605 12.1702 10.5605 12.7302V14.8902C10.5605 15.4502 11.0205 15.9102 11.5805 15.9102H15.5005C16.0605 15.9102 16.5205 15.4502 16.5205 14.8902V12.7302C16.5205 12.1702 16.0605 11.7102 15.5005 11.7102H15.5105ZM12.3605 10.4302C12.3605 10.1702 12.5705 9.96018 12.8305 9.96018H14.2605C14.5205 9.96018 14.7305 10.1702 14.7305 10.4302V11.7102H12.3605V10.4302Z" fill="url(#paint2_linear_1766_3200)"/>
<defs>
<linearGradient id="paint0_linear_1766_3200" x1="4.48075" y1="5.92019" x2="28.1507" y2="29.5902" gradientUnits="userSpaceOnUse">
<stop stop-color="#565656"/>
<stop offset="1"/>
</linearGradient>
<linearGradient id="paint1_linear_1766_3200" x1="17.7008" y1="18.0002" x2="-2.3392" y2="-2.03979" gradientUnits="userSpaceOnUse">
<stop stop-color="#565656"/>
<stop offset="1"/>
</linearGradient>
<linearGradient id="paint2_linear_1766_3200" x1="10.5705" y1="12.5602" x2="16.5305" y2="12.5602" gradientUnits="userSpaceOnUse">
<stop stop-color="#565656"/>
<stop offset="1"/>
</linearGradient>
</defs>
</svg>
