<svg width="48" height="49" viewBox="0 0 48 49" fill="none" xmlns="http://www.w3.org/2000/svg">
<path d="M11.2991 20.2125C10.2042 20.3667 9.13288 20.7658 8.20083 21.3665C7.65467 21.7186 7.49739 22.4467 7.84939 22.9928C7.95601 23.1584 8.10254 23.2946 8.27551 23.3888C8.44848 23.483 8.64236 23.5323 8.83932 23.532C9.05758 23.532 9.27848 23.4712 9.47565 23.3442C10.1234 22.9266 10.8674 22.6494 11.6273 22.5424C12.2707 22.4517 12.7189 21.8567 12.6282 21.2133C12.5376 20.5699 11.9427 20.122 11.2991 20.2125Z" fill="url(#paint0_linear_1766_2729)"/>
<path d="M6.65346 24.5132C6.03662 24.3093 5.37111 24.6444 5.16744 25.2613C4.91511 26.0255 4.78711 26.8357 4.78711 27.6695V28.4187C4.78711 29.0684 5.31389 29.5952 5.96358 29.5952C6.61327 29.5952 7.14005 29.0684 7.14005 28.4187V27.6695C7.14005 27.0869 7.22805 26.5249 7.4017 25.9992C7.60546 25.3822 7.2705 24.7169 6.65346 24.5132Z" fill="url(#paint1_linear_1766_2729)"/>
<path d="M5.96382 38.5363C5.31413 38.5363 4.78735 39.0631 4.78735 39.7128V42.5363C4.78735 43.186 5.31413 43.7128 5.96382 43.7128C6.61352 43.7128 7.14029 43.186 7.14029 42.5363V39.7128C7.14029 39.063 6.61352 38.5363 5.96382 38.5363Z" fill="url(#paint2_linear_1766_2729)"/>
<path d="M17.6219 22.3532C17.1699 21.9012 16.6717 21.51 16.1409 21.1903C15.5842 20.8549 14.8613 21.0342 14.5261 21.5909C14.1908 22.1474 14.3701 22.8704 14.9267 23.2057C15.2941 23.4271 15.6411 23.7 15.9581 24.017L16.822 24.8809C17.0517 25.1105 17.3528 25.2255 17.6539 25.2255C17.955 25.2255 18.2561 25.1105 18.4858 24.8809C18.9452 24.4214 18.9452 23.6766 18.4858 23.2171L17.6219 22.3532Z" fill="url(#paint3_linear_1766_2729)"/>
<path d="M5.96382 31.4775C5.31413 31.4775 4.78735 32.0043 4.78735 32.654V35.4775C4.78735 36.1272 5.31413 36.654 5.96382 36.654C6.61352 36.654 7.14029 36.1272 7.14029 35.4775V32.654C7.14029 32.0042 6.61352 31.4775 5.96382 31.4775Z" fill="url(#paint4_linear_1766_2729)"/>
<path d="M37.382 21.0647C36.7323 21.0647 36.2056 21.5915 36.2056 22.2412V23.5548C36.2056 24.2045 36.7323 24.7312 37.382 24.7312C38.0317 24.7312 38.5585 24.2045 38.5585 23.5548V22.2412C38.5585 21.5915 38.0317 21.0647 37.382 21.0647Z" fill="url(#paint5_linear_1766_2729)"/>
<path d="M37.382 26.6136C36.7323 26.6136 36.2056 27.1404 36.2056 27.7901V28.4665C36.2057 29.0698 36.1113 29.6505 35.9252 30.1925C35.7142 30.807 36.0411 31.4764 36.6557 31.6874C36.7824 31.7309 36.9113 31.7515 37.038 31.7515C37.5265 31.7515 37.9831 31.4448 38.1506 30.9569C38.4215 30.1683 38.5587 29.3304 38.5586 28.4664V27.7902C38.5585 27.1404 38.0317 26.6136 37.382 26.6136Z" fill="url(#paint6_linear_1766_2729)"/>
<path d="M33.8196 32.8237C33.1669 33.234 32.4199 33.503 31.6592 33.6015C31.0148 33.6848 30.56 34.2747 30.6434 34.9191C30.7201 35.5123 31.226 35.9447 31.8087 35.9447C31.8589 35.9447 31.9099 35.9415 31.9611 35.9349C33.0573 35.7931 34.1332 35.406 35.0722 34.8154C35.6222 34.4695 35.7878 33.7432 35.4418 33.1933C35.096 32.6431 34.3695 32.4777 33.8196 32.8237Z" fill="url(#paint7_linear_1766_2729)"/>
<path d="M21.4805 26.2118C21.021 25.7524 20.2761 25.7524 19.8167 26.2118C19.3573 26.6713 19.3573 27.4162 19.8167 27.8756L21.8132 29.8722C22.043 30.1018 22.3441 30.2167 22.6451 30.2167C22.9462 30.2167 23.2473 30.1018 23.477 29.8722C23.9364 29.4127 23.9364 28.6678 23.477 28.2083L21.4805 26.2118Z" fill="url(#paint8_linear_1766_2729)"/>
<path d="M28.3681 32.8991C28.0198 32.6836 27.6898 32.4211 27.3874 32.1187L26.4718 31.2032C26.0124 30.7438 25.2674 30.7438 24.808 31.2032C24.3485 31.6626 24.3485 32.4075 24.808 32.867L25.7236 33.7825C26.1543 34.2133 26.6277 34.5893 27.1305 34.9004C27.316 35.0155 27.5299 35.0765 27.7481 35.0764C28.1423 35.0764 28.5273 34.8784 28.7499 34.5184C29.0918 33.9659 28.9207 33.2409 28.3681 32.8991Z" fill="url(#paint9_linear_1766_2729)"/>
<path d="M48 11.1592C48 17.0462 38.9588 26.5901 37.3408 26.5901C35.7229 26.5901 26.6816 17.0462 26.6816 11.1592C26.6816 5.27224 31.4539 0.5 37.3408 0.5C43.2278 0.5 48 5.27233 48 11.1592Z" fill="url(#paint10_linear_1766_2729)"/>
<path d="M37.3407 19.3107C41.8427 19.3107 45.4923 15.6612 45.4923 11.1592C45.4923 6.65724 41.8427 3.00768 37.3407 3.00768C32.8388 3.00768 29.1892 6.65724 29.1892 11.1592C29.1892 15.6612 32.8388 19.3107 37.3407 19.3107Z" fill="url(#paint11_linear_1766_2729)"/>
<path d="M30.1746 19.4311C32.906 23.3218 36.394 26.59 37.3408 26.59C38.2875 26.59 41.7755 23.3218 44.507 19.4311H30.1746Z" fill="url(#paint12_linear_1766_2729)"/>
<path d="M37.3407 17.123C40.6344 17.123 43.3045 14.4529 43.3045 11.1592C43.3045 7.8655 40.6344 5.19543 37.3407 5.19543C34.047 5.19543 31.377 7.8655 31.377 11.1592C31.377 14.4529 34.047 17.123 37.3407 17.123Z" fill="white"/>
<path d="M5.96377 48.5C9.25746 48.5 11.9275 45.8299 11.9275 42.5362C11.9275 39.2426 9.25746 36.5725 5.96377 36.5725C2.67007 36.5725 0 39.2426 0 42.5362C0 45.8299 2.67007 48.5 5.96377 48.5Z" fill="url(#paint13_linear_1766_2729)"/>
<path d="M32.3195 45.0776H27.5866C27.0868 45.0776 26.6816 44.6724 26.6816 44.1727C26.6816 43.6729 27.0868 43.2677 27.5866 43.2677H32.3195C32.8192 43.2677 33.2244 43.6729 33.2244 44.1727C33.2244 44.6724 32.8192 45.0776 32.3195 45.0776Z" fill="url(#paint14_linear_1766_2729)"/>
<path d="M36.4997 41.8048H32.1232C31.6234 41.8048 31.2183 41.3997 31.2183 40.8999C31.2183 40.7811 31.2417 40.6634 31.2871 40.5536C31.3326 40.4438 31.3993 40.344 31.4833 40.26C31.5673 40.176 31.6671 40.1093 31.7769 40.0638C31.8867 40.0184 32.0044 39.995 32.1232 39.995H36.4997C36.9994 39.995 37.4046 40.4001 37.4046 40.8999C37.4046 41.3997 36.9995 41.8048 36.4997 41.8048Z" fill="url(#paint15_linear_1766_2729)"/>
<path d="M27.6029 39.995H29.3597C29.8595 39.995 30.2647 40.4001 30.2647 40.8999C30.2647 41.0187 30.2413 41.1364 30.1958 41.2462C30.1503 41.356 30.0837 41.4558 29.9996 41.5398C29.9156 41.6238 29.8158 41.6905 29.706 41.736C29.5963 41.7814 29.4786 41.8048 29.3597 41.8048H27.6029C27.1031 41.8048 26.698 41.3997 26.698 40.8999C26.698 40.4001 27.1032 39.995 27.6029 39.995Z" fill="url(#paint16_linear_1766_2729)"/>
<path d="M35.3007 43.2677H40.7081C41.2079 43.2677 41.6131 43.6729 41.6131 44.1727C41.6131 44.2915 41.5897 44.4092 41.5442 44.519C41.4987 44.6288 41.4321 44.7285 41.348 44.8126C41.264 44.8966 41.1642 44.9632 41.0544 45.0087C40.9446 45.0542 40.827 45.0776 40.7081 45.0776H35.3007C34.8009 45.0776 34.3958 44.6724 34.3958 44.1727C34.3958 43.6729 34.8008 43.2677 35.3007 43.2677Z" fill="url(#paint17_linear_1766_2729)"/>
<defs>
<linearGradient id="paint0_linear_1766_2729" x1="9.16968" y1="19.5637" x2="19.3338" y2="43.4213" gradientUnits="userSpaceOnUse">
<stop stop-color="#5A5A5A"/>
<stop offset="1" stop-color="#444444"/>
</linearGradient>
<linearGradient id="paint1_linear_1766_2729" x1="3.90165" y1="21.8081" x2="14.0658" y2="45.6656" gradientUnits="userSpaceOnUse">
<stop stop-color="#5A5A5A"/>
<stop offset="1" stop-color="#444444"/>
</linearGradient>
<linearGradient id="paint2_linear_1766_2729" x1="-1.31825" y1="24.032" x2="8.84599" y2="47.8896" gradientUnits="userSpaceOnUse">
<stop stop-color="#5A5A5A"/>
<stop offset="1" stop-color="#444444"/>
</linearGradient>
<linearGradient id="paint3_linear_1766_2729" x1="14.1698" y1="17.4335" x2="24.334" y2="41.2911" gradientUnits="userSpaceOnUse">
<stop stop-color="#5A5A5A"/>
<stop offset="1" stop-color="#444444"/>
</linearGradient>
<linearGradient id="paint4_linear_1766_2729" x1="1.22707" y1="22.9475" x2="11.3913" y2="46.8052" gradientUnits="userSpaceOnUse">
<stop stop-color="#5A5A5A"/>
<stop offset="1" stop-color="#444444"/>
</linearGradient>
<linearGradient id="paint5_linear_1766_2729" x1="31.8457" y1="9.903" x2="42.0099" y2="33.7606" gradientUnits="userSpaceOnUse">
<stop stop-color="#5A5A5A"/>
<stop offset="1" stop-color="#444444"/>
</linearGradient>
<linearGradient id="paint6_linear_1766_2729" x1="29.4341" y1="10.9304" x2="39.5983" y2="34.788" gradientUnits="userSpaceOnUse">
<stop stop-color="#5A5A5A"/>
<stop offset="1" stop-color="#444444"/>
</linearGradient>
<linearGradient id="paint7_linear_1766_2729" x1="24.1359" y1="13.1875" x2="34.3001" y2="37.0452" gradientUnits="userSpaceOnUse">
<stop stop-color="#5A5A5A"/>
<stop offset="1" stop-color="#444444"/>
</linearGradient>
<linearGradient id="paint8_linear_1766_2729" x1="16.673" y1="16.367" x2="26.8372" y2="40.2246" gradientUnits="userSpaceOnUse">
<stop stop-color="#5A5A5A"/>
<stop offset="1" stop-color="#444444"/>
</linearGradient>
<linearGradient id="paint9_linear_1766_2729" x1="19.1691" y1="15.3036" x2="29.3334" y2="39.1612" gradientUnits="userSpaceOnUse">
<stop stop-color="#5A5A5A"/>
<stop offset="1" stop-color="#444444"/>
</linearGradient>
<linearGradient id="paint10_linear_1766_2729" x1="32.6296" y1="5.07402" x2="42.8749" y2="18.4657" gradientUnits="userSpaceOnUse">
<stop stop-color="#FFA1AE"/>
<stop offset="1" stop-color="#E41F2D"/>
</linearGradient>
<linearGradient id="paint11_linear_1766_2729" x1="43.1788" y1="16.9972" x2="27.1764" y2="0.994875" gradientUnits="userSpaceOnUse">
<stop stop-color="#FFA1AE"/>
<stop offset="1" stop-color="#E41F2D"/>
</linearGradient>
<linearGradient id="paint12_linear_1766_2729" x1="37.3408" y1="21.1381" x2="37.3408" y2="27.1739" gradientUnits="userSpaceOnUse">
<stop stop-color="#C41926" stop-opacity="0"/>
<stop offset="0.176" stop-color="#C01A27" stop-opacity="0.176"/>
<stop offset="0.376" stop-color="#B21E29" stop-opacity="0.376"/>
<stop offset="0.589" stop-color="#9B242C" stop-opacity="0.589"/>
<stop offset="0.808" stop-color="#7B2D31" stop-opacity="0.808"/>
<stop offset="1" stop-color="#593636"/>
</linearGradient>
<linearGradient id="paint13_linear_1766_2729" x1="3.65948" y1="40.232" x2="9.08085" y2="45.6534" gradientUnits="userSpaceOnUse">
<stop offset="0.161458" stop-color="#0EAD0E"/>
<stop offset="1" stop-color="#00E25B"/>
</linearGradient>
<linearGradient id="paint14_linear_1766_2729" x1="16.79" y1="66.0582" x2="35.9357" y2="34.2256" gradientUnits="userSpaceOnUse">
<stop stop-color="#B9ACAC"/>
<stop offset="1" stop-color="#766E6E"/>
</linearGradient>
<linearGradient id="paint15_linear_1766_2729" x1="13.5003" y1="75.5016" x2="41.1357" y2="29.5538" gradientUnits="userSpaceOnUse">
<stop stop-color="#B9ACAC"/>
<stop offset="1" stop-color="#766E6E"/>
</linearGradient>
<linearGradient id="paint16_linear_1766_2729" x1="6.63605" y1="77.2211" x2="37.8831" y2="25.2681" gradientUnits="userSpaceOnUse">
<stop stop-color="#B9ACAC"/>
<stop offset="1" stop-color="#766E6E"/>
</linearGradient>
<linearGradient id="paint17_linear_1766_2729" x1="13.6904" y1="84.5982" x2="44.9374" y2="32.6453" gradientUnits="userSpaceOnUse">
<stop stop-color="#B9ACAC"/>
<stop offset="1" stop-color="#766E6E"/>
</linearGradient>
</defs>
</svg>
