<svg width="30" height="31" viewBox="0 0 30 31" fill="none" xmlns="http://www.w3.org/2000/svg">
<path d="M14.9903 28.9038C17.6134 28.9038 19.7378 27.8421 19.7378 26.53C19.7378 25.218 17.6134 24.1562 14.9903 24.1562C12.3671 24.1562 10.2427 25.218 10.2427 26.53C10.2427 27.8421 12.3671 28.9038 14.9903 28.9038Z" fill="#FF9B53"/>
<path d="M25.0791 11.71C25.0791 6.12772 20.564 1.60522 14.9908 1.60522C9.41757 1.60522 4.95719 6.05463 4.90247 11.6095C4.85686 15.8031 7.37438 19.4211 10.9773 20.9834C12.2817 21.4128 13.4857 26.319 14.2702 27.3332C14.6168 27.8448 15.3647 27.8448 15.7114 27.3332C16.4958 26.3099 17.6907 21.422 18.9951 20.9834C22.5707 19.4302 25.0791 15.8579 25.0791 11.71Z" fill="url(#paint0_linear_2585_4295)"/>
<path d="M14.9901 20.5955C19.906 20.5955 23.8918 16.6097 23.8918 11.6938C23.8918 6.77797 19.906 2.79213 14.9901 2.79213C10.0742 2.79213 6.08838 6.77797 6.08838 11.6938C6.08838 16.6097 10.0742 20.5955 14.9901 20.5955Z" fill="url(#paint1_linear_2585_4295)"/>
<path d="M14.9902 19.4086C19.2485 19.4086 22.705 15.9521 22.705 11.6938C22.705 7.43554 19.2485 3.97902 14.9902 3.97902C10.7319 3.97902 7.27539 7.43554 7.27539 11.6938C7.27539 15.9521 10.7319 19.4086 14.9902 19.4086Z" fill="#FFF0EB"/>
<path d="M14.7082 6.84882C13.612 6.87485 12.5697 7.34127 11.8063 8.14741C11.043 8.95355 10.6198 10.0348 10.628 11.1577C10.6363 12.2806 11.0754 13.3551 11.8505 14.1494C12.6257 14.9437 13.6747 15.3939 14.7711 15.403C14.8588 15.4024 14.9426 15.3664 15.0046 15.303C15.0666 15.2395 15.1017 15.1536 15.1023 15.0639C15.1025 15.019 15.094 14.9745 15.0774 14.933C15.0608 14.8915 15.0364 14.8537 15.0055 14.8218C14.9746 14.79 14.9379 14.7647 14.8975 14.7473C14.8571 14.73 14.8137 14.721 14.7699 14.7208C14.4677 14.7208 14.1705 14.6795 13.8859 14.6047C13.6922 14.0703 13.5191 13.5282 13.367 12.9798H14.4752C14.5628 12.9791 14.6467 12.9432 14.7087 12.8797C14.7706 12.8162 14.8057 12.7304 14.8064 12.6406C14.8061 12.5506 14.7711 12.4644 14.7091 12.4007C14.6471 12.337 14.5631 12.3008 14.4752 12.3002H13.1983C13.1001 11.8565 13.0321 11.4322 13.0321 11.1266C13.0321 10.8196 13.1001 10.3966 13.1983 9.953H16.3427C16.3679 10.0626 16.3906 10.1709 16.4107 10.2767C16.4275 10.3656 16.478 10.444 16.5512 10.4948C16.6244 10.5456 16.7143 10.5645 16.8011 10.5475C16.8442 10.539 16.8853 10.5219 16.9219 10.4971C16.9585 10.4724 16.99 10.4404 17.0146 10.4032C17.0392 10.3659 17.0563 10.3241 17.0651 10.28C17.0738 10.236 17.074 10.1906 17.0656 10.1464L17.0265 9.953H18.0894C18.2153 10.3231 18.282 10.719 18.282 11.1266C18.2827 11.2165 18.318 11.3026 18.3802 11.3661C18.4425 11.4296 18.5266 11.4654 18.6145 11.4658C18.7026 11.4658 18.7871 11.4301 18.8496 11.3666C18.9121 11.303 18.9475 11.2168 18.9482 11.1266C18.9479 10.5594 18.8376 9.99802 18.6236 9.47493C18.4097 8.95184 18.0964 8.47751 17.7018 8.0795C17.3073 7.68149 16.8395 7.36773 16.3256 7.15646C15.8117 6.94519 15.2619 6.84062 14.7082 6.84882ZM14.717 7.52975C15.0326 7.52523 15.3473 7.56427 15.6526 7.64582C15.6967 7.76576 15.9498 8.46733 16.1715 9.27078H13.3683C13.52 8.72256 13.6923 8.18051 13.8846 7.64582C14.1566 7.5736 14.4362 7.53362 14.717 7.52975ZM13.0623 7.98242C12.9216 8.40762 12.7927 8.83682 12.6757 9.26949H11.7614C12.0776 8.73129 12.5262 8.28748 13.0623 7.98242ZM16.4775 7.985C17.0202 8.29451 17.4648 8.74073 17.7771 9.27078H16.8641C16.7487 8.83805 16.6198 8.40924 16.4775 7.985ZM11.4491 9.953H12.512C12.4251 10.3657 12.3672 10.7719 12.3672 11.1266C12.3672 11.4812 12.4251 11.8875 12.512 12.3002H11.4517C11.1944 11.5401 11.1935 10.7136 11.4491 9.953ZM15.7043 11.7443V16.3819H16.5455V14.6576H17.3099L18.2757 16.3819H19.2807L18.1473 14.4732C18.6762 14.2217 18.9935 13.7252 18.9935 13.101C18.9935 12.246 18.3866 11.7443 17.3879 11.7443H15.7043ZM16.5455 12.4988H17.2759C17.8123 12.4988 18.1259 12.7735 18.1259 13.2274C18.1259 13.6685 17.864 13.929 17.3879 13.929H16.5455V12.4988ZM11.7614 12.9798H12.6757C12.7906 13.413 12.9191 13.8422 13.061 14.2669C12.5254 13.9615 12.0774 13.5178 11.7614 12.9798Z" fill="#FF9900"/>
<path d="M14.3421 22.6706C14.6071 22.6706 14.8219 22.4506 14.8219 22.1792C14.8219 21.9079 14.6071 21.6879 14.3421 21.6879C14.0771 21.6879 13.8623 21.9079 13.8623 22.1792C13.8623 22.4506 14.0771 22.6706 14.3421 22.6706Z" fill="white"/>
<path d="M15.6395 22.6706C15.9045 22.6706 16.1193 22.4506 16.1193 22.1792C16.1193 21.9079 15.9045 21.6879 15.6395 21.6879C15.3745 21.6879 15.1597 21.9079 15.1597 22.1792C15.1597 22.4506 15.3745 22.6706 15.6395 22.6706Z" fill="white"/>
<path d="M14.9906 23.7898C15.2555 23.7898 15.4704 23.5699 15.4704 23.2985C15.4704 23.0271 15.2555 22.8071 14.9906 22.8071C14.7256 22.8071 14.5107 23.0271 14.5107 23.2985C14.5107 23.5699 14.7256 23.7898 14.9906 23.7898Z" fill="white"/>
<defs>
<linearGradient id="paint0_linear_2585_4295" x1="8.45982" y1="6.20994" x2="30.0855" y2="27.8003" gradientUnits="userSpaceOnUse">
<stop stop-color="#FF9D00"/>
<stop offset="1" stop-color="#FF0000"/>
</linearGradient>
<linearGradient id="paint1_linear_2585_4295" x1="7.72764" y1="0.126037" x2="21.9981" y2="24.3727" gradientUnits="userSpaceOnUse">
<stop stop-color="#FF9D00"/>
<stop offset="0.753314" stop-color="#FF0000"/>
</linearGradient>
</defs>
</svg>
