<svg width="26" height="26" viewBox="0 0 26 26" fill="none" xmlns="http://www.w3.org/2000/svg">
<rect width="26" height="26" rx="13" fill="white"/>
<path d="M13.1345 19.1052L13.1207 19.1155L13.1077 19.1266C13.0775 19.1524 13.0391 19.1666 12.9993 19.1666C12.96 19.1666 12.9219 19.1527 12.8919 19.1274C12.7885 19.0378 11.5966 18.0041 10.4309 16.5519C9.24025 15.0685 8.1671 13.2574 8.16602 11.6157C8.1794 10.3432 8.69416 9.12718 9.59862 8.23177C10.5037 7.33577 11.7258 6.83319 12.9993 6.83325H12.9994C14.2729 6.83319 15.495 7.33577 16.4001 8.23177C17.3045 9.12718 17.8193 10.3432 17.8327 11.6158C17.8316 13.2584 16.7656 15.0701 15.5797 16.5526C14.9971 17.281 14.406 17.9049 13.9461 18.3575C13.7164 18.5835 13.5203 18.7657 13.3758 18.8958C13.3034 18.9609 13.2445 19.0125 13.2012 19.0495C13.1536 19.0902 13.1336 19.1059 13.1345 19.1052Z" stroke="#292D32"/>
<path d="M11.703 13.2734C12.0867 13.5298 12.5379 13.6667 12.9994 13.6667C13.6182 13.6667 14.2117 13.4208 14.6493 12.9832C15.0869 12.5457 15.3327 11.9522 15.3327 11.3333C15.3327 10.8718 15.1958 10.4207 14.9394 10.037C14.6831 9.65329 14.3186 9.35422 13.8923 9.17762C13.4659 9.00101 12.9968 8.9548 12.5441 9.04484C12.0915 9.13487 11.6758 9.3571 11.3494 9.68342C11.0231 10.0097 10.8009 10.4255 10.7109 10.8781C10.6208 11.3307 10.667 11.7999 10.8436 12.2263C11.0202 12.6526 11.3193 13.017 11.703 13.2734Z" fill="#292D32"/>
</svg>
