<svg width="26" height="26" viewBox="0 0 26 26" fill="none" xmlns="http://www.w3.org/2000/svg">
<rect width="26" height="26" rx="13" fill="white"/>
<path d="M10.8338 7.94426C10.6422 7.94426 10.4585 8.02035 10.3231 8.1558C10.1876 8.29124 10.1115 8.47494 10.1115 8.66648C10.1115 8.85803 10.1876 9.04173 10.3231 9.17717C10.4585 9.31261 10.6422 9.38871 10.8338 9.38871C11.0253 9.38871 11.209 9.31261 11.3445 9.17717C11.4799 9.04173 11.556 8.85803 11.556 8.66648C11.556 8.47494 11.4799 8.29124 11.3445 8.1558C11.209 8.02035 11.0253 7.94426 10.8338 7.94426ZM8.78988 7.94426C8.93909 7.52138 9.2158 7.15519 9.58187 6.89616C9.94793 6.63714 10.3853 6.49805 10.8338 6.49805C11.2822 6.49805 11.7196 6.63714 12.0857 6.89616C12.4517 7.15519 12.7284 7.52138 12.8777 7.94426H18.056C18.2475 7.94426 18.4312 8.02035 18.5667 8.1558C18.7021 8.29124 18.7782 8.47494 18.7782 8.66648C18.7782 8.85803 18.7021 9.04173 18.5667 9.17717C18.4312 9.31261 18.2475 9.38871 18.056 9.38871H12.8777C12.7284 9.81159 12.4517 10.1778 12.0857 10.4368C11.7196 10.6958 11.2822 10.8349 10.8338 10.8349C10.3853 10.8349 9.94793 10.6958 9.58187 10.4368C9.2158 10.1778 8.93909 9.81159 8.78988 9.38871H7.94488C7.75333 9.38871 7.56963 9.31261 7.43419 9.17717C7.29875 9.04173 7.22266 8.85803 7.22266 8.66648C7.22266 8.47494 7.29875 8.29124 7.43419 8.1558C7.56963 8.02035 7.75333 7.94426 7.94488 7.94426H8.78988ZM15.1671 12.2776C14.9756 12.2776 14.7919 12.3537 14.6564 12.4891C14.521 12.6246 14.4449 12.8083 14.4449 12.9998C14.4449 13.1914 14.521 13.3751 14.6564 13.5105C14.7919 13.6459 14.9756 13.722 15.1671 13.722C15.3586 13.722 15.5423 13.6459 15.6778 13.5105C15.8132 13.3751 15.8893 13.1914 15.8893 12.9998C15.8893 12.8083 15.8132 12.6246 15.6778 12.4891C15.5423 12.3537 15.3586 12.2776 15.1671 12.2776ZM13.1232 12.2776C13.2724 11.8547 13.5491 11.4885 13.9152 11.2295C14.2813 10.9705 14.7187 10.8314 15.1671 10.8314C15.6155 10.8314 16.0529 10.9705 16.419 11.2295C16.7851 11.4885 17.0618 11.8547 17.211 12.2776H18.056C18.2475 12.2776 18.4312 12.3537 18.5667 12.4891C18.7021 12.6246 18.7782 12.8083 18.7782 12.9998C18.7782 13.1914 18.7021 13.3751 18.5667 13.5105C18.4312 13.6459 18.2475 13.722 18.056 13.722H17.211C17.0618 14.1449 16.7851 14.5111 16.419 14.7701C16.0529 15.0292 15.6155 15.1683 15.1671 15.1683C14.7187 15.1683 14.2813 15.0292 13.9152 14.7701C13.5491 14.5111 13.2724 14.1449 13.1232 13.722H7.94488C7.75333 13.722 7.56963 13.6459 7.43419 13.5105C7.29875 13.3751 7.22266 13.1914 7.22266 12.9998C7.22266 12.8083 7.29875 12.6246 7.43419 12.4891C7.56963 12.3537 7.75333 12.2776 7.94488 12.2776H13.1232ZM10.8338 16.6109C10.6422 16.6109 10.4585 16.687 10.3231 16.8225C10.1876 16.9579 10.1115 17.1416 10.1115 17.3331C10.1115 17.5247 10.1876 17.7084 10.3231 17.8438C10.4585 17.9793 10.6422 18.0554 10.8338 18.0554C11.0253 18.0554 11.209 17.9793 11.3445 17.8438C11.4799 17.7084 11.556 17.5247 11.556 17.3331C11.556 17.1416 11.4799 16.9579 11.3445 16.8225C11.209 16.687 11.0253 16.6109 10.8338 16.6109ZM8.78988 16.6109C8.93909 16.188 9.2158 15.8219 9.58187 15.5628C9.94793 15.3038 10.3853 15.1647 10.8338 15.1647C11.2822 15.1647 11.7196 15.3038 12.0857 15.5628C12.4517 15.8219 12.7284 16.188 12.8777 16.6109H18.056C18.2475 16.6109 18.4312 16.687 18.5667 16.8225C18.7021 16.9579 18.7782 17.1416 18.7782 17.3331C18.7782 17.5247 18.7021 17.7084 18.5667 17.8438C18.4312 17.9793 18.2475 18.0554 18.056 18.0554H12.8777C12.7284 18.4783 12.4517 18.8444 12.0857 19.1035C11.7196 19.3625 11.2822 19.5016 10.8338 19.5016C10.3853 19.5016 9.94793 19.3625 9.58187 19.1035C9.2158 18.8444 8.93909 18.4783 8.78988 18.0554H7.94488C7.75333 18.0554 7.56963 17.9793 7.43419 17.8438C7.29875 17.7084 7.22266 17.5247 7.22266 17.3331C7.22266 17.1416 7.29875 16.9579 7.43419 16.8225C7.56963 16.687 7.75333 16.6109 7.94488 16.6109H8.78988Z" fill="black"/>
</svg>
