<svg width="27" height="26" viewBox="0 0 27 26" fill="none" xmlns="http://www.w3.org/2000/svg">
<rect x="0.652344" width="26" height="26" rx="13" fill="#E70B0B"/>
<path d="M10.0417 19.5C9.64444 19.5 9.30428 19.3584 9.02117 19.0753C8.73806 18.7922 8.59674 18.4523 8.59722 18.0556V8.66667H7.875V7.22222H11.4861V6.5H15.8194V7.22222H19.4306V8.66667H18.7083V18.0556C18.7083 18.4528 18.5668 18.7929 18.2837 19.0761C18.0006 19.3592 17.6606 19.5005 17.2639 19.5H10.0417ZM17.2639 8.66667H10.0417V18.0556H17.2639V8.66667ZM11.4861 16.6111H12.9306V10.1111H11.4861V16.6111ZM14.375 16.6111H15.8194V10.1111H14.375V16.6111Z" fill="white"/>
</svg>
