<svg width="27" height="26" viewBox="0 0 27 26" fill="none" xmlns="http://www.w3.org/2000/svg">
<rect x="0.652344" width="26" height="26" rx="13" fill="#228B22"/>
<path d="M19.068 13C18.9084 13 18.7553 13.0634 18.6424 13.1763C18.5296 13.2892 18.4661 13.4422 18.4661 13.6019V17.213C18.4661 17.3726 18.4027 17.5257 18.2899 17.6385C18.177 17.7514 18.0239 17.8148 17.8643 17.8148H9.43837C9.27875 17.8148 9.12566 17.7514 9.01279 17.6385C8.89993 17.5257 8.83652 17.3726 8.83652 17.213V8.78704C8.83652 8.62742 8.89993 8.47434 9.01279 8.36147C9.12566 8.2486 9.27875 8.18519 9.43837 8.18519H13.0495C13.2091 8.18519 13.3622 8.12178 13.4751 8.00891C13.5879 7.89604 13.6513 7.74296 13.6513 7.58334C13.6513 7.42372 13.5879 7.27063 13.4751 7.15776C13.3622 7.0449 13.2091 6.98149 13.0495 6.98149H9.43837C8.9595 6.98149 8.50025 7.17171 8.16165 7.51032C7.82304 7.84893 7.63281 8.30818 7.63281 8.78704V17.213C7.63281 17.6918 7.82304 18.1511 8.16165 18.4897C8.50025 18.8283 8.9595 19.0185 9.43837 19.0185H17.8643C18.3432 19.0185 18.8024 18.8283 19.141 18.4897C19.4796 18.1511 19.6699 17.6918 19.6699 17.213V13.6019C19.6699 13.4422 19.6064 13.2892 19.4936 13.1763C19.3807 13.0634 19.2276 13 19.068 13ZM10.0402 13.4574V16.0093C10.0402 16.1689 10.1036 16.322 10.2165 16.4348C10.3294 16.5477 10.4825 16.6111 10.6421 16.6111H13.1939C13.2731 16.6116 13.3517 16.5964 13.425 16.5664C13.4983 16.5365 13.565 16.4924 13.6212 16.4366L17.7861 12.2657L19.4953 10.5926C19.5517 10.5366 19.5965 10.4701 19.6271 10.3967C19.6576 10.3234 19.6733 10.2447 19.6733 10.1653C19.6733 10.0858 19.6576 10.0072 19.6271 9.93382C19.5965 9.86048 19.5517 9.79392 19.4953 9.73797L16.9435 7.15602C16.8875 7.09961 16.8209 7.05484 16.7476 7.02428C16.6743 6.99373 16.5956 6.978 16.5161 6.978C16.4367 6.978 16.358 6.99373 16.2847 7.02428C16.2113 7.05484 16.1448 7.09961 16.0888 7.15602L14.3916 8.85926L10.2148 13.0301C10.159 13.0863 10.1148 13.153 10.0849 13.2264C10.0549 13.2997 10.0398 13.3782 10.0402 13.4574ZM16.5161 8.43195L18.2194 10.1352L17.3648 10.9898L15.6615 9.28658L16.5161 8.43195ZM11.2439 13.7042L14.8129 10.1352L16.5161 11.8384L12.9472 15.4074H11.2439V13.7042Z" fill="white"/>
</svg>
