<svg width="23" height="23" viewBox="0 0 23 23" fill="none" xmlns="http://www.w3.org/2000/svg">
<rect width="23" height="23" rx="11.5" fill="white"/>
<path d="M12.7106 6.05273V7.26326H14.8835L8.93379 13.213L9.78721 14.0664L15.7369 8.11668V10.2896H16.9475V6.05273M15.7369 15.7369H7.26326V7.26326H11.5001V6.05273H7.26326C6.94221 6.05273 6.63431 6.18027 6.40729 6.40729C6.18027 6.63431 6.05273 6.94221 6.05273 7.26326V15.7369C6.05273 16.058 6.18027 16.3659 6.40729 16.5929C6.63431 16.8199 6.94221 16.9475 7.26326 16.9475H15.7369C16.058 16.9475 16.3659 16.8199 16.5929 16.5929C16.8199 16.3659 16.9475 16.058 16.9475 15.7369V11.5001H15.7369V15.7369Z" fill="#228B22"/>
</svg>
