<svg width="26" height="26" viewBox="0 0 26 26" fill="none" xmlns="http://www.w3.org/2000/svg">
<rect width="26" height="26" rx="13" fill="white"/>
<g clip-path="url(#clip0_2183_6390)">
<path d="M12.9996 15.4075C13.6381 15.4075 14.2504 15.1538 14.7019 14.7023C15.1533 14.2509 15.407 13.6385 15.407 13.0001C15.407 12.3616 15.1533 11.7492 14.7019 11.2978C14.2504 10.8463 13.6381 10.5926 12.9996 10.5926C12.3611 10.5926 11.7487 10.8463 11.2973 11.2978C10.8458 11.7492 10.5922 12.3616 10.5922 13.0001C10.5922 13.6385 10.8458 14.2509 11.2973 14.7023C11.7487 15.1538 12.3611 15.4075 12.9996 15.4075ZM12.3977 8.22135V6.37968C12.3977 6.22006 12.4611 6.06698 12.574 5.95411C12.6869 5.84124 12.8399 5.77783 12.9996 5.77783C13.1592 5.77783 13.3123 5.84124 13.4251 5.95411C13.538 6.06698 13.6014 6.22006 13.6014 6.37968V8.22135C14.6623 8.35537 15.6484 8.83856 16.4044 9.59479C17.1604 10.351 17.6434 11.3373 17.7771 12.3982H19.6199C19.7796 12.3982 19.9326 12.4616 20.0455 12.5745C20.1584 12.6874 20.2218 12.8404 20.2218 13.0001C20.2218 13.1597 20.1584 13.3128 20.0455 13.4256C19.9326 13.5385 19.7796 13.6019 19.6199 13.6019H17.7771C17.6433 14.663 17.1602 15.6494 16.404 16.4057C15.6477 17.1619 14.6613 17.645 13.6002 17.7788L13.6014 17.8149V19.6204C13.6014 19.78 13.538 19.9331 13.4251 20.046C13.3123 20.1589 13.1592 20.2223 12.9996 20.2223C12.8399 20.2223 12.6869 20.1589 12.574 20.046C12.4611 19.9331 12.3977 19.78 12.3977 19.6204V17.7788C11.3366 17.645 10.3502 17.1619 9.59396 16.4057C8.83772 15.6494 8.35464 14.663 8.22086 13.6019C8.20883 13.6023 8.19679 13.6023 8.18475 13.6019H6.3792C6.21957 13.6019 6.06649 13.5385 5.95362 13.4256C5.84075 13.3128 5.77734 13.1597 5.77734 13.0001C5.77734 12.8404 5.84075 12.6874 5.95362 12.5745C6.06649 12.4616 6.21957 12.3982 6.3792 12.3982H8.18475C8.19679 12.3978 8.20883 12.3978 8.22086 12.3982C8.35513 11.3375 8.83843 10.3517 9.59464 9.59592C10.3508 8.84015 11.337 8.35742 12.3977 8.22376V8.22135ZM9.38845 13.0001C9.38846 13.9578 9.76891 14.8763 10.4461 15.5535C11.1233 16.2307 12.0418 16.6112 12.9996 16.6112C13.9573 16.6112 14.8758 16.2307 15.553 15.5535C16.2302 14.8763 16.6107 13.9578 16.6107 13.0001C16.6107 12.0423 16.2302 11.1238 15.553 10.4466C14.8758 9.7694 13.9573 9.38894 12.9996 9.38894C12.0418 9.38894 11.1233 9.7694 10.4461 10.4466C9.76891 11.1238 9.38846 12.0423 9.38845 13.0001Z" fill="#228B22"/>
</g>
<defs>
<clipPath id="clip0_2183_6390">
<rect width="14.4444" height="14.4444" fill="white" transform="translate(5.77734 5.77783)"/>
</clipPath>
</defs>
</svg>
