<svg width="37" height="36" viewBox="0 0 37 36" fill="none" xmlns="http://www.w3.org/2000/svg">
<rect x="0.304688" width="36" height="36" rx="18" fill="#F0F1F4"/>
<g clip-path="url(#clip0_2183_6352)">
<path d="M10.6427 25.5447L17.5096 10.3145C17.5342 10.2594 17.5743 10.2126 17.6249 10.1798C17.6756 10.1469 17.7346 10.1295 17.795 10.1295C17.8553 10.1295 17.9144 10.1469 17.965 10.1798C18.0156 10.2126 18.0557 10.2594 18.0803 10.3145L24.9472 25.5447C24.9726 25.6032 24.9793 25.6682 24.9667 25.7307C24.954 25.7933 24.9224 25.8505 24.8763 25.8946C24.8301 25.9387 24.7716 25.9676 24.7085 25.9774C24.6455 25.9873 24.5809 25.9775 24.5235 25.9496L18.0742 23.2236C17.9875 23.1803 17.8919 23.1578 17.795 23.1578C17.698 23.1578 17.6024 23.1803 17.5157 23.2236L11.0681 25.9512C11.0105 25.9801 10.9454 25.9904 10.8817 25.9808C10.818 25.9713 10.7588 25.9422 10.7122 25.8977C10.6657 25.8532 10.634 25.7954 10.6215 25.7322C10.6091 25.669 10.6165 25.6035 10.6427 25.5447Z" stroke="#228B22" stroke-linecap="round" stroke-linejoin="round"/>
</g>
<defs>
<clipPath id="clip0_2183_6352">
<rect width="20" height="20" fill="white" transform="translate(7.30469 9)"/>
</clipPath>
</defs>
</svg>
