<svg width="26" height="27" viewBox="0 0 26 27" fill="none" xmlns="http://www.w3.org/2000/svg">
<rect width="25.4973" height="26.306" rx="12.7486" fill="white"/>
<path opacity="0.87" d="M7.05174 10.048C6.5 10.048 6.05273 9.60078 6.05273 9.04905C6.05273 8.49732 6.5 8.05005 7.05173 8.05005H18.4457C18.9975 8.05005 19.4447 8.49732 19.4447 9.04905C19.4447 9.60078 18.9975 10.048 18.4457 10.048H7.05174ZM7.05174 14.152C6.5 14.152 6.05273 13.7048 6.05273 13.153C6.05273 12.6013 6.5 12.154 7.05173 12.154H18.4457C18.9975 12.154 19.4447 12.6013 19.4447 13.153C19.4447 13.7048 18.9975 14.152 18.4457 14.152H7.05174ZM7.05174 18.256C6.5 18.256 6.05273 17.8088 6.05273 17.257C6.05273 16.7053 6.5 16.258 7.05173 16.258H18.4457C18.9975 16.258 19.4447 16.7053 19.4447 17.257C19.4447 17.8088 18.9975 18.256 18.4457 18.256H7.05174Z" fill="#228B22"/>
</svg>
