<svg width="26" height="26" viewBox="0 0 26 26" fill="none" xmlns="http://www.w3.org/2000/svg">
<rect width="26" height="26" rx="13" fill="white"/>
<path d="M9 10.5V9H19.5V10.5H9ZM9 13.5V12H19.5V13.5H9ZM9 16.5V15H19.5V16.5H9ZM6.75 10.5C6.5375 10.5 6.35925 10.428 6.21525 10.284C6.07125 10.14 5.9995 9.962 6 9.75C6 9.5375 6.072 9.35925 6.216 9.21525C6.36 9.07125 6.538 8.9995 6.75 9C6.9625 9 7.14075 9.072 7.28475 9.216C7.42875 9.36 7.5005 9.538 7.5 9.75C7.5 9.9625 7.428 10.1408 7.284 10.2848C7.14 10.4288 6.962 10.5005 6.75 10.5ZM6.75 13.5C6.5375 13.5 6.35925 13.428 6.21525 13.284C6.07125 13.14 5.9995 12.962 6 12.75C6 12.5375 6.072 12.3593 6.216 12.2153C6.36 12.0713 6.538 11.9995 6.75 12C6.9625 12 7.14075 12.072 7.28475 12.216C7.42875 12.36 7.5005 12.538 7.5 12.75C7.5 12.9625 7.428 13.1408 7.284 13.2848C7.14 13.4288 6.962 13.5005 6.75 13.5ZM6.75 16.5C6.5375 16.5 6.35925 16.428 6.21525 16.284C6.07125 16.14 5.9995 15.962 6 15.75C6 15.5375 6.072 15.3593 6.216 15.2153C6.36 15.0713 6.538 14.9995 6.75 15C6.9625 15 7.14075 15.072 7.28475 15.216C7.42875 15.36 7.5005 15.538 7.5 15.75C7.5 15.9625 7.428 16.1408 7.284 16.2848C7.14 16.4288 6.962 16.5005 6.75 16.5Z" fill="#228B22"/>
</svg>
