<svg width="26" height="26" viewBox="0 0 26 26" fill="none" xmlns="http://www.w3.org/2000/svg">
<rect width="26" height="26" rx="13" fill="#228B22"/>
<path d="M18.0338 7.9672L11.4605 14.5406M6.55501 12.1409L17.8397 7.86987C17.8804 7.8543 17.9248 7.85085 17.9674 7.85994C18.01 7.86903 18.0491 7.89027 18.0799 7.92108C18.1108 7.9519 18.132 7.99099 18.1411 8.03362C18.1502 8.07624 18.1467 8.12059 18.1312 8.1613L13.8602 19.446C13.8432 19.4889 13.8135 19.5255 13.7751 19.551C13.7366 19.5764 13.6913 19.5895 13.6452 19.5885C13.5992 19.5874 13.5545 19.5723 13.5173 19.5451C13.48 19.5179 13.452 19.48 13.437 19.4364L11.5355 14.7507C11.5133 14.6843 11.476 14.624 11.4265 14.5745C11.377 14.525 11.3167 14.4877 11.2503 14.4655L6.5646 12.5657C6.52046 12.551 6.48193 12.5231 6.4543 12.4857C6.42666 12.4482 6.41126 12.4032 6.41021 12.3567C6.40916 12.3102 6.42251 12.2645 6.44843 12.2258C6.47435 12.1872 6.51157 12.1575 6.55501 12.1409Z" stroke="white" stroke-width="0.722222" stroke-linecap="round" stroke-linejoin="round"/>
</svg>
