<svg width="26" height="26" viewBox="0 0 26 26" fill="none" xmlns="http://www.w3.org/2000/svg">
<rect width="26" height="26.0009" rx="13" fill="#228B22"/>
<path d="M17.4911 7.18187C17.9627 7.55165 18.2877 8.14892 18.4206 8.77437C18.4367 8.77946 18.4523 8.78574 18.4675 8.79315L19.9445 9.47637C20.027 9.51428 20.097 9.57502 20.1461 9.65142C20.1953 9.72782 20.2215 9.81669 20.2218 9.90754V18.8393C20.2213 18.9135 20.2035 18.9865 20.17 19.0527C20.1365 19.1189 20.0881 19.1765 20.0287 19.2208C19.9692 19.2652 19.9003 19.2952 19.8273 19.3084C19.7542 19.3216 19.6792 19.3178 19.6079 19.2972L15.5136 18.1416L10.6458 19.4835C10.558 19.5076 10.4652 19.5066 10.3779 19.4806L6.11968 18.2131C6.02125 18.1842 5.93478 18.1243 5.87311 18.0423C5.81143 17.9604 5.77785 17.8607 5.77734 17.7581V8.66603C5.77734 8.34826 6.08645 8.12003 6.39484 8.20959L10.513 9.4092L12.606 8.76859C12.6348 8.76009 12.6642 8.75405 12.6941 8.75053C12.775 8.27676 13.001 7.82176 13.3802 7.37831C13.8301 6.85109 14.6195 6.54198 15.3887 6.50514C16.1867 6.46687 16.7963 6.63731 17.4903 7.18114L17.4911 7.18187ZM6.74007 9.30376V17.4035L10.2573 18.45V10.3271L6.74007 9.30376ZM12.6688 9.7472L11.22 10.1899V18.3359L14.8781 17.3291V14.9494C14.8781 14.6865 15.094 14.4734 15.3598 14.4734C15.6256 14.4734 15.8408 14.6865 15.8408 14.9501V17.2446L19.2591 18.2088V10.2101L18.4502 9.83459C18.4365 9.91404 18.4191 9.99204 18.3975 10.0679C18.2404 10.6216 17.9769 11.1395 17.6218 11.5925L15.8328 13.8263C15.7857 13.885 15.7256 13.932 15.6572 13.9634C15.5887 13.9948 15.5139 14.0098 15.4387 14.0072C15.3634 14.0046 15.2898 13.9845 15.2237 13.9484C15.1576 13.9124 15.1008 13.8614 15.0579 13.7996L13.386 11.378C13.1101 10.9923 12.9165 10.6485 12.8075 10.3409C12.739 10.1488 12.6925 9.94969 12.6688 9.7472ZM15.4349 7.45703C14.9106 7.48231 14.3718 7.6932 14.1154 7.99292C13.807 8.35403 13.6553 8.69203 13.625 9.03437C13.5889 9.44676 13.6135 9.73781 13.716 10.026C13.7918 10.239 13.9428 10.5091 14.1761 10.8349L15.484 12.7285L16.8635 11.006C17.1417 10.6504 17.3481 10.2439 17.4708 9.80931C17.6442 9.20265 17.3827 8.31142 16.8931 7.92865C16.3911 7.53503 16.012 7.42887 15.4356 7.45703H15.4349ZM15.5346 7.96042C16.3319 7.96042 16.979 8.59959 16.979 9.38826C16.978 9.57687 16.9398 9.76343 16.8666 9.93727C16.7935 10.1111 16.6868 10.2688 16.5526 10.4014C16.4185 10.534 16.2595 10.6389 16.0848 10.7101C15.9102 10.7812 15.7232 10.8172 15.5346 10.8161C14.7372 10.8161 14.0901 10.1769 14.0901 9.38826C14.0901 8.59959 14.7372 7.96042 15.5346 7.96042ZM15.5346 8.91231C15.4717 8.91193 15.4093 8.92394 15.3511 8.94765C15.2929 8.97137 15.2399 9.00632 15.1951 9.05051C15.1504 9.09471 15.1148 9.14728 15.0904 9.20523C15.066 9.26318 15.0532 9.32538 15.0528 9.38826C15.0528 9.65115 15.2688 9.8642 15.5346 9.8642C15.5974 9.86449 15.6598 9.85238 15.718 9.82858C15.7762 9.80478 15.8291 9.76975 15.8738 9.72549C15.9185 9.68123 15.954 9.6286 15.9783 9.57061C16.0026 9.51263 16.0153 9.45042 16.0156 9.38754C16.0146 9.26079 15.9634 9.1396 15.8733 9.05052C15.7831 8.96143 15.6613 8.91174 15.5346 8.91231Z" fill="white"/>
</svg>
