<svg width="26" height="26" viewBox="0 0 26 26" fill="none" xmlns="http://www.w3.org/2000/svg">
<rect width="26" height="26" rx="13" fill="white"/>
<path d="M12.9993 6.33325C11.5941 6.33318 10.2455 6.88776 9.24684 7.87645C8.24817 8.86513 7.68007 10.208 7.66602 11.6133C7.66602 15.2666 12.366 19.3333 12.566 19.5066C12.6868 19.6099 12.8404 19.6666 12.9993 19.6666C13.1583 19.6666 13.3119 19.6099 13.4327 19.5066C13.666 19.3333 18.3327 15.2666 18.3327 11.6133C18.3186 10.208 17.7505 8.86513 16.7519 7.87645C15.7532 6.88776 14.4046 6.33318 12.9993 6.33325ZM12.9993 13.6666C12.5379 13.6666 12.0867 13.5297 11.703 13.2733C11.3193 13.017 11.0202 12.6525 10.8436 12.2262C10.667 11.7998 10.6208 11.3307 10.7108 10.878C10.8009 10.4254 11.0231 10.0097 11.3494 9.68334C11.6758 9.35701 12.0915 9.13479 12.5441 9.04475C12.9968 8.95472 13.4659 9.00093 13.8923 9.17753C14.3186 9.35414 14.6831 9.65321 14.9394 10.0369C15.1958 10.4206 15.3327 10.8718 15.3327 11.3333C15.3327 11.9521 15.0868 12.5456 14.6493 12.9832C14.2117 13.4208 13.6182 13.6666 12.9993 13.6666Z" fill="#E70B0B"/>
</svg>
