<svg width="27" height="28" viewBox="0 0 27 28" fill="none" xmlns="http://www.w3.org/2000/svg">
<rect x="0.75" y="0.740967" width="25.9998" height="26.824" rx="12.9999" fill="white"/>
<path d="M19.2672 14.4401C19.1604 14.3184 19.1014 14.162 19.1014 14.0001C19.1014 13.8382 19.1604 13.6818 19.2672 13.5601L20.1206 12.6001C20.2146 12.4952 20.273 12.3632 20.2874 12.2231C20.3017 12.083 20.2714 11.9419 20.2006 11.8201L18.8672 9.51343C18.7972 9.39177 18.6905 9.29534 18.5624 9.23788C18.4343 9.18042 18.2914 9.16486 18.1539 9.19343L16.9006 9.44676C16.7411 9.47971 16.5751 9.45315 16.4338 9.37209C16.2926 9.29103 16.1859 9.16108 16.1339 9.00676L15.7272 7.78676C15.6825 7.65435 15.5973 7.53934 15.4837 7.45799C15.37 7.37664 15.2337 7.33307 15.0939 7.33343H12.4272C12.2819 7.32584 12.138 7.36604 12.0176 7.4479C11.8972 7.52976 11.807 7.64877 11.7606 7.78676L11.3872 9.00676C11.3352 9.16108 11.2286 9.29103 11.0873 9.37209C10.9461 9.45315 10.7801 9.47971 10.6206 9.44676L9.33391 9.19343C9.20362 9.17501 9.07078 9.19557 8.95215 9.25252C8.83351 9.30946 8.73438 9.40025 8.66725 9.51343L7.33392 11.8201C7.26136 11.9405 7.22873 12.0808 7.2407 12.2209C7.25268 12.361 7.30864 12.4937 7.40058 12.6001L8.24725 13.5601C8.35413 13.6818 8.41307 13.8382 8.41307 14.0001C8.41307 14.162 8.35413 14.3184 8.24725 14.4401L7.40058 15.4001C7.30864 15.5065 7.25268 15.6392 7.2407 15.7793C7.22873 15.9194 7.26136 16.0597 7.33392 16.1801L8.66725 18.4868C8.73731 18.6084 8.84399 18.7048 8.97208 18.7623C9.10017 18.8198 9.24313 18.8353 9.38058 18.8068L10.6339 18.5534C10.7934 18.5205 10.9594 18.547 11.1007 18.6281C11.2419 18.7092 11.3486 18.8391 11.4006 18.9934L11.8072 20.2134C11.8536 20.3514 11.9439 20.4704 12.0643 20.5523C12.1847 20.6341 12.3285 20.6743 12.4739 20.6668H15.1406C15.2803 20.6671 15.4167 20.6235 15.5303 20.5422C15.644 20.4608 15.7292 20.3458 15.7739 20.2134L16.1806 18.9934C16.2326 18.8391 16.3393 18.7092 16.4805 18.6281C16.6217 18.547 16.7878 18.5205 16.9472 18.5534L18.2006 18.8068C18.338 18.8353 18.481 18.8198 18.6091 18.7623C18.7372 18.7048 18.8439 18.6084 18.9139 18.4868L20.2472 16.1801C20.318 16.0583 20.3484 15.9172 20.334 15.7771C20.3197 15.637 20.2613 15.505 20.1672 15.4001L19.2672 14.4401ZM18.2739 15.3334L18.8072 15.9334L17.9539 17.4134L17.1672 17.2534C16.6871 17.1553 16.1876 17.2368 15.7636 17.4826C15.3397 17.7284 15.0207 18.1213 14.8672 18.5868L14.6139 19.3334H12.9072L12.6672 18.5734C12.5138 18.108 12.1948 17.7151 11.7709 17.4693C11.3469 17.2235 10.8474 17.1419 10.3672 17.2401L9.58058 17.4001L8.71392 15.9268L9.24725 15.3268C9.57522 14.9601 9.75654 14.4854 9.75654 13.9934C9.75654 13.5015 9.57522 13.0268 9.24725 12.6601L8.71392 12.0601L9.56725 10.5934L10.3539 10.7534C10.8341 10.8516 11.3335 10.77 11.7575 10.5242C12.1815 10.2784 12.5005 9.88553 12.6539 9.42009L12.9072 8.66676H14.6139L14.8672 9.42676C15.0207 9.8922 15.3397 10.2851 15.7636 10.5309C16.1876 10.7767 16.6871 10.8582 17.1672 10.7601L17.9539 10.6001L18.8072 12.0801L18.2739 12.6801C17.9496 13.0459 17.7706 13.5179 17.7706 14.0068C17.7706 14.4956 17.9496 14.9676 18.2739 15.3334ZM13.7606 11.3334C13.2332 11.3334 12.7176 11.4898 12.2791 11.7828C11.8405 12.0759 11.4987 12.4923 11.2969 12.9796C11.0951 13.4669 11.0423 14.0031 11.1452 14.5203C11.248 15.0376 11.502 15.5128 11.875 15.8857C12.2479 16.2587 12.7231 16.5126 13.2403 16.6155C13.7576 16.7184 14.2938 16.6656 14.7811 16.4638C15.2683 16.2619 15.6848 15.9201 15.9778 15.4816C16.2709 15.0431 16.4272 14.5275 16.4272 14.0001C16.4272 13.2928 16.1463 12.6146 15.6462 12.1145C15.1461 11.6144 14.4678 11.3334 13.7606 11.3334ZM13.7606 15.3334C13.4969 15.3334 13.2391 15.2552 13.0198 15.1087C12.8006 14.9622 12.6297 14.754 12.5287 14.5103C12.4278 14.2667 12.4014 13.9986 12.4529 13.74C12.5043 13.4813 12.6313 13.2438 12.8178 13.0573C13.0042 12.8708 13.2418 12.7438 13.5005 12.6924C13.7591 12.6409 14.0272 12.6673 14.2708 12.7683C14.5145 12.8692 14.7227 13.0401 14.8692 13.2593C15.0157 13.4786 15.0939 13.7364 15.0939 14.0001C15.0939 14.3537 14.9534 14.6929 14.7034 14.9429C14.4533 15.193 14.1142 15.3334 13.7606 15.3334Z" fill="#228B22"/>
</svg>
