<svg width="53" height="27" viewBox="0 0 53 27" fill="none" xmlns="http://www.w3.org/2000/svg">
<rect x="0.0488281" y="0.49762" width="52.5133" height="26.0048" rx="13.0024" fill="#0085FF"/>
<g clip-path="url(#clip0_2183_6346)">
<path d="M7.27621 17.8652L11.8564 7.70688C11.8728 7.67013 11.8995 7.63892 11.9333 7.61702C11.9671 7.59511 12.0065 7.58346 12.0467 7.58346C12.087 7.58346 12.1264 7.59511 12.1601 7.61702C12.1939 7.63892 12.2206 7.67013 12.237 7.70688L16.8172 17.8652C16.8341 17.9043 16.8386 17.9476 16.8302 17.9893C16.8217 18.0311 16.8007 18.0692 16.7699 18.0986C16.7391 18.128 16.7001 18.1473 16.658 18.1539C16.6159 18.1604 16.5729 18.154 16.5346 18.1353L12.233 16.3171C12.1751 16.2882 12.1114 16.2732 12.0467 16.2732C11.9821 16.2732 11.9183 16.2882 11.8605 16.3171L7.55993 18.1364C7.52152 18.1556 7.47809 18.1625 7.43561 18.1562C7.39312 18.1498 7.35365 18.1304 7.32259 18.1007C7.29154 18.071 7.27041 18.0325 7.26211 17.9903C7.25381 17.9482 7.25873 17.9045 7.27621 17.8652Z" fill="white"/>
</g>
<path d="M25.482 17.5701C25.0217 17.5701 24.6149 17.4901 24.2614 17.33C23.9145 17.1699 23.6411 16.9465 23.441 16.6597C23.2409 16.3728 23.1342 16.0527 23.1208 15.6992H23.8612C23.8945 16.0394 24.0446 16.3395 24.3114 16.5996C24.5782 16.8531 24.9684 16.9798 25.482 16.9798C25.9555 16.9798 26.329 16.8598 26.6025 16.6196C26.8826 16.3728 27.0227 16.0627 27.0227 15.6892C27.0227 15.389 26.946 15.1489 26.7926 14.9688C26.6392 14.7821 26.4491 14.6453 26.2223 14.5586C25.9955 14.4653 25.6821 14.3652 25.2819 14.2585C24.815 14.1318 24.4448 14.0084 24.1713 13.8883C23.8979 13.7683 23.6644 13.5815 23.471 13.328C23.2776 13.0746 23.1808 12.7311 23.1808 12.2975C23.1808 11.9374 23.2742 11.6172 23.461 11.3371C23.6477 11.0503 23.9112 10.8268 24.2514 10.6667C24.5915 10.5067 24.9817 10.4266 25.4219 10.4266C26.0689 10.4266 26.5892 10.5867 26.9827 10.9069C27.3829 11.2204 27.613 11.6272 27.673 12.1275H26.9127C26.866 11.8407 26.7092 11.5872 26.4424 11.3671C26.1756 11.1403 25.8155 11.0269 25.3619 11.0269C24.9417 11.0269 24.5915 11.1403 24.3114 11.3671C24.0313 11.5872 23.8912 11.8907 23.8912 12.2775C23.8912 12.571 23.9679 12.8078 24.1213 12.9879C24.2747 13.168 24.4648 13.3047 24.6916 13.3981C24.925 13.4915 25.2385 13.5915 25.632 13.6982C26.0856 13.8249 26.4524 13.9517 26.7326 14.0784C27.0127 14.1985 27.2495 14.3852 27.4429 14.6387C27.6363 14.8921 27.7331 15.2323 27.7331 15.6592C27.7331 15.986 27.6463 16.2961 27.4729 16.5896C27.2995 16.8831 27.0427 17.1199 26.7026 17.3C26.3624 17.4801 25.9555 17.5701 25.482 17.5701ZM30.1969 12.6277V16.0193C30.1969 16.3528 30.2603 16.5829 30.387 16.7097C30.5137 16.8364 30.7372 16.8998 31.0573 16.8998H31.6976V17.5001H30.9473C30.4537 17.5001 30.0869 17.3867 29.8467 17.1599C29.6066 16.9264 29.4866 16.5463 29.4866 16.0193V12.6277H28.7262V12.0374H29.4866V10.6667H30.1969V12.0374H31.6976V12.6277H30.1969ZM32.7326 14.7587C32.7326 14.1985 32.8426 13.7082 33.0627 13.288C33.2895 12.8611 33.5997 12.5343 33.9932 12.3075C34.3934 12.0741 34.8436 11.9574 35.3439 11.9574C35.8641 11.9574 36.311 12.0774 36.6845 12.3175C37.0647 12.5577 37.3382 12.8645 37.5049 13.238V12.0374H38.2052V17.5001H37.5049V16.2895C37.3315 16.663 37.0547 16.9731 36.6745 17.2199C36.301 17.46 35.8541 17.5801 35.3338 17.5801C34.8403 17.5801 34.3934 17.4634 33.9932 17.2299C33.5997 16.9965 33.2895 16.6663 33.0627 16.2394C32.8426 15.8126 32.7326 15.319 32.7326 14.7587ZM37.5049 14.7687C37.5049 14.3285 37.4149 13.9417 37.2348 13.6082C37.0547 13.2747 36.8079 13.0179 36.4944 12.8378C36.1876 12.6577 35.8474 12.5677 35.4739 12.5677C35.0871 12.5677 34.7402 12.6544 34.4334 12.8278C34.1266 13.0012 33.8831 13.2547 33.7031 13.5882C33.5296 13.915 33.4429 14.3052 33.4429 14.7587C33.4429 15.2056 33.5296 15.5991 33.7031 15.9393C33.8831 16.2728 34.1266 16.5296 34.4334 16.7097C34.7402 16.8831 35.0871 16.9698 35.4739 16.9698C35.8474 16.9698 36.1876 16.8798 36.4944 16.6997C36.8079 16.5196 37.0547 16.2628 37.2348 15.9293C37.4149 15.5958 37.5049 15.209 37.5049 14.7687ZM40.7045 13.0079C40.8579 12.6677 41.0914 12.4043 41.4048 12.2175C41.725 12.0307 42.1152 11.9374 42.5754 11.9374V12.6677H42.3853C41.8784 12.6677 41.4715 12.8045 41.1647 13.0779C40.8579 13.3514 40.7045 13.8083 40.7045 14.4486V17.5001H40.0042V12.0374H40.7045V13.0079ZM44.7395 12.6277V16.0193C44.7395 16.3528 44.8029 16.5829 44.9296 16.7097C45.0563 16.8364 45.2798 16.8998 45.5999 16.8998H46.2402V17.5001H45.4899C44.9963 17.5001 44.6294 17.3867 44.3893 17.1599C44.1492 16.9264 44.0292 16.5463 44.0292 16.0193V12.6277H43.2688V12.0374H44.0292V10.6667H44.7395V12.0374H46.2402V12.6277H44.7395Z" fill="white"/>
<defs>
<clipPath id="clip0_2183_6346">
<rect width="13.3398" height="13.3398" fill="white" transform="translate(5.05078 6.83014)"/>
</clipPath>
</defs>
</svg>
