<svg width="125" height="24" viewBox="0 0 125 24" fill="none" xmlns="http://www.w3.org/2000/svg">
<g clip-path="url(#clip0_1766_2631)">
<path d="M8.75482 23.98C6.16748 23.98 4.06256 23.2012 2.43754 21.6409C0.812513 20.0782 0 18.0012 0 15.405V14.9557C0 13.2132 0.342779 11.6555 1.0258 10.2825C1.71135 8.9095 2.68129 7.85104 3.93561 7.10962C5.18992 6.3682 6.62198 5.99625 8.23177 5.99625C10.6439 5.99625 12.5432 6.74515 13.9295 8.24047C15.3159 9.73579 16.009 11.8577 16.009 14.6037V16.4959H4.77605C4.9284 17.6293 5.38797 18.538 6.15478 19.222C6.92159 19.906 7.89153 20.248 9.0646 20.248C10.8801 20.248 12.2969 19.6014 13.3201 18.3083L15.6358 20.8571C14.9299 21.8406 13.9727 22.607 12.7666 23.1562C11.5605 23.7054 10.2224 23.9825 8.75482 23.9825V23.98ZM8.21653 9.7308C7.28215 9.7308 6.52295 10.0428 5.9415 10.6644C5.36004 11.286 4.9868 12.1772 4.82429 13.338H11.3777V12.9686C11.3549 11.9376 11.073 11.1412 10.5297 10.5771C9.98629 10.0129 9.2144 9.7308 8.21399 9.7308H8.21653Z" fill="black"/>
<path d="M23.4283 19.9235H32.0537V23.658H17.4132V20.8371L25.711 10.0503H17.657V6.3158H31.7921V9.04432L23.4283 19.9235Z" fill="black"/>
<path d="M43.4162 18.1935L48.7966 0H54.2429L45.9782 23.98H40.8746L32.6403 0H38.0689L43.4162 18.1935Z" fill="black"/>
<path d="M83.0845 20.1157H93.4695V23.9775H78.1942V0H83.0845V20.1157Z" fill="black"/>
<path d="M110.131 4.53589H102.859V23.9775H97.9687V4.53589H90.7958V0H110.131V4.53589Z" fill="black"/>
<path d="M116.377 19.9235H125.003V23.658H110.362V20.8371L118.66 10.0503H110.606V6.3158H124.741V9.04432L116.377 19.9235Z" fill="black"/>
<path d="M74.0072 12C72.5573 18.4731 64.3408 24 64.3408 24C64.3408 24 56.2182 18.4506 54.6744 12C53.0926 5.38964 57.955 0 64.3408 0C70.7266 0 75.589 4.94279 74.0072 12Z" fill="url(#paint0_linear_1766_2631)"/>
<path d="M62.1547 5.3497H68.0759L64.8335 11.4258H68.2054L62.9748 18.6503L64.0997 13.0834H60.4688L62.1547 5.3497Z" fill="white"/>
</g>
<defs>
<linearGradient id="paint0_linear_1766_2631" x1="69.1346" y1="-0.214687" x2="56.273" y2="27.2351" gradientUnits="userSpaceOnUse">
<stop stop-color="#2DC500"/>
<stop offset="1" stop-color="#228B22"/>
</linearGradient>
<clipPath id="clip0_1766_2631">
<rect width="125" height="24" fill="white"/>
</clipPath>
</defs>
</svg>
