<svg width="194" height="38" viewBox="0 0 194 38" fill="none" xmlns="http://www.w3.org/2000/svg">
<g clip-path="url(#clip0_1766_2399)">
<path d="M13.5291 37.9684C9.53081 37.9684 6.27802 36.7352 3.76681 34.2648C1.2556 31.7905 0 28.502 0 24.3913V23.6799C0 20.921 0.529707 18.4546 1.5852 16.2806C2.64461 14.1067 4.14349 12.4308 6.08183 11.2569C8.02016 10.083 10.2332 9.49408 12.7208 9.49408C16.4484 9.49408 19.3834 10.6798 21.5257 13.0474C23.6681 15.415 24.7393 18.7747 24.7393 23.1225V26.1186H7.38059C7.61602 27.9131 8.32622 29.3518 9.51119 30.4348C10.6962 31.5178 12.195 32.0593 14.0078 32.0593C16.8133 32.0593 19.0028 31.0356 20.584 28.9881L24.1625 33.0237C23.0717 34.581 21.5924 35.7945 19.7287 36.664C17.8649 37.5336 15.7971 37.9723 13.5291 37.9723V37.9684ZM12.6973 15.4071C11.2533 15.4071 10.0801 15.9012 9.1816 16.8854C8.28306 17.8696 7.70626 19.2806 7.45514 21.1186H17.5824V20.5336C17.5471 18.9012 17.1115 17.6403 16.2718 16.747C15.4321 15.8538 14.2393 15.4071 12.6934 15.4071H12.6973Z" fill="black"/>
<path d="M36.2045 31.5455H49.5335V37.4585H26.9091V32.9921L39.732 15.913H27.2858V10H49.1294V14.3202L36.2045 31.5455Z" fill="black"/>
<path d="M67.0924 28.8063L75.4068 0H83.8233L71.0514 37.9684H63.1647L50.4399 0H58.8289L67.0924 28.8063Z" fill="black"/>
<path d="M128.393 31.8498H144.441V37.9644H120.836V0H128.393V31.8498Z" fill="black"/>
<path d="M170.189 7.18182H158.952V37.9644H151.394V7.18182H140.31V0H170.189V7.18182Z" fill="black"/>
<path d="M179.842 31.5455H193.171V37.4585H170.546V32.9921L183.369 15.913H170.923V10H192.766V14.3202L179.842 31.5455Z" fill="black"/>
<path d="M114.366 19C112.125 29.249 99.4281 38 99.4281 38C99.4281 38 86.876 29.2134 84.4903 19C82.0458 8.5336 89.5598 0 99.4281 0C109.296 0 116.81 7.82609 114.366 19Z" fill="url(#paint0_linear_1766_2399)"/>
<path d="M96.0497 8.47037H105.2L100.189 18.0909H105.4L97.3171 29.5297L99.0553 20.7154H93.4443L96.0497 8.47037Z" fill="white"/>
</g>
<defs>
<linearGradient id="paint0_linear_1766_2399" x1="106.836" y1="-0.339921" x2="86.1564" y2="42.7362" gradientUnits="userSpaceOnUse">
<stop stop-color="#2DC500"/>
<stop offset="1" stop-color="#228B22"/>
</linearGradient>
<clipPath id="clip0_1766_2399">
<rect width="193.167" height="38" fill="white"/>
</clipPath>
</defs>
</svg>
