<svg width="430" height="283" viewBox="0 0 430 283" fill="none" xmlns="http://www.w3.org/2000/svg">
<g clip-path="url(#clip0_1948_3372)">
<path d="M409.951 201.006C410.944 201.313 586.935 250.77 587.975 250.72V326.352C587.802 326.324 587.613 326.326 587.454 326.261C580.154 323.309 397.728 271.458 390.284 268.897C382.976 266.381 375.654 263.911 368.443 261.129C362.071 258.674 355.908 255.737 349.615 253.099C347.39 252.165 345.109 251.346 342.988 250.174C343.088 250.028 343.166 249.857 343.29 249.736C346.571 246.581 348.829 242.742 350.64 238.632C354.128 230.718 357.027 222.581 359.374 214.267C361.561 206.525 364.086 198.836 364.115 190.658C364.251 190.645 364.388 190.634 364.525 190.621L364.773 190.753C365.07 190.848 365.37 190.943 365.667 191.039C365.726 191.073 365.785 191.108 365.843 191.142C366.201 191.304 366.549 191.505 366.964 191.473C367.027 191.51 367.087 191.546 367.15 191.583C367.524 191.689 367.9 191.797 368.273 191.903C368.332 191.938 368.39 191.972 368.449 192.007C369.324 192.262 370.199 192.517 371.074 192.772C371.144 192.813 371.211 192.856 371.281 192.897C372.688 193.21 374.002 193.848 375.435 194.064C375.493 194.097 375.552 194.131 375.611 194.164C376.633 194.419 377.656 194.676 378.677 194.931C378.742 194.97 378.807 195.006 378.872 195.045C379.663 195.227 380.451 195.411 381.241 195.592C381.324 195.635 381.406 195.676 381.487 195.72C381.702 195.748 381.915 195.774 382.13 195.802L382.351 195.918C384.093 196.31 385.832 196.703 387.574 197.094C387.639 197.127 387.706 197.161 387.771 197.194L389.749 197.546C389.865 197.697 390.017 197.727 390.192 197.682C390.69 197.803 391.167 198.023 391.697 197.959L391.891 198.051C392.551 198.185 393.196 198.417 393.882 198.389C393.988 198.551 394.138 198.577 394.314 198.523C395.052 198.67 395.786 198.851 396.529 198.957C398.976 199.305 401.376 199.955 403.853 200.12C403.919 200.152 403.986 200.185 404.051 200.217C406.005 200.543 407.96 200.872 409.94 201.006H409.951Z" fill="#F49A7A"/>
<path d="M159.61 0C159.97 0.0172893 160.328 0.051868 160.689 0.051868C190.006 0.0540292 219.322 0.0540292 248.64 0.051868C249 0.051868 249.358 0.0172893 249.719 0C250.286 0.077802 250.852 0.179377 251.421 0.229084C256.04 0.646189 259.602 2.84193 262.307 6.54401C264.092 8.98613 264.811 11.7762 265.143 14.7089C265.126 20.3366 265.102 25.9643 265.093 31.5919C265.091 33.1674 265.128 34.7429 265.145 36.3184C265.145 38.7562 265.143 41.1918 265.141 43.6296C265.124 43.7723 265.091 43.9128 265.093 44.0554C265.098 53.9341 265.093 63.8149 265.132 73.6936C265.135 74.275 264.748 74.8736 265.161 75.4463C265.137 76.0947 265.095 76.7409 265.095 77.3892C265.093 90.4967 265.093 103.606 265.095 116.714C265.095 117.937 265.124 119.16 265.139 120.383C265.13 120.671 265.113 120.958 265.113 121.246C265.113 154.588 265.111 187.929 265.109 221.271C265.109 224.725 264.107 227.863 262.036 230.642C261.063 231.949 259.773 232.95 258.605 234.067C258.279 234.033 258.079 234.273 257.838 234.42C255.53 235.811 253.074 236.643 250.331 236.641C219.941 236.626 189.55 236.626 159.16 236.641C157.091 236.641 155.143 236.226 153.271 235.396C150.103 233.99 147.818 231.647 146.12 228.686C145.169 227.028 144.491 225.215 144.461 223.35C144.357 216.91 144.435 210.467 144.437 204.027C144.437 203.742 144.391 203.457 144.365 203.171C144.385 198.131 144.415 193.092 144.422 188.054C144.424 186.219 144.381 184.384 144.357 182.549C144.524 178.244 144.433 173.937 144.405 169.63C144.405 162.654 144.405 155.68 144.407 148.703C144.407 144.589 144.407 140.474 144.405 136.359C144.405 128.95 144.405 121.544 144.407 114.136C144.428 111.395 144.522 108.653 144.359 105.912C144.381 102.681 144.422 99.4504 144.422 96.2173C144.422 90.004 144.396 83.7884 144.383 77.5751C144.181 75.8721 145.223 73.9681 143.551 72.505L143.547 72.4963C143.49 71.8891 143.432 71.2818 143.375 70.6723C143.503 68.8029 143.503 66.9335 143.375 65.0663C143.547 64.5454 143.286 63.8279 143.905 63.5253C144.452 63.2595 144.387 62.8489 144.457 62.3929C144.602 61.4485 144.283 60.7461 143.534 60.1971L143.529 60.1842C143.477 59.1425 143.425 58.1008 143.373 57.0591C143.503 53.9665 143.503 50.8717 143.373 47.7791C143.423 47.3144 143.475 46.8498 143.525 46.3851L143.529 46.3743C143.564 45.9551 144.3 45.6525 143.97 45.2981C143.388 44.667 143.542 43.9236 143.373 43.232C143.503 40.1394 143.503 37.0446 143.373 33.9519C143.416 32.9124 143.46 31.8729 143.503 30.8334L143.51 30.8118C144.691 29.9386 144.437 28.67 144.437 27.4728C144.437 23.587 144.431 19.7034 144.441 15.8176C144.446 14.1059 144.5 12.4245 145.03 10.7388C146.324 6.61965 148.9 3.63941 152.691 1.65545C154.847 0.523002 157.227 0.237728 159.61 0ZM261.445 118.324H261.454C261.454 84.1494 261.454 49.9727 261.454 15.7981C261.454 9.61935 256.987 4.586 250.811 4.09541C245.943 3.70856 241.046 4.01761 236.164 3.96574C234.477 3.94845 234.368 4.06515 234.186 5.76383C233.608 11.1711 229.578 15.0331 224.141 15.0612C211.042 15.1347 197.941 15.1411 184.843 15.059C179.266 15.0244 175.092 10.9052 174.804 5.4375C174.747 4.38069 174.285 3.95494 173.26 3.9571C168.845 3.9679 164.43 3.94197 160.016 3.97439C158.268 3.98735 156.552 4.29424 154.969 5.08306C150.415 7.35445 148.163 11.063 148.163 16.105C148.155 84.2401 148.157 152.375 148.155 220.51C148.155 227.703 153.21 232.727 160.459 232.727C190.095 232.727 219.73 232.727 249.367 232.727C256.331 232.727 261.445 227.655 261.445 220.744C261.445 186.604 261.445 152.464 261.445 118.324ZM204.443 10.1661C208.06 10.1661 211.678 10.164 215.296 10.1661C216.204 10.1661 216.779 9.75983 216.779 8.83485C216.779 7.96606 216.234 7.54896 215.37 7.54896C208.134 7.54896 200.899 7.55328 193.665 7.54896C193.012 7.54896 192.543 7.79317 192.3 8.40046C191.926 9.33192 192.614 10.1596 193.809 10.164C197.355 10.1769 200.899 10.1683 204.445 10.1683L204.443 10.1661ZM189.231 10.1748C190.063 10.1272 190.541 9.71661 190.621 8.92778C190.699 8.16921 190.08 7.53383 189.307 7.55976C188.497 7.5857 188.03 8.03306 188.017 8.83485C188.004 9.63664 188.476 10.0689 189.231 10.1748Z" fill="#0EAD0E"/>
<path d="M342.988 250.175C341.157 251.854 339.125 251.028 337.153 250.594C335.642 250.259 334.159 249.798 332.662 249.394C332.308 249.295 331.954 249.196 331.601 249.096C331.073 248.878 330.55 248.647 330.018 248.441C326.921 247.25 324.085 245.664 321.811 243.198C321.52 242.883 321.164 242.608 321.266 242.103C321.553 241.781 321.859 241.474 322.122 241.134C333.325 225.281 339.271 215.107 343.24 195.751C344.193 191.638 344.627 187.08 343.368 182.876C343.227 182.405 343.279 181.878 343.24 181.379C343.466 180.322 345.101 180.151 346.115 180.231C346.499 180.261 346.886 180.265 347.272 180.28C347.431 180.466 347.642 180.453 347.852 180.434C351.826 181.748 355.744 183.196 359.533 184.998C362.017 186.18 364.01 187.628 364.11 190.66C364.082 198.838 361.557 206.528 359.37 214.269C357.023 222.583 354.124 230.72 350.636 238.634C348.825 242.744 346.569 246.581 343.286 249.738C343.16 249.859 343.084 250.03 342.984 250.177L342.988 250.175Z" fill="black"/>
<path d="M265.143 43.6296C265.499 42.7652 265.853 41.9007 266.209 41.0362C267.96 44.8247 266.029 62.3302 268.11 73.4062C268.559 76.246 276.526 76.6674 278.791 76.5593C277.147 77.7847 272.655 77.8949 269.532 77.5643C268.6 77.4649 268.587 77.5167 268.789 78.3077C272.142 90.4924 275.232 102.398 272.194 114.976C271.842 116.619 274.561 119.59 275.56 120.87C279.547 124.879 286.795 127.079 291.34 130.794C284.428 129.653 276.24 125.46 271.732 120.126C270.893 118.935 270.854 122.246 270.568 122.7C267.769 134.524 269.412 145.23 269.434 157.242C269.443 166.315 269.829 174.972 268.757 184.572C268.705 185.43 268.998 186.468 270.678 187.553C275.636 190.751 280.843 192.776 286.494 194.665C281.36 195.609 274.533 191.97 269.564 189.964C268.837 189.595 268.631 189.731 268.646 190.531C268.683 192.439 268.678 193.18 269.256 195C269.699 196.398 270.474 197.818 271.197 199.028C274.865 205.173 275.89 208.053 276.613 213.448C276.663 213.815 276.6 215.073 276.114 215.544C274.385 209.86 272.431 203.742 268.887 199.005C269.195 213.234 273.779 226.899 274.272 241.072C268.83 239.124 263.988 237.212 258.607 234.065C262.581 230.938 265.237 226.402 265.111 221.269C265.137 187.641 265.065 154.009 265.141 120.381C275.467 107.901 267.699 89.5328 265.163 75.4442C265.052 64.9711 265.067 54.1956 265.145 43.6275L265.143 43.6296Z" fill="#C06656"/>
<path d="M138.557 144.988C140.596 145.47 142.116 146.802 143.664 148.085C143.912 148.291 144.159 148.496 144.407 148.703C144.407 155.68 144.407 162.654 144.405 169.63C141.712 170.654 138.935 171.18 136.046 170.927C132.791 170.641 129.645 169.93 126.748 168.348C126.437 168.178 126.077 168.063 125.908 167.707C126.351 167.685 126.763 167.804 127.176 167.946C128.637 168.459 130.103 168.951 131.649 169.148C133.907 169.435 136.051 169.129 137.94 167.795C141.853 165.031 142.787 160.895 142.848 156.514C142.887 153.717 141.764 151.165 140.437 148.688C139.79 147.476 138.978 146.324 138.555 144.991L138.557 144.988Z" fill="#C06656"/>
<path d="M137.03 109.586C139.401 110.207 141.382 111.503 143.191 113.1C143.59 113.453 144.003 113.79 144.409 114.133C144.409 121.542 144.409 128.95 144.407 136.357C142.368 137.085 140.331 137.818 138.122 137.824C138.101 137.444 138.383 137.236 138.628 137.042C140.578 135.49 141.545 133.366 142.044 131.027C142.915 126.951 142.554 122.925 141.31 118.964C140.274 115.661 138.563 112.664 137.032 109.586H137.03Z" fill="#C06656"/>
<path d="M141.758 77.1039C142.633 77.2595 143.506 77.4173 144.381 77.5751C144.396 83.7884 144.42 90.0039 144.42 96.2173C144.42 99.4482 144.379 102.679 144.357 105.912C143.521 105.664 142.683 105.426 141.996 104.853C141.992 104.495 142.055 104.121 141.977 103.779C140.939 99.338 141.28 94.8212 141.449 90.3497C141.614 85.9345 141.868 81.5257 141.758 77.1039Z" fill="#C06656"/>
<path d="M144.366 203.169C143.645 203.122 142.904 203.29 142.207 202.975C142.372 199.059 142.161 195.138 142.418 191.22C142.596 188.497 142.439 185.759 142.229 183.034C142.906 182.735 143.625 182.608 144.357 182.547C144.381 184.382 144.424 186.217 144.422 188.052C144.413 193.092 144.385 198.131 144.366 203.169Z" fill="#C06656"/>
<path d="M143.551 72.505L143.488 72.5093L143.545 72.4963L143.551 72.505Z" fill="#F49A7A"/>
<path d="M143.534 60.195L143.477 60.1928L143.529 60.182L143.534 60.195Z" fill="#F49A7A"/>
<path d="M143.525 46.383L143.473 46.3722H143.529L143.525 46.383Z" fill="#F49A7A"/>
<path d="M143.503 30.829L143.458 30.8096L143.512 30.8074L143.503 30.829Z" fill="#F49A7A"/>
<path d="M274.27 241.074C273.775 226.903 269.193 213.234 268.885 199.007C272.168 201.993 275.756 214.412 276.411 213.556C275.686 202.019 255.662 180.226 280.602 193.844C295.621 197.137 267.769 189.997 268.622 184.49C271.384 162.803 266.123 140.474 271.165 119.139C275.795 122.305 282.272 129.056 289.391 129.979C283.445 125.84 274.559 122.955 271.968 115.793C275.009 103.215 272.14 90.4924 268.787 78.3077C268.585 77.5167 268.624 77.3525 269.556 77.4519C274.668 78.2083 282.852 76.1984 273.076 76.7452C261.814 77.024 268.676 49.0758 266.205 41.0384C268.414 34.8185 274.294 28.1643 281.625 32.0436C283.727 32.8086 280.626 34.382 281.058 35.9402C281.547 39.5861 278.676 51.1807 284.969 49.7392C285.854 49.4496 286.387 49.7572 286.57 50.662C290.387 66.6136 293.588 82.9261 298.993 98.346C315.588 129.726 330.745 142.378 324.769 181.426C327.327 175.061 327.062 168.621 327.175 162.103C328.999 165.26 329.212 169.377 331.798 172.219C334.404 177.296 342.436 178.452 344.3 183.062C346.098 204.127 334.009 224.429 322.126 241.134C307.125 239.077 289.729 247.763 274.27 241.076V241.074Z" fill="#F49A7A"/>
<path d="M141.758 77.1039C141.868 81.5257 141.614 85.9345 141.449 90.3497C141.282 94.8212 140.941 99.3359 141.977 103.779C142.057 104.121 141.994 104.495 141.996 104.853C139.627 104.049 137.434 102.859 135.241 101.694C130.555 99.204 125.832 96.7619 121.506 93.6736C119.093 91.949 117.241 89.7122 117.02 86.6109C116.757 82.9542 119.15 79.4272 122.746 77.856C125.128 76.8165 127.627 76.3324 130.218 76.2589C134.094 76.1465 137.942 76.434 141.76 77.1083L141.758 77.1039Z" fill="#F49A7A"/>
<path d="M137.03 109.586C138.561 112.664 140.272 115.664 141.308 118.964C142.552 122.925 142.913 126.951 142.042 131.027C141.542 133.366 140.574 135.49 138.626 137.042C138.381 137.236 138.101 137.444 138.12 137.824C132.739 138.036 127.736 136.927 123.367 133.627C121.017 131.851 119.958 129.348 119.738 126.543C119.419 122.43 119.94 118.382 122.101 114.788C125.139 109.731 131.286 107.678 137.028 109.588L137.03 109.586ZM121.41 125.155C121.41 127.822 121.91 130.31 123.821 132.326C124.153 132.676 124.507 133.21 125.071 132.91C125.617 132.62 125.469 132.049 125.332 131.55C124.416 128.224 124.12 124.857 124.602 121.427C124.906 119.262 125.508 117.235 126.937 115.504C128.018 114.194 129.193 112.988 130.526 111.931C130.735 111.765 131.093 111.596 130.969 111.268C130.865 110.989 130.518 110.952 130.229 110.915C129.143 110.781 128.342 111.402 127.623 112.033C123.66 115.512 121.521 119.863 121.41 125.155Z" fill="#F49A7A"/>
<path d="M138.557 144.988C138.978 146.322 139.79 147.474 140.439 148.686C141.764 151.163 142.887 153.715 142.85 156.512C142.789 160.89 141.855 165.027 137.942 167.793C136.053 169.126 133.912 169.433 131.651 169.146C130.103 168.949 128.637 168.457 127.178 167.944C126.768 167.8 126.353 167.683 125.91 167.704C123.482 166.339 122.073 164.195 121.677 161.53C120.998 156.931 121.617 152.505 124.264 148.544C126.012 145.929 128.65 144.697 131.656 144.115C133.955 143.67 136.172 144.018 138.34 144.816C138.413 144.88 138.487 144.943 138.561 145.008L138.555 144.986L138.557 144.988ZM122.983 158.965C122.881 159.667 123.098 160.335 123.206 161C123.504 162.84 124.14 164.536 125.582 165.831C125.84 166.062 126.114 166.231 126.457 166.064C126.765 165.915 126.757 165.61 126.774 165.316C126.811 164.692 126.652 164.095 126.474 163.518C125.638 160.81 125.834 158.063 126.062 155.301C126.233 153.231 126.893 151.355 128.216 149.773C129.134 148.673 130.233 147.727 131.234 146.691C131.488 146.428 132.075 146.225 131.838 145.801C131.595 145.367 131.006 145.414 130.546 145.54C130.242 145.624 129.953 145.803 129.69 145.987C125.158 149.138 123.287 153.653 122.987 158.963L122.983 158.965Z" fill="#F49A7A"/>
<path d="M142.229 183.034C142.442 185.759 142.598 188.497 142.418 191.22C142.161 195.138 142.37 199.059 142.207 202.975C137.968 202.752 133.79 202.184 129.877 200.446C127.58 199.426 125.662 197.909 124.746 195.458C123.662 192.56 124.446 190.085 126.948 188.235C128.568 187.036 130.405 186.303 132.324 185.763C135.623 184.836 138.928 183.939 142.231 183.031L142.229 183.034Z" fill="#F49A7A"/>
<path d="M138.563 145.01C138.489 144.945 138.416 144.882 138.342 144.818C138.465 144.824 138.583 144.837 138.563 145.01Z" fill="#C06656"/>
<path d="M327.175 162.1C326.804 162.816 326.973 163.585 327.036 164.309C327.548 170.14 326.732 175.785 324.771 181.421C324.461 180.689 324.847 180.146 324.878 179.578C324.908 178.975 325.053 178.376 325.14 177.775C325.781 173.406 326.152 169.014 325.918 164.601C325.772 161.854 325.271 159.142 324.767 156.436C324.623 155.662 324.319 154.813 325.012 154.102C325.106 154.312 324.954 154.616 325.262 154.746C325.351 155.107 325.438 155.468 325.527 155.829C325.507 155.976 325.546 156.095 325.685 156.166C325.568 156.427 325.664 156.669 325.757 156.912C325.805 157.022 325.855 157.132 325.905 157.242C325.813 157.748 326.078 158.18 326.2 158.643C326.246 158.749 326.293 158.857 326.339 158.965C326.326 159.552 326.587 160.06 326.815 160.579C326.873 160.694 326.932 160.806 326.99 160.92C326.83 161.348 327.262 161.686 327.173 162.105L327.175 162.1Z" fill="#C06656"/>
<path d="M121.408 125.155C121.519 119.863 123.656 115.512 127.621 112.033C128.34 111.402 129.141 110.781 130.227 110.915C130.516 110.952 130.863 110.989 130.967 111.268C131.091 111.596 130.733 111.765 130.524 111.931C129.191 112.988 128.016 114.192 126.935 115.504C125.506 117.235 124.904 119.26 124.6 121.427C124.12 124.857 124.414 128.224 125.33 131.55C125.467 132.047 125.614 132.62 125.069 132.91C124.505 133.21 124.149 132.676 123.819 132.326C121.908 130.31 121.408 127.822 121.408 125.155Z" fill="#FDFDFE"/>
<path d="M122.983 158.962C123.282 153.652 125.154 149.138 129.686 145.987C129.949 145.803 130.238 145.624 130.542 145.539C131.002 145.412 131.59 145.367 131.834 145.801C132.07 146.222 131.484 146.428 131.23 146.691C130.231 147.727 129.13 148.673 128.212 149.773C126.889 151.355 126.229 153.231 126.057 155.301C125.829 158.063 125.634 160.81 126.47 163.518C126.648 164.095 126.807 164.694 126.77 165.316C126.752 165.61 126.761 165.915 126.453 166.064C126.11 166.23 125.836 166.064 125.578 165.831C124.136 164.536 123.499 162.837 123.202 161C123.095 160.335 122.876 159.667 122.978 158.965L122.983 158.962Z" fill="#FDFDFE"/>
<path d="M261.445 118.324H261.454C261.454 84.1494 261.454 49.9727 261.454 15.7981C261.454 9.61935 256.987 4.58599 250.811 4.09541C245.943 3.70856 241.046 4.01761 236.164 3.96574C234.477 3.94845 234.369 4.06515 234.186 5.76383C233.609 11.1711 229.578 15.0331 224.141 15.0612C211.042 15.1347 197.941 15.1411 184.843 15.059C179.266 15.0244 175.093 10.9052 174.804 5.43749C174.747 4.38068 174.285 3.95493 173.26 3.95709C168.845 3.9679 164.43 3.94197 160.016 3.97438C158.268 3.98735 156.552 4.29424 154.969 5.08306C150.415 7.35445 148.164 11.063 148.164 16.105C148.155 84.2401 148.157 152.375 148.155 220.51C148.155 227.703 153.21 232.727 160.459 232.727C190.096 232.727 219.73 232.727 249.367 232.727C256.331 232.727 261.445 227.655 261.445 220.744C261.445 186.604 261.445 152.464 261.445 118.324Z" fill="white"/>
<path d="M175.354 40.1983H172.79V38.5815H175.354C175.75 38.5815 176.072 38.517 176.321 38.388C176.57 38.2545 176.752 38.0702 176.867 37.8353C176.982 37.6004 177.04 37.3355 177.04 37.0407C177.04 36.7413 176.982 36.4626 176.867 36.2046C176.752 35.9467 176.57 35.7394 176.321 35.5828C176.072 35.4262 175.75 35.3479 175.354 35.3479H173.509V43.7843H171.436V33.7242H175.354C176.141 33.7242 176.816 33.8669 177.378 34.1525C177.945 34.4335 178.378 34.8228 178.677 35.3202C178.977 35.8177 179.126 36.3866 179.126 37.0269C179.126 37.6764 178.977 38.2383 178.677 38.7128C178.378 39.1872 177.945 39.5534 177.378 39.8114C176.816 40.0693 176.141 40.1983 175.354 40.1983ZM182.533 33.1714V43.7843H180.536V33.1714H182.533ZM188.212 42.0984V38.7681C188.212 38.5285 188.173 38.3235 188.095 38.1531C188.016 37.9781 187.894 37.8422 187.729 37.7455C187.567 37.6487 187.358 37.6004 187.1 37.6004C186.879 37.6004 186.688 37.6395 186.526 37.7178C186.365 37.7915 186.241 37.8998 186.153 38.0426C186.066 38.1808 186.022 38.3443 186.022 38.5331H184.032C184.032 38.2153 184.106 37.9136 184.253 37.628C184.401 37.3424 184.615 37.0914 184.896 36.8749C185.177 36.6538 185.511 36.481 185.898 36.3567C186.289 36.2323 186.727 36.1701 187.21 36.1701C187.791 36.1701 188.307 36.2668 188.758 36.4603C189.209 36.6538 189.564 36.944 189.822 37.3309C190.085 37.7178 190.216 38.2015 190.216 38.7819V41.9809C190.216 42.3909 190.241 42.7272 190.292 42.9897C190.343 43.2477 190.416 43.4734 190.513 43.6669V43.7843H188.502C188.406 43.5816 188.332 43.3283 188.281 43.0243C188.235 42.7157 188.212 42.407 188.212 42.0984ZM188.475 39.231L188.489 40.3572H187.376C187.114 40.3572 186.886 40.3872 186.692 40.4471C186.499 40.5069 186.34 40.5921 186.215 40.7027C186.091 40.8086 185.999 40.933 185.939 41.0758C185.884 41.2186 185.856 41.3752 185.856 41.5457C185.856 41.7161 185.895 41.8704 185.974 42.0086C186.052 42.1422 186.165 42.2481 186.312 42.3264C186.46 42.4001 186.632 42.437 186.83 42.437C187.13 42.437 187.39 42.3771 187.611 42.2573C187.832 42.1376 188.003 41.9902 188.122 41.8151C188.247 41.6401 188.311 41.4743 188.316 41.3176L188.841 42.1606C188.767 42.3495 188.666 42.5452 188.537 42.7479C188.413 42.9506 188.254 43.1417 188.06 43.3214C187.867 43.4964 187.634 43.6415 187.362 43.7567C187.091 43.8672 186.768 43.9225 186.395 43.9225C185.921 43.9225 185.49 43.8281 185.103 43.6392C184.721 43.4458 184.417 43.1809 184.191 42.8446C183.97 42.5038 183.859 42.1168 183.859 41.6838C183.859 41.2923 183.933 40.9445 184.08 40.6405C184.228 40.3365 184.444 40.0809 184.73 39.8736C185.02 39.6617 185.382 39.5028 185.815 39.3968C186.248 39.2863 186.75 39.231 187.321 39.231H188.475ZM193.698 37.9044V43.7843H191.708V36.3083H193.574L193.698 37.9044ZM193.408 39.7837H192.869C192.869 39.231 192.941 38.7335 193.083 38.2913C193.226 37.8445 193.427 37.4645 193.685 37.1512C193.942 36.8334 194.249 36.5916 194.603 36.4257C194.963 36.2553 195.364 36.1701 195.806 36.1701C196.156 36.1701 196.476 36.2208 196.766 36.3221C197.056 36.4234 197.305 36.5847 197.512 36.8058C197.724 37.0269 197.885 37.3194 197.996 37.6833C198.111 38.0472 198.169 38.4917 198.169 39.0168V43.7843H196.165V39.0099C196.165 38.6782 196.119 38.4203 196.027 38.236C195.935 38.0518 195.799 37.9228 195.619 37.8491C195.444 37.7708 195.228 37.7316 194.97 37.7316C194.703 37.7316 194.47 37.7846 194.272 37.8906C194.078 37.9965 193.917 38.1439 193.788 38.3328C193.664 38.517 193.569 38.7335 193.505 38.9822C193.44 39.231 193.408 39.4982 193.408 39.7837ZM207.241 42.0984V38.7681C207.241 38.5285 207.202 38.3235 207.123 38.1531C207.045 37.9781 206.923 37.8422 206.757 37.7455C206.596 37.6487 206.386 37.6004 206.128 37.6004C205.907 37.6004 205.716 37.6395 205.555 37.7178C205.394 37.7915 205.269 37.8998 205.182 38.0426C205.094 38.1808 205.051 38.3443 205.051 38.5331H203.061C203.061 38.2153 203.134 37.9136 203.282 37.628C203.429 37.3424 203.643 37.0914 203.924 36.8749C204.205 36.6538 204.539 36.481 204.926 36.3567C205.318 36.2323 205.755 36.1701 206.239 36.1701C206.819 36.1701 207.335 36.2668 207.787 36.4603C208.238 36.6538 208.593 36.944 208.851 37.3309C209.113 37.7178 209.245 38.2015 209.245 38.7819V41.9809C209.245 42.3909 209.27 42.7272 209.321 42.9897C209.371 43.2477 209.445 43.4734 209.542 43.6669V43.7843H207.531C207.434 43.5816 207.361 43.3283 207.31 43.0243C207.264 42.7157 207.241 42.407 207.241 42.0984ZM207.503 39.231L207.517 40.3572H206.405C206.142 40.3572 205.914 40.3872 205.721 40.4471C205.527 40.5069 205.368 40.5921 205.244 40.7027C205.12 40.8086 205.028 40.933 204.968 41.0758C204.912 41.2186 204.885 41.3752 204.885 41.5457C204.885 41.7161 204.924 41.8704 205.002 42.0086C205.081 42.1422 205.193 42.2481 205.341 42.3264C205.488 42.4001 205.661 42.437 205.859 42.437C206.158 42.437 206.419 42.3771 206.64 42.2573C206.861 42.1376 207.031 41.9902 207.151 41.8151C207.275 41.6401 207.34 41.4743 207.345 41.3176L207.87 42.1606C207.796 42.3495 207.695 42.5452 207.566 42.7479C207.441 42.9506 207.282 43.1417 207.089 43.3214C206.895 43.4964 206.663 43.6415 206.391 43.7567C206.119 43.8672 205.797 43.9225 205.424 43.9225C204.949 43.9225 204.519 43.8281 204.132 43.6392C203.749 43.4458 203.445 43.1809 203.22 42.8446C202.998 42.5038 202.888 42.1168 202.888 41.6838C202.888 41.2923 202.962 40.9445 203.109 40.6405C203.256 40.3365 203.473 40.0809 203.758 39.8736C204.049 39.6617 204.41 39.5028 204.843 39.3968C205.276 39.2863 205.778 39.231 206.35 39.231H207.503ZM218.552 33.7242V43.7843H216.486V33.7242H218.552ZM221.647 33.7242V35.3479H213.439V33.7242H221.647ZM224.21 37.9389V43.7843H222.221V36.3083H224.093L224.21 37.9389ZM226.463 36.2599L226.428 38.1047C226.332 38.0909 226.214 38.0794 226.076 38.0702C225.942 38.0564 225.82 38.0495 225.71 38.0495C225.429 38.0495 225.185 38.0863 224.977 38.16C224.775 38.2291 224.604 38.3328 224.466 38.4709C224.333 38.6091 224.231 38.7773 224.162 38.9753C224.098 39.1734 224.061 39.3991 224.052 39.6525L223.651 39.5281C223.651 39.0444 223.699 38.5999 223.796 38.1946C223.893 37.7846 224.033 37.4276 224.217 37.1236C224.406 36.8196 224.637 36.5847 224.908 36.4188C225.18 36.253 225.491 36.1701 225.841 36.1701C225.952 36.1701 226.065 36.1793 226.18 36.1977C226.295 36.2116 226.389 36.2323 226.463 36.2599ZM229.503 36.3083V43.7843H227.506V36.3083H229.503ZM227.382 34.3598C227.382 34.0696 227.483 33.8301 227.686 33.6412C227.889 33.4524 228.16 33.358 228.501 33.358C228.838 33.358 229.107 33.4524 229.31 33.6412C229.517 33.8301 229.621 34.0696 229.621 34.3598C229.621 34.65 229.517 34.8895 229.31 35.0784C229.107 35.2673 228.838 35.3617 228.501 35.3617C228.16 35.3617 227.889 35.2673 227.686 35.0784C227.483 34.8895 227.382 34.65 227.382 34.3598ZM233.137 37.7455V46.6586H231.148V36.3083H232.992L233.137 37.7455ZM237.87 39.9634V40.1085C237.87 40.652 237.806 41.1564 237.677 41.6217C237.553 42.0869 237.368 42.4922 237.124 42.8377C236.88 43.1786 236.576 43.4458 236.212 43.6392C235.853 43.8281 235.438 43.9225 234.968 43.9225C234.512 43.9225 234.116 43.8304 233.78 43.6461C233.444 43.4619 233.161 43.2039 232.93 42.8723C232.704 42.536 232.523 42.1468 232.384 41.7046C232.246 41.2624 232.14 40.7879 232.067 40.2812V39.9012C232.14 39.3577 232.246 38.8602 232.384 38.4088C232.523 37.9527 232.704 37.5589 232.93 37.2272C233.161 36.891 233.442 36.6307 233.773 36.4465C234.109 36.2622 234.503 36.1701 234.955 36.1701C235.429 36.1701 235.846 36.2599 236.205 36.4396C236.569 36.6192 236.873 36.8772 237.117 37.2134C237.366 37.5497 237.553 37.9504 237.677 38.4157C237.806 38.8809 237.87 39.3968 237.87 39.9634ZM235.874 40.1085V39.9634C235.874 39.6456 235.846 39.3531 235.791 39.0859C235.74 38.8141 235.657 38.5769 235.542 38.3742C235.431 38.1715 235.284 38.0149 235.1 37.9044C234.92 37.7892 234.701 37.7316 234.443 37.7316C234.172 37.7316 233.939 37.7754 233.746 37.8629C233.557 37.9504 233.402 38.0771 233.283 38.2429C233.163 38.4088 233.073 38.6068 233.013 38.8371C232.953 39.0675 232.916 39.3277 232.903 39.6179V40.5783C232.926 40.9192 232.99 41.2255 233.096 41.4973C233.202 41.7645 233.366 41.9763 233.587 42.133C233.808 42.2896 234.098 42.3679 234.457 42.3679C234.72 42.3679 234.941 42.3103 235.121 42.1951C235.3 42.0754 235.445 41.9119 235.556 41.7046C235.671 41.4973 235.752 41.2578 235.798 40.986C235.848 40.7142 235.874 40.4217 235.874 40.1085Z" fill="#0EAD0E"/>
<rect x="157.166" y="59.7355" width="95.4921" height="16.3342" rx="1.57059" fill="#F5F5F5"/>
<rect x="157.166" y="87.3776" width="95.4921" height="16.3342" rx="1.57059" fill="#F5F5F5"/>
<rect x="157.166" y="107.482" width="95.4921" height="16.3342" rx="1.57059" fill="#F5F5F5"/>
<rect x="157.166" y="127.585" width="95.4921" height="16.3342" rx="1.57059" fill="#F5F5F5"/>
<path d="M203.97 79.2105L202.713 80.467H203.656V82.6658H204.284V80.467H205.226M206.169 83.6082V81.4094H205.54V83.6082H204.598L205.855 84.8647L207.111 83.6082H206.169Z" fill="#808080"/>
<g filter="url(#filter0_d_1948_3372)">
<rect x="164.705" y="161.706" width="80.4144" height="15.0777" rx="1.57059" fill="#0EAD0E"/>
</g>
<path d="M198.039 167.216V170.789H197.566V167.216H198.039ZM199.536 168.824V169.211H197.936V168.824H199.536ZM199.779 167.216V167.604H197.936V167.216H199.779ZM200.768 168.134V170.789H200.312V168.134H200.768ZM200.277 167.43C200.277 167.356 200.299 167.294 200.344 167.243C200.389 167.192 200.456 167.167 200.545 167.167C200.632 167.167 200.698 167.192 200.744 167.243C200.791 167.294 200.815 167.356 200.815 167.43C200.815 167.5 200.791 167.561 200.744 167.611C200.698 167.66 200.632 167.685 200.545 167.685C200.456 167.685 200.389 167.66 200.344 167.611C200.299 167.561 200.277 167.5 200.277 167.43ZM201.951 168.701V170.789H201.497V168.134H201.926L201.951 168.701ZM201.843 169.361L201.654 169.354C201.656 169.172 201.683 169.004 201.735 168.851C201.787 168.695 201.861 168.56 201.956 168.446C202.051 168.331 202.164 168.243 202.295 168.181C202.427 168.117 202.574 168.085 202.734 168.085C202.865 168.085 202.983 168.103 203.087 168.139C203.192 168.173 203.281 168.229 203.355 168.306C203.43 168.383 203.487 168.483 203.526 168.605C203.566 168.726 203.585 168.874 203.585 169.049V170.789H203.129V169.044C203.129 168.905 203.108 168.794 203.068 168.711C203.027 168.626 202.967 168.564 202.888 168.527C202.81 168.487 202.713 168.468 202.599 168.468C202.486 168.468 202.383 168.492 202.29 168.539C202.198 168.586 202.119 168.652 202.052 168.735C201.986 168.819 201.935 168.914 201.897 169.022C201.861 169.129 201.843 169.242 201.843 169.361ZM204.768 168.134V170.789H204.312V168.134H204.768ZM204.277 167.43C204.277 167.356 204.3 167.294 204.344 167.243C204.39 167.192 204.457 167.167 204.545 167.167C204.632 167.167 204.698 167.192 204.744 167.243C204.791 167.294 204.815 167.356 204.815 167.43C204.815 167.5 204.791 167.561 204.744 167.611C204.698 167.66 204.632 167.685 204.545 167.685C204.457 167.685 204.39 167.66 204.344 167.611C204.3 167.561 204.277 167.5 204.277 167.43ZM207.043 170.085C207.043 170.02 207.028 169.959 206.999 169.903C206.971 169.846 206.913 169.795 206.825 169.749C206.738 169.701 206.607 169.66 206.432 169.626C206.285 169.595 206.152 169.558 206.032 169.516C205.914 169.473 205.814 169.422 205.73 169.361C205.648 169.301 205.585 169.229 205.541 169.148C205.497 169.066 205.475 168.97 205.475 168.86C205.475 168.756 205.498 168.657 205.544 168.563C205.591 168.47 205.657 168.388 205.743 168.316C205.829 168.244 205.933 168.187 206.054 168.146C206.175 168.105 206.31 168.085 206.459 168.085C206.672 168.085 206.853 168.123 207.004 168.198C207.154 168.273 207.27 168.374 207.35 168.5C207.43 168.624 207.47 168.762 207.47 168.914H207.016C207.016 168.841 206.994 168.77 206.95 168.701C206.907 168.631 206.844 168.572 206.761 168.527C206.679 168.481 206.579 168.458 206.459 168.458C206.333 168.458 206.231 168.478 206.152 168.517C206.075 168.554 206.019 168.603 205.983 168.662C205.949 168.721 205.931 168.783 205.931 168.848C205.931 168.897 205.94 168.941 205.956 168.981C205.974 169.018 206.005 169.053 206.049 169.086C206.093 169.117 206.156 169.147 206.236 169.175C206.316 169.202 206.418 169.23 206.543 169.258C206.76 169.307 206.939 169.366 207.08 169.435C207.221 169.503 207.325 169.588 207.394 169.687C207.463 169.787 207.497 169.908 207.497 170.051C207.497 170.167 207.473 170.273 207.424 170.37C207.376 170.466 207.307 170.55 207.215 170.62C207.125 170.689 207.017 170.743 206.891 170.782C206.767 170.82 206.627 170.838 206.471 170.838C206.237 170.838 206.039 170.797 205.877 170.713C205.716 170.63 205.593 170.522 205.509 170.389C205.426 170.257 205.384 170.117 205.384 169.97H205.841C205.847 170.094 205.883 170.193 205.949 170.267C206.014 170.339 206.094 170.39 206.189 170.421C206.284 170.451 206.378 170.465 206.471 170.465C206.596 170.465 206.7 170.449 206.783 170.416C206.868 170.384 206.933 170.339 206.977 170.281C207.021 170.224 207.043 170.159 207.043 170.085ZM208.547 167.02V170.789H208.093V167.02H208.547ZM208.44 169.361L208.251 169.354C208.252 169.172 208.279 169.004 208.332 168.851C208.384 168.695 208.458 168.56 208.552 168.446C208.647 168.331 208.76 168.243 208.891 168.181C209.024 168.117 209.17 168.085 209.33 168.085C209.461 168.085 209.579 168.103 209.684 168.139C209.788 168.173 209.878 168.229 209.951 168.306C210.026 168.383 210.084 168.483 210.123 168.605C210.162 168.726 210.182 168.874 210.182 169.049V170.789H209.725V169.044C209.725 168.905 209.705 168.794 209.664 168.711C209.623 168.626 209.563 168.564 209.485 168.527C209.406 168.487 209.31 168.468 209.195 168.468C209.082 168.468 208.979 168.492 208.886 168.539C208.795 168.586 208.715 168.652 208.648 168.735C208.583 168.819 208.531 168.914 208.493 169.022C208.458 169.129 208.44 169.242 208.44 169.361Z" fill="white"/>
<path d="M164.302 67.4485C164.302 67.3651 164.289 67.2915 164.263 67.2277C164.239 67.1622 164.194 67.1033 164.131 67.051C164.069 66.9986 163.982 66.9487 163.871 66.9013C163.761 66.8538 163.622 66.8056 163.453 66.7565C163.277 66.7041 163.117 66.6461 162.975 66.5823C162.833 66.5168 162.711 66.4424 162.609 66.3589C162.508 66.2755 162.43 66.1798 162.376 66.0718C162.322 65.9638 162.295 65.8403 162.295 65.7012C162.295 65.5622 162.324 65.4338 162.381 65.316C162.438 65.1982 162.52 65.0959 162.626 65.0092C162.734 64.9209 162.863 64.8521 163.012 64.8031C163.161 64.754 163.327 64.7294 163.51 64.7294C163.778 64.7294 164.006 64.781 164.192 64.884C164.38 64.9855 164.523 65.1188 164.622 65.2841C164.72 65.4477 164.769 65.6227 164.769 65.8092H164.298C164.298 65.6751 164.269 65.5565 164.212 65.4534C164.154 65.3487 164.068 65.2669 163.952 65.208C163.835 65.1474 163.688 65.1172 163.51 65.1172C163.341 65.1172 163.202 65.1425 163.093 65.1933C162.983 65.244 162.901 65.3127 162.847 65.3994C162.795 65.4861 162.769 65.5851 162.769 65.6963C162.769 65.7716 162.784 65.8403 162.815 65.9025C162.848 65.963 162.898 66.0195 162.965 66.0718C163.034 66.1242 163.12 66.1724 163.225 66.2166C163.331 66.2608 163.458 66.3033 163.606 66.3442C163.808 66.4015 163.983 66.4653 164.131 66.5356C164.278 66.606 164.399 66.6853 164.494 66.7737C164.59 66.8604 164.662 66.9594 164.707 67.0706C164.755 67.1802 164.779 67.3046 164.779 67.4436C164.779 67.5892 164.749 67.7209 164.69 67.8387C164.631 67.9565 164.547 68.0571 164.437 68.1406C164.328 68.224 164.196 68.2886 164.042 68.3344C163.89 68.3786 163.72 68.4007 163.532 68.4007C163.367 68.4007 163.204 68.3778 163.044 68.332C162.885 68.2862 162.74 68.2175 162.609 68.1259C162.48 68.0342 162.376 67.9213 162.298 67.7872C162.221 67.6514 162.182 67.4943 162.182 67.316H162.653C162.653 67.4387 162.677 67.5442 162.725 67.6326C162.772 67.7193 162.837 67.7913 162.918 67.8485C163.002 67.9058 163.096 67.9483 163.201 67.9762C163.307 68.0023 163.417 68.0154 163.532 68.0154C163.697 68.0154 163.837 67.9925 163.952 67.9467C164.066 67.9009 164.153 67.8355 164.212 67.7504C164.272 67.6653 164.302 67.5647 164.302 67.4485ZM166.425 65.6963V66.0448H164.99V65.6963H166.425ZM165.476 65.0509H165.93V67.6939C165.93 67.7839 165.943 67.8518 165.971 67.8976C165.999 67.9434 166.035 67.9737 166.079 67.9884C166.123 68.0031 166.171 68.0105 166.222 68.0105C166.259 68.0105 166.298 68.0072 166.339 68.0007C166.382 67.9925 166.414 67.986 166.435 67.9811L166.438 68.3516C166.402 68.3631 166.354 68.3737 166.295 68.3835C166.238 68.395 166.168 68.4007 166.087 68.4007C165.975 68.4007 165.873 68.3786 165.78 68.3344C165.687 68.2903 165.612 68.2167 165.556 68.1136C165.503 68.0089 165.476 67.8682 165.476 67.6915V65.0509ZM168.523 67.8976V66.5307C168.523 66.426 168.502 66.3352 168.46 66.2583C168.419 66.1798 168.357 66.1193 168.273 66.0767C168.19 66.0342 168.087 66.0129 167.964 66.0129C167.849 66.0129 167.749 66.0325 167.662 66.0718C167.577 66.1111 167.51 66.1626 167.461 66.2264C167.413 66.2902 167.39 66.3589 167.39 66.4326H166.936C166.936 66.3377 166.96 66.2436 167.009 66.1503C167.058 66.0571 167.129 65.9728 167.22 65.8976C167.314 65.8207 167.425 65.7601 167.554 65.716C167.685 65.6702 167.831 65.6473 167.991 65.6473C168.184 65.6473 168.354 65.68 168.501 65.7454C168.65 65.8109 168.766 65.9098 168.85 66.0424C168.935 66.1732 168.977 66.3377 168.977 66.5356V67.7725C168.977 67.8608 168.985 67.9549 169 68.0547C169.016 68.1545 169.04 68.2404 169.071 68.3124V68.3516H168.597C168.574 68.2993 168.556 68.2297 168.543 68.143C168.53 68.0547 168.523 67.9729 168.523 67.8976ZM168.602 66.7418L168.607 67.0608H168.148C168.019 67.0608 167.903 67.0714 167.802 67.0927C167.701 67.1123 167.615 67.1426 167.547 67.1835C167.478 67.2244 167.426 67.2759 167.39 67.3381C167.354 67.3986 167.336 67.4698 167.336 67.5516C167.336 67.635 167.354 67.7111 167.392 67.7798C167.43 67.8485 167.486 67.9034 167.561 67.9443C167.638 67.9835 167.732 68.0031 167.844 68.0031C167.983 68.0031 168.105 67.9737 168.212 67.9148C168.318 67.8559 168.402 67.7839 168.465 67.6988C168.528 67.6138 168.563 67.5312 168.568 67.451L168.761 67.6694C168.75 67.7381 168.719 67.8142 168.668 67.8976C168.618 67.9811 168.55 68.0612 168.465 68.1381C168.381 68.2134 168.281 68.2764 168.165 68.3271C168.051 68.3762 167.921 68.4007 167.777 68.4007C167.597 68.4007 167.44 68.3655 167.304 68.2952C167.17 68.2248 167.065 68.1308 166.99 68.013C166.916 67.8935 166.879 67.7602 166.879 67.613C166.879 67.4706 166.907 67.3455 166.963 67.2375C167.018 67.1279 167.098 67.0371 167.203 66.9651C167.308 66.8915 167.434 66.8358 167.581 66.7982C167.728 66.7606 167.893 66.7418 168.074 66.7418H168.602ZM170.146 66.1135V68.3516H169.692V65.6963H170.133L170.146 66.1135ZM170.975 65.6816L170.973 66.1037C170.935 66.0955 170.899 66.0906 170.865 66.089C170.832 66.0857 170.794 66.0841 170.752 66.0841C170.647 66.0841 170.555 66.1004 170.474 66.1332C170.394 66.1659 170.326 66.2117 170.271 66.2706C170.215 66.3295 170.171 66.3998 170.138 66.4816C170.107 66.5618 170.087 66.6501 170.077 66.7467L169.949 66.8203C169.949 66.66 169.965 66.5094 169.996 66.3687C170.029 66.2281 170.078 66.1037 170.146 65.9957C170.213 65.8861 170.298 65.801 170.401 65.7405C170.506 65.6783 170.63 65.6473 170.774 65.6473C170.807 65.6473 170.844 65.6513 170.887 65.6595C170.929 65.6661 170.959 65.6734 170.975 65.6816ZM172.629 65.6963V66.0448H171.193V65.6963H172.629ZM171.679 65.0509H172.133V67.6939C172.133 67.7839 172.147 67.8518 172.175 67.8976C172.203 67.9434 172.239 67.9737 172.283 67.9884C172.327 68.0031 172.375 68.0105 172.425 68.0105C172.463 68.0105 172.502 68.0072 172.543 68.0007C172.586 67.9925 172.618 67.986 172.639 67.9811L172.641 68.3516C172.605 68.3631 172.558 68.3737 172.499 68.3835C172.442 68.395 172.372 68.4007 172.29 68.4007C172.179 68.4007 172.077 68.3786 171.984 68.3344C171.89 68.2903 171.816 68.2167 171.76 68.1136C171.706 68.0089 171.679 67.8682 171.679 67.6915V65.0509ZM173.655 65.6963V68.3516H173.198V65.6963H173.655ZM173.164 64.992C173.164 64.9184 173.186 64.8562 173.23 64.8055C173.276 64.7548 173.343 64.7294 173.432 64.7294C173.518 64.7294 173.585 64.7548 173.63 64.8055C173.678 64.8562 173.701 64.9184 173.701 64.992C173.701 65.0624 173.678 65.1229 173.63 65.1736C173.585 65.2227 173.518 65.2472 173.432 65.2472C173.343 65.2472 173.276 65.2227 173.23 65.1736C173.186 65.1229 173.164 65.0624 173.164 64.992ZM174.838 66.2632V68.3516H174.384V65.6963H174.813L174.838 66.2632ZM174.73 66.9234L174.541 66.916C174.542 66.7344 174.569 66.5667 174.622 66.4129C174.674 66.2575 174.748 66.1225 174.843 66.008C174.938 65.8935 175.05 65.8051 175.181 65.743C175.314 65.6792 175.46 65.6473 175.621 65.6473C175.751 65.6473 175.869 65.6653 175.974 65.7012C176.079 65.7356 176.168 65.7912 176.241 65.8681C176.317 65.945 176.374 66.0448 176.413 66.1675C176.452 66.2886 176.472 66.4366 176.472 66.6117V68.3516H176.016V66.6068C176.016 66.4677 175.995 66.3565 175.954 66.273C175.913 66.188 175.854 66.1266 175.775 66.089C175.697 66.0497 175.6 66.0301 175.486 66.0301C175.373 66.0301 175.27 66.0538 175.176 66.1013C175.085 66.1487 175.005 66.2141 174.938 66.2976C174.873 66.381 174.821 66.4767 174.784 66.5847C174.748 66.691 174.73 66.8039 174.73 66.9234ZM178.882 65.6963H179.294V68.2952C179.294 68.5291 179.247 68.7287 179.152 68.894C179.057 69.0592 178.925 69.1844 178.754 69.2694C178.586 69.3561 178.391 69.3995 178.17 69.3995C178.079 69.3995 177.971 69.3848 177.846 69.3553C177.724 69.3275 177.603 69.2793 177.483 69.2105C177.365 69.1435 177.266 69.0527 177.186 68.9381L177.424 68.6682C177.536 68.8024 177.652 68.8956 177.773 68.948C177.895 69.0003 178.017 69.0265 178.136 69.0265C178.28 69.0265 178.404 68.9995 178.509 68.9455C178.614 68.8915 178.695 68.8113 178.752 68.705C178.811 68.6003 178.84 68.4711 178.84 68.3173V66.2804L178.882 65.6963ZM177.054 67.0534V67.0019C177.054 66.799 177.077 66.615 177.125 66.4497C177.174 66.2829 177.244 66.1397 177.333 66.0203C177.425 65.9008 177.536 65.8092 177.665 65.7454C177.794 65.68 177.94 65.6473 178.102 65.6473C178.268 65.6473 178.414 65.6767 178.538 65.7356C178.664 65.7929 178.771 65.8771 178.857 65.9884C178.946 66.098 179.015 66.2305 179.066 66.3859C179.117 66.5414 179.152 66.7172 179.172 66.9135V67.1393C179.154 67.334 179.118 67.5091 179.066 67.6645C179.015 67.8199 178.946 67.9524 178.857 68.062C178.771 68.1717 178.664 68.2559 178.538 68.3148C178.412 68.3721 178.265 68.4007 178.097 68.4007C177.938 68.4007 177.794 68.3672 177.665 68.3001C177.537 68.233 177.428 68.1389 177.336 68.0179C177.244 67.8968 177.174 67.7545 177.125 67.5909C177.077 67.4256 177.054 67.2465 177.054 67.0534ZM177.508 67.0019V67.0534C177.508 67.1859 177.521 67.3103 177.547 67.4264C177.575 67.5426 177.617 67.6449 177.672 67.7332C177.729 67.8215 177.802 67.8911 177.891 67.9418C177.979 67.9909 178.084 68.0154 178.207 68.0154C178.358 68.0154 178.482 67.9835 178.58 67.9197C178.678 67.8559 178.756 67.7716 178.813 67.6669C178.872 67.5622 178.918 67.4485 178.951 67.3258V66.7344C178.933 66.6444 178.905 66.5577 178.867 66.4743C178.831 66.3892 178.784 66.3139 178.725 66.2485C178.668 66.1814 178.597 66.1283 178.511 66.089C178.426 66.0497 178.327 66.0301 178.212 66.0301C178.088 66.0301 177.981 66.0563 177.891 66.1086C177.802 66.1593 177.729 66.2297 177.672 66.3197C177.617 66.408 177.575 66.5111 177.547 66.6289C177.521 66.745 177.508 66.8694 177.508 67.0019ZM182.617 66.9504H181.662V66.5651H182.617C182.802 66.5651 182.952 66.5356 183.066 66.4767C183.181 66.4178 183.264 66.336 183.316 66.2313C183.37 66.1266 183.397 66.0072 183.397 65.873C183.397 65.7503 183.37 65.635 183.316 65.527C183.264 65.419 183.181 65.3323 183.066 65.2669C182.952 65.1998 182.802 65.1663 182.617 65.1663H181.773V68.3516H181.299V64.7785H182.617C182.887 64.7785 183.115 64.8252 183.302 64.9184C183.488 65.0117 183.63 65.1409 183.726 65.3061C183.823 65.4697 183.871 65.6571 183.871 65.8681C183.871 66.0972 183.823 66.2927 183.726 66.4546C183.63 66.6166 183.488 66.7401 183.302 66.8252C183.115 66.9086 182.887 66.9504 182.617 66.9504ZM184.247 67.0534V66.997C184.247 66.8056 184.274 66.6281 184.33 66.4645C184.386 66.2992 184.466 66.1561 184.57 66.035C184.675 65.9123 184.802 65.8174 184.951 65.7503C185.1 65.6816 185.267 65.6473 185.451 65.6473C185.638 65.6473 185.806 65.6816 185.955 65.7503C186.105 65.8174 186.233 65.9123 186.337 66.035C186.444 66.1561 186.525 66.2992 186.58 66.4645C186.636 66.6281 186.664 66.8056 186.664 66.997V67.0534C186.664 67.2448 186.636 67.4224 186.58 67.586C186.525 67.7496 186.444 67.8927 186.337 68.0154C186.233 68.1365 186.106 68.2314 185.957 68.3001C185.81 68.3672 185.643 68.4007 185.456 68.4007C185.27 68.4007 185.102 68.3672 184.953 68.3001C184.804 68.2314 184.677 68.1365 184.57 68.0154C184.466 67.8927 184.386 67.7496 184.33 67.586C184.274 67.4224 184.247 67.2448 184.247 67.0534ZM184.701 66.997V67.0534C184.701 67.1859 184.716 67.3111 184.747 67.4289C184.778 67.5451 184.825 67.6481 184.887 67.7381C184.951 67.8281 185.03 67.8993 185.125 67.9516C185.22 68.0023 185.33 68.0277 185.456 68.0277C185.581 68.0277 185.69 68.0023 185.783 67.9516C185.878 67.8993 185.956 67.8281 186.018 67.7381C186.081 67.6481 186.127 67.5451 186.158 67.4289C186.191 67.3111 186.207 67.1859 186.207 67.0534V66.997C186.207 66.8661 186.191 66.7426 186.158 66.6264C186.127 66.5086 186.08 66.4047 186.016 66.3148C185.954 66.2231 185.875 66.1512 185.78 66.0988C185.687 66.0465 185.577 66.0203 185.451 66.0203C185.327 66.0203 185.218 66.0465 185.123 66.0988C185.029 66.1512 184.951 66.2231 184.887 66.3148C184.825 66.4047 184.778 66.5086 184.747 66.6264C184.716 66.7426 184.701 66.8661 184.701 66.997ZM187.726 65.6963V68.3516H187.27V65.6963H187.726ZM187.236 64.992C187.236 64.9184 187.258 64.8562 187.302 64.8055C187.348 64.7548 187.415 64.7294 187.503 64.7294C187.59 64.7294 187.656 64.7548 187.702 64.8055C187.749 64.8562 187.773 64.9184 187.773 64.992C187.773 65.0624 187.749 65.1229 187.702 65.1736C187.656 65.2227 187.59 65.2472 187.503 65.2472C187.415 65.2472 187.348 65.2227 187.302 65.1736C187.258 65.1229 187.236 65.0624 187.236 64.992ZM188.909 66.2632V68.3516H188.455V65.6963H188.885L188.909 66.2632ZM188.801 66.9234L188.612 66.916C188.614 66.7344 188.641 66.5667 188.693 66.4129C188.746 66.2575 188.819 66.1225 188.914 66.008C189.009 65.8935 189.122 65.8051 189.253 65.743C189.385 65.6792 189.532 65.6473 189.692 65.6473C189.823 65.6473 189.941 65.6653 190.045 65.7012C190.15 65.7356 190.239 65.7912 190.313 65.8681C190.388 65.945 190.445 66.0448 190.485 66.1675C190.524 66.2886 190.544 66.4366 190.544 66.6117V68.3516H190.087V66.6068C190.087 66.4677 190.067 66.3565 190.026 66.273C189.985 66.188 189.925 66.1266 189.847 66.089C189.768 66.0497 189.672 66.0301 189.557 66.0301C189.444 66.0301 189.341 66.0538 189.248 66.1013C189.156 66.1487 189.077 66.2141 189.01 66.2976C188.944 66.381 188.893 66.4767 188.855 66.5847C188.819 66.691 188.801 66.8039 188.801 66.9234ZM192.345 65.6963V66.0448H190.909V65.6963H192.345ZM191.395 65.0509H191.849V67.6939C191.849 67.7839 191.863 67.8518 191.891 67.8976C191.919 67.9434 191.955 67.9737 191.999 67.9884C192.043 68.0031 192.091 68.0105 192.141 68.0105C192.179 68.0105 192.218 68.0072 192.259 68.0007C192.302 67.9925 192.333 67.986 192.355 67.9811L192.357 68.3516C192.321 68.3631 192.274 68.3737 192.215 68.3835C192.158 68.395 192.088 68.4007 192.006 68.4007C191.895 68.4007 191.793 68.3786 191.7 68.3344C191.606 68.2903 191.532 68.2167 191.476 68.1136C191.422 68.0089 191.395 67.8682 191.395 67.6915V65.0509Z" fill="#808080"/>
<path d="M239.896 79.462V79.7097H238.475V79.462H239.896ZM239.318 78.8568V80.3662H239.055V78.8568H239.318ZM241.851 80.3106V79.5175C241.851 79.4567 241.839 79.4041 241.814 79.3594C241.79 79.3139 241.754 79.2787 241.706 79.2541C241.658 79.2294 241.598 79.217 241.527 79.217C241.46 79.217 241.402 79.2284 241.351 79.2512C241.302 79.274 241.263 79.3039 241.235 79.3409C241.207 79.3779 241.193 79.4178 241.193 79.4605H240.93C240.93 79.4055 240.944 79.3509 240.973 79.2968C241.001 79.2427 241.042 79.1938 241.095 79.1501C241.149 79.1055 241.214 79.0704 241.289 79.0447C241.365 79.0182 241.449 79.0049 241.542 79.0049C241.654 79.0049 241.753 79.0239 241.838 79.0618C241.925 79.0998 241.992 79.1572 242.041 79.2341C242.09 79.3101 242.115 79.4055 242.115 79.5203V80.238C242.115 80.2893 242.119 80.3439 242.127 80.4018C242.137 80.4597 242.151 80.5095 242.169 80.5513V80.5741H241.894C241.881 80.5437 241.87 80.5033 241.863 80.453C241.855 80.4018 241.851 80.3543 241.851 80.3106ZM241.897 79.64L241.9 79.8251H241.633C241.558 79.8251 241.491 79.8312 241.433 79.8436C241.374 79.855 241.324 79.8725 241.285 79.8963C241.245 79.92 241.214 79.9499 241.193 79.986C241.173 80.0211 241.162 80.0624 241.162 80.1099C241.162 80.1583 241.173 80.2024 241.195 80.2423C241.217 80.2822 241.249 80.314 241.293 80.3377C241.338 80.3605 241.392 80.3719 241.457 80.3719C241.538 80.3719 241.609 80.3548 241.67 80.3206C241.732 80.2864 241.781 80.2447 241.817 80.1953C241.854 80.1459 241.874 80.098 241.877 80.0515L241.989 80.1782C241.983 80.2181 241.965 80.2622 241.935 80.3106C241.906 80.359 241.866 80.4056 241.817 80.4502C241.769 80.4939 241.711 80.5304 241.643 80.5598C241.577 80.5883 241.502 80.6025 241.418 80.6025C241.314 80.6025 241.222 80.5821 241.144 80.5413C241.066 80.5005 241.005 80.4459 240.961 80.3776C240.919 80.3083 240.897 80.2309 240.897 80.1455C240.897 80.0629 240.913 79.9902 240.946 79.9276C240.978 79.864 241.024 79.8113 241.085 79.7695C241.146 79.7268 241.219 79.6945 241.304 79.6727C241.39 79.6509 241.485 79.64 241.591 79.64H241.897ZM243.5 80.275V78.3869H243.765V80.5741H243.523L243.5 80.275ZM242.464 79.8208V79.7909C242.464 79.6732 242.478 79.5664 242.506 79.4705C242.536 79.3737 242.577 79.2906 242.63 79.2213C242.684 79.152 242.748 79.0989 242.822 79.0618C242.897 79.0239 242.981 79.0049 243.073 79.0049C243.17 79.0049 243.254 79.022 243.326 79.0561C243.4 79.0894 243.461 79.1382 243.512 79.2028C243.563 79.2664 243.603 79.3433 243.633 79.4335C243.662 79.5237 243.682 79.6257 243.694 79.7396V79.8706C243.683 79.9836 243.663 80.0852 243.633 80.1754C243.603 80.2655 243.563 80.3424 243.512 80.406C243.461 80.4696 243.4 80.5185 243.326 80.5527C243.253 80.5859 243.168 80.6025 243.07 80.6025C242.98 80.6025 242.897 80.5831 242.822 80.5442C242.748 80.5052 242.684 80.4507 242.63 80.3804C242.577 80.3102 242.536 80.2276 242.506 80.1326C242.478 80.0368 242.464 79.9328 242.464 79.8208ZM242.728 79.7909V79.8208C242.728 79.8977 242.736 79.9698 242.751 80.0372C242.767 80.1046 242.792 80.164 242.825 80.2152C242.858 80.2665 242.901 80.3068 242.952 80.3363C243.003 80.3647 243.064 80.379 243.136 80.379C243.223 80.379 243.295 80.3605 243.351 80.3235C243.408 80.2864 243.453 80.2375 243.487 80.1768C243.522 80.116 243.548 80.0501 243.567 79.9789V79.6357C243.556 79.5835 243.539 79.5332 243.517 79.4847C243.496 79.4354 243.469 79.3917 243.435 79.3537C243.401 79.3148 243.36 79.284 243.311 79.2612C243.262 79.2384 243.205 79.227 243.139 79.227C243.066 79.227 243.004 79.2422 242.952 79.2726C242.901 79.302 242.858 79.3428 242.825 79.395C242.792 79.4463 242.767 79.5061 242.751 79.5745C242.736 79.6419 242.728 79.714 242.728 79.7909ZM245.146 80.275V78.3869H245.411V80.5741H245.169L245.146 80.275ZM244.11 79.8208V79.7909C244.11 79.6732 244.124 79.5664 244.152 79.4705C244.182 79.3737 244.223 79.2906 244.276 79.2213C244.33 79.152 244.394 79.0989 244.468 79.0618C244.543 79.0239 244.627 79.0049 244.719 79.0049C244.816 79.0049 244.9 79.022 244.973 79.0561C245.046 79.0894 245.107 79.1382 245.158 79.2028C245.209 79.2664 245.249 79.3433 245.279 79.4335C245.308 79.5237 245.329 79.6257 245.34 79.7396V79.8706C245.329 79.9836 245.309 80.0852 245.279 80.1754C245.249 80.2655 245.209 80.3424 245.158 80.406C245.107 80.4696 245.046 80.5185 244.973 80.5527C244.899 80.5859 244.814 80.6025 244.716 80.6025C244.626 80.6025 244.543 80.5831 244.468 80.5442C244.394 80.5052 244.33 80.4507 244.276 80.3804C244.223 80.3102 244.182 80.2276 244.152 80.1326C244.124 80.0368 244.11 79.9328 244.11 79.8208ZM244.374 79.7909V79.8208C244.374 79.8977 244.382 79.9698 244.397 80.0372C244.413 80.1046 244.438 80.164 244.471 80.2152C244.505 80.2665 244.547 80.3068 244.598 80.3363C244.649 80.3647 244.711 80.379 244.782 80.379C244.869 80.379 244.941 80.3605 244.997 80.3235C245.054 80.2864 245.099 80.2375 245.133 80.1768C245.168 80.116 245.194 80.0501 245.213 79.9789V79.6357C245.202 79.5835 245.185 79.5332 245.163 79.4847C245.142 79.4354 245.115 79.3917 245.081 79.3537C245.048 79.3148 245.006 79.284 244.957 79.2612C244.908 79.2384 244.851 79.227 244.785 79.227C244.712 79.227 244.65 79.2422 244.598 79.2726C244.547 79.302 244.505 79.3428 244.471 79.395C244.438 79.4463 244.413 79.5061 244.397 79.5745C244.382 79.6419 244.374 79.714 244.374 79.7909ZM247.442 80.1654C247.442 80.1274 247.433 80.0923 247.416 80.06C247.4 80.0268 247.366 79.9969 247.315 79.9703C247.265 79.9428 247.189 79.919 247.087 79.8991C247.002 79.8811 246.924 79.8597 246.855 79.835C246.787 79.8104 246.728 79.7804 246.68 79.7453C246.632 79.7102 246.596 79.6689 246.57 79.6214C246.545 79.574 246.532 79.5184 246.532 79.4548C246.532 79.3941 246.545 79.3367 246.572 79.2825C246.599 79.2284 246.638 79.1805 246.687 79.1387C246.737 79.097 246.798 79.0642 246.868 79.0405C246.938 79.0167 247.016 79.0049 247.103 79.0049C247.226 79.0049 247.332 79.0267 247.419 79.0704C247.506 79.114 247.573 79.1724 247.62 79.2455C247.666 79.3177 247.689 79.3979 247.689 79.4862H247.426C247.426 79.4434 247.413 79.4022 247.388 79.3623C247.363 79.3215 247.326 79.2878 247.278 79.2612C247.23 79.2346 247.172 79.2213 247.103 79.2213C247.03 79.2213 246.97 79.2327 246.925 79.2555C246.88 79.2773 246.847 79.3053 246.827 79.3395C246.807 79.3737 246.797 79.4097 246.797 79.4477C246.797 79.4762 246.801 79.5018 246.811 79.5246C246.821 79.5464 246.839 79.5669 246.865 79.5858C246.891 79.6039 246.927 79.621 246.973 79.6371C247.02 79.6532 247.079 79.6694 247.151 79.6855C247.277 79.714 247.381 79.7482 247.463 79.788C247.545 79.8279 247.605 79.8768 247.645 79.9347C247.685 79.9926 247.705 80.0629 247.705 80.1455C247.705 80.2129 247.691 80.2746 247.662 80.3306C247.635 80.3866 247.595 80.435 247.541 80.4758C247.489 80.5157 247.427 80.547 247.353 80.5698C247.281 80.5916 247.2 80.6025 247.11 80.6025C246.974 80.6025 246.859 80.5783 246.765 80.5299C246.671 80.4815 246.6 80.4189 246.552 80.342C246.503 80.2651 246.479 80.1839 246.479 80.0985H246.744C246.748 80.1706 246.769 80.228 246.807 80.2708C246.845 80.3125 246.891 80.3424 246.946 80.3605C247.001 80.3776 247.056 80.3861 247.11 80.3861C247.182 80.3861 247.242 80.3766 247.291 80.3576C247.34 80.3386 247.378 80.3125 247.403 80.2793C247.429 80.2461 247.442 80.2081 247.442 80.1654ZM248.696 79.0333V79.2356H247.863V79.0333H248.696ZM248.145 78.6588H248.409V80.1924C248.409 80.2447 248.417 80.2841 248.433 80.3106C248.449 80.3372 248.47 80.3548 248.495 80.3633C248.521 80.3719 248.549 80.3761 248.578 80.3761C248.6 80.3761 248.623 80.3742 248.646 80.3704C248.671 80.3657 248.69 80.3619 248.702 80.359L248.703 80.5741C248.682 80.5807 248.655 80.5869 248.621 80.5926C248.588 80.5992 248.547 80.6025 248.5 80.6025C248.435 80.6025 248.376 80.5897 248.322 80.5641C248.268 80.5385 248.224 80.4957 248.192 80.4359C248.161 80.3752 248.145 80.2935 248.145 80.191V78.6588ZM248.907 79.8208V79.788C248.907 79.677 248.923 79.574 248.955 79.479C248.988 79.3832 249.034 79.3001 249.095 79.2299C249.156 79.1587 249.229 79.1036 249.316 79.0647C249.402 79.0248 249.499 79.0049 249.606 79.0049C249.714 79.0049 249.812 79.0248 249.898 79.0647C249.985 79.1036 250.059 79.1587 250.12 79.2299C250.182 79.3001 250.229 79.3832 250.261 79.479C250.293 79.574 250.31 79.677 250.31 79.788V79.8208C250.31 79.9319 250.293 80.0349 250.261 80.1298C250.229 80.2247 250.182 80.3078 250.12 80.379C250.059 80.4492 249.986 80.5043 249.899 80.5442C249.814 80.5831 249.717 80.6025 249.609 80.6025C249.501 80.6025 249.403 80.5831 249.317 80.5442C249.231 80.5043 249.157 80.4492 249.095 80.379C249.034 80.3078 248.988 80.2247 248.955 80.1298C248.923 80.0349 248.907 79.9319 248.907 79.8208ZM249.17 79.788V79.8208C249.17 79.8977 249.179 79.9703 249.197 80.0387C249.215 80.1061 249.243 80.1659 249.279 80.2181C249.316 80.2703 249.362 80.3116 249.417 80.342C249.472 80.3714 249.536 80.3861 249.609 80.3861C249.681 80.3861 249.744 80.3714 249.798 80.342C249.853 80.3116 249.899 80.2703 249.935 80.2181C249.971 80.1659 249.998 80.1061 250.016 80.0387C250.035 79.9703 250.045 79.8977 250.045 79.8208V79.788C250.045 79.7121 250.035 79.6404 250.016 79.573C249.998 79.5047 249.971 79.4444 249.934 79.3922C249.898 79.339 249.852 79.2973 249.797 79.2669C249.743 79.2365 249.679 79.2213 249.606 79.2213C249.534 79.2213 249.47 79.2365 249.415 79.2669C249.361 79.2973 249.316 79.339 249.279 79.3922C249.243 79.4444 249.215 79.5047 249.197 79.573C249.179 79.6404 249.17 79.7121 249.17 79.788ZM250.903 79.3295V81.1664H250.638V79.0333H250.881L250.903 79.3295ZM251.941 79.7909V79.8208C251.941 79.9328 251.928 80.0368 251.902 80.1326C251.875 80.2276 251.836 80.3102 251.785 80.3804C251.734 80.4507 251.672 80.5052 251.598 80.5442C251.524 80.5831 251.439 80.6025 251.343 80.6025C251.246 80.6025 251.159 80.5864 251.084 80.5541C251.009 80.5219 250.946 80.4749 250.893 80.4132C250.841 80.3515 250.799 80.2774 250.768 80.191C250.738 80.1046 250.717 80.0073 250.705 79.8991V79.7396C250.717 79.6257 250.738 79.5237 250.769 79.4335C250.801 79.3433 250.842 79.2664 250.893 79.2028C250.946 79.1382 251.009 79.0894 251.083 79.0561C251.157 79.022 251.242 79.0049 251.339 79.0049C251.436 79.0049 251.522 79.0239 251.597 79.0618C251.672 79.0989 251.735 79.152 251.786 79.2213C251.837 79.2906 251.876 79.3737 251.902 79.4705C251.928 79.5664 251.941 79.6732 251.941 79.7909ZM251.677 79.8208V79.7909C251.677 79.714 251.668 79.6419 251.652 79.5745C251.636 79.5061 251.611 79.4463 251.577 79.395C251.544 79.3428 251.501 79.302 251.449 79.2726C251.396 79.2422 251.334 79.227 251.262 79.227C251.196 79.227 251.138 79.2384 251.088 79.2612C251.04 79.284 250.999 79.3148 250.965 79.3537C250.93 79.3917 250.902 79.4354 250.881 79.4847C250.86 79.5332 250.844 79.5835 250.834 79.6357V80.0045C250.853 80.0709 250.879 80.1336 250.913 80.1924C250.947 80.2504 250.993 80.2973 251.05 80.3334C251.107 80.3685 251.179 80.3861 251.265 80.3861C251.336 80.3861 251.397 80.3714 251.449 80.342C251.501 80.3116 251.544 80.2703 251.577 80.2181C251.611 80.1659 251.636 80.1061 251.652 80.0387C251.668 79.9703 251.677 79.8977 251.677 79.8208Z" fill="#808080"/>
<path d="M163.365 96.8994H162.619L162.624 96.5141H163.365C163.62 96.5141 163.833 96.4609 164.003 96.3546C164.173 96.2466 164.301 96.0961 164.386 95.903C164.473 95.7084 164.516 95.4809 164.516 95.2208V95.0024C164.516 94.7979 164.491 94.6163 164.442 94.4576C164.393 94.2973 164.321 94.1623 164.226 94.0527C164.132 93.9414 164.015 93.8572 163.878 93.7999C163.742 93.7427 163.586 93.714 163.409 93.714H162.604V93.3263H163.409C163.643 93.3263 163.857 93.3655 164.05 93.4441C164.243 93.521 164.409 93.633 164.548 93.7803C164.689 93.9259 164.797 94.1026 164.872 94.3104C164.947 94.5165 164.985 94.7488 164.985 95.0073V95.2208C164.985 95.4793 164.947 95.7124 164.872 95.9202C164.797 96.1264 164.688 96.3022 164.545 96.4478C164.405 96.5934 164.235 96.7055 164.035 96.784C163.837 96.8609 163.614 96.8994 163.365 96.8994ZM162.872 93.3263V96.8994H162.398V93.3263H162.872ZM166.73 96.9485C166.545 96.9485 166.377 96.9174 166.226 96.8552C166.078 96.7914 165.949 96.7022 165.841 96.5877C165.735 96.4732 165.653 96.3374 165.596 96.1803C165.539 96.0233 165.51 95.8515 165.51 95.665V95.5619C165.51 95.346 165.542 95.1537 165.606 94.9852C165.669 94.8151 165.756 94.6711 165.866 94.5533C165.975 94.4355 166.1 94.3464 166.239 94.2858C166.378 94.2253 166.522 94.195 166.671 94.195C166.86 94.195 167.024 94.2277 167.161 94.2932C167.301 94.3586 167.414 94.4502 167.503 94.568C167.591 94.6842 167.656 94.8216 167.699 94.9803C167.741 95.1374 167.763 95.3092 167.763 95.4957V95.6994H165.78V95.3288H167.309V95.2944C167.302 95.1766 167.278 95.0621 167.235 94.9509C167.194 94.8396 167.129 94.748 167.039 94.676C166.949 94.604 166.826 94.568 166.671 94.568C166.568 94.568 166.473 94.5901 166.386 94.6343C166.299 94.6768 166.225 94.7406 166.163 94.8257C166.1 94.9108 166.052 95.0147 166.018 95.1374C165.984 95.2601 165.966 95.4016 165.966 95.5619V95.665C165.966 95.791 165.984 95.9096 166.018 96.0208C166.054 96.1304 166.105 96.227 166.172 96.3104C166.241 96.3938 166.324 96.4593 166.42 96.5067C166.518 96.5542 166.63 96.5779 166.754 96.5779C166.914 96.5779 167.05 96.5452 167.161 96.4797C167.273 96.4143 167.37 96.3268 167.453 96.2172L167.728 96.4356C167.671 96.5223 167.598 96.6049 167.51 96.6834C167.422 96.762 167.313 96.8258 167.184 96.8748C167.056 96.9239 166.905 96.9485 166.73 96.9485ZM169.839 96.1951C169.839 96.1296 169.824 96.0691 169.795 96.0135C169.767 95.9562 169.709 95.9047 169.62 95.8589C169.534 95.8114 169.403 95.7705 169.228 95.7362C169.081 95.7051 168.947 95.6683 168.828 95.6257C168.71 95.5832 168.609 95.5317 168.526 95.4711C168.444 95.4106 168.381 95.3394 168.337 95.2576C168.293 95.1758 168.271 95.0801 168.271 94.9705C168.271 94.8658 168.294 94.7668 168.339 94.6736C168.387 94.5803 168.453 94.4977 168.538 94.4257C168.625 94.3537 168.729 94.2973 168.85 94.2564C168.971 94.2155 169.106 94.195 169.255 94.195C169.467 94.195 169.649 94.2326 169.8 94.3079C169.95 94.3832 170.065 94.4838 170.146 94.6098C170.226 94.7341 170.266 94.8723 170.266 95.0245H169.812C169.812 94.9509 169.79 94.8797 169.746 94.811C169.703 94.7406 169.64 94.6826 169.557 94.6367C169.475 94.5909 169.374 94.568 169.255 94.568C169.129 94.568 169.027 94.5877 168.948 94.6269C168.871 94.6646 168.815 94.7128 168.779 94.7717C168.744 94.8306 168.727 94.8928 168.727 94.9582C168.727 95.0073 168.735 95.0515 168.752 95.0907C168.77 95.1284 168.801 95.1636 168.845 95.1963C168.889 95.2274 168.951 95.2568 169.031 95.2846C169.112 95.3124 169.214 95.3402 169.338 95.3681C169.556 95.4171 169.735 95.476 169.876 95.5447C170.016 95.6135 170.121 95.6977 170.19 95.7975C170.258 95.8973 170.293 96.0184 170.293 96.1607C170.293 96.2769 170.268 96.3832 170.219 96.4797C170.172 96.5763 170.102 96.6597 170.011 96.7301C169.921 96.7988 169.813 96.8528 169.687 96.892C169.562 96.9297 169.422 96.9485 169.267 96.9485C169.033 96.9485 168.835 96.9067 168.673 96.8233C168.511 96.7399 168.388 96.6319 168.305 96.4994C168.222 96.3669 168.18 96.227 168.18 96.0797H168.636C168.643 96.2041 168.679 96.303 168.744 96.3767C168.81 96.4487 168.89 96.5002 168.985 96.5313C169.08 96.5607 169.174 96.5754 169.267 96.5754C169.391 96.5754 169.495 96.5591 169.579 96.5264C169.664 96.4936 169.728 96.4487 169.773 96.3914C169.817 96.3341 169.839 96.2687 169.839 96.1951ZM172.001 94.2441V94.5926H170.565V94.2441H172.001ZM171.051 93.5987H171.505V96.2417C171.505 96.3317 171.519 96.3996 171.547 96.4454C171.575 96.4912 171.611 96.5215 171.655 96.5362C171.699 96.5509 171.746 96.5583 171.797 96.5583C171.835 96.5583 171.874 96.555 171.915 96.5485C171.957 96.5403 171.989 96.5337 172.011 96.5288L172.013 96.8994C171.977 96.9108 171.93 96.9215 171.871 96.9313C171.814 96.9427 171.744 96.9485 171.662 96.9485C171.551 96.9485 171.449 96.9264 171.355 96.8822C171.262 96.838 171.188 96.7644 171.132 96.6613C171.078 96.5566 171.051 96.4159 171.051 96.2392V93.5987ZM173.027 94.2441V96.8994H172.57V94.2441H173.027ZM172.536 93.5398C172.536 93.4662 172.558 93.404 172.602 93.3533C172.648 93.3026 172.715 93.2772 172.803 93.2772C172.89 93.2772 172.956 93.3026 173.002 93.3533C173.05 93.404 173.073 93.4662 173.073 93.5398C173.073 93.6101 173.05 93.6707 173.002 93.7214C172.956 93.7705 172.89 93.795 172.803 93.795C172.715 93.795 172.648 93.7705 172.602 93.7214C172.558 93.6707 172.536 93.6101 172.536 93.5398ZM174.209 94.811V96.8994H173.755V94.2441H174.185L174.209 94.811ZM174.102 95.4711L173.913 95.4638C173.914 95.2822 173.941 95.1145 173.994 94.9607C174.046 94.8053 174.12 94.6703 174.214 94.5558C174.309 94.4412 174.422 94.3529 174.553 94.2907C174.686 94.2269 174.832 94.195 174.992 94.195C175.123 94.195 175.241 94.213 175.346 94.249C175.45 94.2834 175.54 94.339 175.613 94.4159C175.688 94.4928 175.746 94.5926 175.785 94.7153C175.824 94.8363 175.844 94.9844 175.844 95.1595V96.8994H175.387V95.1546C175.387 95.0155 175.367 94.9042 175.326 94.8208C175.285 94.7357 175.225 94.6744 175.147 94.6367C175.068 94.5975 174.972 94.5779 174.857 94.5779C174.744 94.5779 174.641 94.6016 174.548 94.649C174.457 94.6965 174.377 94.7619 174.31 94.8453C174.245 94.9288 174.193 95.0245 174.155 95.1325C174.12 95.2388 174.102 95.3517 174.102 95.4711ZM178.099 96.4454V95.0785C178.099 94.9738 178.078 94.883 178.035 94.8061C177.994 94.7275 177.932 94.667 177.849 94.6245C177.765 94.5819 177.662 94.5607 177.54 94.5607C177.425 94.5607 177.324 94.5803 177.238 94.6196C177.153 94.6588 177.086 94.7104 177.037 94.7742C176.989 94.838 176.965 94.9067 176.965 94.9803H176.511C176.511 94.8854 176.536 94.7914 176.585 94.6981C176.634 94.6048 176.704 94.5206 176.796 94.4453C176.889 94.3684 177.001 94.3079 177.13 94.2637C177.261 94.2179 177.406 94.195 177.567 94.195C177.76 94.195 177.93 94.2277 178.077 94.2932C178.226 94.3586 178.342 94.4576 178.426 94.5901C178.511 94.721 178.553 94.8854 178.553 95.0834V96.3202C178.553 96.4086 178.561 96.5026 178.575 96.6024C178.592 96.7022 178.615 96.7881 178.646 96.8601V96.8994H178.173C178.15 96.847 178.132 96.7775 178.119 96.6908C178.106 96.6024 178.099 96.5206 178.099 96.4454ZM178.178 95.2895L178.183 95.6086H177.724C177.594 95.6086 177.479 95.6192 177.378 95.6405C177.276 95.6601 177.191 95.6904 177.122 95.7313C177.054 95.7722 177.001 95.8237 176.965 95.8859C176.929 95.9464 176.911 96.0176 176.911 96.0994C176.911 96.1828 176.93 96.2589 176.968 96.3276C177.005 96.3963 177.062 96.4511 177.137 96.492C177.214 96.5313 177.308 96.5509 177.419 96.5509C177.558 96.5509 177.681 96.5215 177.787 96.4626C177.894 96.4037 177.978 96.3317 178.04 96.2466C178.104 96.1615 178.138 96.0789 178.143 95.9987L178.337 96.2172C178.326 96.2859 178.295 96.3619 178.244 96.4454C178.193 96.5288 178.125 96.609 178.04 96.6859C177.957 96.7611 177.857 96.8241 177.741 96.8748C177.626 96.9239 177.497 96.9485 177.353 96.9485C177.173 96.9485 177.015 96.9133 176.879 96.8429C176.745 96.7726 176.641 96.6785 176.565 96.5607C176.492 96.4413 176.455 96.308 176.455 96.1607C176.455 96.0184 176.483 95.8932 176.538 95.7852C176.594 95.6756 176.674 95.5848 176.779 95.5128C176.884 95.4392 177.01 95.3836 177.157 95.346C177.304 95.3083 177.468 95.2895 177.65 95.2895H178.178ZM180.379 94.2441V94.5926H178.943V94.2441H180.379ZM179.429 93.5987H179.883V96.2417C179.883 96.3317 179.897 96.3996 179.925 96.4454C179.953 96.4912 179.989 96.5215 180.033 96.5362C180.077 96.5509 180.125 96.5583 180.175 96.5583C180.213 96.5583 180.252 96.555 180.293 96.5485C180.336 96.5403 180.368 96.5337 180.389 96.5288L180.391 96.8994C180.355 96.9108 180.308 96.9215 180.249 96.9313C180.192 96.9427 180.122 96.9485 180.04 96.9485C179.929 96.9485 179.827 96.9264 179.734 96.8822C179.64 96.838 179.566 96.7644 179.51 96.6613C179.456 96.5566 179.429 96.4159 179.429 96.2392V93.5987ZM181.405 94.2441V96.8994H180.948V94.2441H181.405ZM180.914 93.5398C180.914 93.4662 180.936 93.404 180.98 93.3533C181.026 93.3026 181.093 93.2772 181.181 93.2772C181.268 93.2772 181.334 93.3026 181.38 93.3533C181.428 93.404 181.451 93.4662 181.451 93.5398C181.451 93.6101 181.428 93.6707 181.38 93.7214C181.334 93.7705 181.268 93.795 181.181 93.795C181.093 93.795 181.026 93.7705 180.98 93.7214C180.936 93.6707 180.914 93.6101 180.914 93.5398ZM182.013 95.6012V95.5447C182.013 95.3533 182.041 95.1758 182.097 95.0122C182.152 94.847 182.233 94.7038 182.337 94.5828C182.442 94.4601 182.569 94.3652 182.718 94.2981C182.867 94.2294 183.033 94.195 183.218 94.195C183.405 94.195 183.573 94.2294 183.721 94.2981C183.872 94.3652 184 94.4601 184.104 94.5828C184.211 94.7038 184.292 94.847 184.347 95.0122C184.403 95.1758 184.431 95.3533 184.431 95.5447V95.6012C184.431 95.7926 184.403 95.9701 184.347 96.1337C184.292 96.2973 184.211 96.4405 184.104 96.5632C184 96.6842 183.873 96.7791 183.724 96.8478C183.577 96.9149 183.41 96.9485 183.223 96.9485C183.037 96.9485 182.869 96.9149 182.72 96.8478C182.571 96.7791 182.444 96.6842 182.337 96.5632C182.233 96.4405 182.152 96.2973 182.097 96.1337C182.041 95.9701 182.013 95.7926 182.013 95.6012ZM182.467 95.5447V95.6012C182.467 95.7337 182.483 95.8589 182.514 95.9767C182.545 96.0928 182.592 96.1959 182.654 96.2859C182.718 96.3759 182.797 96.447 182.892 96.4994C182.987 96.5501 183.097 96.5754 183.223 96.5754C183.348 96.5754 183.456 96.5501 183.55 96.4994C183.644 96.447 183.723 96.3759 183.785 96.2859C183.847 96.1959 183.894 96.0928 183.925 95.9767C183.958 95.8589 183.974 95.7337 183.974 95.6012V95.5447C183.974 95.4139 183.958 95.2903 183.925 95.1742C183.894 95.0564 183.847 94.9525 183.783 94.8625C183.721 94.7709 183.642 94.6989 183.547 94.6466C183.454 94.5942 183.344 94.568 183.218 94.568C183.094 94.568 182.984 94.5942 182.889 94.6466C182.796 94.6989 182.718 94.7709 182.654 94.8625C182.592 94.9525 182.545 95.0564 182.514 95.1742C182.483 95.2903 182.467 95.4139 182.467 95.5447ZM185.454 94.811V96.8994H185V94.2441H185.429L185.454 94.811ZM185.346 95.4711L185.157 95.4638C185.159 95.2822 185.186 95.1145 185.238 94.9607C185.29 94.8053 185.364 94.6703 185.459 94.5558C185.554 94.4412 185.667 94.3529 185.798 94.2907C185.93 94.2269 186.076 94.195 186.237 94.195C186.368 94.195 186.485 94.213 186.59 94.249C186.695 94.2834 186.784 94.339 186.858 94.4159C186.933 94.4928 186.99 94.5926 187.029 94.7153C187.069 94.8363 187.088 94.9844 187.088 95.1595V96.8994H186.632V95.1546C186.632 95.0155 186.611 94.9042 186.571 94.8208C186.53 94.7357 186.47 94.6744 186.391 94.6367C186.313 94.5975 186.216 94.5779 186.102 94.5779C185.989 94.5779 185.886 94.6016 185.793 94.649C185.701 94.6965 185.622 94.7619 185.555 94.8453C185.489 94.9288 185.438 95.0245 185.4 95.1325C185.364 95.2388 185.346 95.3517 185.346 95.4711ZM190.411 95.4981H189.457V95.1128H190.411C190.596 95.1128 190.746 95.0834 190.86 95.0245C190.975 94.9656 191.058 94.8838 191.111 94.7791C191.165 94.6744 191.192 94.5549 191.192 94.4208C191.192 94.2981 191.165 94.1827 191.111 94.0748C191.058 93.9668 190.975 93.8801 190.86 93.8146C190.746 93.7476 190.596 93.714 190.411 93.714H189.567V96.8994H189.093V93.3263H190.411C190.681 93.3263 190.909 93.3729 191.096 93.4662C191.282 93.5594 191.424 93.6887 191.52 93.8539C191.617 94.0175 191.665 94.2048 191.665 94.4159C191.665 94.6449 191.617 94.8404 191.52 95.0024C191.424 95.1644 191.282 95.2879 191.096 95.373C190.909 95.4564 190.681 95.4981 190.411 95.4981ZM192.041 95.6012V95.5447C192.041 95.3533 192.068 95.1758 192.124 95.0122C192.18 94.847 192.26 94.7038 192.365 94.5828C192.469 94.4601 192.596 94.3652 192.745 94.2981C192.894 94.2294 193.061 94.195 193.246 94.195C193.432 94.195 193.6 94.2294 193.749 94.2981C193.899 94.3652 194.027 94.4601 194.131 94.5828C194.238 94.7038 194.319 94.847 194.374 95.0122C194.43 95.1758 194.458 95.3533 194.458 95.5447V95.6012C194.458 95.7926 194.43 95.9701 194.374 96.1337C194.319 96.2973 194.238 96.4405 194.131 96.5632C194.027 96.6842 193.9 96.7791 193.751 96.8478C193.604 96.9149 193.437 96.9485 193.25 96.9485C193.064 96.9485 192.896 96.9149 192.747 96.8478C192.599 96.7791 192.471 96.6842 192.365 96.5632C192.26 96.4405 192.18 96.2973 192.124 96.1337C192.068 95.9701 192.041 95.7926 192.041 95.6012ZM192.495 95.5447V95.6012C192.495 95.7337 192.51 95.8589 192.541 95.9767C192.572 96.0928 192.619 96.1959 192.681 96.2859C192.745 96.3759 192.824 96.447 192.919 96.4994C193.014 96.5501 193.124 96.5754 193.25 96.5754C193.375 96.5754 193.484 96.5501 193.577 96.4994C193.672 96.447 193.75 96.3759 193.812 96.2859C193.875 96.1959 193.921 96.0928 193.952 95.9767C193.985 95.8589 194.001 95.7337 194.001 95.6012V95.5447C194.001 95.4139 193.985 95.2903 193.952 95.1742C193.921 95.0564 193.874 94.9525 193.81 94.8625C193.748 94.7709 193.669 94.6989 193.574 94.6466C193.481 94.5942 193.372 94.568 193.246 94.568C193.121 94.568 193.012 94.5942 192.917 94.6466C192.823 94.6989 192.745 94.7709 192.681 94.8625C192.619 94.9525 192.572 95.0564 192.541 95.1742C192.51 95.2903 192.495 95.4139 192.495 95.5447ZM195.52 94.2441V96.8994H195.064V94.2441H195.52ZM195.03 93.5398C195.03 93.4662 195.052 93.404 195.096 93.3533C195.142 93.3026 195.209 93.2772 195.297 93.2772C195.384 93.2772 195.45 93.3026 195.496 93.3533C195.543 93.404 195.567 93.4662 195.567 93.5398C195.567 93.6101 195.543 93.6707 195.496 93.7214C195.45 93.7705 195.384 93.795 195.297 93.795C195.209 93.795 195.142 93.7705 195.096 93.7214C195.052 93.6707 195.03 93.6101 195.03 93.5398ZM196.703 94.811V96.8994H196.249V94.2441H196.679L196.703 94.811ZM196.595 95.4711L196.406 95.4638C196.408 95.2822 196.435 95.1145 196.487 94.9607C196.54 94.8053 196.613 94.6703 196.708 94.5558C196.803 94.4412 196.916 94.3529 197.047 94.2907C197.179 94.2269 197.326 94.195 197.486 94.195C197.617 94.195 197.735 94.213 197.84 94.249C197.944 94.2834 198.033 94.339 198.107 94.4159C198.182 94.4928 198.24 94.5926 198.279 94.7153C198.318 94.8363 198.338 94.9844 198.338 95.1595V96.8994H197.881V95.1546C197.881 95.0155 197.861 94.9042 197.82 94.8208C197.779 94.7357 197.719 94.6744 197.641 94.6367C197.562 94.5975 197.466 94.5779 197.351 94.5779C197.238 94.5779 197.135 94.6016 197.042 94.649C196.95 94.6965 196.871 94.7619 196.804 94.8453C196.738 94.9288 196.687 95.0245 196.649 95.1325C196.613 95.2388 196.595 95.3517 196.595 95.4711ZM200.139 94.2441V94.5926H198.703V94.2441H200.139ZM199.189 93.5987H199.643V96.2417C199.643 96.3317 199.657 96.3996 199.685 96.4454C199.713 96.4912 199.749 96.5215 199.793 96.5362C199.837 96.5509 199.885 96.5583 199.935 96.5583C199.973 96.5583 200.012 96.555 200.053 96.5485C200.096 96.5403 200.128 96.5337 200.149 96.5288L200.151 96.8994C200.115 96.9108 200.068 96.9215 200.009 96.9313C199.952 96.9427 199.882 96.9485 199.8 96.9485C199.689 96.9485 199.587 96.9264 199.494 96.8822C199.4 96.838 199.326 96.7644 199.27 96.6613C199.216 96.5566 199.189 96.4159 199.189 96.2392V93.5987Z" fill="#808080"/>
<path d="M164.302 115.195C164.302 115.111 164.289 115.038 164.263 114.974C164.239 114.908 164.194 114.85 164.131 114.797C164.069 114.745 163.982 114.695 163.871 114.647C163.761 114.6 163.622 114.552 163.453 114.503C163.277 114.45 163.117 114.392 162.975 114.328C162.833 114.263 162.711 114.189 162.609 114.105C162.508 114.022 162.43 113.926 162.376 113.818C162.322 113.71 162.295 113.587 162.295 113.447C162.295 113.308 162.324 113.18 162.381 113.062C162.438 112.944 162.52 112.842 162.626 112.755C162.734 112.667 162.863 112.598 163.012 112.549C163.161 112.5 163.327 112.476 163.51 112.476C163.778 112.476 164.006 112.527 164.192 112.63C164.38 112.732 164.523 112.865 164.622 113.03C164.72 113.194 164.769 113.369 164.769 113.555H164.298C164.298 113.421 164.269 113.303 164.212 113.2C164.154 113.095 164.068 113.013 163.952 112.954C163.835 112.894 163.688 112.863 163.51 112.863C163.341 112.863 163.202 112.889 163.093 112.939C162.983 112.99 162.901 113.059 162.847 113.146C162.795 113.232 162.769 113.331 162.769 113.443C162.769 113.518 162.784 113.587 162.815 113.649C162.848 113.709 162.898 113.766 162.965 113.818C163.034 113.87 163.12 113.919 163.225 113.963C163.331 114.007 163.458 114.05 163.606 114.09C163.808 114.148 163.983 114.211 164.131 114.282C164.278 114.352 164.399 114.432 164.494 114.52C164.59 114.607 164.662 114.706 164.707 114.817C164.755 114.926 164.779 115.051 164.779 115.19C164.779 115.335 164.749 115.467 164.69 115.585C164.631 115.703 164.547 115.803 164.437 115.887C164.328 115.97 164.196 116.035 164.042 116.081C163.89 116.125 163.72 116.147 163.532 116.147C163.367 116.147 163.204 116.124 163.044 116.078C162.885 116.032 162.74 115.964 162.609 115.872C162.48 115.78 162.376 115.668 162.298 115.533C162.221 115.398 162.182 115.241 162.182 115.062H162.653C162.653 115.185 162.677 115.29 162.725 115.379C162.772 115.466 162.837 115.537 162.918 115.595C163.002 115.652 163.096 115.695 163.201 115.722C163.307 115.749 163.417 115.762 163.532 115.762C163.697 115.762 163.837 115.739 163.952 115.693C164.066 115.647 164.153 115.582 164.212 115.497C164.272 115.412 164.302 115.311 164.302 115.195ZM166.415 116.147C166.231 116.147 166.063 116.116 165.912 116.054C165.763 115.99 165.635 115.901 165.527 115.786C165.421 115.672 165.339 115.536 165.282 115.379C165.224 115.222 165.196 115.05 165.196 114.863V114.76C165.196 114.544 165.228 114.352 165.291 114.184C165.355 114.014 165.442 113.87 165.552 113.752C165.661 113.634 165.786 113.545 165.925 113.484C166.064 113.424 166.208 113.393 166.357 113.393C166.546 113.393 166.71 113.426 166.847 113.492C166.986 113.557 167.1 113.649 167.188 113.766C167.277 113.883 167.342 114.02 167.385 114.179C167.427 114.336 167.449 114.508 167.449 114.694V114.898H165.466V114.527H166.995V114.493C166.988 114.375 166.963 114.261 166.921 114.149C166.88 114.038 166.815 113.946 166.725 113.874C166.635 113.802 166.512 113.766 166.357 113.766C166.253 113.766 166.159 113.789 166.072 113.833C165.985 113.875 165.911 113.939 165.849 114.024C165.786 114.109 165.738 114.213 165.704 114.336C165.669 114.459 165.652 114.6 165.652 114.76V114.863C165.652 114.989 165.669 115.108 165.704 115.219C165.74 115.329 165.791 115.425 165.858 115.509C165.927 115.592 166.01 115.658 166.106 115.705C166.204 115.753 166.316 115.776 166.44 115.776C166.6 115.776 166.736 115.744 166.847 115.678C166.959 115.613 167.056 115.525 167.139 115.416L167.414 115.634C167.357 115.721 167.284 115.803 167.196 115.882C167.107 115.96 166.999 116.024 166.869 116.073C166.742 116.122 166.59 116.147 166.415 116.147ZM168.472 112.328V116.098H168.015V112.328H168.472ZM170.303 116.147C170.118 116.147 169.95 116.116 169.8 116.054C169.651 115.99 169.522 115.901 169.414 115.786C169.308 115.672 169.226 115.536 169.169 115.379C169.112 115.222 169.083 115.05 169.083 114.863V114.76C169.083 114.544 169.115 114.352 169.179 114.184C169.242 114.014 169.329 113.87 169.439 113.752C169.548 113.634 169.673 113.545 169.812 113.484C169.951 113.424 170.095 113.393 170.244 113.393C170.434 113.393 170.597 113.426 170.735 113.492C170.874 113.557 170.987 113.649 171.076 113.766C171.164 113.883 171.229 114.02 171.272 114.179C171.315 114.336 171.336 114.508 171.336 114.694V114.898H169.353V114.527H170.882V114.493C170.875 114.375 170.851 114.261 170.808 114.149C170.767 114.038 170.702 113.946 170.612 113.874C170.522 113.802 170.399 113.766 170.244 113.766C170.141 113.766 170.046 113.789 169.959 113.833C169.872 113.875 169.798 113.939 169.736 114.024C169.674 114.109 169.625 114.213 169.591 114.336C169.557 114.459 169.539 114.6 169.539 114.76V114.863C169.539 114.989 169.557 115.108 169.591 115.219C169.627 115.329 169.678 115.425 169.746 115.509C169.814 115.592 169.897 115.658 169.993 115.705C170.092 115.753 170.203 115.776 170.327 115.776C170.488 115.776 170.623 115.744 170.735 115.678C170.846 115.613 170.943 115.525 171.027 115.416L171.301 115.634C171.244 115.721 171.171 115.803 171.083 115.882C170.995 115.96 170.886 116.024 170.757 116.073C170.629 116.122 170.478 116.147 170.303 116.147ZM172.928 115.774C173.036 115.774 173.136 115.752 173.228 115.708C173.319 115.663 173.395 115.603 173.454 115.526C173.513 115.448 173.546 115.358 173.554 115.259H173.986C173.978 115.416 173.925 115.562 173.827 115.698C173.73 115.832 173.603 115.941 173.446 116.024C173.289 116.106 173.117 116.147 172.928 116.147C172.729 116.147 172.555 116.112 172.406 116.041C172.259 115.971 172.136 115.875 172.038 115.752C171.941 115.629 171.868 115.488 171.819 115.33C171.772 115.169 171.748 115 171.748 114.822V114.719C171.748 114.54 171.772 114.372 171.819 114.213C171.868 114.053 171.941 113.911 172.038 113.789C172.136 113.666 172.259 113.569 172.406 113.499C172.555 113.429 172.729 113.393 172.928 113.393C173.136 113.393 173.318 113.436 173.473 113.521C173.629 113.605 173.751 113.719 173.839 113.865C173.929 114.009 173.978 114.172 173.986 114.355H173.554C173.546 114.246 173.515 114.147 173.461 114.059C173.409 113.97 173.337 113.9 173.245 113.847C173.155 113.793 173.05 113.766 172.928 113.766C172.789 113.766 172.672 113.794 172.578 113.85C172.484 113.904 172.41 113.978 172.354 114.071C172.3 114.162 172.261 114.265 172.236 114.378C172.214 114.489 172.202 114.603 172.202 114.719V114.822C172.202 114.938 172.214 115.052 172.236 115.165C172.259 115.278 172.298 115.38 172.352 115.472C172.407 115.564 172.482 115.637 172.575 115.693C172.67 115.747 172.788 115.774 172.928 115.774ZM175.608 113.443V113.791H174.173V113.443H175.608ZM174.659 112.797H175.113V115.44C175.113 115.53 175.126 115.598 175.154 115.644C175.182 115.69 175.218 115.72 175.262 115.735C175.306 115.749 175.354 115.757 175.405 115.757C175.442 115.757 175.482 115.753 175.522 115.747C175.565 115.739 175.597 115.732 175.618 115.727L175.621 116.098C175.585 116.109 175.537 116.12 175.478 116.13C175.421 116.141 175.351 116.147 175.27 116.147C175.158 116.147 175.056 116.125 174.963 116.081C174.87 116.036 174.795 115.963 174.74 115.86C174.686 115.755 174.659 115.614 174.659 115.438V112.797ZM179.061 115.582V112.328H179.518V116.098H179.1L179.061 115.582ZM177.275 114.8V114.748C177.275 114.545 177.299 114.361 177.348 114.196C177.399 114.029 177.47 113.886 177.562 113.766C177.655 113.647 177.765 113.555 177.893 113.492C178.022 113.426 178.166 113.393 178.325 113.393C178.492 113.393 178.637 113.423 178.762 113.482C178.888 113.539 178.994 113.623 179.081 113.735C179.169 113.844 179.239 113.977 179.289 114.132C179.34 114.288 179.375 114.463 179.395 114.66V114.886C179.377 115.08 179.342 115.255 179.289 115.411C179.239 115.566 179.169 115.699 179.081 115.808C178.994 115.918 178.888 116.002 178.762 116.061C178.636 116.118 178.489 116.147 178.32 116.147C178.165 116.147 178.022 116.113 177.893 116.046C177.765 115.979 177.655 115.885 177.562 115.764C177.47 115.643 177.399 115.501 177.348 115.337C177.299 115.172 177.275 114.993 177.275 114.8ZM177.731 114.748V114.8C177.731 114.932 177.744 115.057 177.77 115.173C177.798 115.289 177.841 115.391 177.898 115.479C177.955 115.568 178.028 115.637 178.116 115.688C178.205 115.737 178.31 115.762 178.433 115.762C178.583 115.762 178.707 115.73 178.803 115.666C178.902 115.602 178.98 115.518 179.039 115.413C179.098 115.308 179.144 115.195 179.176 115.072V114.481C179.157 114.391 179.128 114.304 179.091 114.22C179.055 114.135 179.007 114.06 178.948 113.995C178.891 113.928 178.82 113.874 178.735 113.835C178.651 113.796 178.552 113.776 178.438 113.776C178.313 113.776 178.206 113.802 178.116 113.855C178.028 113.906 177.955 113.976 177.898 114.066C177.841 114.154 177.798 114.257 177.77 114.375C177.744 114.491 177.731 114.616 177.731 114.748ZM181.79 115.644V114.277C181.79 114.172 181.769 114.081 181.726 114.005C181.685 113.926 181.623 113.865 181.54 113.823C181.456 113.78 181.353 113.759 181.231 113.759C181.116 113.759 181.015 113.779 180.929 113.818C180.844 113.857 180.777 113.909 180.727 113.973C180.68 114.036 180.656 114.105 180.656 114.179H180.202C180.202 114.084 180.227 113.99 180.276 113.897C180.325 113.803 180.395 113.719 180.487 113.644C180.58 113.567 180.691 113.506 180.821 113.462C180.952 113.416 181.097 113.393 181.258 113.393C181.451 113.393 181.621 113.426 181.768 113.492C181.917 113.557 182.033 113.656 182.116 113.789C182.202 113.919 182.244 114.084 182.244 114.282V115.519C182.244 115.607 182.251 115.701 182.266 115.801C182.282 115.901 182.306 115.987 182.337 116.059V116.098H181.864C181.841 116.045 181.823 115.976 181.81 115.889C181.797 115.801 181.79 115.719 181.79 115.644ZM181.869 114.488L181.873 114.807H181.415C181.285 114.807 181.17 114.818 181.069 114.839C180.967 114.859 180.882 114.889 180.813 114.93C180.745 114.971 180.692 115.022 180.656 115.084C180.62 115.145 180.602 115.216 180.602 115.298C180.602 115.381 180.621 115.457 180.659 115.526C180.696 115.595 180.753 115.65 180.828 115.69C180.905 115.73 180.999 115.749 181.11 115.749C181.249 115.749 181.372 115.72 181.478 115.661C181.585 115.602 181.669 115.53 181.731 115.445C181.795 115.36 181.829 115.277 181.834 115.197L182.028 115.416C182.017 115.484 181.986 115.56 181.935 115.644C181.884 115.727 181.816 115.807 181.731 115.884C181.648 115.96 181.548 116.023 181.432 116.073C181.317 116.122 181.188 116.147 181.044 116.147C180.864 116.147 180.706 116.112 180.57 116.041C180.436 115.971 180.332 115.877 180.256 115.759C180.183 115.64 180.146 115.506 180.146 115.359C180.146 115.217 180.174 115.092 180.229 114.984C180.285 114.874 180.365 114.783 180.47 114.711C180.574 114.638 180.7 114.582 180.848 114.544C180.995 114.507 181.159 114.488 181.341 114.488H181.869ZM184.07 113.443V113.791H182.634V113.443H184.07ZM183.12 112.797H183.574V115.44C183.574 115.53 183.588 115.598 183.616 115.644C183.644 115.69 183.68 115.72 183.724 115.735C183.768 115.749 183.815 115.757 183.866 115.757C183.904 115.757 183.943 115.753 183.984 115.747C184.027 115.739 184.058 115.732 184.08 115.727L184.082 116.098C184.046 116.109 183.999 116.12 183.94 116.13C183.883 116.141 183.813 116.147 183.731 116.147C183.62 116.147 183.518 116.125 183.424 116.081C183.331 116.036 183.257 115.963 183.201 115.86C183.147 115.755 183.12 115.614 183.12 115.438V112.797ZM185.704 116.147C185.519 116.147 185.352 116.116 185.201 116.054C185.052 115.99 184.924 115.901 184.816 115.786C184.71 115.672 184.628 115.536 184.57 115.379C184.513 115.222 184.485 115.05 184.485 114.863V114.76C184.485 114.544 184.517 114.352 184.58 114.184C184.644 114.014 184.731 113.87 184.84 113.752C184.95 113.634 185.074 113.545 185.213 113.484C185.353 113.424 185.496 113.393 185.645 113.393C185.835 113.393 185.999 113.426 186.136 113.492C186.275 113.557 186.389 113.649 186.477 113.766C186.566 113.883 186.631 114.02 186.674 114.179C186.716 114.336 186.737 114.508 186.737 114.694V114.898H184.755V114.527H186.283V114.493C186.277 114.375 186.252 114.261 186.21 114.149C186.169 114.038 186.103 113.946 186.013 113.874C185.923 113.802 185.801 113.766 185.645 113.766C185.542 113.766 185.447 113.789 185.361 113.833C185.274 113.875 185.2 113.939 185.137 114.024C185.075 114.109 185.027 114.213 184.993 114.336C184.958 114.459 184.941 114.6 184.941 114.76V114.863C184.941 114.989 184.958 115.108 184.993 115.219C185.029 115.329 185.08 115.425 185.147 115.509C185.216 115.592 185.299 115.658 185.395 115.705C185.493 115.753 185.604 115.776 185.729 115.776C185.889 115.776 186.025 115.744 186.136 115.678C186.247 115.613 186.345 115.525 186.428 115.416L186.703 115.634C186.646 115.721 186.573 115.803 186.485 115.882C186.396 115.96 186.288 116.024 186.158 116.073C186.031 116.122 185.879 116.147 185.704 116.147Z" fill="#808080"/>
<path d="M164.295 136.113C164.295 136.03 164.282 135.956 164.256 135.892C164.232 135.827 164.187 135.768 164.124 135.716C164.061 135.663 163.975 135.614 163.863 135.566C163.754 135.519 163.615 135.47 163.446 135.421C163.27 135.369 163.11 135.311 162.968 135.247C162.825 135.182 162.704 135.107 162.602 135.024C162.501 134.94 162.423 134.845 162.369 134.737C162.315 134.629 162.288 134.505 162.288 134.366C162.288 134.227 162.317 134.099 162.374 133.981C162.431 133.863 162.513 133.761 162.619 133.674C162.727 133.586 162.856 133.517 163.005 133.468C163.153 133.419 163.32 133.394 163.503 133.394C163.771 133.394 163.998 133.446 164.185 133.549C164.373 133.65 164.516 133.784 164.614 133.949C164.713 134.112 164.762 134.288 164.762 134.474H164.29C164.29 134.34 164.262 134.221 164.205 134.118C164.147 134.013 164.061 133.932 163.944 133.873C163.828 133.812 163.681 133.782 163.503 133.782C163.334 133.782 163.195 133.807 163.086 133.858C162.976 133.909 162.894 133.977 162.84 134.064C162.788 134.151 162.762 134.25 162.762 134.361C162.762 134.436 162.777 134.505 162.808 134.567C162.841 134.628 162.891 134.684 162.958 134.737C163.027 134.789 163.113 134.837 163.218 134.881C163.324 134.926 163.451 134.968 163.598 135.009C163.801 135.066 163.976 135.13 164.124 135.2C164.271 135.271 164.392 135.35 164.487 135.438C164.583 135.525 164.655 135.624 164.7 135.735C164.748 135.845 164.771 135.969 164.771 136.108C164.771 136.254 164.742 136.386 164.683 136.504C164.624 136.621 164.54 136.722 164.43 136.805C164.321 136.889 164.189 136.953 164.035 136.999C163.883 137.043 163.713 137.065 163.525 137.065C163.36 137.065 163.197 137.043 163.036 136.997C162.878 136.951 162.733 136.882 162.602 136.791C162.473 136.699 162.369 136.586 162.29 136.452C162.214 136.316 162.175 136.159 162.175 135.981H162.646C162.646 136.104 162.67 136.209 162.717 136.297C162.765 136.384 162.83 136.456 162.911 136.513C162.995 136.571 163.089 136.613 163.194 136.641C163.3 136.667 163.41 136.68 163.525 136.68C163.69 136.68 163.83 136.657 163.944 136.611C164.059 136.566 164.146 136.5 164.205 136.415C164.265 136.33 164.295 136.229 164.295 136.113ZM166.408 137.065C166.223 137.065 166.056 137.034 165.905 136.972C165.756 136.908 165.628 136.819 165.52 136.705C165.414 136.59 165.332 136.454 165.275 136.297C165.217 136.14 165.189 135.969 165.189 135.782V135.679C165.189 135.463 165.221 135.271 165.284 135.102C165.348 134.932 165.435 134.788 165.545 134.67C165.654 134.553 165.778 134.463 165.918 134.403C166.057 134.342 166.201 134.312 166.349 134.312C166.539 134.312 166.703 134.345 166.84 134.41C166.979 134.476 167.093 134.567 167.181 134.685C167.27 134.801 167.335 134.939 167.378 135.097C167.42 135.254 167.441 135.426 167.441 135.613V135.816H165.459V135.446H166.987V135.411C166.981 135.294 166.956 135.179 166.914 135.068C166.873 134.957 166.808 134.865 166.718 134.793C166.628 134.721 166.505 134.685 166.349 134.685C166.246 134.685 166.151 134.707 166.065 134.751C165.978 134.794 165.904 134.858 165.841 134.943C165.779 135.028 165.731 135.132 165.697 135.254C165.662 135.377 165.645 135.519 165.645 135.679V135.782C165.645 135.908 165.662 136.027 165.697 136.138C165.733 136.247 165.784 136.344 165.851 136.427C165.92 136.511 166.003 136.576 166.099 136.624C166.197 136.671 166.309 136.695 166.433 136.695C166.593 136.695 166.729 136.662 166.84 136.597C166.951 136.531 167.049 136.444 167.132 136.334L167.407 136.553C167.35 136.639 167.277 136.722 167.189 136.8C167.1 136.879 166.992 136.943 166.862 136.992C166.735 137.041 166.583 137.065 166.408 137.065ZM168.465 133.247V137.016H168.008V133.247H168.465ZM170.296 137.065C170.111 137.065 169.943 137.034 169.792 136.972C169.644 136.908 169.515 136.819 169.407 136.705C169.301 136.59 169.219 136.454 169.162 136.297C169.105 136.14 169.076 135.969 169.076 135.782V135.679C169.076 135.463 169.108 135.271 169.172 135.102C169.235 134.932 169.322 134.788 169.432 134.67C169.541 134.553 169.666 134.463 169.805 134.403C169.944 134.342 170.088 134.312 170.237 134.312C170.426 134.312 170.59 134.345 170.727 134.41C170.867 134.476 170.98 134.567 171.069 134.685C171.157 134.801 171.222 134.939 171.265 135.097C171.307 135.254 171.329 135.426 171.329 135.613V135.816H169.346V135.446H170.875V135.411C170.868 135.294 170.844 135.179 170.801 135.068C170.76 134.957 170.695 134.865 170.605 134.793C170.515 134.721 170.392 134.685 170.237 134.685C170.134 134.685 170.039 134.707 169.952 134.751C169.865 134.794 169.791 134.858 169.729 134.943C169.666 135.028 169.618 135.132 169.584 135.254C169.55 135.377 169.532 135.519 169.532 135.679V135.782C169.532 135.908 169.55 136.027 169.584 136.138C169.62 136.247 169.671 136.344 169.738 136.427C169.807 136.511 169.89 136.576 169.986 136.624C170.085 136.671 170.196 136.695 170.32 136.695C170.48 136.695 170.616 136.662 170.727 136.597C170.839 136.531 170.936 136.444 171.019 136.334L171.294 136.553C171.237 136.639 171.164 136.722 171.076 136.8C170.988 136.879 170.879 136.943 170.75 136.992C170.622 137.041 170.471 137.065 170.296 137.065ZM172.921 136.692C173.029 136.692 173.129 136.67 173.221 136.626C173.312 136.582 173.388 136.522 173.447 136.445C173.505 136.366 173.539 136.277 173.547 136.177H173.979C173.971 136.334 173.918 136.481 173.82 136.616C173.723 136.751 173.596 136.859 173.439 136.943C173.282 137.025 173.11 137.065 172.921 137.065C172.722 137.065 172.548 137.03 172.399 136.96C172.251 136.89 172.129 136.793 172.031 136.67C171.934 136.548 171.861 136.407 171.812 136.248C171.765 136.088 171.741 135.919 171.741 135.74V135.637C171.741 135.459 171.765 135.29 171.812 135.132C171.861 134.971 171.934 134.83 172.031 134.707C172.129 134.584 172.251 134.488 172.399 134.418C172.548 134.347 172.722 134.312 172.921 134.312C173.129 134.312 173.311 134.355 173.466 134.44C173.622 134.523 173.743 134.638 173.832 134.783C173.922 134.927 173.971 135.091 173.979 135.274H173.547C173.539 135.164 173.508 135.065 173.454 134.977C173.402 134.889 173.33 134.818 173.238 134.766C173.148 134.712 173.042 134.685 172.921 134.685C172.782 134.685 172.665 134.713 172.57 134.769C172.477 134.822 172.403 134.896 172.347 134.989C172.293 135.081 172.254 135.183 172.229 135.296C172.206 135.407 172.195 135.521 172.195 135.637V135.74C172.195 135.856 172.206 135.971 172.229 136.084C172.252 136.197 172.291 136.299 172.345 136.391C172.4 136.482 172.475 136.556 172.568 136.611C172.663 136.665 172.781 136.692 172.921 136.692ZM175.601 134.361V134.71H174.166V134.361H175.601ZM174.651 133.716H175.105V136.359C175.105 136.449 175.119 136.517 175.147 136.562C175.175 136.608 175.211 136.638 175.255 136.653C175.299 136.668 175.347 136.675 175.398 136.675C175.435 136.675 175.474 136.672 175.515 136.665C175.558 136.657 175.59 136.651 175.611 136.646L175.613 137.016C175.577 137.028 175.53 137.039 175.471 137.048C175.414 137.06 175.344 137.065 175.263 137.065C175.151 137.065 175.049 137.043 174.956 136.999C174.863 136.955 174.788 136.881 174.732 136.778C174.678 136.674 174.651 136.533 174.651 136.356V133.716ZM178.671 133.443V137.016H178.205V133.443H178.671ZM179.82 133.443V133.831H177.059V133.443H179.82ZM180.774 134.361V137.016H180.318V134.361H180.774ZM180.284 133.657C180.284 133.583 180.306 133.521 180.35 133.47C180.396 133.42 180.463 133.394 180.551 133.394C180.638 133.394 180.704 133.42 180.75 133.47C180.797 133.521 180.821 133.583 180.821 133.657C180.821 133.727 180.797 133.788 180.75 133.838C180.704 133.888 180.638 133.912 180.551 133.912C180.463 133.912 180.396 133.888 180.35 133.838C180.306 133.788 180.284 133.727 180.284 133.657ZM181.955 134.889V137.016H181.498V134.361H181.93L181.955 134.889ZM181.861 135.588L181.65 135.581C181.652 135.399 181.676 135.232 181.722 135.078C181.767 134.922 181.835 134.787 181.925 134.673C182.015 134.558 182.127 134.47 182.262 134.408C182.396 134.344 182.551 134.312 182.728 134.312C182.852 134.312 182.967 134.33 183.071 134.366C183.176 134.4 183.267 134.455 183.344 134.53C183.421 134.606 183.48 134.702 183.523 134.82C183.565 134.938 183.587 135.08 183.587 135.247V137.016H183.133V135.269C183.133 135.13 183.109 135.019 183.062 134.935C183.016 134.852 182.95 134.791 182.865 134.754C182.78 134.715 182.68 134.695 182.566 134.695C182.432 134.695 182.32 134.719 182.23 134.766C182.14 134.813 182.068 134.879 182.014 134.962C181.96 135.046 181.92 135.142 181.896 135.25C181.873 135.356 181.861 135.469 181.861 135.588ZM183.582 135.338L183.277 135.431C183.279 135.285 183.303 135.146 183.349 135.011C183.396 134.877 183.464 134.758 183.552 134.653C183.642 134.548 183.753 134.466 183.884 134.405C184.015 134.343 184.164 134.312 184.333 134.312C184.475 134.312 184.601 134.331 184.711 134.368C184.822 134.406 184.915 134.464 184.99 134.543C185.067 134.62 185.125 134.719 185.165 134.84C185.204 134.961 185.224 135.105 185.224 135.272V137.016H184.767V135.267C184.767 135.118 184.743 135.002 184.696 134.921C184.65 134.837 184.585 134.779 184.5 134.746C184.416 134.712 184.316 134.695 184.2 134.695C184.1 134.695 184.012 134.712 183.935 134.746C183.858 134.781 183.794 134.828 183.741 134.889C183.689 134.948 183.649 135.016 183.621 135.092C183.595 135.169 183.582 135.251 183.582 135.338ZM187.013 137.065C186.828 137.065 186.66 137.034 186.509 136.972C186.361 136.908 186.232 136.819 186.124 136.705C186.018 136.59 185.936 136.454 185.879 136.297C185.822 136.14 185.793 135.969 185.793 135.782V135.679C185.793 135.463 185.825 135.271 185.889 135.102C185.952 134.932 186.039 134.788 186.149 134.67C186.258 134.553 186.383 134.463 186.522 134.403C186.661 134.342 186.805 134.312 186.954 134.312C187.143 134.312 187.307 134.345 187.444 134.41C187.584 134.476 187.697 134.567 187.786 134.685C187.874 134.801 187.939 134.939 187.982 135.097C188.024 135.254 188.046 135.426 188.046 135.613V135.816H186.063V135.446H187.592V135.411C187.585 135.294 187.561 135.179 187.518 135.068C187.477 134.957 187.412 134.865 187.322 134.793C187.232 134.721 187.109 134.685 186.954 134.685C186.851 134.685 186.756 134.707 186.669 134.751C186.582 134.794 186.508 134.858 186.446 134.943C186.383 135.028 186.335 135.132 186.301 135.254C186.267 135.377 186.249 135.519 186.249 135.679V135.782C186.249 135.908 186.267 136.027 186.301 136.138C186.337 136.247 186.388 136.344 186.455 136.427C186.524 136.511 186.607 136.576 186.703 136.624C186.802 136.671 186.913 136.695 187.037 136.695C187.197 136.695 187.333 136.662 187.444 136.597C187.556 136.531 187.653 136.444 187.736 136.334L188.011 136.553C187.954 136.639 187.881 136.722 187.793 136.8C187.705 136.879 187.596 136.943 187.467 136.992C187.339 137.041 187.188 137.065 187.013 137.065Z" fill="#808080"/>
<path d="M192.241 227.734H217.367" stroke="black" stroke-width="1.45813" stroke-linecap="round"/>
</g>
<defs>
<filter id="filter0_d_1948_3372" x="163.448" y="160.763" width="82.9274" height="17.5906" filterUnits="userSpaceOnUse" color-interpolation-filters="sRGB">
<feFlood flood-opacity="0" result="BackgroundImageFix"/>
<feColorMatrix in="SourceAlpha" type="matrix" values="0 0 0 0 0 0 0 0 0 0 0 0 0 0 0 0 0 0 127 0" result="hardAlpha"/>
<feOffset dy="0.314119"/>
<feGaussianBlur stdDeviation="0.628237"/>
<feComposite in2="hardAlpha" operator="out"/>
<feColorMatrix type="matrix" values="0 0 0 0 0 0 0 0 0 0 0 0 0 0 0 0 0 0 0.25 0"/>
<feBlend mode="normal" in2="BackgroundImageFix" result="effect1_dropShadow_1948_3372"/>
<feBlend mode="normal" in="SourceGraphic" in2="effect1_dropShadow_1948_3372" result="shape"/>
</filter>
<clipPath id="clip0_1948_3372">
<rect width="430" height="283" fill="white"/>
</clipPath>
</defs>
</svg>
