<svg width="290" height="200" viewBox="0 0 290 200" fill="none" xmlns="http://www.w3.org/2000/svg">
<path d="M101.947 38.7307L79.7419 150.308L0.5 181.244L58.413 61.5744L101.947 38.7307Z" fill="white"/>
<path d="M201.952 38.7026L208.704 152.078L155.424 194.675L155.142 59.5794L201.952 38.7026Z" fill="white"/>
<path d="M155.424 194.675L155.396 194.703L79.7419 150.308L101.947 38.7307L101.975 38.7026L155.142 59.5794L155.424 194.675Z" fill="#EDEDED"/>
<path d="M251.814 61.6306L289.5 180.766L208.704 152.078L201.952 38.7026L251.814 61.6306Z" fill="#EDEDED"/>
<path d="M79.8549 146.346L6.03705 175.765L61.0968 63.0074L101.862 42.243L79.8549 146.346Z" fill="#61BC61"/>
<path d="M79.8549 146.346L155.396 191.078L155.227 63.0074L101.862 42.243L79.8549 146.346Z" fill="#228B22"/>
<path d="M208.761 148.285L285.573 176.523L248.989 63.0074L201.924 42.2149L208.761 148.285Z" fill="#228B22"/>
<path d="M208.761 148.285L155.396 191.078L155.227 63.0074L201.924 42.2149L208.761 148.285Z" fill="#61BC61"/>
<path d="M178.781 169.269C171.987 160.816 172.911 148.706 163.306 141.204C153.701 133.702 141.412 130.274 129.208 129.262C117.004 128.251 104.8 129.515 92.624 130.443C84.4597 131.061 74.9676 131.004 69.7131 124.739C64.9388 119.035 66.0406 110.015 70.7584 104.283C75.4762 98.5513 82.9625 95.7134 90.3358 94.6738C97.7091 93.6342 105.195 94.2242 112.653 94.0557C137.655 93.4937 162.346 84.2214 181.471 68.2055C188.082 62.6702 194.494 54.9714 192.997 46.5139" stroke="#EBFFEB" stroke-width="5" stroke-miterlimit="10" stroke-linecap="square"/>
<ellipse cx="180.561" cy="171.884" rx="8.23567" ry="2.82031" fill="#808080" fill-opacity="0.25"/>
<path d="M189.9 157.698C189.9 165.389 181.136 172.512 181.136 172.512C180.624 172.929 179.786 172.929 179.274 172.512C179.274 172.512 170.51 165.389 170.51 157.698C170.51 152.393 174.851 148.093 180.205 148.093C185.56 148.093 189.9 152.393 189.9 157.698Z" fill="#EE3840"/>
<path d="M180.205 162.531C177.516 162.531 175.328 160.363 175.328 157.698C175.328 155.034 177.516 152.866 180.205 152.866C182.895 152.866 185.083 155.033 185.083 157.698C185.083 160.363 182.895 162.531 180.205 162.531Z" fill="#FFE1D6"/>
<ellipse cx="194.831" cy="45.5732" rx="8.23567" ry="2.82031" fill="#808080" fill-opacity="0.25"/>
<path d="M204.171 31.3875C204.171 39.0787 195.407 46.2018 195.407 46.2018C194.895 46.6181 194.057 46.6181 193.545 46.2018C193.545 46.2018 184.78 39.0787 184.78 31.3875C184.781 26.0826 189.121 21.7823 194.476 21.7823C199.83 21.7823 204.171 26.0826 204.171 31.3875Z" fill="#EE3840"/>
<path d="M194.476 36.2199C191.786 36.2199 189.598 34.0521 189.598 31.3875C189.598 28.7229 191.786 26.555 194.476 26.555C197.165 26.555 199.353 28.7229 199.353 31.3874C199.353 34.052 197.165 36.2199 194.476 36.2199Z" fill="#FFE1D6"/>
<ellipse cx="143.029" cy="89.7026" rx="3.21589" ry="0.651489" fill="#AEAEAE" fill-opacity="0.25"/>
<path d="M143.029 77.2888V89.2888" stroke="#556080" stroke-width="0.551724" stroke-miterlimit="10" stroke-linecap="round"/>
<path d="M143.029 77.2888C146.259 77.2888 148.877 74.6952 148.877 71.4957C148.877 68.2963 146.259 65.7026 143.029 65.7026C139.8 65.7026 137.182 68.2963 137.182 71.4957C137.182 74.6952 139.8 77.2888 143.029 77.2888Z" fill="#DD352E"/>
<path d="M140.941 71.0819C141.633 71.0819 142.194 70.5262 142.194 69.8406C142.194 69.155 141.633 68.5992 140.941 68.5992C140.249 68.5992 139.688 69.155 139.688 69.8406C139.688 70.5262 140.249 71.0819 140.941 71.0819Z" fill="#F76363"/>
<ellipse cx="67.6292" cy="121.734" rx="3.21589" ry="0.651489" fill="#AEAEAE" fill-opacity="0.25"/>
<path d="M67.6292 109.321V121.321" stroke="#556080" stroke-width="0.551724" stroke-miterlimit="10" stroke-linecap="round"/>
<path d="M67.6292 109.321C70.8587 109.321 73.4766 106.727 73.4766 103.527C73.4766 100.328 70.8587 97.7344 67.6292 97.7344C64.3998 97.7344 61.7819 100.328 61.7819 103.527C61.7819 106.727 64.3998 109.321 67.6292 109.321Z" fill="#DD352E"/>
<path d="M65.5409 103.114C66.2329 103.114 66.7939 102.558 66.7939 101.872C66.7939 101.187 66.2329 100.631 65.5409 100.631C64.8489 100.631 64.2879 101.187 64.2879 101.872C64.2879 102.558 64.8489 103.114 65.5409 103.114Z" fill="#F76363"/>
</svg>
