<svg width="430" height="504" viewBox="0 0 430 504" fill="none" xmlns="http://www.w3.org/2000/svg">
<path opacity="0.7" d="M320.798 467.989C302.35 480.07 282.008 487.712 260.752 493.19C142.747 523.6 1.86548 487.787 9.02529 340.295C11.5288 288.723 33.3844 240.903 29.2986 188.808C25.6135 141.823 -20.2084 99.0156 -27.0161 48.444C-30.7927 20.3896 -24.8998 -63.9223 11.9818 -57.2165C41.2181 -51.9008 56.0714 -38.5445 89.2738 -40.4629C140.89 -43.4452 186.982 -53.867 225.626 -87.5561C290.841 -144.41 392.206 -139.838 411.887 -50.8811C416.217 -31.3075 422.412 -15.4809 433.638 1.56197C471.244 58.6545 542.423 79.6775 577.663 135.943C641.294 237.538 595.236 394.949 455.038 365.496C402.649 354.49 361.318 441.451 320.798 467.989Z" fill="#F5F5F5"/>
</svg>
