<svg width="339" height="147" viewBox="0 0 339 147" fill="none" xmlns="http://www.w3.org/2000/svg">
<path d="M61.1961 3.84261V121.096H10.7141V3.84261C10.7141 1.73224 12.9255 0.012207 15.6739 0.012207H56.2521C58.9847 0.012207 61.2119 1.72004 61.2119 3.84261H61.1961Z" fill="#0EAD0E"/>
<path d="M35.9393 23.8182C37.7014 23.8182 39.1299 22.3877 39.1299 20.623C39.1299 18.8584 37.7014 17.4279 35.9393 17.4279C34.1771 17.4279 32.7486 18.8584 32.7486 20.623C32.7486 22.3877 34.1771 23.8182 35.9393 23.8182Z" fill="#E8E8E8"/>
<path d="M35.9392 64.7226C38.2422 64.7226 40.1091 62.853 40.1091 60.5468C40.1091 58.2405 38.2422 56.371 35.9392 56.371C33.6362 56.371 31.7692 58.2405 31.7692 60.5468C31.7692 62.853 33.6362 64.7226 35.9392 64.7226Z" fill="#E8E8E8"/>
<path d="M35.9393 41.5499C39.6556 41.5499 42.6682 38.5331 42.6682 34.8116C42.6682 31.0902 39.6556 28.0733 35.9393 28.0733C32.2231 28.0733 29.2105 31.0902 29.2105 34.8116C29.2105 38.5331 32.2231 41.5499 35.9393 41.5499Z" fill="#F5F5F5" stroke="black" stroke-width="1.45824" stroke-miterlimit="10" stroke-linecap="round"/>
<path opacity="0.2" d="M61.1959 3.68413V121.084H18.0745L28.5627 119.913C41.6412 118.461 51.3396 109.788 51.2922 99.5901L50.8499 0.000106812H56.4415C59.0793 0.000106812 61.2117 1.64695 61.2117 3.68413H61.1959Z" fill="black"/>
<path d="M67.6402 19.4367H61.1483V21.0976H67.6402V19.4367Z" fill="#8B8B8B"/>
<path d="M67.8142 23.0907C69.3757 23.0907 70.6416 21.823 70.6416 20.2593C70.6416 18.6956 69.3757 17.4279 67.8142 17.4279C66.2527 17.4279 64.9868 18.6956 64.9868 20.2593C64.9868 21.823 66.2527 23.0907 67.8142 23.0907Z" fill="#8B8B8B"/>
<path d="M69.6781 118.898H2.20036V128.325H69.6781V118.898Z" fill="black"/>
<path d="M16.5424 93.4156L16.5424 17.4279" stroke="#E8E8E8" stroke-width="0.729119" stroke-miterlimit="10"/>
<path d="M338.061 110.563C328.795 95.3948 277.022 93.1343 277.022 93.1343C277.022 93.1343 239.498 66.985 191.237 69.3641C139.36 73.5502 98.2121 88.1528 98.2121 88.1528L92.3319 114.867C91.2033 126.184 102.051 127.768 102.051 127.768L119.002 132.065L120.284 132.1C119.671 130.119 119.343 128.019 119.343 125.842C119.343 114.156 128.805 104.674 140.481 104.674C152.158 104.674 161.62 114.149 161.62 125.842C161.62 128.416 161.16 130.886 160.317 133.175L161.278 133.203H278.06C277.099 130.747 276.569 128.075 276.569 125.277C276.569 113.277 286.289 103.544 298.272 103.544C310.255 103.544 319.974 113.277 319.974 125.277C319.974 128.095 319.431 130.782 318.456 133.258C341.837 135.77 338.054 110.563 338.054 110.563H338.061Z" fill="#F1A520"/>
<path d="M163.32 95.618L215.761 99.0158" stroke="#E8E8E8" stroke-width="0.692663" stroke-miterlimit="10"/>
<path d="M244.696 101.053L268.885 102.637" stroke="#E8E8E8" stroke-width="0.692663" stroke-miterlimit="10"/>
<path d="M170.329 129.805H182.758" stroke="#E8E8E8" stroke-width="0.692663" stroke-miterlimit="10"/>
<path d="M195.194 130.258H273.86C273.86 130.258 271.602 115.544 281.544 106.265" stroke="#E8E8E8" stroke-width="0.692663" stroke-miterlimit="10"/>
<path d="M312.29 102.414C312.29 102.414 329.471 101.737 336.703 110.563C336.703 110.563 321.333 113.277 312.29 102.414Z" fill="#FFCE00"/>
<path d="M298.273 142.67C288.693 142.67 280.904 134.863 280.904 125.27C280.904 115.676 288.7 107.876 298.273 107.876C307.845 107.876 315.649 115.683 315.649 125.27C315.649 134.856 307.852 142.67 298.273 142.67Z" fill="white"/>
<path d="M298.273 109.495C306.96 109.495 314.025 116.569 314.025 125.27C314.025 133.97 306.96 141.044 298.273 141.044C289.585 141.044 282.52 133.97 282.52 125.27C282.52 116.569 289.585 109.495 298.273 109.495ZM298.273 106.258C287.787 106.258 279.28 114.769 279.28 125.277C279.28 135.784 287.78 144.296 298.273 144.296C308.765 144.296 317.265 135.784 317.265 125.277C317.265 114.769 308.765 106.258 298.273 106.258Z" fill="black"/>
<path d="M298.273 112.586C305.261 112.586 310.946 118.279 310.946 125.277C310.946 132.274 305.261 137.968 298.273 137.968C291.285 137.968 285.6 132.274 285.6 125.277C285.6 118.279 291.285 112.586 298.273 112.586ZM298.273 111.923C290.908 111.923 284.938 117.902 284.938 125.277C284.938 132.651 290.908 138.63 298.273 138.63C305.637 138.63 311.608 132.651 311.608 125.277C311.608 117.902 305.637 111.923 298.273 111.923Z" fill="black"/>
<path d="M140.489 142.74C131.181 142.74 123.607 135.156 123.607 125.842C123.607 116.528 131.181 108.937 140.489 108.937C149.797 108.937 157.363 116.521 157.363 125.842C157.363 135.163 149.79 142.74 140.489 142.74Z" fill="white"/>
<path d="M140.489 110.556C148.905 110.556 155.747 117.414 155.747 125.835C155.747 134.256 148.898 141.115 140.489 141.115C132.079 141.115 125.231 134.256 125.231 125.835C125.231 117.414 132.079 110.556 140.489 110.556ZM140.489 107.318C130.275 107.318 121.991 115.607 121.991 125.842C121.991 136.077 130.268 144.366 140.489 144.366C150.709 144.366 158.986 136.077 158.986 125.842C158.986 115.607 150.709 107.318 140.489 107.318Z" fill="black"/>
<path d="M140.489 113.479C147.296 113.479 152.834 119.025 152.834 125.842C152.834 132.658 147.296 138.205 140.489 138.205C133.682 138.205 128.143 132.658 128.143 125.842C128.143 119.025 133.682 113.479 140.489 113.479ZM140.489 112.83C133.313 112.83 127.502 118.656 127.502 125.842C127.502 133.028 133.32 138.847 140.489 138.847C147.658 138.847 153.482 133.021 153.482 125.842C153.482 118.663 147.665 112.83 140.489 112.83Z" fill="black"/>
<path d="M138.454 82.0339C138.454 82.0339 177.79 71.1708 201.074 74.1081C224.358 77.0524 244.479 83.6176 255.557 93.8039C255.557 93.8039 219.391 95.6179 178.926 91.3131C138.461 87.0154 138.461 82.0339 138.461 82.0339H138.454Z" fill="black"/>
<path d="M209.658 70.9478C209.658 70.9478 229.549 75.699 251.481 85.662C273.414 95.625 275.671 92.4506 275.671 92.4506C275.671 92.4506 242.668 74.5688 209.665 70.9478H209.658Z" fill="black"/>
<path opacity="0.2" d="M166.824 123.693L262.448 130.823L192.596 119.96C192.596 119.96 180.731 118.942 181.748 123.016L166.831 123.693H166.824Z" fill="black"/>
<path opacity="0.2" d="M92.3322 114.86L111.889 119.612C111.889 119.612 94.2552 116.556 92.8966 121.649L92.3322 114.86Z" fill="black"/>
<path opacity="0.2" d="M98.2124 88.1458C98.2124 88.1458 101.375 90.4063 116.633 90.0714C131.891 89.7296 140.37 88.7109 140.37 88.7109C140.37 88.7109 109.854 90.4063 107.479 85.3132L98.2124 88.1458Z" fill="black"/>
<path opacity="0.2" d="M166.483 97.2018L277.023 103.99C277.023 103.99 280.416 101.611 282.109 100.934L278.381 107.046L166.483 97.2018Z" fill="black"/>
<path opacity="0.2" d="M323.82 116.563C323.82 116.563 329.582 121.656 336.702 120.637C336.702 120.637 323.479 126.072 323.82 116.563Z" fill="black"/>
<path d="M105.597 93.839C108.586 93.9856 111.645 94.9344 113.784 97.0275C114.418 97.6484 114.975 98.388 115.17 99.2531C115.365 100.118 115.135 101.116 114.432 101.66C113.819 102.135 112.99 102.176 112.216 102.197C106.482 102.344 100.734 102.288 95.0075 102.023C95.1329 102.023 95.746 98.981 95.8157 98.681C96.0735 97.6205 96.2825 96.5391 96.589 95.4995C96.8329 94.6763 97.5435 94.6832 98.296 94.5437C99.4316 94.3274 100.574 94.1321 101.731 93.9995C103.013 93.853 104.309 93.7762 105.604 93.839H105.597Z" fill="#AA0000"/>
<path d="M124.437 99.4624C126.807 99.4624 128.728 97.5382 128.728 95.1646C128.728 92.791 126.807 90.8669 124.437 90.8669C122.066 90.8669 120.145 92.791 120.145 95.1646C120.145 97.5382 122.066 99.4624 124.437 99.4624Z" fill="#FDFFFE"/>
<path d="M35.7643 35.0808C44.229 54.1167 37.3247 82.8504 14 105C10.2564 108.561 3.5 109.5 1 116.5C-5.02096 140.201 34.1398 144.727 55 137.5C85.0112 124.473 64.8747 93.4203 118.065 95.2114" stroke="#E8E8E8" stroke-width="0.729119" stroke-miterlimit="10" stroke-linecap="round"/>
<path d="M35.5564 37.278C36.929 37.278 38.0417 36.1637 38.0417 34.7892C38.0417 33.4146 36.929 32.3003 35.5564 32.3003C34.1838 32.3003 33.0711 33.4146 33.0711 34.7892C33.0711 36.1637 34.1838 37.278 35.5564 37.278Z" fill="black"/>
<path d="M124.848 92.5962C123.769 92.342 122.792 92.7551 122.183 93.4924H117.905C116.991 93.4924 116.255 94.2296 116.255 95.1449C116.255 96.0601 116.991 96.7974 117.905 96.7974H122.151C122.633 97.4076 123.376 97.808 124.214 97.808C125.87 97.808 127.171 96.2762 126.784 94.5474C126.568 93.5941 125.8 92.8187 124.848 92.5962Z" fill="black"/>
</svg>
