<svg width="345" height="200" viewBox="0 0 345 200" fill="none" xmlns="http://www.w3.org/2000/svg">
<path d="M331.192 165.107L195.038 165.107L188.894 171.716C187.301 173.428 184.591 173.428 182.998 171.716L176.854 165.107H169.807C162.4 165.107 156.397 159.1 156.397 151.691L156.397 124.797C156.397 117.387 162.402 111.38 169.807 111.38L331.191 111.38C338.599 111.38 344.602 117.387 344.602 124.796L344.602 151.69C344.602 159.1 338.597 165.107 331.192 165.107Z" fill="#DAE2F1"/>
<path d="M13.8716 89.4476L131.296 89.4482L137.652 96.2844C139.299 98.0548 142.103 98.0548 143.75 96.2844L150.105 89.4482H157.394C165.056 89.4482 171.266 83.2339 171.266 75.5701V49.8786C171.266 42.2133 165.054 36.0006 157.394 36.0006L13.8716 36C6.20985 36 1.52588e-05 42.2143 1.52588e-05 49.878V75.5696C1.52588e-05 83.2349 6.2114 89.4476 13.8716 89.4476Z" fill="#54B230"/>
<rect x="17.9239" y="52.8557" width="132.914" height="6.48359" rx="1.6209" fill="#8FD78F"/>
<rect x="17.9239" y="67.4438" width="61.5941" height="6.48359" rx="1.6209" fill="#8FD78F"/>
<rect x="170.823" y="122.49" width="161.404" height="7.3128" rx="1.56703" fill="#ACBFE6"/>
<rect x="170.824" y="132.937" width="150.435" height="7.3128" rx="1.56703" fill="#ACBFE6"/>
<rect x="170.824" y="143.384" width="108.125" height="7.3128" rx="1.56703" fill="#ACBFE6"/>
<path d="M81.7852 130.851C82.2813 129.324 84.4414 129.324 84.9375 130.851L85.9891 134.087C86.211 134.77 86.8473 135.232 87.5653 135.232H90.9681C92.5736 135.232 93.2411 137.287 91.9423 138.231L89.1893 140.231C88.6084 140.653 88.3654 141.401 88.5872 142.084L89.6388 145.32C90.1349 146.847 88.3873 148.117 87.0885 147.173L84.3355 145.173C83.7546 144.751 82.9681 144.751 82.3872 145.173L79.6342 147.173C78.3354 148.117 76.5878 146.847 77.0839 145.32L78.1355 142.084C78.3573 141.401 78.1143 140.653 77.5334 140.231L74.7804 138.231C73.4816 137.287 74.1491 135.232 75.7546 135.232H79.1574C79.8754 135.232 80.5118 134.77 80.7336 134.087L81.7852 130.851Z" fill="#FFCE00"/>
<path d="M103.536 130.851C104.032 129.324 106.193 129.324 106.689 130.851L107.74 134.087C107.962 134.77 108.598 135.232 109.316 135.232H112.719C114.325 135.232 114.992 137.287 113.693 138.231L110.94 140.231C110.36 140.653 110.117 141.401 110.338 142.084L111.39 145.32C111.886 146.847 110.138 148.117 108.84 147.173L106.087 145.173C105.506 144.751 104.719 144.751 104.138 145.173L101.385 147.173C100.087 148.117 98.339 146.847 98.8351 145.32L99.8866 142.084C100.109 141.401 99.8654 140.653 99.2846 140.231L96.5316 138.231C95.2328 137.287 95.9003 135.232 97.5057 135.232H100.909C101.627 135.232 102.263 134.77 102.485 134.087L103.536 130.851Z" fill="#FFCE00"/>
<path d="M125.287 130.851C125.784 129.324 127.944 129.324 128.44 130.851L129.491 134.087C129.713 134.77 130.35 135.232 131.068 135.232H134.47C136.076 135.232 136.743 137.287 135.445 138.231L132.692 140.231C132.111 140.653 131.868 141.401 132.09 142.084L133.141 145.32C133.637 146.847 131.89 148.117 130.591 147.173L127.838 145.173C127.257 144.751 126.47 144.751 125.89 145.173L123.137 147.173C121.838 148.117 120.09 146.847 120.586 145.32L121.638 142.084C121.86 141.401 121.617 140.653 121.036 140.231L118.283 138.231C116.984 137.287 117.651 135.232 119.257 135.232H122.66C123.378 135.232 124.014 134.77 124.236 134.087L125.287 130.851Z" fill="#FFCE00"/>
<path d="M200.914 54.6556C201.39 53.1902 203.463 53.1902 203.939 54.6556L204.948 57.7616C205.161 58.4169 205.772 58.8606 206.461 58.8606H209.727C211.268 58.8606 211.908 60.8323 210.662 61.738L208.02 63.6576C207.462 64.0626 207.229 64.7805 207.442 65.4359L208.451 68.5419C208.927 70.0073 207.25 71.2258 206.003 70.3201L203.361 68.4005C202.804 67.9955 202.049 67.9955 201.491 68.4005L198.849 70.3201C197.603 71.2258 195.926 70.0072 196.402 68.5419L197.411 65.4359C197.624 64.7805 197.391 64.0626 196.833 63.6576L194.191 61.738C192.945 60.8323 193.585 58.8606 195.126 58.8606H198.392C199.081 58.8606 199.692 58.4169 199.905 57.7616L200.914 54.6556Z" fill="#FFCE00"/>
<path d="M221.789 54.6556C222.265 53.1902 224.338 53.1902 224.814 54.6556L225.823 57.7616C226.036 58.4169 226.647 58.8606 227.336 58.8606H230.602C232.143 58.8606 232.783 60.8323 231.537 61.738L228.895 63.6576C228.337 64.0626 228.104 64.7805 228.317 65.4359L229.326 68.5419C229.802 70.0073 228.125 71.2258 226.879 70.3201L224.236 68.4005C223.679 67.9955 222.924 67.9955 222.367 68.4005L219.725 70.3201C218.478 71.2258 216.801 70.0072 217.277 68.5419L218.286 65.4359C218.499 64.7805 218.266 64.0626 217.708 63.6576L215.066 61.738C213.82 60.8323 214.46 58.8606 216.001 58.8606H219.267C219.956 58.8606 220.567 58.4169 220.78 57.7616L221.789 54.6556Z" fill="#FFCE00"/>
<path d="M242.664 54.6556C243.14 53.1902 245.213 53.1902 245.689 54.6556L246.699 57.7616C246.912 58.4169 247.522 58.8606 248.211 58.8606H251.477C253.018 58.8606 253.659 60.8323 252.412 61.738L249.77 63.6576C249.212 64.0626 248.979 64.7805 249.192 65.4359L250.201 68.5419C250.677 70.0073 249 71.2258 247.754 70.3201L245.112 68.4005C244.554 67.9955 243.799 67.9955 243.242 68.4005L240.6 70.3201C239.353 71.2258 237.676 70.0072 238.152 68.5419L239.161 65.4359C239.374 64.7805 239.141 64.0626 238.583 63.6576L235.941 61.738C234.695 60.8323 235.335 58.8606 236.876 58.8606H240.142C240.831 58.8606 241.442 58.4169 241.655 57.7616L242.664 54.6556Z" fill="#FFCE00"/>
</svg>
