<svg width="56" height="56" viewBox="0 0 56 56" fill="none" xmlns="http://www.w3.org/2000/svg">
<path d="M36.6625 31.1969L32.275 29.3125C32.1026 29.2384 31.9142 29.209 31.7274 29.2271C31.5406 29.2451 31.3613 29.31 31.2062 29.4157L28.8531 30.9813C28.8019 31.0179 28.7417 31.0398 28.6789 31.0448C28.6161 31.0497 28.5532 31.0375 28.4969 31.0094C26.9771 30.2787 25.7483 29.0565 25.0094 27.5407C24.9815 27.4826 24.9693 27.4183 24.9743 27.3541C24.9792 27.2899 25.001 27.2281 25.0375 27.175L26.5938 24.7938C26.6955 24.6386 26.7574 24.4607 26.7737 24.2759C26.7901 24.091 26.7605 23.905 26.6875 23.7344L24.8031 19.3375C24.7061 19.1141 24.5398 18.9279 24.3288 18.8063C24.1177 18.6848 23.8732 18.6343 23.6313 18.6625C22.4556 18.815 21.3754 19.3899 20.5923 20.2799C19.8092 21.17 19.3765 22.3145 19.375 23.5C19.375 30.7375 25.2625 36.625 32.5 36.625C33.6855 36.6235 34.83 36.1908 35.7201 35.4077C36.6102 34.6246 37.185 33.5445 37.3375 32.3688C37.3657 32.1269 37.3153 31.8823 37.1937 31.6713C37.0722 31.4602 36.8859 31.2939 36.6625 31.1969ZM36.5969 32.275C36.4672 33.2701 35.98 34.184 35.2262 34.8464C34.4724 35.5087 33.5035 35.8744 32.5 35.875C29.2187 35.8726 26.0725 34.568 23.7523 32.2477C21.4321 29.9275 20.1275 26.7813 20.125 23.5C20.1257 22.4966 20.4913 21.5276 21.1537 20.7738C21.816 20.02 22.73 19.5329 23.725 19.4032H23.7719C23.8451 19.4039 23.9165 19.4267 23.9767 19.4685C24.0368 19.5102 24.0831 19.5692 24.1094 19.6375L25.9937 24.025C26.0199 24.0819 26.0311 24.1445 26.0262 24.2068C26.0213 24.2692 26.0004 24.3293 25.9656 24.3813L24.4094 26.7625C24.3033 26.9251 24.2406 27.1122 24.2275 27.3059C24.2144 27.4996 24.2512 27.6934 24.3344 27.8688C25.1509 29.5329 26.5007 30.876 28.1688 31.6844C28.3445 31.7681 28.539 31.8043 28.7331 31.7895C28.9272 31.7747 29.114 31.7094 29.275 31.6L31.6188 30.0344C31.6711 30.0005 31.7311 29.9801 31.7933 29.9752C31.8555 29.9703 31.918 29.981 31.975 30.0063L36.3625 31.8907C36.4379 31.9207 36.5015 31.9745 36.5438 32.0438C36.586 32.1131 36.6047 32.1942 36.5969 32.275ZM30.7375 25.2625C30.7023 25.2285 30.6744 25.1877 30.6553 25.1426C30.6362 25.0975 30.6264 25.049 30.6264 25C30.6264 24.9511 30.6362 24.9026 30.6553 24.8575C30.6744 24.8124 30.7023 24.7716 30.7375 24.7375L34.5906 20.875H31.75C31.6505 20.875 31.5552 20.8355 31.4848 20.7652C31.4145 20.6949 31.375 20.5995 31.375 20.5C31.375 20.4006 31.4145 20.3052 31.4848 20.2349C31.5552 20.1645 31.6505 20.125 31.75 20.125H35.5C35.5995 20.125 35.6948 20.1645 35.7652 20.2349C35.8355 20.3052 35.875 20.4006 35.875 20.5V24.25C35.875 24.3495 35.8355 24.4449 35.7652 24.5152C35.6948 24.5855 35.5995 24.625 35.5 24.625C35.4005 24.625 35.3052 24.5855 35.2348 24.5152C35.1645 24.4449 35.125 24.3495 35.125 24.25V21.4094L31.2625 25.2625C31.2284 25.2977 31.1876 25.3256 31.1425 25.3447C31.0974 25.3638 31.049 25.3737 31 25.3737C30.951 25.3737 30.9026 25.3638 30.8575 25.3447C30.8124 25.3256 30.7716 25.2977 30.7375 25.2625Z" fill="black"/>
<rect x="0.5" y="0.5" width="55" height="55" rx="9.5" stroke="black"/>
</svg>
