<svg width="56" height="56" viewBox="0 0 56 56" fill="none" xmlns="http://www.w3.org/2000/svg">
<path d="M24 25H32M24 28H32M24 31H27M37 28C37.0002 29.6111 36.568 31.1928 35.7483 32.5799C34.9287 33.967 33.7517 35.1086 32.3402 35.8856C30.9288 36.6626 29.3347 37.0464 27.7242 36.9971C26.1138 36.9477 24.5462 36.4669 23.185 35.605L19 37L20.395 32.815C19.6486 31.6355 19.1867 30.2985 19.0459 28.9098C18.9051 27.5211 19.0893 26.1187 19.5838 24.8134C20.0784 23.5081 20.8697 22.3357 21.8954 21.3889C22.9211 20.4421 24.1529 19.7469 25.4935 19.3582C26.8341 18.9694 28.2468 18.8978 29.6198 19.149C30.9929 19.4003 32.2887 19.9674 33.4048 20.8057C34.5209 21.6439 35.4267 22.7303 36.0507 23.9789C36.6747 25.2275 36.9997 26.6041 37 28Z" stroke="black" stroke-linecap="round" stroke-linejoin="round"/>
<rect x="0.5" y="0.5" width="55" height="55" rx="9.5" stroke="black"/>
</svg>
