<svg width="199" height="199" viewBox="0 0 199 199" fill="none" xmlns="http://www.w3.org/2000/svg">
<path d="M67.6423 52.5915C72.6267 52.5915 76.6746 48.5437 76.6746 43.5592C76.6746 38.6081 72.6602 34.5603 67.7092 34.5269C62.7247 34.4934 58.6768 38.5078 58.6434 43.4923C58.6099 48.4768 62.6243 52.558 67.6423 52.5915ZM67.7092 37.8722C70.8537 37.9056 73.3962 40.448 73.3627 43.5926C73.3627 45.098 72.7271 46.5365 71.6566 47.607C70.5861 48.6775 69.1142 49.2796 67.6088 49.2462C64.4642 49.2127 61.9552 46.6034 61.9887 43.4588C62.0556 40.3477 64.598 37.8722 67.7092 37.8722ZM89.5539 52.5915C94.5384 52.558 98.6197 48.5102 98.6197 43.4923C98.5528 38.5078 94.505 34.4934 89.487 34.4934C84.5026 34.5269 80.4547 38.5747 80.4882 43.5926C80.5216 48.5771 84.5695 52.5915 89.5539 52.5915ZM89.5539 37.8387C92.6985 37.8722 95.2744 40.448 95.241 43.5926C95.241 45.098 94.6388 46.5699 93.5683 47.607C92.4978 48.6775 91.0259 49.2796 89.5205 49.2462C86.3759 49.2462 83.8335 46.6703 83.8335 43.5257C83.8335 40.3811 86.4094 37.8387 89.5539 37.8387ZM87.6471 71.5259C87.6806 69.1172 86.7439 66.809 85.0378 65.1029C83.3317 63.3968 81.0234 62.4266 78.5814 62.3932C76.2062 62.3597 73.9314 63.2964 72.2253 65.0025C68.6793 68.5151 68.6124 74.2355 72.1249 77.7816C73.831 79.4877 76.1393 80.4578 78.5814 80.4912C83.5993 80.4912 87.6137 76.4769 87.6471 71.5259ZM72.9278 71.392C72.9613 68.2475 75.5037 65.7385 78.6148 65.7385C80.1537 65.7385 81.5921 66.3406 82.6626 67.4446C84.904 69.6859 84.8705 73.2989 82.6292 75.5068C81.5587 76.5773 80.1202 77.146 78.6148 77.146C75.4702 77.1125 72.9278 74.5701 72.9278 71.392ZM64.3973 54.0969C60.9517 54.0969 58.1416 56.8735 58.1416 60.2857C58.1416 63.6979 60.9182 66.5079 64.3639 66.5414C67.7761 66.5414 70.5861 63.7982 70.6196 60.3526C70.6196 56.9404 67.843 54.1303 64.3973 54.0969ZM64.3639 63.1961C62.7581 63.1961 61.4869 61.8914 61.4869 60.2857C61.4869 58.7134 62.7916 57.4087 64.3639 57.4087C65.9696 57.4087 67.2743 58.7134 67.2408 60.3191C67.2743 61.9248 65.9696 63.2295 64.3639 63.1961ZM92.8992 54.0969C89.487 54.0969 86.677 56.84 86.6435 60.2857C86.6435 63.7313 89.3867 66.5414 92.8323 66.5414C96.2445 66.5414 99.0211 63.7982 99.088 60.3526C99.1215 56.9404 96.3449 54.1303 92.8992 54.0969ZM94.9064 62.3597C93.769 63.4637 91.9626 63.4637 90.8252 62.3263C89.7212 61.1889 89.7212 59.3824 90.8586 58.245C91.3939 57.7098 92.1298 57.4087 92.8992 57.4087C94.4715 57.4087 95.7762 58.7134 95.7762 60.3191C95.7427 61.0885 95.4417 61.8245 94.9064 62.3597Z" fill="#AEAEAE"/>
<path d="M168.303 25.2605C167.767 21.9152 164.589 19.6069 161.244 20.1422C144.15 22.8519 131.571 37.5712 131.571 54.8664V147.397C131.571 160.31 121.101 170.781 108.188 170.781C95.1076 170.781 84.4696 160.143 84.4696 147.063V127.459C84.4696 124.649 85.9415 122.04 88.3501 120.568C91.2271 118.795 93.1673 115.885 93.7026 112.539C96.4457 112.071 98.2522 109.462 97.7838 106.718C97.4159 104.678 95.877 103.072 93.8364 102.671V90.6611C102.735 86.814 110.095 79.7554 114.176 70.5558C114.644 69.4184 115.547 68.5152 116.685 68.0134C122.606 65.4375 126.453 60.4196 126.486 55.2344C126.52 50.0491 122.807 44.9643 116.919 42.3215C115.815 41.8197 114.912 40.883 114.443 39.7456C106.114 19.8746 83.2318 10.5746 63.3607 18.9379C54.1612 22.8184 46.8015 30.0443 42.7871 39.1769C42.3188 40.3143 41.4156 41.2176 40.2782 41.7194C34.3905 44.2952 30.5434 49.3132 30.4765 54.4984C30.4095 59.6836 34.2232 64.7685 40.0775 67.4447C41.1814 67.9465 42.0846 68.8832 42.5195 70.0206C46.6008 79.655 54.2615 87.0147 63.5614 90.8952V102.671C60.8518 103.239 59.0787 105.882 59.6474 108.592C60.0154 110.666 61.6212 112.205 63.6284 112.573C64.1301 115.918 66.1039 118.828 68.9808 120.601C71.3894 122.073 72.8614 124.683 72.8614 127.493L72.8279 147.966C72.8948 167.369 88.6846 183.058 108.087 183.025C127.423 182.958 143.079 167.302 143.146 147.966V55.6023C143.146 43.9607 151.643 34.0586 163.184 32.3191C166.53 31.7838 168.838 28.6058 168.303 25.2605ZM45.6641 68.7159C44.8612 66.8091 43.3893 65.2703 41.5159 64.4005C36.8325 62.2929 33.8552 58.4124 33.8887 54.5318C33.9221 50.6513 36.9663 46.8377 41.6832 44.797C43.59 43.9607 45.0954 42.4553 45.8983 40.5485C53.7932 22.4839 74.8351 14.2879 92.8662 22.2163C101.229 25.8961 107.853 32.6201 111.399 41.0168C112.202 42.9237 113.674 44.4625 115.547 45.3323C120.231 47.4398 123.208 51.3204 123.175 55.2009C123.141 59.0815 120.097 62.9285 115.38 64.9692C113.473 65.8055 111.968 67.3109 111.165 69.2177C105.478 82.2644 92.5986 90.6276 78.3811 90.5272C64.0967 90.4269 51.2507 81.8629 45.6641 68.7159ZM78.3142 93.8725C82.5293 93.8725 86.6105 93.2035 90.4911 91.9323V96.1139H66.9067V92.0995C70.5531 93.2369 74.3668 93.8391 78.3142 93.8725ZM90.4576 99.5261V102.637H66.8733V99.5261H90.4576ZM64.5316 109.294C63.5949 109.294 62.8589 108.558 62.8589 107.622C62.8589 106.685 63.5949 105.949 64.4981 105.949H92.7993C93.736 105.949 94.472 106.685 94.472 107.622C94.472 108.558 93.736 109.294 92.7993 109.294H64.5316ZM162.683 29.0072C149.536 31.0144 139.801 42.3215 139.801 55.6023V147.966C139.734 165.529 125.449 179.713 107.887 179.679C90.3907 179.613 76.2401 165.462 76.1732 147.966L76.2067 127.493C76.2067 123.512 74.1326 119.799 70.7204 117.725C68.8805 116.587 67.5424 114.747 67.074 112.64H90.2569C89.7551 114.781 88.417 116.621 86.5771 117.758C83.1983 119.832 81.1243 123.512 81.0908 127.493V147.096C81.1243 162.05 93.2008 174.16 108.154 174.16C122.907 174.126 134.883 162.184 134.883 147.431V54.8664C134.883 39.2104 146.257 25.8961 161.746 23.454C162.582 23.3202 163.419 23.5544 164.054 24.0896C164.69 24.6249 165.024 25.3943 165.024 26.2306C165.024 27.6022 164.021 28.7731 162.683 29.0072Z" fill="#AEAEAE"/>
<path d="M101.063 77.7148C113.675 65.2703 113.842 44.9978 101.431 32.4195C95.4431 26.331 87.2806 22.9188 78.7501 22.8519C61.1204 22.785 46.7356 36.9691 46.5683 54.6322C46.4345 72.3289 60.7189 86.7806 78.4155 86.9144C86.8792 86.9478 95.0417 83.636 101.063 77.7148ZM49.9471 54.6992C50.014 38.8424 62.9268 26.0969 78.7835 26.1638C94.6068 26.2307 107.386 39.1435 107.319 55.0002C107.252 62.661 104.174 69.9537 98.755 75.3062C93.3356 80.5918 86.0763 83.5691 78.4825 83.5356C62.6592 83.4687 49.8802 70.5559 49.9471 54.6992Z" fill="#AEAEAE"/>
</svg>
