<svg width="198" height="132" viewBox="0 0 198 132" fill="none" xmlns="http://www.w3.org/2000/svg">
<path d="M62.375 63.875H40.7188C39.0172 63.875 37.625 65.2672 37.625 66.9688C37.625 68.6703 39.0172 70.0625 40.7188 70.0625H62.375C64.0766 70.0625 65.4688 68.6703 65.4688 66.9688C65.4688 65.2672 64.0766 63.875 62.375 63.875ZM62.375 76.25H40.7188C39.0172 76.25 37.625 77.6422 37.625 79.3438C37.625 81.0453 39.0172 82.4375 40.7188 82.4375H62.375C64.0766 82.4375 65.4688 81.0453 65.4688 79.3438C65.4688 77.6422 64.0766 76.25 62.375 76.25Z" fill="#AEAEAE"/>
<path d="M161.375 62.5447V17.4688C161.375 8.93 154.445 2 145.906 2H37.625C29.0862 2 22.1562 8.93 22.1562 17.4688V88.625C22.1562 97.1637 29.0862 104.094 37.625 104.094H115.062C120.29 115.046 131.427 122.656 144.359 122.656C162.272 122.656 176.844 108.085 176.844 90.1719C176.844 78.5084 170.625 68.2681 161.375 62.5447ZM28.3438 17.4688C28.3438 12.3641 32.5203 8.1875 37.625 8.1875H145.906C151.011 8.1875 155.188 12.3641 155.188 17.4688V23.6562H28.3438V17.4688ZM28.3438 29.8438H155.188V42.2188H28.3438V29.8438ZM112.834 97.9062H37.625C32.5203 97.9062 28.3438 93.7297 28.3438 88.625V48.4062H155.188V59.5747C151.784 58.3681 148.165 57.6875 144.359 57.6875C126.447 57.6875 111.875 72.2591 111.875 90.1719C111.875 92.8325 112.246 95.4313 112.834 97.9062ZM144.359 116.469C129.85 116.469 118.062 104.682 118.062 90.1719C118.062 75.6622 129.85 63.875 144.359 63.875C158.869 63.875 170.656 75.6622 170.656 90.1719C170.656 104.682 158.869 116.469 144.359 116.469Z" fill="#AEAEAE"/>
<path d="M157.384 77.1472C157.098 76.8604 156.758 76.6328 156.384 76.4776C156.01 76.3223 155.609 76.2424 155.203 76.2424C154.798 76.2424 154.397 76.3223 154.023 76.4776C153.648 76.6328 153.308 76.8604 153.022 77.1472L144.391 85.7788L135.759 77.1472C135.473 76.8608 135.133 76.6335 134.758 76.4785C134.384 76.3235 133.983 76.2437 133.578 76.2437C133.173 76.2437 132.772 76.3235 132.398 76.4785C132.023 76.6335 131.683 76.8608 131.397 77.1472C131.111 77.4336 130.883 77.7736 130.728 78.1479C130.573 78.5221 130.493 78.9232 130.493 79.3283C130.493 79.7333 130.573 80.1344 130.728 80.5087C130.883 80.8829 131.111 81.2229 131.397 81.5094L140.028 90.1409L131.397 98.7725C131.11 99.0587 130.883 99.3987 130.727 99.7729C130.572 100.147 130.492 100.548 130.492 100.954C130.492 101.359 130.572 101.76 130.727 102.134C130.883 102.508 131.11 102.848 131.397 103.135C131.954 103.784 132.727 104.094 133.532 104.094C134.336 104.094 135.109 103.784 135.728 103.197L144.36 94.565L152.991 103.197C153.61 103.784 154.384 104.094 155.188 104.094C155.992 104.094 156.766 103.784 157.384 103.197C157.671 102.91 157.899 102.57 158.054 102.196C158.209 101.822 158.289 101.421 158.289 101.015C158.289 100.61 158.209 100.209 158.054 99.8348C157.899 99.4606 157.671 99.1206 157.384 98.8344L148.753 90.2028L157.384 81.5713C158.591 80.3338 158.591 78.3537 157.384 77.1472Z" fill="#AEAEAE"/>
</svg>
