<svg width="766" height="284" viewBox="0 0 766 284" fill="none" xmlns="http://www.w3.org/2000/svg">
<rect x="538.254" y="128.586" width="16.6767" height="155.356" fill="#228B22"/>
<path d="M612.582 66.1771C614.377 69.2102 614.377 72.9806 612.582 76.0136L582.749 126.409C581.011 129.345 577.853 131.145 574.441 131.145L514.355 131.145C510.943 131.145 507.784 129.345 506.046 126.409L476.214 76.0136C474.418 72.9806 474.418 69.2102 476.214 66.1771L506.046 15.7819C507.784 12.846 510.943 11.0453 514.355 11.0453L574.441 11.0453C577.853 11.0453 581.011 12.846 582.749 15.7819L612.582 66.1771Z" fill="#E70B0B"/>
<path d="M610.45 64.6452C612.164 67.5404 612.164 71.1394 610.45 74.0346L580.618 124.43C578.959 127.232 575.944 128.951 572.687 128.951L512.601 128.951C509.344 128.951 506.329 127.232 504.67 124.43L474.838 74.0346C473.124 71.1394 473.124 67.5404 474.838 64.6452L504.67 14.25C506.329 11.4475 509.344 9.72864 512.601 9.72864L572.687 9.72864C575.944 9.72864 578.959 11.4475 580.618 14.25L610.45 64.6452Z" stroke="#292D32" stroke-width="0.87772"/>
<path d="M590.21 65.0491C591.952 67.9618 591.952 71.596 590.21 74.5087L570.53 107.421C568.866 110.204 565.862 111.907 562.62 111.907L522.664 111.907C519.422 111.907 516.418 110.204 514.754 107.421L495.074 74.5087C493.332 71.596 493.332 67.9618 495.074 65.0491L514.754 32.1369C516.418 29.3542 519.422 27.6506 522.664 27.6506L562.62 27.6506C565.862 27.6506 568.866 29.3542 570.53 32.1369L590.21 65.0491Z" fill="#F5F5F5" stroke="#292D32" stroke-width="0.87772"/>
<rect x="536.937" y="129.025" width="14.0435" height="154.479" stroke="#292D32" stroke-width="0.87772"/>
<line x1="152.526" y1="283.197" x2="306.659" y2="283.197" stroke="#292D32" stroke-width="1.60555"/>
<line x1="7.01807e-08" y1="283.197" x2="138.077" y2="283.197" stroke="#292D32" stroke-width="1.60555"/>
<line x1="521.803" y1="283.197" x2="765.846" y2="283.197" stroke="#292D32" stroke-width="1.60555"/>
<line x1="327.531" y1="283.197" x2="378.909" y2="283.197" stroke="#292D32" stroke-width="1.60555"/>
<line x1="398.176" y1="283.197" x2="499.325" y2="283.197" stroke="#292D32" stroke-width="1.60555"/>
<path d="M511.743 77.8855V73.4468L521.907 58.9086H528.05V73.1252H530.688V77.8855H528.05V82.0668H522.55V77.8855H511.743ZM522.936 64.9555L517.533 73.1252H522.936V64.9555Z" fill="#292D32"/>
<path d="M533.382 70.0052C533.382 66.3171 534.089 63.4116 535.505 61.2887C536.941 59.1659 539.246 58.1045 542.42 58.1045C545.594 58.1045 547.888 59.1659 549.303 61.2887C550.74 63.4116 551.458 66.3171 551.458 70.0052C551.458 73.7363 550.74 76.6632 549.303 78.7861C547.888 80.9089 545.594 81.9703 542.42 81.9703C539.246 81.9703 536.941 80.9089 535.505 78.7861C534.089 76.6632 533.382 73.7363 533.382 70.0052ZM546.055 70.0052C546.055 67.8395 545.819 66.1777 545.347 65.0198C544.875 63.8404 543.9 63.2508 542.42 63.2508C540.94 63.2508 539.965 63.8404 539.493 65.0198C539.021 66.1777 538.785 67.8395 538.785 70.0052C538.785 71.4634 538.871 72.6749 539.043 73.6398C539.214 74.5833 539.557 75.3552 540.072 75.9556C540.608 76.5346 541.391 76.8241 542.42 76.8241C543.449 76.8241 544.221 76.5346 544.736 75.9556C545.272 75.3552 545.626 74.5833 545.797 73.6398C545.969 72.6749 546.055 71.4634 546.055 70.0052Z" fill="#292D32"/>
<path d="M554.493 77.8855V73.4468L564.657 58.9086H570.8V73.1252H573.437V77.8855H570.8V82.0668H565.3V77.8855H554.493ZM565.686 64.9555L560.282 73.1252H565.686V64.9555Z" fill="#292D32"/>
<path d="M667.107 250.088V134.602" stroke="#FEFEFE" stroke-width="1.05966" stroke-miterlimit="10"/>
<path d="M709.601 131.742V276.431H661.56V131.742C661.56 129.138 663.664 127.015 666.28 127.015H704.896C707.497 127.015 709.616 129.123 709.616 131.742H709.601Z" fill="#7777EF"/>
<path d="M685.567 146.765C687.244 146.765 688.603 145.403 688.603 143.724C688.603 142.044 687.244 140.683 685.567 140.683C683.89 140.683 682.53 142.044 682.53 143.724C682.53 145.403 683.89 146.765 685.567 146.765Z" fill="#FEFEFE"/>
<path d="M685.566 185.691C687.758 185.691 689.534 183.912 689.534 181.717C689.534 179.523 687.758 177.743 685.566 177.743C683.374 177.743 681.598 179.523 681.598 181.717C681.598 183.912 683.374 185.691 685.566 185.691Z" fill="#FEFEFE"/>
<path d="M685.568 163.639C689.104 163.639 691.971 160.768 691.971 157.226C691.971 153.685 689.104 150.814 685.568 150.814C682.031 150.814 679.164 153.685 679.164 157.226C679.164 160.768 682.031 163.639 685.568 163.639Z" fill="#FEFEFE" stroke="#292D32" stroke-width="1.42894" stroke-miterlimit="10" stroke-linecap="round"/>
<path opacity="0.2" d="M709.602 131.546V276.416H668.565L678.547 274.971C690.993 273.179 700.222 262.477 700.177 249.892L699.756 127H705.078C707.588 127 709.617 129.032 709.617 131.546H709.602Z" fill="#292D32"/>
<path d="M715.735 179.685H709.557V181.266H715.735V179.685Z" fill="#A0A0A0"/>
<path d="M715.902 183.163C717.388 183.163 718.592 181.956 718.592 180.468C718.592 178.98 717.388 177.774 715.902 177.774C714.416 177.774 713.211 178.98 713.211 180.468C713.211 181.956 714.416 183.163 715.902 183.163Z" fill="#A0A0A0"/>
<path d="M717.675 274.338H653.459V283.31H717.675V274.338Z" fill="#292D32"/>
<path d="M410.281 233.913C396.675 211.642 320.658 208.323 320.658 208.323C320.658 208.323 265.56 169.927 194.698 173.42C118.527 179.567 58.1094 201.008 58.1094 201.008L49.4754 240.233C47.8182 256.849 63.746 259.175 63.746 259.175L88.6351 265.485L90.5174 265.536C89.6172 262.627 89.1364 259.544 89.1364 256.347C89.1364 239.188 103.028 225.266 120.174 225.266C137.319 225.266 151.211 239.178 151.211 256.347C151.211 260.127 150.536 263.754 149.298 267.114L150.71 267.155H322.182C320.77 263.549 319.993 259.625 319.993 255.518C319.993 237.898 334.263 223.607 351.859 223.607C369.454 223.607 383.724 237.898 383.724 255.518C383.724 259.656 382.926 263.6 381.494 267.237C415.826 270.925 410.271 233.913 410.271 233.913H410.281Z" fill="#F1A520"/>
<path d="M153.706 211.97L230.706 216.959" stroke="#FEFEFE" stroke-width="1.7263" stroke-miterlimit="10"/>
<path d="M273.191 219.95L308.709 222.275" stroke="#FEFEFE" stroke-width="1.7263" stroke-miterlimit="10"/>
<path d="M164 262.166H182.25" stroke="#FEFEFE" stroke-width="1.7263" stroke-miterlimit="10"/>
<path d="M200.508 262.832H316.013C316.013 262.832 312.698 241.227 327.296 227.602" stroke="#FEFEFE" stroke-width="1.7263" stroke-miterlimit="10"/>
<path d="M372.442 221.947C372.442 221.947 397.669 220.954 408.288 233.913C408.288 233.913 385.721 237.898 372.442 221.947Z" fill="#FFCE00"/>
<path d="M351.859 281.056C337.793 281.056 326.356 269.593 326.356 255.507C326.356 241.421 337.804 229.968 351.859 229.968C365.915 229.968 377.373 241.432 377.373 255.507C377.373 269.583 365.925 281.056 351.859 281.056Z" fill="white"/>
<path d="M351.859 232.345C364.616 232.345 374.989 242.733 374.989 255.507C374.989 268.282 364.616 278.669 351.859 278.669C339.103 278.669 328.73 268.282 328.73 255.507C328.73 242.733 339.103 232.345 351.859 232.345ZM351.859 227.592C336.463 227.592 323.973 240.09 323.973 255.517C323.973 270.945 336.453 283.443 351.859 283.443C367.265 283.443 379.746 270.945 379.746 255.517C379.746 240.09 367.265 227.592 351.859 227.592Z" fill="#292D32"/>
<path d="M351.859 236.883C362.12 236.883 370.467 245.243 370.467 255.518C370.467 265.793 362.12 274.152 351.859 274.152C341.599 274.152 333.251 265.793 333.251 255.518C333.251 245.243 341.599 236.883 351.859 236.883ZM351.859 235.91C341.046 235.91 332.279 244.689 332.279 255.518C332.279 266.346 341.046 275.125 351.859 275.125C362.672 275.125 371.439 266.346 371.439 255.518C371.439 244.689 362.672 235.91 351.859 235.91Z" fill="#292D32"/>
<path d="M349.932 248.531L345.038 237.536L349.106 236.392L349.932 248.531Z" fill="#292D32"/>
<path d="M355.823 252.404L367.52 246.047L369.291 249.929L355.823 252.404Z" fill="#292D32"/>
<path d="M356.272 260.057L366.06 268.006L363.04 270.988L356.272 260.057Z" fill="#292D32"/>
<path d="M346.889 259.988L337.779 268.706L335.198 265.337L346.889 259.988Z" fill="#292D32"/>
<path d="M120.184 281.159C106.517 281.159 95.3975 270.024 95.3975 256.348C95.3975 242.671 106.517 231.526 120.184 231.526C133.851 231.526 144.961 242.661 144.961 256.348C144.961 270.034 133.841 281.159 120.184 281.159Z" fill="white"/>
<path d="M120.185 233.902C132.542 233.902 142.588 243.973 142.588 256.337C142.588 268.702 132.532 278.772 120.185 278.772C107.837 278.772 97.7813 268.702 97.7813 256.337C97.7813 243.973 107.837 233.902 120.185 233.902ZM120.185 229.149C105.188 229.149 93.0244 241.319 93.0244 256.348C93.0244 271.376 105.177 283.546 120.185 283.546C135.192 283.546 147.345 271.376 147.345 256.348C147.345 241.319 135.192 229.149 120.185 229.149Z" fill="#292D32"/>
<path d="M120.183 238.195C130.177 238.195 138.31 246.339 138.31 256.347C138.31 266.356 130.177 274.5 120.183 274.5C110.188 274.5 102.055 266.356 102.055 256.347C102.055 246.339 110.188 238.195 120.183 238.195ZM120.183 237.242C109.646 237.242 101.114 245.796 101.114 256.347C101.114 266.899 109.656 275.443 120.183 275.443C130.709 275.443 139.261 266.889 139.261 256.347C139.261 245.806 130.719 237.242 120.183 237.242Z" fill="#292D32"/>
<path d="M120.188 250.497C123.407 250.497 126.026 253.12 126.026 256.344C126.026 259.567 123.407 262.19 120.188 262.19C116.969 262.19 114.35 259.567 114.35 256.344C114.35 253.12 116.969 250.497 120.188 250.497ZM120.188 250.191C116.795 250.191 114.047 252.946 114.047 256.344C114.047 259.742 116.798 262.494 120.188 262.494C123.578 262.494 126.333 259.739 126.333 256.344C126.333 252.949 123.582 250.191 120.188 250.191Z" fill="#292D32"/>
<path d="M118.493 249.9L113.599 238.904L117.666 237.76L118.493 249.9Z" fill="#292D32"/>
<path d="M124.385 252.404L136.082 246.047L137.853 249.929L124.385 252.404Z" fill="#292D32"/>
<path d="M124.832 260.057L134.62 268.006L131.601 270.988L124.832 260.057Z" fill="#292D32"/>
<path d="M115.453 259.988L106.343 268.706L103.763 265.337L115.453 259.988Z" fill="#292D32"/>
<path d="M117.196 192.024C117.196 192.024 174.954 176.074 209.142 180.386C243.33 184.71 272.874 194.349 289.139 209.306C289.139 209.306 236.036 211.969 176.621 205.649C117.207 199.338 117.207 192.024 117.207 192.024H117.196Z" fill="#292D32"/>
<path d="M221.744 175.746C221.744 175.746 250.95 182.722 283.154 197.351C315.357 211.98 318.672 207.319 318.672 207.319C318.672 207.319 270.213 181.063 221.754 175.746H221.744Z" fill="#292D32"/>
<path opacity="0.2" d="M158.852 253.192L299.256 263.662L196.692 247.712C196.692 247.712 179.27 246.216 180.764 252.199L158.862 253.192H158.852Z" fill="#292D32"/>
<path opacity="0.2" d="M49.4756 240.223L78.1907 247.2C78.1907 247.2 52.299 242.713 50.3042 250.191L49.4756 240.223Z" fill="#292D32"/>
<path opacity="0.2" d="M58.1094 200.998C58.1094 200.998 62.7537 204.317 85.157 203.825C107.56 203.323 120.01 201.828 120.01 201.828C120.01 201.828 75.2034 204.317 71.715 196.839L58.1094 200.998Z" fill="#292D32"/>
<path opacity="0.2" d="M158.352 214.295L320.658 224.263C320.658 224.263 325.64 220.769 328.126 219.776L322.653 228.749L158.352 214.295Z" fill="#292D32"/>
<path opacity="0.2" d="M389.37 242.723C389.37 242.723 397.83 250.201 408.285 248.705C408.285 248.705 388.869 256.686 389.37 242.723Z" fill="#292D32"/>
<path d="M68.9546 209.357C73.3432 209.573 77.8341 210.966 80.9746 214.039C81.9055 214.951 82.7239 216.037 83.0104 217.307C83.2968 218.577 82.9592 220.042 81.926 220.841C81.0258 221.538 79.8084 221.599 78.6729 221.63C70.2538 221.845 61.8142 221.763 53.4053 221.374C53.5894 221.374 54.4896 216.907 54.5919 216.467C54.9704 214.91 55.2773 213.322 55.7274 211.796C56.0855 210.587 57.1289 210.597 58.2337 210.392C59.9012 210.075 61.5789 209.788 63.277 209.593C65.1593 209.378 67.0621 209.265 68.9648 209.357H68.9546Z" fill="#AA0000"/>
<path d="M96.615 217.614C100.095 217.614 102.917 214.789 102.917 211.304C102.917 207.818 100.095 204.993 96.615 204.993C93.1348 204.993 90.3135 207.818 90.3135 211.304C90.3135 214.789 93.1348 217.614 96.615 217.614Z" fill="#FDFFFE"/>
</svg>
