<svg width="198" height="199" viewBox="0 0 198 199" fill="none" xmlns="http://www.w3.org/2000/svg">
<path d="M71.1562 192.312C72.8649 192.312 74.25 190.927 74.25 189.219C74.25 187.51 72.8649 186.125 71.1562 186.125C69.4476 186.125 68.0625 187.51 68.0625 189.219C68.0625 190.927 69.4476 192.312 71.1562 192.312Z" fill="#AEAEAE"/>
<path d="M163.598 135.852H153.818C153.084 134.237 151.9 132.867 150.408 131.907C148.917 130.947 147.18 130.436 145.406 130.436C143.632 130.436 141.896 130.947 140.404 131.907C138.912 132.867 137.729 134.237 136.994 135.852H131.116C125.065 135.852 119.261 133.448 114.983 129.169C110.704 124.89 108.3 119.086 108.3 113.035C108.3 106.984 110.704 101.18 114.983 96.9015C119.261 92.6226 125.065 90.2188 131.116 90.2188H136.125C136.946 90.2188 137.732 89.8928 138.313 89.3126C138.893 88.7324 139.219 87.9455 139.219 87.125C139.219 86.3045 138.893 85.5176 138.313 84.9374C137.732 84.3572 136.946 84.0312 136.125 84.0312H131.113C127.304 84.0312 123.533 84.7815 120.014 86.239C116.495 87.6966 113.298 89.833 110.604 92.5263C107.911 95.2196 105.775 98.4169 104.317 101.936C102.859 105.455 102.109 109.226 102.109 113.035C102.109 116.844 102.859 120.616 104.317 124.134C105.775 127.653 107.911 130.851 110.604 133.544C113.298 136.237 116.495 138.374 120.014 139.831C123.533 141.289 127.304 142.039 131.113 142.039H136.456C136.962 144.029 138.116 145.794 139.737 147.054C141.358 148.315 143.353 148.999 145.406 148.999C147.46 148.999 149.454 148.315 151.075 147.054C152.696 145.794 153.851 144.029 154.356 142.039H163.598C169.444 142.039 175.05 144.361 179.184 148.495C183.318 152.629 185.64 158.236 185.64 164.082C185.64 169.928 183.318 175.535 179.184 179.669C175.05 183.803 169.444 186.125 163.598 186.125H83.5312C82.7107 186.125 81.9238 186.451 81.3436 187.031C80.7634 187.611 80.4375 188.398 80.4375 189.219C80.4375 190.039 80.7634 190.826 81.3436 191.406C81.9238 191.987 82.7107 192.312 83.5312 192.312H163.598C171.085 192.312 178.265 189.338 183.559 184.044C188.854 178.75 191.828 171.569 191.828 164.082C191.828 156.595 188.854 149.414 183.559 144.12C178.265 138.826 171.085 135.852 163.598 135.852ZM145.406 142.812C144.794 142.812 144.196 142.631 143.687 142.291C143.179 141.951 142.782 141.468 142.548 140.903C142.314 140.337 142.253 139.715 142.372 139.115C142.491 138.515 142.786 137.964 143.219 137.531C143.651 137.098 144.203 136.804 144.803 136.684C145.403 136.565 146.025 136.626 146.59 136.861C147.155 137.095 147.639 137.491 147.979 138C148.319 138.509 148.5 139.107 148.5 139.719C148.5 140.539 148.174 141.326 147.594 141.906C147.014 142.487 146.227 142.812 145.406 142.812Z" fill="#AEAEAE"/>
<path d="M95.9063 132.006C95.9072 123.945 93.736 116.032 89.6209 109.101C85.5057 102.169 79.5988 96.4741 72.5212 92.6151C65.4437 88.7562 57.4571 86.8757 49.4013 87.1714C41.3455 87.4671 33.5183 89.9281 26.7427 94.2956C19.9671 98.663 14.4936 104.776 10.8978 111.99C7.30195 119.205 5.71666 127.255 6.30864 135.295C6.90062 143.334 9.64799 151.066 14.2618 157.676C18.8757 164.286 25.1855 169.531 32.5277 172.859L43.4641 188.362C44.3293 189.563 45.4678 190.542 46.7857 191.217C48.1036 191.892 49.5631 192.244 51.0438 192.244C52.5245 192.244 53.984 191.892 55.3019 191.217C56.6198 190.542 57.7583 189.563 58.6235 188.362L69.5599 172.859C77.415 169.304 84.0784 163.56 88.7514 156.314C93.4243 149.068 95.9085 140.628 95.9063 132.006ZM66.3115 167.532C65.7866 167.758 65.3347 168.125 65.0059 168.593L53.559 184.795C53.2628 185.183 52.8809 185.498 52.443 185.715C52.0052 185.932 51.5231 186.045 51.0345 186.045C50.5459 186.045 50.0639 185.932 49.626 185.715C49.1881 185.498 48.8062 185.183 48.51 184.795L37.0631 168.593C36.7343 168.125 36.2824 167.758 35.7576 167.532C27.577 164.017 20.8596 157.787 16.7396 149.894C12.6196 142.001 11.3494 132.929 13.1434 124.208C14.9374 115.487 19.6858 107.652 26.5867 102.026C33.4877 96.4001 42.1186 93.3279 51.0221 93.3279C59.9257 93.3279 68.5566 96.4001 75.4576 102.026C82.3585 107.652 87.1069 115.487 88.9009 124.208C90.6949 132.929 89.4246 142.001 85.3047 149.894C81.1847 157.787 74.4673 164.017 66.2867 167.532H66.3115Z" fill="#AEAEAE"/>
<path d="M51.0469 104.141C45.5399 104.141 40.1566 105.774 35.5777 108.833C30.9988 111.893 27.43 116.241 25.3226 121.329C23.2152 126.417 22.6638 132.015 23.7381 137.416C24.8125 142.818 27.4644 147.779 31.3584 151.673C35.2524 155.567 40.2137 158.219 45.6148 159.293C51.016 160.367 56.6144 159.816 61.7022 157.709C66.79 155.601 71.1386 152.032 74.1981 147.454C77.2576 142.875 78.8906 137.491 78.8906 131.984C78.8824 124.602 75.9463 117.525 70.7263 112.305C65.5064 107.085 58.429 104.149 51.0469 104.141ZM51.0469 153.641C46.7637 153.641 42.5767 152.37 39.0153 149.991C35.454 147.611 32.6782 144.229 31.0391 140.272C29.4 136.315 28.9711 131.96 29.8068 127.759C30.6424 123.559 32.7049 119.7 35.7336 116.671C38.7623 113.642 42.6211 111.58 46.822 110.744C51.0229 109.909 55.3772 110.338 59.3344 111.977C63.2915 113.616 66.6738 116.391 69.0534 119.953C71.433 123.514 72.7031 127.701 72.7031 131.984C72.6958 137.726 70.4118 143.23 66.352 147.29C62.2923 151.349 56.7882 153.633 51.0469 153.641ZM154.688 6.6875C145.995 6.70389 137.585 9.7696 130.921 15.3504C124.257 20.9312 119.763 28.6733 118.221 37.2275C116.679 45.7817 118.188 54.6057 122.484 62.1618C126.78 69.7179 133.592 75.5271 141.731 78.577L147.207 86.3423C148.061 87.528 149.185 88.4937 150.485 89.1597C151.786 89.8258 153.226 90.1731 154.688 90.1731C156.149 90.1731 157.589 89.8258 158.89 89.1597C160.19 88.4937 161.314 87.528 162.168 86.3423L167.644 78.577C175.784 75.5271 182.595 69.7179 186.891 62.1618C191.187 54.6057 192.696 45.7817 191.154 37.2275C189.612 28.6733 185.118 20.9312 178.454 15.3504C171.79 9.7696 163.38 6.70389 154.688 6.6875ZM164.68 73.067C164.063 73.2779 163.528 73.6785 163.152 74.2117L157.11 82.7938C156.825 83.1653 156.458 83.4663 156.038 83.6734C155.618 83.8805 155.156 83.9883 154.688 83.9883C154.219 83.9883 153.757 83.8805 153.337 83.6734C152.917 83.4663 152.55 83.1653 152.265 82.7938L146.223 74.2272C145.847 73.694 145.312 73.2933 144.695 73.0825C137.76 70.7158 131.891 65.9648 128.132 59.6755C124.373 53.3862 122.968 45.9668 124.167 38.7385C125.367 31.5103 129.093 24.9423 134.682 20.2043C140.271 15.4663 147.36 12.8658 154.688 12.8658C162.015 12.8658 169.104 15.4663 174.693 20.2043C180.282 24.9423 184.008 31.5103 185.208 38.7385C186.407 45.9668 185.002 53.3862 181.243 59.6755C177.484 65.9648 171.615 70.7158 164.68 73.0825V73.067Z" fill="#AEAEAE"/>
<path d="M154.688 22.1562C150.404 22.1563 146.217 23.4264 142.656 25.806C139.095 28.1856 136.319 31.5678 134.68 35.525C133.041 39.4822 132.612 43.8365 133.447 48.0374C134.283 52.2383 136.346 56.0971 139.374 59.1258C142.403 62.1545 146.262 64.217 150.463 65.0526C154.663 65.8882 159.018 65.4594 162.975 63.8203C166.932 62.1812 170.314 59.4054 172.694 55.8441C175.074 52.2827 176.344 48.0957 176.344 43.8125C176.336 38.0712 174.052 32.5671 169.993 28.5074C165.933 24.4476 160.429 22.1636 154.688 22.1562ZM154.688 59.2812C151.628 59.2812 148.637 58.374 146.094 56.6743C143.55 54.9746 141.567 52.5587 140.396 49.7321C139.225 46.9056 138.919 43.7953 139.516 40.7947C140.113 37.7941 141.586 35.0378 143.749 32.8744C145.913 30.7111 148.669 29.2378 151.67 28.641C154.67 28.0441 157.781 28.3504 160.607 29.5212C163.434 30.692 165.85 32.6747 167.549 35.2185C169.249 37.7623 170.156 40.7531 170.156 43.8125C170.151 47.9136 168.52 51.8452 165.62 54.7451C162.72 57.645 158.789 59.2763 154.688 59.2812Z" fill="#AEAEAE"/>
</svg>
