<svg width="159" height="159" viewBox="0 0 159 159" fill="none" xmlns="http://www.w3.org/2000/svg">
<g clip-path="url(#clip0_643_22261)">
<path d="M41.2149 156.592H24.9401C22.189 156.592 19.959 154.362 19.959 151.611V138.282H46.1964V151.611C46.1964 154.362 43.966 156.592 41.2149 156.592Z" stroke="#AEAEAE" stroke-width="6" stroke-miterlimit="10" stroke-linecap="round" stroke-linejoin="round"/>
<path d="M135.399 156.592H119.125C116.374 156.592 114.144 154.362 114.144 151.611V138.282H140.381V151.611C140.381 154.362 138.151 156.592 135.399 156.592Z" stroke="#AEAEAE" stroke-width="6" stroke-miterlimit="10" stroke-linecap="round" stroke-linejoin="round"/>
<path d="M145.634 123.862C147.734 121.356 149.146 118.246 149.551 114.795C150.305 108.39 150.305 101.919 149.551 95.5139C148.545 86.9822 141.405 80.5064 132.82 80.2307C97.7295 79.0993 62.6115 79.0993 27.5209 80.2307C18.9368 80.5064 11.7958 86.9822 10.7902 95.5139C10.0322 101.919 10.0322 108.39 10.7902 114.795C11.1958 118.246 12.6069 121.356 14.7071 123.862" stroke="#AEAEAE" stroke-width="6" stroke-miterlimit="10" stroke-linecap="round" stroke-linejoin="round"/>
<path d="M42.9606 105.154C42.9606 99.2208 38.1509 94.4108 32.217 94.4108C26.2837 94.4108 21.4736 99.2208 21.4736 105.154C21.4736 111.088 26.2837 115.898 32.217 115.898C38.1509 115.898 42.9606 111.088 42.9606 105.154Z" stroke="#AEAEAE" stroke-width="6" stroke-miterlimit="10" stroke-linecap="round" stroke-linejoin="round"/>
<path d="M138.866 105.154C138.866 99.2208 134.056 94.4108 128.122 94.4108C122.189 94.4108 117.379 99.2208 117.379 105.154C117.379 111.088 122.189 115.898 128.122 115.898C134.056 115.898 138.866 111.088 138.866 105.154Z" stroke="#AEAEAE" stroke-width="6" stroke-miterlimit="10" stroke-linecap="round" stroke-linejoin="round"/>
<path d="M116.498 40.9925C119.38 41.595 121.573 42.154 123.016 42.5515C123.66 42.7295 124.261 43.0359 124.783 43.4522C125.305 43.8685 125.737 44.386 126.054 44.9737C133.938 59.6067 136.252 73.0316 136.888 80.8418" stroke="#AEAEAE" stroke-width="6" stroke-miterlimit="10" stroke-linecap="round" stroke-linejoin="round"/>
<path d="M23.4551 80.8418C24.0917 73.0316 26.3987 59.6036 34.29 44.9737C34.9298 43.7843 36.0229 42.9117 37.3272 42.5515C42.5971 41.095 57.8915 37.4958 80.1701 37.4958C90.9833 37.4958 100.153 38.3436 107.33 39.3839" stroke="#AEAEAE" stroke-width="6" stroke-miterlimit="10" stroke-linecap="round" stroke-linejoin="round"/>
<path d="M33.3682 80.0521L33.5387 78.1786C34.4184 71.5165 36.6 61.8495 41.9159 51.3875C49.1784 49.5751 62.9936 47.2271 80.1706 47.2271C97.3313 47.2271 111.142 49.5711 118.425 51.3875C123.741 61.8495 125.918 71.5245 126.802 78.1786L127.033 80.0562" stroke="#AEAEAE" stroke-width="6" stroke-miterlimit="10" stroke-linecap="round" stroke-linejoin="round"/>
<path d="M63.804 138.28H144.679C148.679 138.28 151.921 135.038 151.921 131.038C151.921 129.039 151.111 127.228 149.8 125.918C149.129 125.244 148.33 124.71 147.452 124.346C146.573 123.982 145.631 123.795 144.679 123.797H15.6601C11.6602 123.797 8.41504 127.039 8.41504 131.038C8.41504 133.038 9.22556 134.849 10.5392 136.159C11.2109 136.833 12.0091 137.367 12.888 137.731C13.7668 138.095 14.7089 138.282 15.6601 138.28H54.556" stroke="#AEAEAE" stroke-width="6" stroke-miterlimit="10" stroke-linecap="round" stroke-linejoin="round"/>
<path d="M85.5053 87.9114L77.8125 101.622L85.5053 101.564L77.8125 115.275" stroke="#AEAEAE" stroke-width="6" stroke-miterlimit="10" stroke-linecap="round" stroke-linejoin="round"/>
<path d="M25.6799 67.3147C13.9192 67.3147 4.38574 57.7809 4.38574 46.0206V33.5407C4.38574 21.7803 13.9192 12.2465 25.6799 12.2465H123.988" stroke="#AEAEAE" stroke-width="6" stroke-miterlimit="10" stroke-linecap="round" stroke-linejoin="round"/>
<path d="M143.669 2.40631H129.762C126.573 2.40631 123.988 4.99129 123.988 8.18029V16.3129C123.988 19.5019 126.573 22.0872 129.762 22.0872H143.669V2.40631Z" stroke="#AEAEAE" stroke-width="6" stroke-miterlimit="10" stroke-linecap="round" stroke-linejoin="round"/>
<path d="M154.613 6.90764H143.668V17.5854H154.613" stroke="#AEAEAE" stroke-width="6" stroke-miterlimit="10" stroke-linecap="round" stroke-linejoin="round"/>
</g>
<defs>
<clipPath id="clip0_643_22261">
<rect width="159" height="159" fill="white"/>
</clipPath>
</defs>
</svg>
