<svg width="30" height="8" viewBox="0 0 30 8" fill="none" xmlns="http://www.w3.org/2000/svg">
<circle cx="3" cy="4" r="2.5" stroke="#808080"/>
<path d="M26.6667 1.8C26.9193 1.8 27.1615 1.90536 27.3401 2.09289C27.5187 2.28043 27.619 2.53478 27.619 2.8C27.619 2.93132 27.5944 3.06136 27.5466 3.18268C27.4987 3.30401 27.4285 3.41425 27.3401 3.50711C27.2517 3.59997 27.1467 3.67362 27.0311 3.72388C26.9156 3.77413 26.7917 3.8 26.6667 3.8C26.4141 3.8 26.1718 3.69464 25.9932 3.50711C25.8146 3.31957 25.7143 3.06522 25.7143 2.8C25.7143 2.53478 25.8146 2.28043 25.9932 2.09289C26.1718 1.90536 26.4141 1.8 26.6667 1.8ZM26.6667 0C27.3739 0 28.0522 0.294999 28.5523 0.820101C29.0524 1.3452 29.3333 2.05739 29.3333 2.8C29.3333 4.9 26.6667 8 26.6667 8C26.6667 8 24 4.9 24 2.8C24 2.05739 24.281 1.3452 24.781 0.820101C25.2811 0.294999 25.9594 0 26.6667 0ZM26.6667 0.8C26.1615 0.8 25.677 1.01071 25.3198 1.38579C24.9626 1.76086 24.7619 2.26957 24.7619 2.8C24.7619 3.2 24.7619 4 26.6667 6.684C28.5714 4 28.5714 3.2 28.5714 2.8C28.5714 2.26957 28.3707 1.76086 28.0135 1.38579C27.6563 1.01071 27.1718 0.8 26.6667 0.8Z" fill="#228B22"/>
<circle cx="9" cy="4" r="1" fill="#808080"/>
<circle cx="13" cy="4" r="1" fill="#808080"/>
<circle cx="17" cy="4" r="1" fill="#808080"/>
<circle cx="21" cy="4" r="1" fill="#808080"/>
</svg>
