<svg width="15" height="14" viewBox="0 0 15 14" fill="none" xmlns="http://www.w3.org/2000/svg">
<path d="M7.19674 0.933324C7.2922 0.639553 7.7078 0.639554 7.80326 0.933325L9.22452 5.30754C9.26721 5.43891 9.38964 5.52786 9.52778 5.52786H14.1271C14.436 5.52786 14.5644 5.92313 14.3145 6.10469L10.5936 8.8081C10.4818 8.8893 10.4351 9.03322 10.4778 9.1646L11.899 13.5388C11.9945 13.8326 11.6582 14.0769 11.4083 13.8953L7.68742 11.1919C7.57567 11.1107 7.42433 11.1107 7.31258 11.1919L3.59165 13.8953C3.34175 14.0769 3.00552 13.8326 3.10097 13.5388L4.52224 9.1646C4.56493 9.03322 4.51816 8.8893 4.40641 8.8081L0.68548 6.10469C0.435584 5.92313 0.564015 5.52786 0.872904 5.52786H5.47222C5.61036 5.52786 5.73279 5.43891 5.77548 5.30754L7.19674 0.933324Z" fill="#FFB800"/>
</svg>
